<?xml version="1.0" encoding="UTF-8" standalone="no"?>
<!DOCTYPE svg PUBLIC "-//W3C//DTD SVG 1.0//EN" "http://www.w3.org/TR/2001/REC-SVG-20010904/DTD/svg10.dtd">
<svg xmlns="http://www.w3.org/2000/svg" version="1.0" viewBox="0.00 0.00 500.00 500.00">
<path fill="#05bffc" d="
  M 411.50 75.77
  L 84.44 75.90
  A 0.25 0.25 0.0 0 1 84.24 75.50
  Q 85.51 73.76 87.39 72.55
  Q 90.37 70.63 93.12 68.69
  C 99.31 64.33 109.12 61.39 116.63 61.39
  Q 248.43 61.44 376.82 61.39
  C 386.70 61.38 397.83 64.23 405.76 70.34
  Q 408.81 72.70 411.77 74.94
  Q 412.86 75.77 411.50 75.77
  Z"
/>
<path fill="#05bffc" d="
  M 376.50 233.93
  Q 375.18 234.08 374.99 233.55
  Q 374.86 233.19 374.65 233.51
  Q 374.43 233.84 374.62 234.20
  Q 374.73 234.40 374.71 234.18
  Q 374.67 233.72 374.35 233.38
  Q 374.04 233.05 373.61 233.01
  Q 373.02 232.95 372.52 232.67
  Q 371.97 232.36 371.37 232.26
  Q 360.63 230.56 350.75 226.88
  Q 346.55 225.31 342.08 222.76
  Q 341.59 222.48 341.29 222.01
  Q 341.10 221.70 340.79 221.50
  Q 340.36 221.22 340.85 221.36
  Q 341.07 221.42 341.26 221.11
  Q 341.35 220.97 341.36 220.80
  Q 341.38 220.17 340.69 219.54
  Q 342.36 217.39 342.70 215.98
  Q 344.76 207.57 347.65 200.00
  C 349.89 194.13 351.15 188.48 352.01 182.45
  A 2.23 2.21 75.7 0 1 352.87 180.99
  C 355.69 178.87 358.37 176.69 359.95 173.41
  C 363.97 165.06 362.02 157.25 354.93 151.66
  Q 354.29 151.15 354.94 150.66
  C 358.65 147.85 362.29 145.18 365.73 142.01
  C 370.01 138.08 374.88 135.02 379.34 131.39
  Q 387.65 124.63 395.71 117.88
  Q 398.46 115.58 401.72 113.38
  C 404.99 111.18 407.62 108.34 410.71 105.95
  Q 425.62 94.43 440.27 83.63
  Q 441.43 82.78 442.26 81.61
  Q 442.51 81.25 442.93 81.07
  L 447.07 79.30
  Q 448.27 78.79 447.83 80.01
  C 447.31 81.49 446.85 83.04 446.18 84.45
  Q 440.75 95.82 435.73 107.03
  Q 433.51 111.98 430.79 116.93
  C 428.38 121.30 427.04 126.15 424.89 130.59
  Q 419.86 141.02 415.02 151.23
  C 412.45 156.65 409.30 162.15 407.11 167.82
  Q 405.66 171.57 403.85 175.28
  Q 395.15 193.18 386.30 212.48
  C 385.70 213.80 385.39 215.17 384.74 216.48
  Q 380.45 225.19 376.50 233.93
  Z"
/>
<path fill="#02b4fd" d="
  M 210.75 119.61
  A 0.48 0.47 27.9 0 0 210.11 119.80
  Q 205.20 128.75 206.44 136.93
  Q 206.54 137.56 205.92 137.41
  Q 195.76 135.03 187.02 132.46
  Q 157.72 123.84 127.16 115.52
  Q 123.23 114.45 119.53 113.42
  Q 88.36 104.74 52.50 94.44
  Q 50.16 93.77 47.53 93.21
  Q 41.91 92.02 38.02 87.35
  Q 37.58 86.81 38.27 86.81
  Q 135.27 86.88 241.25 86.70
  Q 318.30 86.57 392.00 85.61
  C 408.50 85.40 425.13 84.67 441.49 80.71
  Q 441.66 80.67 441.71 80.84
  L 441.79 81.10
  Q 441.86 81.34 441.63 81.45
  C 436.21 83.90 430.44 85.33 424.84 87.42
  C 414.56 91.26 403.56 93.94 393.07 97.45
  Q 374.91 103.53 355.90 110.17
  C 346.49 113.46 335.98 116.05 326.54 119.81
  A 0.44 0.44 0.0 0 1 325.94 119.39
  Q 326.12 112.53 320.35 108.88
  C 316.25 106.29 309.89 107.22 305.39 108.90
  Q 304.92 109.08 304.55 108.73
  C 303.46 107.69 302.92 106.20 301.92 105.06
  C 296.21 98.53 285.72 95.92 277.33 96.95
  Q 259.64 99.12 251.95 115.36
  Q 251.55 116.21 250.68 115.84
  C 240.73 111.64 227.32 114.21 221.99 124.75
  Q 221.64 125.44 220.95 125.08
  L 210.75 119.61
  Z"
/>
<path fill="#05bffc" d="
  M 290.59 123.14
  L 301.90 124.61
  Q 302.64 127.33 302.00 129.58
  Q 301.37 131.77 301.45 132.52
  C 301.69 134.78 303.75 136.97 305.38 138.47
  A 1.29 1.29 0.0 0 1 304.79 140.67
  L 303.21 141.03
  Q 302.51 141.19 302.56 141.90
  L 302.73 144.63
  Q 302.78 145.32 302.41 145.91
  Q 301.92 146.68 302.17 147.61
  Q 302.35 148.25 301.96 148.78
  Q 301.66 149.20 301.19 149.45
  A 1.10 1.07 82.1 0 0 300.63 150.21
  Q 300.38 151.52 300.55 152.86
  Q 300.68 153.89 300.23 154.62
  Q 299.64 155.57 298.21 155.17
  Q 289.76 152.52 284.99 147.26
  C 282.38 144.39 282.62 140.09 279.45 137.37
  C 276.77 135.06 277.30 131.26 279.64 128.93
  Q 280.67 127.92 279.29 128.35
  Q 273.51 130.16 267.79 133.91
  A 0.73 0.73 0.0 0 1 266.72 133.59
  C 264.25 127.94 263.56 120.60 266.12 114.85
  Q 266.88 113.13 269.05 111.10
  Q 270.78 109.48 272.43 107.63
  Q 287.22 102.22 298.23 114.24
  Q 298.83 114.89 298.06 115.35
  L 284.99 123.05
  Q 280.82 125.51 285.43 124.05
  Q 288.35 123.12 290.59 123.14
  Z"
/>
<path fill="#015487" d="
  M 272.43 107.63
  Q 270.78 109.48 269.05 111.10
  Q 266.88 113.13 266.12 114.85
  C 263.56 120.60 264.25 127.94 266.72 133.59
  A 0.73 0.73 0.0 0 0 267.79 133.91
  Q 273.51 130.16 279.29 128.35
  Q 280.67 127.92 279.64 128.93
  C 277.30 131.26 276.77 135.06 279.45 137.37
  C 282.62 140.09 282.38 144.39 284.99 147.26
  Q 289.76 152.52 298.21 155.17
  L 288.20 154.76
  Q 287.72 154.74 287.41 155.12
  C 283.03 160.68 280.97 166.83 277.30 172.75
  Q 276.92 173.36 276.46 172.81
  Q 270.20 165.36 264.74 155.96
  Q 264.51 155.55 264.77 155.17
  Q 266.67 152.41 267.84 149.01
  Q 268.05 148.40 267.48 148.10
  C 264.44 146.53 261.73 143.83 260.43 140.62
  Q 259.48 138.25 258.43 135.90
  A 0.93 0.92 70.7 0 0 257.36 135.38
  L 254.27 136.13
  Q 253.74 136.26 253.25 136.02
  Q 252.53 135.66 251.74 135.67
  Q 251.22 135.68 250.90 136.09
  C 246.71 141.57 242.22 146.16 235.03 146.84
  C 229.53 147.36 221.57 146.70 217.55 142.43
  C 214.95 139.67 213.50 137.20 213.43 133.35
  Q 213.40 132.28 213.82 133.27
  C 215.21 136.51 220.89 137.54 223.80 137.21
  Q 225.62 137.01 223.83 136.62
  Q 218.91 135.53 216.32 131.07
  Q 215.86 130.26 216.62 130.79
  C 219.16 132.54 224.64 130.93 227.08 129.60
  C 232.93 126.41 239.56 123.90 245.71 127.18
  Q 246.94 127.83 248.17 128.47
  Q 249.24 129.02 248.34 128.23
  Q 243.74 124.20 241.45 123.82
  Q 239.55 123.51 237.82 123.23
  Q 237.18 123.13 237.78 122.89
  C 242.97 120.84 248.24 123.64 250.93 128.20
  Q 251.18 128.61 251.49 128.25
  Q 253.35 126.13 255.84 128.32
  Q 257.05 129.38 257.15 127.77
  Q 257.40 123.88 259.18 119.30
  Q 260.63 115.55 263.93 112.63
  Q 267.59 109.39 272.43 107.63
  Z"
/>
<path fill="#028be4" d="
  M 160.03 137.50
  C 181.36 143.74 202.58 149.68 224.14 156.27
  Q 225.50 156.68 224.09 156.91
  C 220.83 157.44 217.36 159.70 214.09 161.05
  Q 203.77 165.34 195.17 169.65
  C 193.43 170.52 191.48 170.37 189.58 170.18
  Q 158.08 167.12 129.18 164.09
  Q 128.06 163.98 127.30 163.15
  C 125.11 160.79 123.05 158.57 120.57 156.44
  Q 117.29 153.61 113.78 149.41
  Q 109.09 143.80 103.73 138.59
  Q 97.44 132.47 93.50 128.02
  Q 87.90 121.69 82.45 116.39
  Q 80.75 114.73 83.02 115.41
  Q 105.82 122.14 127.45 128.33
  C 134.69 130.40 142.24 133.03 149.88 134.83
  Q 154.91 136.01 160.03 137.50
  Z"
/>
<path fill="#0173da" d="
  M 301.90 124.61
  L 290.59 123.14
  Q 304.01 121.83 315.61 116.26
  Q 316.98 115.60 316.81 117.12
  Q 316.50 119.71 314.22 121.63
  Q 312.81 122.82 311.07 123.43
  Q 306.60 124.99 301.90 124.61
  Z"
/>
<path fill="#0173da" d="
  M 386.71 116.08
  Q 387.55 115.64 386.90 116.33
  Q 384.97 118.35 382.81 119.89
  Q 375.14 125.34 367.11 131.20
  Q 365.55 132.33 364.11 133.66
  C 362.56 135.09 360.60 135.81 358.89 137.06
  Q 352.94 141.41 346.72 145.57
  A 1.15 1.15 0.0 0 1 345.81 145.73
  Q 339.93 144.35 334.44 148.18
  C 330.77 150.74 326.83 153.84 325.18 157.98
  C 324.70 159.17 322.49 161.06 321.42 161.79
  Q 311.88 168.24 301.88 176.01
  A 0.82 0.82 0.0 0 1 300.70 175.82
  L 294.14 166.13
  Q 293.71 165.50 294.42 165.23
  C 300.86 162.78 306.61 158.41 312.96 155.77
  Q 316.40 154.35 320.24 151.89
  C 328.37 146.71 337.40 143.10 345.65 138.05
  C 348.68 136.19 351.97 135.18 355.00 133.41
  Q 369.77 124.78 386.71 116.08
  Z"
/>
<path fill="#029ef5" d="
  M 79.50 137.38
  L 79.60 162.99
  A 0.32 0.32 0.0 0 1 79.40 163.28
  L 64.32 169.56
  A 0.32 0.32 0.0 0 1 63.88 169.26
  L 63.75 119.66
  A 0.32 0.32 0.0 0 1 64.32 119.45
  L 79.42 137.17
  A 0.32 0.32 0.0 0 1 79.50 137.38
  Z"
/>
<path fill="#015487" d="
  M 317.27 204.37
  A 0.70 0.69 41.4 0 0 318.31 204.31
  C 325.77 194.74 331.35 185.34 335.43 173.51
  A 1.72 1.70 42.5 0 0 335.37 172.25
  Q 332.64 166.38 334.30 159.14
  C 334.64 157.64 336.24 156.73 337.67 156.43
  Q 340.07 155.92 341.90 154.47
  Q 342.41 154.06 342.95 154.42
  Q 345.98 156.39 349.11 159.03
  C 350.47 160.18 350.82 161.69 352.41 162.59
  A 1.36 1.36 0.0 0 1 353.09 163.50
  C 353.79 166.57 351.13 170.70 349.06 172.48
  Q 347.29 174.01 345.28 175.29
  A 3.11 3.09 -10.4 0 0 343.91 177.26
  Q 340.14 195.22 333.16 213.34
  Q 330.96 219.05 324.98 221.81
  Q 322.71 222.86 320.60 221.72
  C 316.95 219.74 313.03 218.21 309.59 215.94
  Q 300.39 209.87 290.49 203.25
  Q 290.04 202.94 290.38 202.52
  Q 291.70 200.84 293.14 199.49
  Q 297.45 195.45 301.72 191.06
  Q 302.12 190.65 302.51 191.06
  Q 305.72 194.36 309.32 197.10
  C 312.23 199.31 314.71 201.80 317.27 204.37
  Z"
/>
<path fill="#029ef5" d="
  M 220.05 235.94
  Q 220.18 235.34 220.16 235.10
  A 1.00 0.99 89.0 0 1 221.21 234.01
  Q 227.72 234.44 232.47 234.78
  Q 234.38 234.92 232.67 234.05
  Q 224.02 229.65 214.24 226.52
  A 0.36 0.36 0.0 0 1 214.12 225.90
  C 218.13 222.65 222.25 219.95 227.06 217.68
  C 235.42 213.73 244.18 208.90 253.14 206.51
  Q 254.12 206.25 253.84 205.28
  L 247.32 182.21
  Q 246.92 180.81 245.58 181.36
  Q 244.09 181.98 243.28 181.48
  L 229.95 184.97
  Q 229.62 185.05 229.41 184.79
  Q 228.79 184.01 228.61 183.16
  Q 227.88 179.80 227.21 176.49
  Q 227.87 173.93 228.23 171.35
  C 228.36 170.42 228.94 169.34 229.53 168.78
  Q 233.84 164.66 238.51 159.80
  Q 241.26 157.04 244.75 156.96
  Q 252.05 156.80 259.12 156.10
  Q 259.69 156.05 259.94 156.56
  Q 264.58 166.13 271.29 174.78
  C 273.07 177.07 275.45 178.11 277.67 179.79
  Q 278.33 180.29 278.78 179.60
  Q 279.63 178.31 280.48 176.98
  C 282.02 174.58 282.52 170.69 282.92 167.97
  Q 283.15 166.43 283.99 167.74
  Q 290.09 177.35 299.03 185.66
  A 0.69 0.68 42.9 0 1 299.07 186.63
  L 286.84 199.86
  Q 286.03 200.73 285.98 199.54
  Q 285.65 191.57 284.43 184.87
  Q 284.21 183.67 284.01 184.88
  Q 282.73 192.69 282.10 200.56
  Q 281.82 204.19 281.12 208.32
  Q 280.45 212.26 277.22 213.74
  Q 272.55 215.86 268.46 218.47
  Q 265.19 220.55 262.13 224.23
  Q 253.89 234.11 248.54 243.81
  Q 248.29 244.27 247.77 244.17
  C 243.32 243.29 238.87 241.06 234.36 239.81
  C 229.60 238.48 224.96 236.75 220.05 235.94
  Z"
/>
<path fill="#0173da" d="
  M 238.51 159.80
  Q 233.84 164.66 229.53 168.78
  C 228.94 169.34 228.36 170.42 228.23 171.35
  Q 227.87 173.93 227.21 176.49
  Q 226.08 170.88 227.00 165.31
  Q 227.09 164.80 227.55 164.60
  L 238.51 159.80
  Z"
/>
<path fill="#029ef5" d="
  M 424.40 336.45
  L 424.13 343.09
  Q 424.10 343.65 423.54 343.64
  Q 421.32 343.59 418.66 344.16
  Q 418.23 344.26 417.90 344.55
  Q 417.47 344.95 417.02 344.61
  Q 414.31 345.18 410.34 347.37
  A 0.47 0.47 0.0 0 1 409.65 346.96
  Q 409.64 345.78 409.45 344.52
  Q 409.26 343.30 408.02 343.71
  Q 408.06 273.60 408.27 203.50
  Q 408.27 202.28 408.79 201.47
  Q 412.16 196.13 414.64 190.19
  Q 419.49 178.60 423.94 166.86
  Q 424.47 165.45 424.47 166.96
  L 424.40 336.45
  Z"
/>
<path fill="#024068" d="
  M 156.58 198.68
  C 157.64 197.73 159.02 197.44 160.17 196.65
  Q 168.60 190.84 177.98 184.63
  C 183.23 181.15 189.13 181.14 194.87 178.79
  Q 207.53 173.63 221.48 167.40
  Q 222.23 167.06 222.10 167.88
  C 221.62 171.07 221.70 174.70 222.55 177.88
  Q 223.41 181.08 224.38 184.80
  A 0.74 0.73 -15.5 0 1 223.86 185.70
  Q 213.19 188.68 202.67 189.39
  A 1.83 1.83 0.0 0 0 201.76 189.72
  Q 193.44 195.70 189.32 197.05
  Q 177.30 200.99 164.11 204.67
  Q 160.52 205.67 157.40 208.57
  C 154.85 210.93 151.94 213.79 150.95 217.01
  A 1.53 1.52 81.9 0 1 150.34 217.83
  Q 148.44 219.09 147.05 221.38
  Q 146.65 222.04 146.39 221.31
  L 145.46 218.76
  A 1.73 1.72 -44.8 0 1 145.47 217.58
  Q 145.74 216.86 145.66 216.12
  Q 145.60 215.59 145.08 215.43
  L 136.62 212.88
  A 2.08 2.08 0.0 0 1 135.17 211.21
  C 134.91 209.59 134.72 207.74 135.69 206.30
  Q 138.39 202.34 140.86 198.26
  A 1.34 1.32 -74.1 0 1 141.99 197.62
  C 145.99 197.57 151.87 197.27 155.71 198.84
  Q 156.19 199.03 156.58 198.68
  Z"
/>
<path fill="#024068" d="
  M 93.79 220.45
  Q 93.98 220.96 94.48 221.21
  Q 106.34 227.24 113.35 231.52
  Q 119.35 235.18 125.68 238.35
  Q 131.76 241.39 133.98 242.67
  Q 138.17 245.09 142.02 247.42
  Q 143.28 248.19 141.85 248.56
  Q 122.10 253.65 102.41 258.66
  C 95.91 260.31 89.18 261.28 82.75 263.23
  C 79.72 264.16 76.35 263.80 75.07 260.61
  Q 73.35 256.33 72.54 251.36
  Q 71.83 246.96 70.47 241.74
  Q 64.21 217.63 58.01 193.44
  A 4.47 4.46 -14.1 0 1 61.27 188.00
  Q 76.30 184.30 91.99 180.13
  Q 98.72 178.34 106.82 176.82
  Q 114.12 175.44 121.17 173.04
  A 0.47 0.46 6.1 0 1 121.72 173.72
  L 93.89 219.39
  A 1.19 1.16 -40.2 0 0 93.79 220.45
  Z"
/>
<path fill="#024068" d="
  M 134.79 198.72
  C 127.19 204.79 127.85 216.49 137.84 219.48
  Q 139.25 219.90 140.66 220.31
  A 1.10 1.09 -89.6 0 1 141.42 221.09
  L 147.16 242.52
  Q 147.39 243.38 146.64 242.90
  C 144.83 241.74 142.88 240.44 140.87 239.71
  C 137.50 238.50 134.89 236.31 131.85 234.60
  Q 127.12 231.92 122.22 229.20
  C 115.56 225.49 109.42 221.44 102.51 218.13
  Q 101.98 217.88 102.30 217.39
  Q 107.61 209.26 110.88 203.40
  Q 117.98 190.67 128.23 173.82
  Q 129.12 172.36 129.55 174.02
  Q 132.16 184.38 134.80 195.35
  Q 135.09 196.57 135.19 197.80
  Q 135.23 198.37 134.79 198.72
  Z"
/>
<path fill="#024068" d="
  M 220.05 235.94
  L 215.48 235.21
  Q 214.17 235.00 215.36 235.58
  C 218.59 237.16 221.78 238.74 225.31 239.70
  Q 228.14 240.47 230.80 241.84
  Q 231.47 242.18 230.76 242.43
  Q 219.38 246.44 212.58 256.42
  Q 212.49 256.56 212.62 256.47
  Q 215.00 254.85 217.03 253.21
  C 222.24 248.98 231.10 245.54 237.80 246.16
  Q 237.15 246.26 237.08 246.30
  Q 235.93 246.97 237.21 247.32
  Q 243.69 249.09 250.59 250.74
  C 259.96 252.99 268.82 256.49 277.84 259.51
  Q 283.98 261.56 289.72 264.19
  Q 296.93 267.48 301.09 270.11
  Q 306.75 273.70 309.38 277.36
  Q 312.06 281.11 313.08 287.82
  Q 311.25 294.63 306.23 296.96
  Q 299.86 299.93 290.00 301.93
  Q 281.67 303.62 278.12 304.55
  Q 272.26 306.08 266.34 307.63
  C 253.35 311.01 240.81 315.33 229.95 323.69
  Q 228.92 324.47 230.06 325.09
  L 233.28 326.86
  A 0.49 0.48 38.1 0 1 233.38 327.65
  Q 226.91 333.47 223.78 342.00
  C 221.91 347.11 224.24 350.88 225.01 355.75
  C 225.77 360.51 220.79 364.81 216.63 361.52
  C 211.22 357.25 206.99 347.86 205.64 341.83
  Q 205.08 339.33 206.38 337.35
  Q 206.67 336.91 206.53 336.41
  Q 205.91 334.28 206.06 332.00
  A 1.69 1.68 24.4 0 0 205.57 330.70
  L 205.28 330.41
  Q 204.89 330.02 204.86 329.48
  Q 204.81 328.67 204.21 328.13
  Q 203.80 327.76 203.63 327.23
  Q 202.14 322.59 201.42 317.38
  C 201.18 315.63 201.45 310.29 204.08 310.27
  Q 204.77 310.26 205.40 310.08
  Q 210.83 308.58 217.12 307.04
  Q 218.17 306.78 218.98 307.33
  Q 219.44 307.63 219.97 307.51
  L 221.41 307.17
  Q 222.04 307.02 222.04 307.67
  L 222.06 309.47
  A 0.40 0.39 -14.8 0 0 222.65 309.81
  C 227.10 307.27 231.33 304.16 235.90 301.87
  C 238.25 300.69 240.14 298.76 242.42 297.35
  Q 252.30 291.24 262.59 285.95
  Q 266.03 284.19 269.61 283.02
  Q 270.90 282.60 269.55 282.69
  C 260.11 283.36 251.05 282.28 241.97 281.57
  Q 235.01 281.03 228.41 279.77
  Q 213.75 276.98 200.23 272.65
  A 0.14 0.13 -18.9 0 0 200.11 272.89
  Q 210.87 280.19 223.32 282.74
  A 0.49 0.49 0.0 0 1 223.61 283.53
  Q 217.18 291.57 209.88 298.77
  Q 208.95 299.69 203.64 304.21
  Q 200.48 306.90 197.77 310.05
  Q 197.00 307.39 196.07 306.66
  C 194.26 305.23 193.09 303.42 191.29 302.08
  Q 188.79 300.25 186.81 297.95
  Q 183.55 294.16 180.40 290.44
  Q 180.02 289.98 179.48 289.74
  Q 178.55 289.33 178.42 288.32
  Q 178.35 287.77 177.80 287.72
  Q 177.06 287.65 176.84 287.13
  L 187.57 269.89
  A 1.63 1.62 -33.2 0 0 187.80 268.81
  C 187.42 265.96 186.91 263.16 186.99 260.27
  Q 187.27 250.49 192.03 242.36
  C 193.62 239.62 195.79 237.35 197.87 234.98
  Q 198.24 234.56 198.21 234.01
  Q 198.15 232.76 198.97 231.96
  C 204.50 226.56 209.91 221.80 215.82 217.24
  Q 221.61 212.78 224.74 206.25
  Q 227.13 201.28 231.30 191.52
  Q 231.88 190.15 233.37 188.39
  Q 236.04 185.25 243.28 181.48
  Q 244.09 181.98 245.58 181.36
  Q 246.92 180.81 247.32 182.21
  L 253.84 205.28
  Q 254.12 206.25 253.14 206.51
  C 244.18 208.90 235.42 213.73 227.06 217.68
  C 222.25 219.95 218.13 222.65 214.12 225.90
  A 0.36 0.36 0.0 0 0 214.24 226.52
  Q 224.02 229.65 232.67 234.05
  Q 234.38 234.92 232.47 234.78
  Q 227.72 234.44 221.21 234.01
  A 1.00 0.99 89.0 0 0 220.16 235.10
  Q 220.18 235.34 220.05 235.94
  Z"
/>
<path fill="#0173da" d="
  M 203.82 208.86
  C 207.72 207.38 211.63 205.80 215.58 204.56
  Q 217.34 204.01 215.93 205.20
  Q 209.65 210.49 203.08 216.37
  C 201.51 217.78 199.82 218.77 198.36 220.24
  Q 192.80 225.88 189.32 230.30
  Q 185.84 234.70 182.69 240.81
  Q 178.18 249.56 178.13 257.63
  Q 178.12 258.38 177.62 257.82
  Q 167.40 246.45 160.60 239.92
  Q 158.72 238.11 156.96 235.97
  C 155.19 233.82 153.44 231.82 151.59 229.76
  A 0.53 0.53 0.0 0 1 151.76 228.92
  Q 164.83 223.02 177.28 218.97
  Q 187.63 215.61 195.37 212.28
  Q 199.56 210.48 203.82 208.86
  Z"
/>
<path fill="#029ef5" d="
  M 340.69 219.54
  Q 341.38 220.17 341.36 220.80
  Q 341.35 220.97 341.26 221.11
  Q 341.07 221.42 340.85 221.36
  Q 340.36 221.22 340.79 221.50
  Q 341.10 221.70 341.29 222.01
  Q 341.59 222.48 342.08 222.76
  Q 346.55 225.31 350.75 226.88
  Q 360.63 230.56 371.37 232.26
  Q 371.97 232.36 372.52 232.67
  Q 373.02 232.95 373.61 233.01
  Q 374.04 233.05 374.35 233.38
  Q 374.67 233.72 374.71 234.18
  Q 374.73 234.40 374.62 234.20
  Q 374.43 233.84 374.65 233.51
  Q 374.86 233.19 374.99 233.55
  Q 375.18 234.08 376.50 233.93
  L 347.12 296.46
  Q 342.51 295.57 330.74 292.13
  Q 329.19 291.68 328.24 291.25
  Q 327.38 290.86 325.94 290.23
  Q 323.61 289.21 322.28 286.23
  Q 322.79 272.90 311.98 264.30
  Q 308.43 261.48 305.53 260.23
  L 325.37 231.09
  Q 335.19 228.63 340.69 219.54
  Z"
/>
<path fill="#028be4" d="
  M 318.45 230.74
  Q 318.50 232.74 317.76 233.73
  Q 317.84 233.23 317.82 232.75
  Q 317.77 231.73 317.59 232.73
  C 317.30 234.37 315.88 234.70 314.97 235.87
  Q 313.78 237.40 312.59 239.16
  Q 312.30 239.58 311.81 239.77
  Q 311.13 240.02 310.61 240.59
  Q 308.09 243.32 305.42 245.81
  Q 305.02 246.19 304.85 246.72
  Q 304.58 247.57 304.00 248.25
  Q 301.11 251.68 298.22 255.10
  Q 298.17 255.16 298.22 255.23
  Q 298.25 255.26 298.26 255.32
  Q 298.29 255.51 298.09 255.56
  Q 297.84 255.63 297.46 255.56
  C 287.30 250.48 280.61 247.67 274.17 245.32
  Q 273.71 245.15 274.07 244.82
  L 300.37 220.64
  A 0.63 0.62 -41.6 0 1 301.27 220.69
  Q 308.13 228.58 318.45 230.74
  Z"
/>
<path fill="#0173da" d="
  M 318.45 230.74
  L 325.37 231.09
  L 305.53 260.23
  Q 303.13 259.37 301.27 257.50
  Q 302.55 256.63 302.55 254.70
  Q 302.55 254.16 302.95 253.80
  Q 304.59 252.32 305.85 250.55
  Q 306.22 250.04 306.71 249.58
  Q 307.29 249.04 307.48 248.28
  Q 307.69 247.47 308.19 246.79
  Q 309.51 244.96 311.05 243.42
  Q 311.42 243.06 311.52 242.55
  Q 311.65 241.91 312.29 241.70
  Q 312.69 241.57 312.86 241.18
  L 313.02 240.77
  L 316.94 236.08
  Q 317.26 235.70 317.38 235.22
  L 317.76 233.73
  Q 318.50 232.74 318.45 230.74
  Z"
/>
<path fill="#0173da" d="
  M 317.76 233.73
  L 313.02 240.77
  Q 309.94 242.87 307.52 245.76
  Q 307.07 246.30 306.88 246.96
  C 306.62 247.93 305.57 248.58 304.99 249.55
  Q 304.20 250.88 303.24 252.13
  Q 302.39 253.23 301.83 254.60
  Q 301.28 255.91 300.80 257.31
  L 297.46 255.56
  Q 297.84 255.63 298.09 255.56
  Q 298.29 255.51 298.26 255.32
  Q 298.25 255.26 298.22 255.23
  Q 298.17 255.16 298.22 255.10
  Q 301.11 251.68 304.00 248.25
  Q 304.58 247.57 304.85 246.72
  Q 305.02 246.19 305.42 245.81
  Q 308.09 243.32 310.61 240.59
  Q 311.13 240.02 311.81 239.77
  Q 312.30 239.58 312.59 239.16
  Q 313.78 237.40 314.97 235.87
  C 315.88 234.70 317.30 234.37 317.59 232.73
  Q 317.77 231.73 317.82 232.75
  Q 317.84 233.23 317.76 233.73
  Z"
/>
<path fill="#028be4" d="
  M 317.76 233.73
  L 317.38 235.22
  Q 317.26 235.70 316.94 236.08
  L 313.02 240.77
  L 317.76 233.73
  Z"
/>
<path fill="#028be4" d="
  M 313.02 240.77
  L 312.86 241.18
  Q 312.69 241.57 312.29 241.70
  Q 311.65 241.91 311.52 242.55
  Q 311.42 243.06 311.05 243.42
  Q 309.51 244.96 308.19 246.79
  Q 307.69 247.47 307.48 248.28
  Q 307.29 249.04 306.71 249.58
  Q 306.22 250.04 305.85 250.55
  Q 304.59 252.32 302.95 253.80
  Q 302.55 254.16 302.55 254.70
  Q 302.55 256.63 301.27 257.50
  Q 300.79 257.47 300.80 257.31
  Q 301.28 255.91 301.83 254.60
  Q 302.39 253.23 303.24 252.13
  Q 304.20 250.88 304.99 249.55
  C 305.57 248.58 306.62 247.93 306.88 246.96
  Q 307.07 246.30 307.52 245.76
  Q 309.94 242.87 313.02 240.77
  Z"
/>
<path fill="#028be4" d="
  M 237.80 246.16
  Q 238.96 246.21 240.12 246.42
  Q 261.57 250.38 280.48 258.36
  Q 283.06 259.45 285.10 260.13
  C 290.38 261.88 295.32 264.47 300.11 267.18
  C 302.16 268.34 303.91 270.04 305.81 271.47
  C 310.96 275.33 314.71 281.12 313.08 287.82
  Q 312.06 281.11 309.38 277.36
  Q 306.75 273.70 301.09 270.11
  Q 296.93 267.48 289.72 264.19
  Q 283.98 261.56 277.84 259.51
  C 268.82 256.49 259.96 252.99 250.59 250.74
  Q 243.69 249.09 237.21 247.32
  Q 235.93 246.97 237.08 246.30
  Q 237.15 246.26 237.80 246.16
  Z"
/>
<path fill="#0173da" d="
  M 64.25 276.97
  L 79.04 284.22
  Q 79.53 284.46 79.53 285.00
  L 79.51 334.49
  A 1.57 1.57 0.0 0 1 78.86 335.76
  Q 74.22 339.19 69.97 342.67
  Q 66.71 345.34 64.18 341.89
  Q 63.89 341.50 63.89 341.01
  L 63.81 277.24
  Q 63.81 276.75 64.25 276.97
  Z"
/>
<path fill="#0173da" d="
  M 322.28 286.23
  Q 323.61 289.21 325.94 290.23
  Q 327.38 290.86 328.24 291.25
  Q 329.19 291.68 330.74 292.13
  Q 342.51 295.57 347.12 296.46
  Q 342.57 307.02 337.49 317.81
  Q 336.23 320.49 334.53 321.87
  C 329.89 325.66 325.82 329.79 321.62 334.19
  Q 316.33 339.74 310.81 344.23
  C 306.23 347.95 302.37 352.61 298.12 356.62
  C 295.07 359.50 292.09 362.37 288.82 364.94
  C 284.90 368.01 281.61 371.88 277.98 375.28
  C 273.70 379.29 269.40 383.53 264.74 387.19
  C 262.13 389.24 260.13 391.84 257.71 394.07
  Q 252.99 398.42 247.90 403.20
  Q 246.90 404.14 247.07 402.78
  L 253.20 352.78
  A 2.01 2.00 72.4 0 1 253.84 351.54
  C 256.17 349.38 258.63 347.24 260.81 344.82
  C 262.10 343.38 263.76 342.29 265.19 340.94
  Q 272.39 334.17 279.51 327.36
  Q 280.94 325.98 282.22 324.41
  C 283.54 322.79 285.51 321.82 287.05 320.33
  Q 292.03 315.54 297.01 310.77
  C 297.65 310.15 298.75 309.60 299.77 309.39
  C 311.42 307.00 321.54 298.81 322.28 286.23
  Z"
/>
<path fill="#002c49" d="
  M 176.84 287.13
  Q 177.06 287.65 177.80 287.72
  Q 178.35 287.77 178.42 288.32
  Q 178.55 289.33 179.48 289.74
  Q 180.02 289.98 180.40 290.44
  Q 183.55 294.16 186.81 297.95
  Q 188.79 300.25 191.29 302.08
  C 193.09 303.42 194.26 305.23 196.07 306.66
  Q 197.00 307.39 197.77 310.05
  Q 190.15 318.16 185.90 321.65
  Q 180.78 325.86 178.03 328.91
  C 174.02 333.36 169.70 338.68 163.20 338.92
  C 161.27 338.99 159.43 340.05 157.89 341.16
  Q 155.82 342.65 153.83 344.02
  Q 143.90 350.84 134.11 359.50
  Q 130.23 362.93 125.91 366.17
  Q 121.81 369.26 117.15 374.61
  C 115.00 377.08 113.52 379.83 111.53 382.32
  Q 111.03 382.95 111.75 383.30
  L 113.28 384.06
  A 1.14 1.14 0.0 0 1 113.55 385.92
  C 108.74 390.41 102.60 399.84 103.62 406.65
  Q 104.12 409.95 105.06 413.62
  Q 106.00 417.24 103.74 419.78
  C 100.96 422.91 96.13 420.33 94.55 417.69
  Q 90.70 411.29 88.15 405.86
  C 87.17 403.80 85.25 395.93 87.41 393.90
  Q 87.77 393.56 87.63 393.10
  Q 86.89 390.58 87.27 388.01
  Q 87.35 387.51 86.89 387.30
  Q 85.64 386.72 85.22 385.31
  Q 83.21 378.42 82.91 373.06
  C 82.78 370.78 84.10 367.34 86.96 367.78
  Q 87.51 367.87 88.06 367.73
  L 98.42 364.97
  Q 99.18 364.76 99.88 365.12
  Q 101.18 365.78 102.49 365.25
  Q 103.24 364.94 103.26 365.75
  L 103.28 366.33
  Q 103.31 367.57 104.34 366.87
  Q 106.36 365.47 108.04 363.86
  C 112.03 360.03 114.65 354.23 117.71 350.16
  Q 123.29 342.72 128.85 335.58
  Q 134.64 328.17 142.39 324.56
  C 146.40 322.71 150.66 321.92 154.77 319.94
  A 4.98 4.97 -84.5 0 0 156.60 318.43
  Q 158.88 315.41 161.08 312.11
  Q 169.29 299.81 176.84 287.13
  Z"
/>
<path fill="#0173da" d="
  M 237.21 338.05
  Q 239.52 333.02 240.62 326.80
  Q 240.77 325.98 241.55 325.72
  L 245.92 324.25
  Q 246.78 323.96 246.64 324.86
  Q 244.10 340.43 241.50 357.22
  C 239.87 367.70 239.05 378.18 237.41 388.35
  A 0.37 0.37 0.0 0 1 236.77 388.55
  L 220.20 371.27
  Q 219.70 370.76 220.41 370.70
  Q 226.15 370.26 230.31 365.91
  C 235.63 360.35 233.67 352.37 232.47 345.47
  Q 232.18 343.78 232.82 342.03
  Q 233.04 341.44 233.64 341.22
  Q 236.20 340.28 237.21 338.05
  Z"
/>
<path fill="#0173da" d="
  M 424.40 336.45
  Q 424.61 378.98 424.33 392.00
  Q 424.22 397.28 421.42 404.20
  Q 415.47 418.83 404.43 426.91
  Q 402.78 428.11 395.63 431.39
  Q 387.36 435.19 376.84 435.19
  Q 267.35 435.22 137.63 435.18
  Q 136.04 435.18 134.36 434.62
  C 131.06 433.51 127.91 429.68 129.78 426.20
  Q 132.78 420.59 139.43 420.59
  Q 260.86 420.50 376.58 420.54
  Q 382.15 420.54 385.80 419.31
  C 393.52 416.72 398.46 412.33 403.35 405.94
  C 407.01 401.15 407.79 393.26 407.85 387.25
  Q 408.06 365.48 408.02 343.71
  Q 409.26 343.30 409.45 344.52
  Q 409.64 345.78 409.65 346.96
  A 0.47 0.47 0.0 0 0 410.34 347.37
  Q 414.31 345.18 417.02 344.61
  Q 417.47 344.95 417.90 344.55
  Q 418.23 344.26 418.66 344.16
  Q 421.32 343.59 423.54 343.64
  Q 424.10 343.65 424.13 343.09
  L 424.40 336.45
  Z"
/>
</svg>
