<?xml version="1.0" encoding="UTF-8" standalone="no"?>
<!DOCTYPE svg PUBLIC "-//W3C//DTD SVG 1.0//EN" "http://www.w3.org/TR/2001/REC-SVG-20010904/DTD/svg10.dtd">
<svg xmlns="http://www.w3.org/2000/svg" version="1.0" viewBox="0.00 0.00 500.00 500.00">
<clipPath id="clipping-path-1">
<path d="
  M 216.24 44.97
  C 210.25 47.28 205.67 50.12 200.56 52.61
  C 198.43 53.64 196.92 54.98 195.13 56.34
  Q 188.95 60.45 183.76 65.25
  Q 169.82 78.15 159.95 94.70
  Q 158.21 97.61 157.01 100.77
  Q 154.03 108.64 151.39 116.00
  Q 149.24 121.97 147.94 136.73
  C 147.43 142.48 150.61 146.89 156.46 146.83
  Q 172.25 146.69 187.85 146.77
  C 192.89 146.79 198.04 147.69 199.93 141.28
  Q 200.60 139.01 201.19 133.49
  C 202.52 120.96 211.00 109.13 220.77 99.76
  Q 226.11 95.44 229.47 93.94
  Q 234.67 91.62 239.89 89.37
  Q 245.95 86.77 256.78 85.90
  Q 273.80 84.49 286.97 90.55
  Q 289.86 91.88 292.62 93.09
  C 298.74 95.78 302.84 99.41 308.06 104.71
  Q 325.37 122.26 322.73 146.57
  C 322.42 149.53 322.29 152.42 321.13 155.21
  Q 316.44 166.44 306.48 175.58
  Q 303.50 178.32 300.86 181.18
  Q 298.03 184.24 294.98 186.99
  Q 294.08 187.81 295.30 187.79
  Q 298.25 187.74 300.98 188.73
  Q 310.01 192.01 317.23 198.62
  Q 320.26 201.39 322.04 205.19
  Q 326.03 213.75 326.54 222.92
  A 0.51 0.51 0.0 0 0 327.42 223.23
  C 330.15 220.24 333.37 218.09 336.15 215.17
  Q 343.99 206.96 351.43 198.35
  Q 357.59 191.74 362.45 183.94
  C 363.74 181.87 364.65 179.34 365.66 177.42
  Q 371.40 166.50 373.70 154.17
  Q 377.40 133.13 371.71 115.50
  Q 367.24 101.60 363.55 94.41
  Q 359.79 87.08 350.99 76.24
  Q 349.14 73.97 346.78 71.67
  Q 344.55 69.49 342.44 67.28
  Q 334.89 59.35 323.74 52.73
  Q 299.19 38.16 271.10 35.85
  Q 255.70 34.81 243.75 37.03
  Q 232.49 39.12 223.25 42.02
  Q 220.30 42.95 216.24 44.97
  Z
  M 258.13 130.27
  Q 251.03 131.66 245.17 136.46
  Q 242.08 138.99 240.58 142.10
  Q 234.71 154.35 239.35 166.62
  Q 240.50 169.65 242.37 172.16
  Q 244.62 175.19 247.23 176.92
  Q 259.85 185.32 274.19 179.80
  Q 280.47 177.39 284.52 171.43
  Q 288.54 165.51 289.25 157.96
  Q 289.67 146.15 282.02 137.63
  Q 280.67 136.13 278.58 134.83
  C 272.06 130.76 265.98 128.94 258.13 130.27
  Z
  M 225.49 283.41
  L 225.43 281.30
  Q 225.41 279.98 225.01 279.04
  Q 224.53 276.82 223.47 275.49
  Q 219.96 271.06 215.30 266.20
  Q 215.08 265.96 206.40 257.63
  Q 201.30 252.73 196.73 247.31
  Q 196.50 246.73 195.94 246.36
  C 199.08 242.27 204.09 238.37 206.61 235.92
  Q 212.40 230.28 218.09 224.82
  Q 218.69 224.25 218.83 225.06
  Q 221.40 240.14 235.32 245.60
  A 0.74 0.74 0.0 0 1 235.80 246.29
  L 235.98 280.98
  Q 235.99 281.72 236.59 281.28
  Q 237.85 280.35 239.12 279.42
  C 241.86 277.42 245.88 276.61 249.32 276.65
  Q 262.52 276.80 275.66 276.67
  C 281.35 276.61 285.63 277.65 290.08 281.19
  Q 291.53 282.33 291.53 280.49
  L 291.45 253.48
  Q 291.45 252.88 291.01 252.47
  C 287.83 249.49 284.19 246.68 281.26 243.40
  Q 279.63 241.57 277.64 240.09
  C 272.94 236.59 268.86 232.04 264.51 228.11
  C 256.29 220.70 253.17 211.20 257.73 200.32
  C 258.64 198.16 260.41 196.29 261.63 194.22
  Q 261.83 193.87 261.44 193.87
  Q 243.39 193.70 226.16 193.79
  Q 220.49 193.82 213.32 196.49
  Q 208.42 198.33 205.45 201.10
  Q 201.95 204.39 198.89 207.87
  Q 196.10 211.06 193.49 213.53
  C 188.68 218.08 183.43 222.28 178.87 227.31
  C 175.76 230.72 172.36 233.75 169.53 237.48
  C 162.70 246.47 169.87 255.15 176.66 260.88
  C 177.40 261.50 177.77 262.31 178.35 262.90
  Q 190.56 275.34 202.64 287.90
  C 206.75 292.17 210.83 295.36 216.44 293.94
  Q 223.94 292.03 225.49 283.41
  Z
  M 273.89 197.46
  L 273.49 197.55
  Q 272.78 197.67 271.78 198.25
  Q 269.92 199.17 269.05 200.30
  Q 263.74 207.17 266.88 214.08
  Q 268.09 216.73 271.42 219.59
  Q 277.07 224.43 283.00 230.39
  Q 288.00 235.40 293.63 239.81
  C 298.60 243.69 302.84 248.52 307.41 252.75
  C 312.41 257.38 319.01 264.63 326.25 263.64
  C 331.40 262.93 336.29 260.16 337.39 254.57
  Q 337.63 253.60 337.48 252.95
  Q 337.72 252.21 337.57 251.52
  C 337.16 244.60 331.90 241.46 326.88 237.56
  C 321.10 231.99 316.37 226.74 309.43 221.07
  Q 304.59 217.12 299.70 212.28
  Q 294.41 207.06 287.37 200.63
  Q 284.01 197.56 279.66 197.16
  Q 277.27 196.63 273.89 197.46
  Z
  M 314.72 335.28
  L 314.74 273.93
  Q 314.74 273.40 314.27 273.16
  L 311.48 271.74
  Q 311.41 271.34 311.02 271.53
  Q 310.50 270.81 309.62 270.50
  Q 309.69 270.39 309.13 270.20
  L 303.48 265.55
  Q 302.96 265.13 302.97 265.79
  Q 303.00 280.32 302.92 295.77
  Q 302.86 306.25 304.13 315.52
  Q 305.56 325.91 307.04 336.79
  Q 307.12 337.41 307.74 337.39
  L 314.24 337.21
  Q 314.71 337.19 314.81 336.74
  Q 315.01 335.79 314.72 335.28
  Z
  M 229.94 331.70
  C 228.23 343.59 226.89 355.53 225.20 367.41
  C 223.71 377.94 222.60 388.60 221.05 399.16
  Q 219.52 409.55 218.55 420.33
  Q 217.87 427.85 216.70 435.33
  Q 215.47 443.23 215.00 449.96
  Q 214.47 457.52 221.21 463.91
  Q 221.55 464.23 221.76 464.64
  Q 222.19 465.45 223.07 465.63
  Q 231.05 467.23 236.80 463.14
  Q 240.35 460.62 242.37 456.35
  Q 243.58 453.81 244.18 448.80
  Q 245.15 440.78 246.32 431.53
  Q 249.90 403.25 253.58 374.99
  L 260.43 320.26
  Q 260.49 319.75 261.01 319.74
  L 266.28 319.70
  Q 266.89 319.70 266.96 320.31
  L 270.51 349.84
  Q 273.28 372.42 278.97 413.50
  Q 281.25 429.97 282.81 450.96
  Q 283.24 456.70 288.82 462.16
  C 289.86 463.18 291.34 463.63 292.46 464.57
  C 294.86 466.61 299.39 466.14 302.19 465.43
  Q 302.74 465.29 302.98 464.77
  Q 303.20 464.30 303.68 464.10
  Q 309.97 461.49 312.16 455.00
  Q 313.02 452.47 312.11 445.53
  Q 307.89 413.23 304.21 386.25
  Q 304.16 385.85 303.98 385.51
  C 302.79 375.63 302.00 365.47 300.62 355.90
  Q 297.16 332.07 294.34 308.00
  Q 293.48 300.63 291.67 297.25
  Q 288.45 291.24 281.87 288.35
  Q 279.00 287.10 274.83 287.16
  Q 263.37 287.34 252.68 287.13
  C 248.43 287.05 243.40 288.13 240.35 290.95
  C 234.05 296.79 233.78 302.04 232.55 311.65
  Q 231.27 321.68 229.94 331.70
  Z
  M 343.48 374.99
  Q 342.81 366.98 337.19 360.05
  Q 329.34 350.36 317.42 347.42
  L 314.95 347.08
  Q 314.74 347.13 314.46 347.02
  L 313.62 347.03
  Q 313.50 347.06 313.37 346.97
  Q 310.97 346.52 309.02 346.80
  Q 308.41 346.88 308.49 347.50
  L 317.25 412.27
  Q 317.37 413.15 318.22 412.90
  Q 323.70 411.25 328.92 408.21
  C 340.49 401.44 345.33 388.22 343.48 374.99
  Z
  M 174.88 371.64
  Q 164.93 379.71 169.37 392.45
  Q 170.83 396.64 172.54 400.65
  A 1.87 1.86 56.9 0 1 172.10 402.74
  Q 168.45 406.16 166.49 410.93
  Q 161.13 426.53 170.90 438.88
  Q 174.39 442.96 179.08 445.95
  Q 181.12 447.24 183.76 447.64
  Q 193.60 449.10 201.71 447.07
  Q 203.82 446.54 205.32 445.16
  Q 205.71 444.80 205.79 444.28
  L 207.81 431.37
  L 208.97 423.25
  L 209.44 418.55
  L 209.85 413.86
  L 211.03 405.75
  L 211.54 402.52
  L 214.38 381.70
  Q 214.68 380.40 214.75 379.07
  Q 214.81 377.77 214.04 376.65
  Q 209.16 369.59 200.63 369.02
  Q 190.45 368.97 180.50 369.07
  Q 178.86 369.09 174.88 371.64
  Z"/>
</clipPath>
<g stroke-width="5.00" fill="none" stroke-linecap="butt" clip-path="url(#clipping-path-1)">
<path stroke="#32556d" vector-effect="non-scaling-stroke" d="
  M 271.10 35.85
  Q 269.60 36.23 269.82 36.37
  Q 270.87 37.03 270.63 38.04
  Q 270.52 38.50 270.87 38.82
  Q 272.08 39.91 273.08 41.39
  Q 274.24 43.10 274.95 43.82
  C 275.88 44.76 277.29 45.88 277.84 46.94
  Q 278.09 47.41 278.62 47.45
  A 0.81 0.81 0.0 0 1 279.28 47.88
  Q 279.74 48.74 280.54 49.13
  C 281.97 49.82 283.05 51.81 284.30 52.92
  Q 286.15 54.58 287.15 56.96
  Q 287.37 57.49 287.83 57.84
  Q 290.34 59.81 292.07 62.21
  Q 293.44 64.12 295.03 65.72
  Q 296.69 67.40 298.29 69.02
  C 299.08 69.83 299.38 70.81 300.32 71.54
  Q 301.31 72.32 302.11 73.32
  Q 306.71 79.05 312.48 85.14
  Q 314.34 87.10 316.12 89.13
  Q 320.62 94.25 325.25 98.79
  Q 327.88 101.36 330.51 103.91
  Q 332.93 106.24 335.43 109.33
  Q 339.36 114.17 343.12 118.86
  Q 343.15 118.90 344.65 120.38
  Q 345.39 121.09 345.87 121.96
  Q 347.00 123.97 349.62 126.97
  Q 354.76 132.85 358.99 138.94
  Q 361.17 142.07 363.52 145.11
  C 366.14 148.49 368.81 151.67 372.09 154.54
  Q 372.48 154.88 372.96 154.67
  Q 373.34 154.51 373.70 154.17"
/>
<path stroke="#26475e" vector-effect="non-scaling-stroke" d="
  M 351.43 198.35
  Q 351.23 197.19 352.75 196.41
  Q 353.24 196.15 352.74 195.91
  Q 351.26 195.19 350.27 194.08
  Q 346.96 190.35 343.31 186.52
  Q 342.39 185.54 341.63 184.48
  Q 340.88 183.43 340.04 182.33
  Q 338.77 180.70 338.17 178.93
  Q 337.57 177.18 336.20 175.90
  A 1.63 1.61 20.3 0 1 335.70 174.83
  Q 335.61 173.72 335.13 172.61
  Q 334.99 172.28 334.66 172.14
  Q 333.42 171.59 332.87 170.40
  Q 332.17 168.90 330.58 168.08
  Q 330.15 167.86 330.07 167.38
  Q 329.36 162.99 327.78 159.04
  Q 327.57 158.53 327.63 157.98
  Q 327.84 156.19 326.92 154.70
  Q 326.64 154.24 326.64 153.69
  Q 326.65 152.32 325.67 151.54
  A 0.90 0.90 0.0 0 1 325.37 150.64
  Q 325.47 150.21 325.26 149.82
  Q 324.97 149.30 324.49 148.88
  Q 323.64 148.11 322.73 146.57"
/>
<path stroke="#26475e" vector-effect="non-scaling-stroke" d="
  M 256.78 85.90
  Q 256.26 85.26 255.37 85.16
  Q 254.85 85.10 254.67 84.60
  Q 254.39 83.78 253.62 83.50
  Q 253.19 83.35 252.87 83.04
  Q 251.12 81.39 248.82 80.59
  Q 247.92 80.29 247.67 79.41
  A 1.84 1.81 -74.6 0 0 247.24 78.64
  Q 245.55 76.81 243.58 75.79
  Q 242.84 75.41 242.25 74.81
  Q 241.68 74.23 241.09 73.62
  Q 237.10 69.45 233.29 65.39
  Q 232.41 64.46 231.58 63.48
  Q 230.54 62.23 228.92 61.31
  Q 228.49 61.06 228.24 60.63
  Q 227.42 59.22 225.97 57.99
  Q 222.43 54.99 217.47 46.39
  Q 217.19 45.91 217.69 45.60
  Q 217.81 45.53 217.63 45.31
  Q 217.38 45.00 216.99 45.03
  Q 216.50 45.07 216.24 44.97"
/>
<path stroke="#1d3a4e" vector-effect="non-scaling-stroke" d="
  M 220.77 99.76
  Q 220.57 99.09 221.28 98.38
  Q 221.61 98.03 221.46 97.58
  Q 221.03 96.27 220.10 95.83
  Q 219.43 95.51 219.06 94.87
  Q 215.88 89.34 212.35 85.30
  Q 211.15 83.93 209.04 82.37
  Q 208.56 82.02 208.41 81.45
  Q 208.13 80.38 207.42 79.46
  Q 206.39 78.13 205.43 76.91
  Q 204.56 75.80 203.61 74.84
  Q 201.95 73.17 201.35 70.99
  Q 201.06 69.97 200.52 69.05
  Q 199.34 67.03 199.39 64.83
  Q 199.39 64.33 199.07 63.96
  Q 197.64 62.29 196.98 59.39
  Q 196.53 57.39 195.13 56.34"
/>
<path stroke="#2d4f66" vector-effect="non-scaling-stroke" d="
  M 289.25 157.96
  Q 287.28 159.80 285.05 158.97
  Q 283.83 158.51 282.70 158.00
  Q 282.25 157.80 282.03 157.36
  Q 281.82 156.93 281.33 156.97
  Q 280.95 157.00 280.68 156.72
  Q 280.50 156.53 280.45 156.28
  Q 280.34 155.79 279.95 155.47
  Q 278.32 154.14 277.28 152.17
  Q 277.03 151.68 276.56 151.39
  Q 274.55 150.11 273.30 148.26
  Q 272.59 147.22 271.62 146.40
  Q 270.36 145.35 269.83 143.88
  Q 269.79 143.78 269.70 143.72
  Q 269.55 143.61 269.38 143.61
  Q 269.06 143.62 268.80 143.44
  Q 264.00 140.08 260.74 137.15
  Q 257.68 134.40 258.13 130.27"
/>
<path stroke="#224055" vector-effect="non-scaling-stroke" d="
  M 195.94 246.36
  Q 194.77 246.34 193.45 244.91"
/>
<path stroke="#1d3a4e" vector-effect="non-scaling-stroke" d="
  M 193.45 244.91
  Q 193.00 244.78 192.48 245.07
  Q 192.03 245.31 191.99 245.83
  Q 191.82 248.80 193.27 250.92
  Q 196.49 255.64 200.13 260.03
  Q 201.78 262.03 203.60 263.99
  Q 205.21 265.73 206.84 267.33
  Q 208.55 269.00 210.08 270.71
  Q 216.08 277.40 219.00 279.86
  Q 220.36 281.00 225.49 283.41"
/>
<path stroke="#26475e" vector-effect="non-scaling-stroke" d="
  M 193.45 244.91
  C 192.77 245.86 192.82 247.13 193.48 248.08
  Q 193.87 248.63 194.02 249.31
  Q 194.44 251.14 195.72 252.66
  Q 197.20 254.40 198.44 256.31
  Q 199.67 258.20 201.64 259.63
  Q 203.92 261.30 205.60 263.68
  Q 207.22 265.97 209.24 268.11
  Q 212.09 271.13 214.84 274.51
  C 215.77 275.66 217.03 275.90 218.02 276.89
  Q 219.74 278.60 221.49 279.90
  Q 221.88 280.19 222.35 280.34
  L 225.43 281.30"
/>
<path stroke="#32556d" vector-effect="non-scaling-stroke" d="
  M 196.73 247.31
  L 196.12 247.39
  Q 195.65 247.45 195.82 247.88
  Q 196.81 250.34 197.93 252.44
  Q 198.07 252.68 198.35 252.76
  Q 198.72 252.86 198.96 253.16
  Q 200.85 255.64 203.13 257.76
  Q 203.57 258.17 204.31 259.25
  Q 204.86 260.07 205.74 260.60
  A 2.22 2.09 88.2 0 1 206.43 261.29
  Q 207.82 263.56 209.43 265.57
  C 209.88 266.13 210.58 266.18 211.05 266.68
  Q 213.94 269.84 216.42 273.27
  C 217.08 274.19 218.14 274.42 218.72 275.32
  Q 219.27 276.18 220.08 276.79
  Q 221.56 277.92 223.07 278.79
  C 223.66 279.12 224.35 279.10 225.01 279.04"
/>
<path stroke="#4d7288" vector-effect="non-scaling-stroke" d="
  M 279.66 197.16
  Q 280.40 200.49 283.21 203.24
  Q 284.30 204.31 285.93 205.26
  Q 287.41 206.12 288.53 207.24
  Q 290.62 209.33 292.88 211.26
  Q 293.93 212.16 295.12 212.88
  Q 296.28 213.59 297.29 214.68
  Q 298.14 215.59 299.24 216.34
  Q 300.76 217.38 301.29 217.97
  Q 304.49 221.56 308.29 224.49
  C 308.88 224.95 309.74 225.08 310.24 225.90
  A 2.00 1.92 86.7 0 0 310.97 226.58
  Q 312.99 227.66 314.97 229.03
  Q 316.14 229.85 317.69 230.36
  Q 319.76 231.05 320.71 232.84
  Q 320.88 233.17 321.24 233.31
  Q 322.22 233.70 322.53 234.64
  A 1.19 1.18 -82.7 0 0 323.02 235.28
  Q 324.17 236.00 324.71 237.24
  Q 324.90 237.70 325.35 237.92
  Q 326.61 238.55 326.88 237.56"
/>
<path stroke="#32556d" vector-effect="non-scaling-stroke" d="
  M 337.57 251.52
  Q 337.45 251.61 337.43 251.77
  Q 337.42 251.96 337.23 251.93
  L 332.03 251.04
  Q 331.52 250.95 331.19 250.56
  Q 330.68 249.98 329.96 249.93
  Q 329.46 249.90 329.11 249.53
  Q 327.68 248.00 325.84 246.37
  Q 324.11 244.84 322.80 243.28
  Q 319.77 239.67 315.54 237.32
  Q 314.22 236.58 313.30 235.35
  Q 312.36 234.10 310.97 233.53
  A 1.13 1.11 -86.5 0 1 310.30 232.76
  Q 310.14 232.09 309.50 231.98
  Q 308.85 231.85 308.52 231.27
  Q 307.55 229.53 305.86 228.32
  Q 304.83 227.59 304.13 226.66
  Q 303.87 226.33 303.48 226.18
  Q 302.51 225.83 302.12 224.84
  Q 301.93 224.36 301.53 224.04
  Q 300.03 222.84 298.69 221.47
  C 297.17 219.91 295.44 219.08 293.66 217.97
  Q 293.25 217.72 293.04 217.28
  Q 292.46 216.03 291.20 215.70
  Q 290.73 215.58 290.41 215.22
  Q 286.50 210.86 281.92 206.93
  C 281.09 206.22 281.00 205.30 279.80 204.92
  Q 278.52 204.52 277.29 202.73
  Q 275.57 200.23 273.89 197.46"
/>
<path stroke="#26475e" vector-effect="non-scaling-stroke" d="
  M 273.49 197.55
  Q 273.07 199.17 274.65 200.98
  Q 278.75 205.71 281.47 208.03
  Q 285.93 211.82 290.39 216.53
  Q 290.65 216.81 290.68 217.18
  Q 290.69 217.43 290.84 217.60
  Q 291.01 217.80 291.27 217.86
  C 292.18 218.10 292.28 218.78 292.91 219.32
  Q 296.52 222.41 300.02 224.85
  Q 300.84 225.42 301.45 226.21
  Q 302.76 227.89 304.47 228.73
  Q 305.37 229.17 305.81 230.04
  Q 306.04 230.47 306.44 230.75
  Q 308.30 232.03 309.94 233.17
  Q 310.99 233.91 311.62 234.95
  Q 312.35 236.12 313.66 236.86
  Q 314.00 237.05 314.19 237.39
  Q 314.75 238.35 315.83 239.00
  Q 317.57 240.05 317.96 240.40
  C 319.48 241.80 321.15 242.98 322.32 244.71
  Q 323.16 245.95 324.41 246.81
  Q 324.73 247.03 324.93 247.36
  Q 325.57 248.44 326.85 249.31
  Q 329.54 251.16 332.04 251.71
  Q 334.79 252.31 337.48 252.95"
/>
<path stroke="#173243" vector-effect="non-scaling-stroke" d="
  M 337.39 254.57
  Q 336.05 253.93 334.66 253.84
  Q 332.73 253.71 331.96 253.42
  Q 330.33 252.79 328.78 252.00
  Q 328.34 251.78 328.10 251.35
  Q 327.80 250.80 327.20 250.59
  Q 326.74 250.44 326.45 250.04
  Q 325.61 248.89 324.24 248.40
  Q 323.79 248.24 323.46 247.90
  Q 321.69 246.04 320.06 244.01
  Q 319.59 243.42 318.90 243.06
  A 3.47 3.27 -7.4 0 1 318.11 242.49
  Q 316.57 241.02 314.80 239.84
  Q 313.12 238.70 311.76 237.26
  Q 309.82 235.19 307.39 233.39
  Q 305.13 231.71 303.04 229.57
  Q 301.06 227.53 298.73 225.81
  Q 297.14 224.63 296.09 223.00
  Q 295.84 222.62 295.43 222.40
  Q 293.87 221.58 292.63 220.34
  Q 291.44 219.16 290.12 218.16
  Q 288.89 217.21 287.84 216.08
  Q 284.93 212.94 281.09 209.96
  C 280.20 209.26 279.73 208.14 278.76 207.66
  Q 277.61 207.08 276.90 206.33
  Q 273.60 202.80 271.78 198.25"
/>
<path stroke="#173243" vector-effect="non-scaling-stroke" d="
  M 309.13 270.20
  Q 308.49 275.65 309.32 281.06
  Q 309.35 281.20 309.49 281.19
  L 309.49 281.19
  Q 309.63 281.17 309.63 281.03
  Q 309.62 275.77 309.62 270.50"
/>
<path stroke="#1c384a" vector-effect="non-scaling-stroke" d="
  M 311.02 271.53
  Q 310.29 272.28 310.22 273.25
  Q 309.85 278.07 310.47 284.26
  Q 310.49 284.46 310.69 284.44
  L 310.99 284.42
  Q 311.00 284.42 311.00 284.40
  Q 310.55 278.19 311.08 271.97"
/>
<path stroke="#234052" vector-effect="non-scaling-stroke" d="
  M 311.08 271.97
  Q 310.88 276.30 311.61 289.75
  Q 312.04 297.87 312.14 324.00
  Q 312.14 324.70 312.69 326.03
  Q 313.08 326.96 313.05 328.04
  Q 312.94 332.00 314.72 335.28"
/>
<path stroke="#32556d" vector-effect="non-scaling-stroke" d="
  M 311.48 271.74
  Q 311.33 271.74 311.08 271.97"
/>
<path stroke="#132a3a" vector-effect="non-scaling-stroke" d="
  M 303.98 385.51
  L 303.84 386.53
  Q 303.81 386.74 303.61 386.84
  Q 303.45 386.93 303.34 386.75
  Q 303.08 386.33 303.11 386.82
  Q 303.12 387.10 303.34 387.24
  Q 303.74 387.48 303.29 387.61
  Q 303.00 387.69 302.77 387.49
  Q 302.51 387.26 302.61 386.93
  Q 302.69 386.66 302.41 386.66
  Q 300.51 386.70 299.65 384.61
  Q 297.82 380.15 293.86 375.67
  Q 291.74 373.27 289.67 370.90
  Q 288.56 369.63 287.34 368.64
  Q 285.86 367.46 284.82 365.83
  Q 284.54 365.40 284.10 365.15
  Q 283.44 364.78 283.09 364.18
  Q 282.63 363.39 281.96 362.70
  Q 280.50 361.18 279.20 359.93
  Q 278.61 359.37 278.35 358.66
  C 277.77 357.13 276.32 356.34 275.33 355.03
  Q 274.52 353.97 273.64 352.96
  Q 272.24 351.37 270.51 349.84"
/>
<path stroke="#132a3a" vector-effect="non-scaling-stroke" d="
  M 253.58 374.99
  Q 253.01 375.07 253.15 374.24
  Q 253.28 373.48 252.65 373.92
  Q 252.33 374.15 251.94 373.96
  Q 251.13 373.58 250.90 372.83
  Q 250.17 370.45 248.79 368.26
  Q 248.18 367.29 247.83 366.19
  Q 247.41 364.93 246.59 363.89
  Q 246.27 363.49 246.20 362.99
  Q 246.02 361.77 245.17 360.86
  Q 244.90 360.57 244.94 360.18
  Q 245.22 357.04 243.13 355.50
  Q 242.69 355.19 242.68 354.65
  Q 242.65 353.41 242.53 352.25
  Q 242.37 350.73 241.78 349.36
  Q 240.04 345.31 238.87 341.10
  Q 238.17 338.59 235.93 334.47
  Q 235.70 334.03 235.28 333.76
  Q 234.38 333.18 233.71 332.32
  Q 233.52 332.08 233.25 332.22
  Q 233.01 332.35 232.73 332.36
  Q 232.32 332.37 232.18 331.99
  Q 231.99 331.45 232.20 330.88
  A 0.54 0.52 24.2 0 0 231.94 330.22
  Q 231.76 330.12 231.56 330.10
  A 0.34 0.34 0.0 0 0 231.26 330.64
  Q 231.52 330.99 231.56 331.46
  Q 231.63 332.28 230.97 331.79
  Q 230.49 331.43 229.94 331.70"
/>
<path stroke="#3d5d6f" vector-effect="non-scaling-stroke" d="
  M 313.37 346.97
  Q 312.56 349.63 313.37 351.49
  Q 315.60 356.55 320.28 360.45
  Q 321.38 361.37 322.19 362.52
  Q 323.04 363.71 324.31 364.39
  Q 324.83 364.67 325.17 365.15
  Q 325.80 366.05 326.71 366.50
  Q 327.73 367.00 328.51 367.75
  Q 331.70 370.84 335.07 373.63
  C 335.69 374.13 336.42 374.41 337.14 374.74
  C 338.73 375.47 341.71 375.12 343.48 374.99"
/>
<path stroke="#4d7288" vector-effect="non-scaling-stroke" d="
  M 313.62 347.03
  Q 312.95 349.66 313.85 351.64
  Q 314.41 352.86 316.63 355.61
  Q 316.70 355.69 316.78 355.62
  L 316.96 355.44
  A 0.27 0.27 0.0 0 0 316.96 355.04
  C 316.25 354.40 315.99 353.52 315.37 352.76
  Q 313.46 350.39 314.46 347.02"
/>
<path stroke="#4d7288" vector-effect="non-scaling-stroke" d="
  M 314.95 347.08
  Q 314.36 348.49 314.64 349.51
  Q 315.55 352.81 317.73 355.44
  Q 317.81 355.54 317.91 355.46
  L 317.91 355.46
  Q 318.07 355.34 317.96 355.18
  Q 317.27 354.23 316.60 353.08
  Q 316.21 352.41 316.93 352.67
  Q 317.67 352.94 318.01 353.48"
/>
<path stroke="#4d7288" vector-effect="non-scaling-stroke" d="
  M 318.01 353.48
  Q 318.49 354.95 319.62 355.87
  Q 319.66 355.90 319.63 355.86
  L 318.01 353.48"
/>
<path stroke="#4d7288" vector-effect="non-scaling-stroke" d="
  M 318.01 353.48
  Q 317.85 353.03 317.85 352.49
  Q 317.85 351.99 317.63 351.55
  Q 316.67 349.65 317.42 347.42"
/>
<path stroke="#4d7288" vector-effect="non-scaling-stroke" d="
  M 200.63 369.02
  Q 200.31 369.31 199.84 369.35
  Q 199.36 369.39 199.20 369.85
  Q 199.13 370.05 199.13 370.25
  Q 199.15 370.78 199.63 370.99
  Q 202.16 372.12 205.11 372.75
  Q 206.51 373.05 207.66 373.71
  Q 208.86 374.39 209.95 375.54
  Q 212.55 378.27 214.27 381.80"
/>
<path stroke="#234052" vector-effect="non-scaling-stroke" d="
  M 214.27 381.80
  Q 212.48 381.13 211.14 379.85
  Q 210.66 379.38 210.58 378.71
  Q 210.53 378.24 210.19 377.91
  Q 205.95 373.69 198.73 373.66
  Q 191.77 373.63 184.61 373.60
  Q 182.71 373.59 180.89 374.32
  Q 178.98 375.10 177.28 376.00
  A 1.48 1.48 0.0 0 1 175.12 374.53
  Q 175.30 373.07 174.88 371.64"
/>
<path stroke="#385565" vector-effect="non-scaling-stroke" d="
  M 214.38 381.70
  Q 214.32 381.75 214.27 381.80"
/>
<path stroke="#234052" vector-effect="non-scaling-stroke" d="
  M 211.54 402.52
  L 208.75 398.75"
/>
<path stroke="#132a3a" vector-effect="non-scaling-stroke" d="
  M 208.75 398.75
  Q 207.95 397.27 205.39 395.98"
/>
<path stroke="#234052" vector-effect="non-scaling-stroke" d="
  M 205.39 395.98
  Q 206.89 396.51 204.84 395.39"
/>
<path stroke="#132a3a" vector-effect="non-scaling-stroke" d="
  M 177.40 384.74
  Q 175.73 384.86 174.30 385.72
  Q 173.87 385.99 173.75 386.49
  Q 173.14 389.08 174.46 391.42"
/>
<path stroke="#173243" vector-effect="non-scaling-stroke" d="
  M 174.46 391.42
  Q 174.38 391.15 174.72 391.46"
/>
<path stroke="#1c384a" vector-effect="non-scaling-stroke" d="
  M 174.72 391.46
  Q 174.93 392.98 175.74 393.78"
/>
<path stroke="#132a3a" vector-effect="non-scaling-stroke" d="
  M 175.74 393.78
  Q 176.77 396.57 178.71 398.60
  Q 179.07 398.98 179.59 398.86
  Q 179.75 398.83 179.90 398.89
  Q 180.48 399.12 180.56 399.75
  Q 180.78 401.50 181.12 403.19
  C 181.46 404.84 182.32 406.20 182.15 407.98
  Q 182.10 408.41 182.36 408.77
  Q 183.34 410.13 184.14 411.82
  Q 185.75 415.21 188.72 419.19
  Q 190.24 421.22 191.88 422.57
  Q 193.57 423.98 195.24 425.55
  Q 197.44 427.62 201.06 429.05
  Q 204.36 430.36 207.81 431.37"
/>
<path stroke="#132a3a" vector-effect="non-scaling-stroke" d="
  M 170.90 438.88
  Q 172.43 438.33 171.12 436.41
  Q 170.84 435.99 170.81 435.49
  Q 170.64 431.96 170.43 428.60
  Q 170.37 427.51 169.97 426.55
  Q 169.53 425.49 169.47 424.38
  Q 169.38 422.72 168.96 421.04
  Q 167.90 416.94 167.89 412.41
  A 0.95 0.94 -73.0 0 0 167.48 411.63
  L 166.49 410.93"
/>
<path stroke="#32556d" vector-effect="non-scaling-stroke" d="
  M 177.54 388.82
  Q 176.67 388.75 176.06 389.06
  Q 175.45 389.38 175.30 390.18
  Q 175.12 391.10 175.43 392.07"
/>
<path stroke="#224055" vector-effect="non-scaling-stroke" d="
  M 175.43 392.07
  Q 176.07 393.10 175.74 393.78"
/>
<path stroke="#1d3a4e" vector-effect="non-scaling-stroke" d="
  M 192.62 393.07
  Q 189.81 396.39 188.80 401.07
  C 188.53 402.33 188.90 403.46 189.03 404.78
  Q 189.08 405.31 189.46 405.69
  C 190.57 406.82 190.86 408.28 191.84 409.54
  Q 197.11 416.32 199.01 418.17
  Q 202.47 421.55 208.97 423.25"
/>
<path stroke="#28485d" vector-effect="non-scaling-stroke" d="
  M 205.39 395.98
  Q 207.00 397.89 208.75 398.75"
/>
<path stroke="#4d7288" vector-effect="non-scaling-stroke" d="
  M 211.03 405.75
  Q 210.92 402.50 208.99 399.81
  Q 208.74 399.46 208.31 399.40
  Q 206.96 399.23 205.55 398.99
  Q 202.46 398.47 199.90 399.91
  Q 197.87 401.05 197.79 403.47
  Q 197.68 406.50 199.89 409.25
  Q 204.60 415.12 209.85 413.86"
/>
<path stroke="#26475e" vector-effect="non-scaling-stroke" d="
  M 177.42 387.57
  L 175.50 388.04
  Q 174.99 388.17 174.94 388.70
  L 174.72 391.46"
/>
<path stroke="#1d3a4e" vector-effect="non-scaling-stroke" d="
  M 177.38 386.79
  Q 174.68 386.09 174.54 388.76
  Q 174.48 389.95 174.46 391.42"
/>
<path stroke="#28485d" vector-effect="non-scaling-stroke" d="
  M 177.72 389.83
  Q 176.74 389.75 176.10 390.05
  Q 175.64 390.27 175.65 390.78
  Q 175.67 391.47 175.43 392.07"
/>
<path stroke="#26475e" vector-effect="non-scaling-stroke" d="
  M 197.58 393.63
  L 195.87 394.16
  A 1.18 1.15 2.8 0 0 195.18 394.77
  Q 194.69 395.83 193.83 396.59
  Q 192.73 397.57 192.41 398.16
  Q 190.60 401.63 191.78 405.35
  Q 192.35 407.13 193.42 408.45
  Q 194.65 409.96 195.75 411.70
  Q 196.15 412.35 197.23 413.06"
/>
<path stroke="#26475e" vector-effect="non-scaling-stroke" d="
  M 197.23 413.06
  Q 199.46 416.94 205.03 419.30
  Q 207.02 420.15 208.19 419.60
  Q 208.90 419.27 208.12 419.28
  Q 206.74 419.31 205.56 418.87
  Q 204.17 418.34 202.86 417.67
  Q 201.56 417.00 200.29 415.80
  Q 198.79 414.38 197.23 413.06"
/>
<path stroke="#26475e" vector-effect="non-scaling-stroke" d="
  M 197.23 413.06
  Q 196.44 411.37 194.12 408.26
  Q 190.62 403.58 193.77 398.20
  Q 195.87 394.62 202.09 395.06"
/>
<path stroke="#2d4f66" vector-effect="non-scaling-stroke" d="
  M 203.80 395.63
  C 201.99 395.83 200.43 395.21 198.72 395.74
  Q 195.09 396.85 193.90 399.38
  Q 191.55 404.40 195.65 408.97
  Q 195.99 409.36 196.12 409.86
  Q 196.60 411.70 198.06 412.74
  Q 198.41 412.99 198.42 413.43
  Q 198.42 413.70 198.61 413.86
  Q 201.67 416.53 204.12 417.86
  Q 206.72 419.27 209.44 418.55"
/>
</g>
<g>
<path fill="#2b4d65" d="
  M 271.10 35.85
  Q 269.60 36.23 269.82 36.37
  Q 270.87 37.03 270.63 38.04
  Q 270.52 38.50 270.87 38.82
  Q 272.08 39.91 273.08 41.39
  Q 274.24 43.10 274.95 43.82
  C 275.88 44.76 277.29 45.88 277.84 46.94
  Q 278.09 47.41 278.62 47.45
  A 0.81 0.81 0.0 0 1 279.28 47.88
  Q 279.74 48.74 280.54 49.13
  C 281.97 49.82 283.05 51.81 284.30 52.92
  Q 286.15 54.58 287.15 56.96
  Q 287.37 57.49 287.83 57.84
  Q 290.34 59.81 292.07 62.21
  Q 293.44 64.12 295.03 65.72
  Q 296.69 67.40 298.29 69.02
  C 299.08 69.83 299.38 70.81 300.32 71.54
  Q 301.31 72.32 302.11 73.32
  Q 306.71 79.05 312.48 85.14
  Q 314.34 87.10 316.12 89.13
  Q 320.62 94.25 325.25 98.79
  Q 327.88 101.36 330.51 103.91
  Q 332.93 106.24 335.43 109.33
  Q 339.36 114.17 343.12 118.86
  Q 343.15 118.90 344.65 120.38
  Q 345.39 121.09 345.87 121.96
  Q 347.00 123.97 349.62 126.97
  Q 354.76 132.85 358.99 138.94
  Q 361.17 142.07 363.52 145.11
  C 366.14 148.49 368.81 151.67 372.09 154.54
  Q 372.48 154.88 372.96 154.67
  Q 373.34 154.51 373.70 154.17
  Q 371.40 166.50 365.66 177.42
  C 364.65 179.34 363.74 181.87 362.45 183.94
  Q 357.59 191.74 351.43 198.35
  Q 351.23 197.19 352.75 196.41
  Q 353.24 196.15 352.74 195.91
  Q 351.26 195.19 350.27 194.08
  Q 346.96 190.35 343.31 186.52
  Q 342.39 185.54 341.63 184.48
  Q 340.88 183.43 340.04 182.33
  Q 338.77 180.70 338.17 178.93
  Q 337.57 177.18 336.20 175.90
  A 1.63 1.61 20.3 0 1 335.70 174.83
  Q 335.61 173.72 335.13 172.61
  Q 334.99 172.28 334.66 172.14
  Q 333.42 171.59 332.87 170.40
  Q 332.17 168.90 330.58 168.08
  Q 330.15 167.86 330.07 167.38
  Q 329.36 162.99 327.78 159.04
  Q 327.57 158.53 327.63 157.98
  Q 327.84 156.19 326.92 154.70
  Q 326.64 154.24 326.64 153.69
  Q 326.65 152.32 325.67 151.54
  A 0.90 0.90 0.0 0 1 325.37 150.64
  Q 325.47 150.21 325.26 149.82
  Q 324.97 149.30 324.49 148.88
  Q 323.64 148.11 322.73 146.57
  Q 325.37 122.26 308.06 104.71
  C 302.84 99.41 298.74 95.78 292.62 93.09
  Q 289.86 91.88 286.97 90.55
  Q 273.80 84.49 256.78 85.90
  Q 256.26 85.26 255.37 85.16
  Q 254.85 85.10 254.67 84.60
  Q 254.39 83.78 253.62 83.50
  Q 253.19 83.35 252.87 83.04
  Q 251.12 81.39 248.82 80.59
  Q 247.92 80.29 247.67 79.41
  A 1.84 1.81 -74.6 0 0 247.24 78.64
  Q 245.55 76.81 243.58 75.79
  Q 242.84 75.41 242.25 74.81
  Q 241.68 74.23 241.09 73.62
  Q 237.10 69.45 233.29 65.39
  Q 232.41 64.46 231.58 63.48
  Q 230.54 62.23 228.92 61.31
  Q 228.49 61.06 228.24 60.63
  Q 227.42 59.22 225.97 57.99
  Q 222.43 54.99 217.47 46.39
  Q 217.19 45.91 217.69 45.60
  Q 217.81 45.53 217.63 45.31
  Q 217.38 45.00 216.99 45.03
  Q 216.50 45.07 216.24 44.97
  Q 220.30 42.95 223.25 42.02
  Q 232.49 39.12 243.75 37.03
  Q 255.70 34.81 271.10 35.85
  Z"
/>
<path fill="#385d75" d="
  M 271.10 35.85
  Q 299.19 38.16 323.74 52.73
  Q 334.89 59.35 342.44 67.28
  Q 344.55 69.49 346.78 71.67
  Q 349.14 73.97 350.99 76.24
  Q 359.79 87.08 363.55 94.41
  Q 367.24 101.60 371.71 115.50
  Q 377.40 133.13 373.70 154.17
  Q 373.34 154.51 372.96 154.67
  Q 372.48 154.88 372.09 154.54
  C 368.81 151.67 366.14 148.49 363.52 145.11
  Q 361.17 142.07 358.99 138.94
  Q 354.76 132.85 349.62 126.97
  Q 347.00 123.97 345.87 121.96
  Q 345.39 121.09 344.65 120.38
  Q 343.15 118.90 343.12 118.86
  Q 339.36 114.17 335.43 109.33
  Q 332.93 106.24 330.51 103.91
  Q 327.88 101.36 325.25 98.79
  Q 320.62 94.25 316.12 89.13
  Q 314.34 87.10 312.48 85.14
  Q 306.71 79.05 302.11 73.32
  Q 301.31 72.32 300.32 71.54
  C 299.38 70.81 299.08 69.83 298.29 69.02
  Q 296.69 67.40 295.03 65.72
  Q 293.44 64.12 292.07 62.21
  Q 290.34 59.81 287.83 57.84
  Q 287.37 57.49 287.15 56.96
  Q 286.15 54.58 284.30 52.92
  C 283.05 51.81 281.97 49.82 280.54 49.13
  Q 279.74 48.74 279.28 47.88
  A 0.81 0.81 0.0 0 0 278.62 47.45
  Q 278.09 47.41 277.84 46.94
  C 277.29 45.88 275.88 44.76 274.95 43.82
  Q 274.24 43.10 273.08 41.39
  Q 272.08 39.91 270.87 38.82
  Q 270.52 38.50 270.63 38.04
  Q 270.87 37.03 269.82 36.37
  Q 269.60 36.23 271.10 35.85
  Z"
/>
<path fill="#214157" d="
  M 216.24 44.97
  Q 216.50 45.07 216.99 45.03
  Q 217.38 45.00 217.63 45.31
  Q 217.81 45.53 217.69 45.60
  Q 217.19 45.91 217.47 46.39
  Q 222.43 54.99 225.97 57.99
  Q 227.42 59.22 228.24 60.63
  Q 228.49 61.06 228.92 61.31
  Q 230.54 62.23 231.58 63.48
  Q 232.41 64.46 233.29 65.39
  Q 237.10 69.45 241.09 73.62
  Q 241.68 74.23 242.25 74.81
  Q 242.84 75.41 243.58 75.79
  Q 245.55 76.81 247.24 78.64
  A 1.84 1.81 -74.6 0 1 247.67 79.41
  Q 247.92 80.29 248.82 80.59
  Q 251.12 81.39 252.87 83.04
  Q 253.19 83.35 253.62 83.50
  Q 254.39 83.78 254.67 84.60
  Q 254.85 85.10 255.37 85.16
  Q 256.26 85.26 256.78 85.90
  Q 245.95 86.77 239.89 89.37
  Q 234.67 91.62 229.47 93.94
  Q 226.11 95.44 220.77 99.76
  Q 220.57 99.09 221.28 98.38
  Q 221.61 98.03 221.46 97.58
  Q 221.03 96.27 220.10 95.83
  Q 219.43 95.51 219.06 94.87
  Q 215.88 89.34 212.35 85.30
  Q 211.15 83.93 209.04 82.37
  Q 208.56 82.02 208.41 81.45
  Q 208.13 80.38 207.42 79.46
  Q 206.39 78.13 205.43 76.91
  Q 204.56 75.80 203.61 74.84
  Q 201.95 73.17 201.35 70.99
  Q 201.06 69.97 200.52 69.05
  Q 199.34 67.03 199.39 64.83
  Q 199.39 64.33 199.07 63.96
  Q 197.64 62.29 196.98 59.39
  Q 196.53 57.39 195.13 56.34
  C 196.92 54.98 198.43 53.64 200.56 52.61
  C 205.67 50.12 210.25 47.28 216.24 44.97
  Z"
/>
<path fill="#183244" d="
  M 195.13 56.34
  Q 196.53 57.39 196.98 59.39
  Q 197.64 62.29 199.07 63.96
  Q 199.39 64.33 199.39 64.83
  Q 199.34 67.03 200.52 69.05
  Q 201.06 69.97 201.35 70.99
  Q 201.95 73.17 203.61 74.84
  Q 204.56 75.80 205.43 76.91
  Q 206.39 78.13 207.42 79.46
  Q 208.13 80.38 208.41 81.45
  Q 208.56 82.02 209.04 82.37
  Q 211.15 83.93 212.35 85.30
  Q 215.88 89.34 219.06 94.87
  Q 219.43 95.51 220.10 95.83
  Q 221.03 96.27 221.46 97.58
  Q 221.61 98.03 221.28 98.38
  Q 220.57 99.09 220.77 99.76
  C 211.00 109.13 202.52 120.96 201.19 133.49
  Q 200.60 139.01 199.93 141.28
  C 198.04 147.69 192.89 146.79 187.85 146.77
  Q 172.25 146.69 156.46 146.83
  C 150.61 146.89 147.43 142.48 147.94 136.73
  Q 149.24 121.97 151.39 116.00
  Q 154.03 108.64 157.01 100.77
  Q 158.21 97.61 159.95 94.70
  Q 169.82 78.15 183.76 65.25
  Q 188.95 60.45 195.13 56.34
  Z"
/>
<path fill="#385d75" d="
  M 289.25 157.96
  Q 287.28 159.80 285.05 158.97
  Q 283.83 158.51 282.70 158.00
  Q 282.25 157.80 282.03 157.36
  Q 281.82 156.93 281.33 156.97
  Q 280.95 157.00 280.68 156.72
  Q 280.50 156.53 280.45 156.28
  Q 280.34 155.79 279.95 155.47
  Q 278.32 154.14 277.28 152.17
  Q 277.03 151.68 276.56 151.39
  Q 274.55 150.11 273.30 148.26
  Q 272.59 147.22 271.62 146.40
  Q 270.36 145.35 269.83 143.88
  Q 269.79 143.78 269.70 143.72
  Q 269.55 143.61 269.38 143.61
  Q 269.06 143.62 268.80 143.44
  Q 264.00 140.08 260.74 137.15
  Q 257.68 134.40 258.13 130.27
  C 265.98 128.94 272.06 130.76 278.58 134.83
  Q 280.67 136.13 282.02 137.63
  Q 289.67 146.15 289.25 157.96
  Z"
/>
<path fill="#214157" d="
  M 258.13 130.27
  Q 257.68 134.40 260.74 137.15
  Q 264.00 140.08 268.80 143.44
  Q 269.06 143.62 269.38 143.61
  Q 269.55 143.61 269.70 143.72
  Q 269.79 143.78 269.83 143.88
  Q 270.36 145.35 271.62 146.40
  Q 272.59 147.22 273.30 148.26
  Q 274.55 150.11 276.56 151.39
  Q 277.03 151.68 277.28 152.17
  Q 278.32 154.14 279.95 155.47
  Q 280.34 155.79 280.45 156.28
  Q 280.50 156.53 280.68 156.72
  Q 280.95 157.00 281.33 156.97
  Q 281.82 156.93 282.03 157.36
  Q 282.25 157.80 282.70 158.00
  Q 283.83 158.51 285.05 158.97
  Q 287.28 159.80 289.25 157.96
  Q 288.54 165.51 284.52 171.43
  Q 280.47 177.39 274.19 179.80
  Q 259.85 185.32 247.23 176.92
  Q 244.62 175.19 242.37 172.16
  Q 240.50 169.65 239.35 166.62
  Q 234.71 154.35 240.58 142.10
  Q 242.08 138.99 245.17 136.46
  Q 251.03 131.66 258.13 130.27
  Z"
/>
<path fill="#214157" d="
  M 322.73 146.57
  Q 323.64 148.11 324.49 148.88
  Q 324.97 149.30 325.26 149.82
  Q 325.47 150.21 325.37 150.64
  A 0.90 0.90 0.0 0 0 325.67 151.54
  Q 326.65 152.32 326.64 153.69
  Q 326.64 154.24 326.92 154.70
  Q 327.84 156.19 327.63 157.98
  Q 327.57 158.53 327.78 159.04
  Q 329.36 162.99 330.07 167.38
  Q 330.15 167.86 330.58 168.08
  Q 332.17 168.90 332.87 170.40
  Q 333.42 171.59 334.66 172.14
  Q 334.99 172.28 335.13 172.61
  Q 335.61 173.72 335.70 174.83
  A 1.63 1.61 20.3 0 0 336.20 175.90
  Q 337.57 177.18 338.17 178.93
  Q 338.77 180.70 340.04 182.33
  Q 340.88 183.43 341.63 184.48
  Q 342.39 185.54 343.31 186.52
  Q 346.96 190.35 350.27 194.08
  Q 351.26 195.19 352.74 195.91
  Q 353.24 196.15 352.75 196.41
  Q 351.23 197.19 351.43 198.35
  Q 343.99 206.96 336.15 215.17
  C 333.37 218.09 330.15 220.24 327.42 223.23
  A 0.51 0.51 0.0 0 1 326.54 222.92
  Q 326.03 213.75 322.04 205.19
  Q 320.26 201.39 317.23 198.62
  Q 310.01 192.01 300.98 188.73
  Q 298.25 187.74 295.30 187.79
  Q 294.08 187.81 294.98 186.99
  Q 298.03 184.24 300.86 181.18
  Q 303.50 178.32 306.48 175.58
  Q 316.44 166.44 321.13 155.21
  C 322.29 152.42 322.42 149.53 322.73 146.57
  Z"
/>
<path fill="#183244" d="
  M 195.94 246.36
  Q 194.77 246.34 193.45 244.91
  Q 193.00 244.78 192.48 245.07
  Q 192.03 245.31 191.99 245.83
  Q 191.82 248.80 193.27 250.92
  Q 196.49 255.64 200.13 260.03
  Q 201.78 262.03 203.60 263.99
  Q 205.21 265.73 206.84 267.33
  Q 208.55 269.00 210.08 270.71
  Q 216.08 277.40 219.00 279.86
  Q 220.36 281.00 225.49 283.41
  Q 223.94 292.03 216.44 293.94
  C 210.83 295.36 206.75 292.17 202.64 287.90
  Q 190.56 275.34 178.35 262.90
  C 177.77 262.31 177.40 261.50 176.66 260.88
  C 169.87 255.15 162.70 246.47 169.53 237.48
  C 172.36 233.75 175.76 230.72 178.87 227.31
  C 183.43 222.28 188.68 218.08 193.49 213.53
  Q 196.10 211.06 198.89 207.87
  Q 201.95 204.39 205.45 201.10
  Q 208.42 198.33 213.32 196.49
  Q 220.49 193.82 226.16 193.79
  Q 243.39 193.70 261.44 193.87
  Q 261.83 193.87 261.63 194.22
  C 260.41 196.29 258.64 198.16 257.73 200.32
  C 253.17 211.20 256.29 220.70 264.51 228.11
  C 268.86 232.04 272.94 236.59 277.64 240.09
  Q 279.63 241.57 281.26 243.40
  C 284.19 246.68 287.83 249.49 291.01 252.47
  Q 291.45 252.88 291.45 253.48
  L 291.53 280.49
  Q 291.53 282.33 290.08 281.19
  C 285.63 277.65 281.35 276.61 275.66 276.67
  Q 262.52 276.80 249.32 276.65
  C 245.88 276.61 241.86 277.42 239.12 279.42
  Q 237.85 280.35 236.59 281.28
  Q 235.99 281.72 235.98 280.98
  L 235.80 246.29
  A 0.74 0.74 0.0 0 0 235.32 245.60
  Q 221.40 240.14 218.83 225.06
  Q 218.69 224.25 218.09 224.82
  Q 212.40 230.28 206.61 235.92
  C 204.09 238.37 199.08 242.27 195.94 246.36
  Z"
/>
<path fill="#2b4d65" d="
  M 306.97 197.74
  Q 308.99 198.57 311.05 200.50
  Q 318.27 207.21 320.20 216.85
  Q 320.34 217.54 319.82 217.06
  Q 309.86 207.95 301.07 199.56
  C 299.30 197.86 297.19 196.75 295.45 195.01
  Q 294.52 194.09 295.82 194.20
  C 299.97 194.56 303.23 196.20 306.97 197.74
  Z"
/>
<path fill="#385d75" d="
  M 279.66 197.16
  Q 280.40 200.49 283.21 203.24
  Q 284.30 204.31 285.93 205.26
  Q 287.41 206.12 288.53 207.24
  Q 290.62 209.33 292.88 211.26
  Q 293.93 212.16 295.12 212.88
  Q 296.28 213.59 297.29 214.68
  Q 298.14 215.59 299.24 216.34
  Q 300.76 217.38 301.29 217.97
  Q 304.49 221.56 308.29 224.49
  C 308.88 224.95 309.74 225.08 310.24 225.90
  A 2.00 1.92 86.7 0 0 310.97 226.58
  Q 312.99 227.66 314.97 229.03
  Q 316.14 229.85 317.69 230.36
  Q 319.76 231.05 320.71 232.84
  Q 320.88 233.17 321.24 233.31
  Q 322.22 233.70 322.53 234.64
  A 1.19 1.18 -82.7 0 0 323.02 235.28
  Q 324.17 236.00 324.71 237.24
  Q 324.90 237.70 325.35 237.92
  Q 326.61 238.55 326.88 237.56
  C 331.90 241.46 337.16 244.60 337.57 251.52
  Q 337.45 251.61 337.43 251.77
  Q 337.42 251.96 337.23 251.93
  L 332.03 251.04
  Q 331.52 250.95 331.19 250.56
  Q 330.68 249.98 329.96 249.93
  Q 329.46 249.90 329.11 249.53
  Q 327.68 248.00 325.84 246.37
  Q 324.11 244.84 322.80 243.28
  Q 319.77 239.67 315.54 237.32
  Q 314.22 236.58 313.30 235.35
  Q 312.36 234.10 310.97 233.53
  A 1.13 1.11 -86.5 0 1 310.30 232.76
  Q 310.14 232.09 309.50 231.98
  Q 308.85 231.85 308.52 231.27
  Q 307.55 229.53 305.86 228.32
  Q 304.83 227.59 304.13 226.66
  Q 303.87 226.33 303.48 226.18
  Q 302.51 225.83 302.12 224.84
  Q 301.93 224.36 301.53 224.04
  Q 300.03 222.84 298.69 221.47
  C 297.17 219.91 295.44 219.08 293.66 217.97
  Q 293.25 217.72 293.04 217.28
  Q 292.46 216.03 291.20 215.70
  Q 290.73 215.58 290.41 215.22
  Q 286.50 210.86 281.92 206.93
  C 281.09 206.22 281.00 205.30 279.80 204.92
  Q 278.52 204.52 277.29 202.73
  Q 275.57 200.23 273.89 197.46
  Q 277.27 196.63 279.66 197.16
  Z"
/>
<path fill="#62879a" d="
  M 279.66 197.16
  Q 284.01 197.56 287.37 200.63
  Q 294.41 207.06 299.70 212.28
  Q 304.59 217.12 309.43 221.07
  C 316.37 226.74 321.10 231.99 326.88 237.56
  Q 326.61 238.55 325.35 237.92
  Q 324.90 237.70 324.71 237.24
  Q 324.17 236.00 323.02 235.28
  A 1.19 1.18 -82.7 0 1 322.53 234.64
  Q 322.22 233.70 321.24 233.31
  Q 320.88 233.17 320.71 232.84
  Q 319.76 231.05 317.69 230.36
  Q 316.14 229.85 314.97 229.03
  Q 312.99 227.66 310.97 226.58
  A 2.00 1.92 86.7 0 1 310.24 225.90
  C 309.74 225.08 308.88 224.95 308.29 224.49
  Q 304.49 221.56 301.29 217.97
  Q 300.76 217.38 299.24 216.34
  Q 298.14 215.59 297.29 214.68
  Q 296.28 213.59 295.12 212.88
  Q 293.93 212.16 292.88 211.26
  Q 290.62 209.33 288.53 207.24
  Q 287.41 206.12 285.93 205.26
  Q 284.30 204.31 283.21 203.24
  Q 280.40 200.49 279.66 197.16
  Z"
/>
<path fill="#214157" d="
  M 273.49 197.55
  Q 273.07 199.17 274.65 200.98
  Q 278.75 205.71 281.47 208.03
  Q 285.93 211.82 290.39 216.53
  Q 290.65 216.81 290.68 217.18
  Q 290.69 217.43 290.84 217.60
  Q 291.01 217.80 291.27 217.86
  C 292.18 218.10 292.28 218.78 292.91 219.32
  Q 296.52 222.41 300.02 224.85
  Q 300.84 225.42 301.45 226.21
  Q 302.76 227.89 304.47 228.73
  Q 305.37 229.17 305.81 230.04
  Q 306.04 230.47 306.44 230.75
  Q 308.30 232.03 309.94 233.17
  Q 310.99 233.91 311.62 234.95
  Q 312.35 236.12 313.66 236.86
  Q 314.00 237.05 314.19 237.39
  Q 314.75 238.35 315.83 239.00
  Q 317.57 240.05 317.96 240.40
  C 319.48 241.80 321.15 242.98 322.32 244.71
  Q 323.16 245.95 324.41 246.81
  Q 324.73 247.03 324.93 247.36
  Q 325.57 248.44 326.85 249.31
  Q 329.54 251.16 332.04 251.71
  Q 334.79 252.31 337.48 252.95
  Q 337.63 253.60 337.39 254.57
  Q 336.05 253.93 334.66 253.84
  Q 332.73 253.71 331.96 253.42
  Q 330.33 252.79 328.78 252.00
  Q 328.34 251.78 328.10 251.35
  Q 327.80 250.80 327.20 250.59
  Q 326.74 250.44 326.45 250.04
  Q 325.61 248.89 324.24 248.40
  Q 323.79 248.24 323.46 247.90
  Q 321.69 246.04 320.06 244.01
  Q 319.59 243.42 318.90 243.06
  A 3.47 3.27 -7.4 0 1 318.11 242.49
  Q 316.57 241.02 314.80 239.84
  Q 313.12 238.70 311.76 237.26
  Q 309.82 235.19 307.39 233.39
  Q 305.13 231.71 303.04 229.57
  Q 301.06 227.53 298.73 225.81
  Q 297.14 224.63 296.09 223.00
  Q 295.84 222.62 295.43 222.40
  Q 293.87 221.58 292.63 220.34
  Q 291.44 219.16 290.12 218.16
  Q 288.89 217.21 287.84 216.08
  Q 284.93 212.94 281.09 209.96
  C 280.20 209.26 279.73 208.14 278.76 207.66
  Q 277.61 207.08 276.90 206.33
  Q 273.60 202.80 271.78 198.25
  Q 272.78 197.67 273.49 197.55
  Z"
/>
<path fill="#2b4d65" d="
  M 273.49 197.55
  L 273.89 197.46
  Q 275.57 200.23 277.29 202.73
  Q 278.52 204.52 279.80 204.92
  C 281.00 205.30 281.09 206.22 281.92 206.93
  Q 286.50 210.86 290.41 215.22
  Q 290.73 215.58 291.20 215.70
  Q 292.46 216.03 293.04 217.28
  Q 293.25 217.72 293.66 217.97
  C 295.44 219.08 297.17 219.91 298.69 221.47
  Q 300.03 222.84 301.53 224.04
  Q 301.93 224.36 302.12 224.84
  Q 302.51 225.83 303.48 226.18
  Q 303.87 226.33 304.13 226.66
  Q 304.83 227.59 305.86 228.32
  Q 307.55 229.53 308.52 231.27
  Q 308.85 231.85 309.50 231.98
  Q 310.14 232.09 310.30 232.76
  A 1.13 1.11 -86.5 0 0 310.97 233.53
  Q 312.36 234.10 313.30 235.35
  Q 314.22 236.58 315.54 237.32
  Q 319.77 239.67 322.80 243.28
  Q 324.11 244.84 325.84 246.37
  Q 327.68 248.00 329.11 249.53
  Q 329.46 249.90 329.96 249.93
  Q 330.68 249.98 331.19 250.56
  Q 331.52 250.95 332.03 251.04
  L 337.23 251.93
  Q 337.42 251.96 337.43 251.77
  Q 337.45 251.61 337.57 251.52
  Q 337.72 252.21 337.48 252.95
  Q 334.79 252.31 332.04 251.71
  Q 329.54 251.16 326.85 249.31
  Q 325.57 248.44 324.93 247.36
  Q 324.73 247.03 324.41 246.81
  Q 323.16 245.95 322.32 244.71
  C 321.15 242.98 319.48 241.80 317.96 240.40
  Q 317.57 240.05 315.83 239.00
  Q 314.75 238.35 314.19 237.39
  Q 314.00 237.05 313.66 236.86
  Q 312.35 236.12 311.62 234.95
  Q 310.99 233.91 309.94 233.17
  Q 308.30 232.03 306.44 230.75
  Q 306.04 230.47 305.81 230.04
  Q 305.37 229.17 304.47 228.73
  Q 302.76 227.89 301.45 226.21
  Q 300.84 225.42 300.02 224.85
  Q 296.52 222.41 292.91 219.32
  C 292.28 218.78 292.18 218.10 291.27 217.86
  Q 291.01 217.80 290.84 217.60
  Q 290.69 217.43 290.68 217.18
  Q 290.65 216.81 290.39 216.53
  Q 285.93 211.82 281.47 208.03
  Q 278.75 205.71 274.65 200.98
  Q 273.07 199.17 273.49 197.55
  Z"
/>
<path fill="#0d222f" d="
  M 271.78 198.25
  Q 273.60 202.80 276.90 206.33
  Q 277.61 207.08 278.76 207.66
  C 279.73 208.14 280.20 209.26 281.09 209.96
  Q 284.93 212.94 287.84 216.08
  Q 288.89 217.21 290.12 218.16
  Q 291.44 219.16 292.63 220.34
  Q 293.87 221.58 295.43 222.40
  Q 295.84 222.62 296.09 223.00
  Q 297.14 224.63 298.73 225.81
  Q 301.06 227.53 303.04 229.57
  Q 305.13 231.71 307.39 233.39
  Q 309.82 235.19 311.76 237.26
  Q 313.12 238.70 314.80 239.84
  Q 316.57 241.02 318.11 242.49
  A 3.47 3.27 -7.4 0 0 318.90 243.06
  Q 319.59 243.42 320.06 244.01
  Q 321.69 246.04 323.46 247.90
  Q 323.79 248.24 324.24 248.40
  Q 325.61 248.89 326.45 250.04
  Q 326.74 250.44 327.20 250.59
  Q 327.80 250.80 328.10 251.35
  Q 328.34 251.78 328.78 252.00
  Q 330.33 252.79 331.96 253.42
  Q 332.73 253.71 334.66 253.84
  Q 336.05 253.93 337.39 254.57
  C 336.29 260.16 331.40 262.93 326.25 263.64
  C 319.01 264.63 312.41 257.38 307.41 252.75
  C 302.84 248.52 298.60 243.69 293.63 239.81
  Q 288.00 235.40 283.00 230.39
  Q 277.07 224.43 271.42 219.59
  Q 268.09 216.73 266.88 214.08
  Q 263.74 207.17 269.05 200.30
  Q 269.92 199.17 271.78 198.25
  Z"
/>
<path fill="#214157" d="
  M 193.45 244.91
  C 192.77 245.86 192.82 247.13 193.48 248.08
  Q 193.87 248.63 194.02 249.31
  Q 194.44 251.14 195.72 252.66
  Q 197.20 254.40 198.44 256.31
  Q 199.67 258.20 201.64 259.63
  Q 203.92 261.30 205.60 263.68
  Q 207.22 265.97 209.24 268.11
  Q 212.09 271.13 214.84 274.51
  C 215.77 275.66 217.03 275.90 218.02 276.89
  Q 219.74 278.60 221.49 279.90
  Q 221.88 280.19 222.35 280.34
  L 225.43 281.30
  L 225.49 283.41
  Q 220.36 281.00 219.00 279.86
  Q 216.08 277.40 210.08 270.71
  Q 208.55 269.00 206.84 267.33
  Q 205.21 265.73 203.60 263.99
  Q 201.78 262.03 200.13 260.03
  Q 196.49 255.64 193.27 250.92
  Q 191.82 248.80 191.99 245.83
  Q 192.03 245.31 192.48 245.07
  Q 193.00 244.78 193.45 244.91
  Z"
/>
<path fill="#2b4d65" d="
  M 193.45 244.91
  Q 194.77 246.34 195.94 246.36
  Q 196.50 246.73 196.73 247.31
  L 196.12 247.39
  Q 195.65 247.45 195.82 247.88
  Q 196.81 250.34 197.93 252.44
  Q 198.07 252.68 198.35 252.76
  Q 198.72 252.86 198.96 253.16
  Q 200.85 255.64 203.13 257.76
  Q 203.57 258.17 204.31 259.25
  Q 204.86 260.07 205.74 260.60
  A 2.22 2.09 88.2 0 1 206.43 261.29
  Q 207.82 263.56 209.43 265.57
  C 209.88 266.13 210.58 266.18 211.05 266.68
  Q 213.94 269.84 216.42 273.27
  C 217.08 274.19 218.14 274.42 218.72 275.32
  Q 219.27 276.18 220.08 276.79
  Q 221.56 277.92 223.07 278.79
  C 223.66 279.12 224.35 279.10 225.01 279.04
  Q 225.41 279.98 225.43 281.30
  L 222.35 280.34
  Q 221.88 280.19 221.49 279.90
  Q 219.74 278.60 218.02 276.89
  C 217.03 275.90 215.77 275.66 214.84 274.51
  Q 212.09 271.13 209.24 268.11
  Q 207.22 265.97 205.60 263.68
  Q 203.92 261.30 201.64 259.63
  Q 199.67 258.20 198.44 256.31
  Q 197.20 254.40 195.72 252.66
  Q 194.44 251.14 194.02 249.31
  Q 193.87 248.63 193.48 248.08
  C 192.82 247.13 192.77 245.86 193.45 244.91
  Z"
/>
<path fill="#385d75" d="
  M 196.73 247.31
  Q 201.30 252.73 206.40 257.63
  Q 215.08 265.96 215.30 266.20
  Q 219.96 271.06 223.47 275.49
  Q 224.53 276.82 225.01 279.04
  C 224.35 279.10 223.66 279.12 223.07 278.79
  Q 221.56 277.92 220.08 276.79
  Q 219.27 276.18 218.72 275.32
  C 218.14 274.42 217.08 274.19 216.42 273.27
  Q 213.94 269.84 211.05 266.68
  C 210.58 266.18 209.88 266.13 209.43 265.57
  Q 207.82 263.56 206.43 261.29
  A 2.22 2.09 88.2 0 0 205.74 260.60
  Q 204.86 260.07 204.31 259.25
  Q 203.57 258.17 203.13 257.76
  Q 200.85 255.64 198.96 253.16
  Q 198.72 252.86 198.35 252.76
  Q 198.07 252.68 197.93 252.44
  Q 196.81 250.34 195.82 247.88
  Q 195.65 247.45 196.12 247.39
  L 196.73 247.31
  Z"
/>
<path fill="#0d222f" d="
  M 309.13 270.20
  Q 308.49 275.65 309.32 281.06
  Q 309.35 281.20 309.49 281.19
  L 309.49 281.19
  Q 309.63 281.17 309.63 281.03
  Q 309.62 275.77 309.62 270.50
  Q 310.50 270.81 311.02 271.53
  Q 310.29 272.28 310.22 273.25
  Q 309.85 278.07 310.47 284.26
  Q 310.49 284.46 310.69 284.44
  L 310.99 284.42
  Q 311.00 284.42 311.00 284.40
  Q 310.55 278.19 311.08 271.97
  Q 310.88 276.30 311.61 289.75
  Q 312.04 297.87 312.14 324.00
  Q 312.14 324.70 312.69 326.03
  Q 313.08 326.96 313.05 328.04
  Q 312.94 332.00 314.72 335.28
  Q 315.01 335.79 314.81 336.74
  Q 314.71 337.19 314.24 337.21
  L 307.74 337.39
  Q 307.12 337.41 307.04 336.79
  Q 305.56 325.91 304.13 315.52
  Q 302.86 306.25 302.92 295.77
  Q 303.00 280.32 302.97 265.79
  Q 302.96 265.13 303.48 265.55
  L 309.13 270.20
  Z"
/>
<path fill="#214157" d="
  M 309.13 270.20
  Q 309.69 270.39 309.62 270.50
  Q 309.62 275.77 309.63 281.03
  Q 309.63 281.17 309.49 281.19
  L 309.49 281.19
  Q 309.35 281.20 309.32 281.06
  Q 308.49 275.65 309.13 270.20
  Z"
/>
<path fill="#2b4d65" d="
  M 311.02 271.53
  Q 311.41 271.34 311.48 271.74
  Q 311.33 271.74 311.08 271.97
  Q 310.55 278.19 311.00 284.40
  Q 311.00 284.42 310.99 284.42
  L 310.69 284.44
  Q 310.49 284.46 310.47 284.26
  Q 309.85 278.07 310.22 273.25
  Q 310.29 272.28 311.02 271.53
  Z"
/>
<path fill="#385d75" d="
  M 311.48 271.74
  L 314.27 273.16
  Q 314.74 273.40 314.74 273.93
  L 314.72 335.28
  Q 312.94 332.00 313.05 328.04
  Q 313.08 326.96 312.69 326.03
  Q 312.14 324.70 312.14 324.00
  Q 312.04 297.87 311.61 289.75
  Q 310.88 276.30 311.08 271.97
  Q 311.33 271.74 311.48 271.74
  Z"
/>
<path fill="#183244" d="
  M 303.98 385.51
  L 303.84 386.53
  Q 303.81 386.74 303.61 386.84
  Q 303.45 386.93 303.34 386.75
  Q 303.08 386.33 303.11 386.82
  Q 303.12 387.10 303.34 387.24
  Q 303.74 387.48 303.29 387.61
  Q 303.00 387.69 302.77 387.49
  Q 302.51 387.26 302.61 386.93
  Q 302.69 386.66 302.41 386.66
  Q 300.51 386.70 299.65 384.61
  Q 297.82 380.15 293.86 375.67
  Q 291.74 373.27 289.67 370.90
  Q 288.56 369.63 287.34 368.64
  Q 285.86 367.46 284.82 365.83
  Q 284.54 365.40 284.10 365.15
  Q 283.44 364.78 283.09 364.18
  Q 282.63 363.39 281.96 362.70
  Q 280.50 361.18 279.20 359.93
  Q 278.61 359.37 278.35 358.66
  C 277.77 357.13 276.32 356.34 275.33 355.03
  Q 274.52 353.97 273.64 352.96
  Q 272.24 351.37 270.51 349.84
  L 266.96 320.31
  Q 266.89 319.70 266.28 319.70
  L 261.01 319.74
  Q 260.49 319.75 260.43 320.26
  L 253.58 374.99
  Q 253.01 375.07 253.15 374.24
  Q 253.28 373.48 252.65 373.92
  Q 252.33 374.15 251.94 373.96
  Q 251.13 373.58 250.90 372.83
  Q 250.17 370.45 248.79 368.26
  Q 248.18 367.29 247.83 366.19
  Q 247.41 364.93 246.59 363.89
  Q 246.27 363.49 246.20 362.99
  Q 246.02 361.77 245.17 360.86
  Q 244.90 360.57 244.94 360.18
  Q 245.22 357.04 243.13 355.50
  Q 242.69 355.19 242.68 354.65
  Q 242.65 353.41 242.53 352.25
  Q 242.37 350.73 241.78 349.36
  Q 240.04 345.31 238.87 341.10
  Q 238.17 338.59 235.93 334.47
  Q 235.70 334.03 235.28 333.76
  Q 234.38 333.18 233.71 332.32
  Q 233.52 332.08 233.25 332.22
  Q 233.01 332.35 232.73 332.36
  Q 232.32 332.37 232.18 331.99
  Q 231.99 331.45 232.20 330.88
  A 0.54 0.52 24.2 0 0 231.94 330.22
  Q 231.76 330.12 231.56 330.10
  A 0.34 0.34 0.0 0 0 231.26 330.64
  Q 231.52 330.99 231.56 331.46
  Q 231.63 332.28 230.97 331.79
  Q 230.49 331.43 229.94 331.70
  Q 231.27 321.68 232.55 311.65
  C 233.78 302.04 234.05 296.79 240.35 290.95
  C 243.40 288.13 248.43 287.05 252.68 287.13
  Q 263.37 287.34 274.83 287.16
  Q 279.00 287.10 281.87 288.35
  Q 288.45 291.24 291.67 297.25
  Q 293.48 300.63 294.34 308.00
  Q 297.16 332.07 300.62 355.90
  C 302.00 365.47 302.79 375.63 303.98 385.51
  Z"
/>
<path fill="#0d222f" d="
  M 253.58 374.99
  Q 249.90 403.25 246.32 431.53
  Q 245.15 440.78 244.18 448.80
  Q 243.58 453.81 242.37 456.35
  Q 240.35 460.62 236.80 463.14
  Q 231.05 467.23 223.07 465.63
  Q 222.19 465.45 221.76 464.64
  Q 221.55 464.23 221.21 463.91
  Q 214.47 457.52 215.00 449.96
  Q 215.47 443.23 216.70 435.33
  Q 217.87 427.85 218.55 420.33
  Q 219.52 409.55 221.05 399.16
  C 222.60 388.60 223.71 377.94 225.20 367.41
  C 226.89 355.53 228.23 343.59 229.94 331.70
  Q 230.49 331.43 230.97 331.79
  Q 231.63 332.28 231.56 331.46
  Q 231.52 330.99 231.26 330.64
  A 0.34 0.34 0.0 0 1 231.56 330.10
  Q 231.76 330.12 231.94 330.22
  A 0.54 0.52 24.2 0 1 232.20 330.88
  Q 231.99 331.45 232.18 331.99
  Q 232.32 332.37 232.73 332.36
  Q 233.01 332.35 233.25 332.22
  Q 233.52 332.08 233.71 332.32
  Q 234.38 333.18 235.28 333.76
  Q 235.70 334.03 235.93 334.47
  Q 238.17 338.59 238.87 341.10
  Q 240.04 345.31 241.78 349.36
  Q 242.37 350.73 242.53 352.25
  Q 242.65 353.41 242.68 354.65
  Q 242.69 355.19 243.13 355.50
  Q 245.22 357.04 244.94 360.18
  Q 244.90 360.57 245.17 360.86
  Q 246.02 361.77 246.20 362.99
  Q 246.27 363.49 246.59 363.89
  Q 247.41 364.93 247.83 366.19
  Q 248.18 367.29 248.79 368.26
  Q 250.17 370.45 250.90 372.83
  Q 251.13 373.58 251.94 373.96
  Q 252.33 374.15 252.65 373.92
  Q 253.28 373.48 253.15 374.24
  Q 253.01 375.07 253.58 374.99
  Z"
/>
<path fill="#183244" d="
  M 313.37 346.97
  Q 312.56 349.63 313.37 351.49
  Q 315.60 356.55 320.28 360.45
  Q 321.38 361.37 322.19 362.52
  Q 323.04 363.71 324.31 364.39
  Q 324.83 364.67 325.17 365.15
  Q 325.80 366.05 326.71 366.50
  Q 327.73 367.00 328.51 367.75
  Q 331.70 370.84 335.07 373.63
  C 335.69 374.13 336.42 374.41 337.14 374.74
  C 338.73 375.47 341.71 375.12 343.48 374.99
  C 345.33 388.22 340.49 401.44 328.92 408.21
  Q 323.70 411.25 318.22 412.90
  Q 317.37 413.15 317.25 412.27
  L 308.49 347.50
  Q 308.41 346.88 309.02 346.80
  Q 310.97 346.52 313.37 346.97
  Z"
/>
<path fill="#62879a" d="
  M 313.37 346.97
  Q 313.50 347.06 313.62 347.03
  Q 312.95 349.66 313.85 351.64
  Q 314.41 352.86 316.63 355.61
  Q 316.70 355.69 316.78 355.62
  L 316.96 355.44
  A 0.27 0.27 0.0 0 0 316.96 355.04
  C 316.25 354.40 315.99 353.52 315.37 352.76
  Q 313.46 350.39 314.46 347.02
  Q 314.74 347.13 314.95 347.08
  Q 314.36 348.49 314.64 349.51
  Q 315.55 352.81 317.73 355.44
  Q 317.81 355.54 317.91 355.46
  L 317.91 355.46
  Q 318.07 355.34 317.96 355.18
  Q 317.27 354.23 316.60 353.08
  Q 316.21 352.41 316.93 352.67
  Q 317.67 352.94 318.01 353.48
  Q 318.49 354.95 319.62 355.87
  Q 319.66 355.90 319.63 355.86
  L 318.01 353.48
  Q 317.85 353.03 317.85 352.49
  Q 317.85 351.99 317.63 351.55
  Q 316.67 349.65 317.42 347.42
  Q 329.34 350.36 337.19 360.05
  Q 342.81 366.98 343.48 374.99
  C 341.71 375.12 338.73 375.47 337.14 374.74
  C 336.42 374.41 335.69 374.13 335.07 373.63
  Q 331.70 370.84 328.51 367.75
  Q 327.73 367.00 326.71 366.50
  Q 325.80 366.05 325.17 365.15
  Q 324.83 364.67 324.31 364.39
  Q 323.04 363.71 322.19 362.52
  Q 321.38 361.37 320.28 360.45
  Q 315.60 356.55 313.37 351.49
  Q 312.56 349.63 313.37 346.97
  Z"
/>
<path fill="#385d75" d="
  M 313.62 347.03
  L 314.46 347.02
  Q 313.46 350.39 315.37 352.76
  C 315.99 353.52 316.25 354.40 316.96 355.04
  A 0.27 0.27 0.0 0 1 316.96 355.44
  L 316.78 355.62
  Q 316.70 355.69 316.63 355.61
  Q 314.41 352.86 313.85 351.64
  Q 312.95 349.66 313.62 347.03
  Z"
/>
<path fill="#385d75" d="
  M 314.95 347.08
  L 317.42 347.42
  Q 316.67 349.65 317.63 351.55
  Q 317.85 351.99 317.85 352.49
  Q 317.85 353.03 318.01 353.48
  Q 317.67 352.94 316.93 352.67
  Q 316.21 352.41 316.60 353.08
  Q 317.27 354.23 317.96 355.18
  Q 318.07 355.34 317.91 355.46
  L 317.91 355.46
  Q 317.81 355.54 317.73 355.44
  Q 315.55 352.81 314.64 349.51
  Q 314.36 348.49 314.95 347.08
  Z"
/>
<path fill="#0d222f" d="
  M 303.98 385.51
  Q 304.16 385.85 304.21 386.25
  Q 307.89 413.23 312.11 445.53
  Q 313.02 452.47 312.16 455.00
  Q 309.97 461.49 303.68 464.10
  Q 303.20 464.30 302.98 464.77
  Q 302.74 465.29 302.19 465.43
  C 299.39 466.14 294.86 466.61 292.46 464.57
  C 291.34 463.63 289.86 463.18 288.82 462.16
  Q 283.24 456.70 282.81 450.96
  Q 281.25 429.97 278.97 413.50
  Q 273.28 372.42 270.51 349.84
  Q 272.24 351.37 273.64 352.96
  Q 274.52 353.97 275.33 355.03
  C 276.32 356.34 277.77 357.13 278.35 358.66
  Q 278.61 359.37 279.20 359.93
  Q 280.50 361.18 281.96 362.70
  Q 282.63 363.39 283.09 364.18
  Q 283.44 364.78 284.10 365.15
  Q 284.54 365.40 284.82 365.83
  Q 285.86 367.46 287.34 368.64
  Q 288.56 369.63 289.67 370.90
  Q 291.74 373.27 293.86 375.67
  Q 297.82 380.15 299.65 384.61
  Q 300.51 386.70 302.41 386.66
  Q 302.69 386.66 302.61 386.93
  Q 302.51 387.26 302.77 387.49
  Q 303.00 387.69 303.29 387.61
  Q 303.74 387.48 303.34 387.24
  Q 303.12 387.10 303.11 386.82
  Q 303.08 386.33 303.34 386.75
  Q 303.45 386.93 303.61 386.84
  Q 303.81 386.74 303.84 386.53
  L 303.98 385.51
  Z"
/>
<path fill="#385d75" d="
  M 318.01 353.48
  L 319.63 355.86
  Q 319.66 355.90 319.62 355.87
  Q 318.49 354.95 318.01 353.48
  Z"
/>
<path fill="#385d75" d="
  M 200.63 369.02
  Q 200.31 369.31 199.84 369.35
  Q 199.36 369.39 199.20 369.85
  Q 199.13 370.05 199.13 370.25
  Q 199.15 370.78 199.63 370.99
  Q 202.16 372.12 205.11 372.75
  Q 206.51 373.05 207.66 373.71
  Q 208.86 374.39 209.95 375.54
  Q 212.55 378.27 214.27 381.80
  Q 212.48 381.13 211.14 379.85
  Q 210.66 379.38 210.58 378.71
  Q 210.53 378.24 210.19 377.91
  Q 205.95 373.69 198.73 373.66
  Q 191.77 373.63 184.61 373.60
  Q 182.71 373.59 180.89 374.32
  Q 178.98 375.10 177.28 376.00
  A 1.48 1.48 0.0 0 1 175.12 374.53
  Q 175.30 373.07 174.88 371.64
  Q 178.86 369.09 180.50 369.07
  Q 190.45 368.97 200.63 369.02
  Z"
/>
<path fill="#62879a" d="
  M 200.63 369.02
  Q 209.16 369.59 214.04 376.65
  Q 214.81 377.77 214.75 379.07
  Q 214.68 380.40 214.38 381.70
  Q 214.32 381.75 214.27 381.80
  Q 212.55 378.27 209.95 375.54
  Q 208.86 374.39 207.66 373.71
  Q 206.51 373.05 205.11 372.75
  Q 202.16 372.12 199.63 370.99
  Q 199.15 370.78 199.13 370.25
  Q 199.13 370.05 199.20 369.85
  Q 199.36 369.39 199.84 369.35
  Q 200.31 369.31 200.63 369.02
  Z"
/>
<path fill="#0d222f" d="
  M 174.88 371.64
  Q 175.30 373.07 175.12 374.53
  A 1.48 1.48 0.0 0 0 177.28 376.00
  Q 178.98 375.10 180.89 374.32
  Q 182.71 373.59 184.61 373.60
  Q 191.77 373.63 198.73 373.66
  Q 205.95 373.69 210.19 377.91
  Q 210.53 378.24 210.58 378.71
  Q 210.66 379.38 211.14 379.85
  Q 212.48 381.13 214.27 381.80
  Q 214.32 381.75 214.38 381.70
  L 211.54 402.52
  L 208.75 398.75
  Q 207.95 397.27 205.39 395.98
  Q 206.89 396.51 204.84 395.39
  C 208.68 392.29 210.44 385.95 207.65 381.85
  Q 205.52 378.71 202.21 378.73
  Q 194.35 378.77 184.61 378.62
  C 180.81 378.56 177.67 380.72 177.40 384.74
  Q 175.73 384.86 174.30 385.72
  Q 173.87 385.99 173.75 386.49
  Q 173.14 389.08 174.46 391.42
  Q 174.38 391.15 174.72 391.46
  Q 174.93 392.98 175.74 393.78
  Q 176.77 396.57 178.71 398.60
  Q 179.07 398.98 179.59 398.86
  Q 179.75 398.83 179.90 398.89
  Q 180.48 399.12 180.56 399.75
  Q 180.78 401.50 181.12 403.19
  C 181.46 404.84 182.32 406.20 182.15 407.98
  Q 182.10 408.41 182.36 408.77
  Q 183.34 410.13 184.14 411.82
  Q 185.75 415.21 188.72 419.19
  Q 190.24 421.22 191.88 422.57
  Q 193.57 423.98 195.24 425.55
  Q 197.44 427.62 201.06 429.05
  Q 204.36 430.36 207.81 431.37
  L 205.79 444.28
  Q 205.71 444.80 205.32 445.16
  Q 203.82 446.54 201.71 447.07
  Q 193.60 449.10 183.76 447.64
  Q 181.12 447.24 179.08 445.95
  Q 174.39 442.96 170.90 438.88
  Q 172.43 438.33 171.12 436.41
  Q 170.84 435.99 170.81 435.49
  Q 170.64 431.96 170.43 428.60
  Q 170.37 427.51 169.97 426.55
  Q 169.53 425.49 169.47 424.38
  Q 169.38 422.72 168.96 421.04
  Q 167.90 416.94 167.89 412.41
  A 0.95 0.94 -73.0 0 0 167.48 411.63
  L 166.49 410.93
  Q 168.45 406.16 172.10 402.74
  A 1.87 1.86 56.9 0 0 172.54 400.65
  Q 170.83 396.64 169.37 392.45
  Q 164.93 379.71 174.88 371.64
  Z"
/>
<path fill="#183244" d="
  M 177.40 384.74
  L 177.38 386.79
  Q 174.68 386.09 174.54 388.76
  Q 174.48 389.95 174.46 391.42
  Q 173.14 389.08 173.75 386.49
  Q 173.87 385.99 174.30 385.72
  Q 175.73 384.86 177.40 384.74
  Z"
/>
<path fill="#214157" d="
  M 177.38 386.79
  Q 177.48 387.13 177.42 387.57
  L 175.50 388.04
  Q 174.99 388.17 174.94 388.70
  L 174.72 391.46
  Q 174.38 391.15 174.46 391.42
  Q 174.48 389.95 174.54 388.76
  Q 174.68 386.09 177.38 386.79
  Z"
/>
<path fill="#2b4d65" d="
  M 177.42 387.57
  L 177.54 388.82
  Q 176.67 388.75 176.06 389.06
  Q 175.45 389.38 175.30 390.18
  Q 175.12 391.10 175.43 392.07
  Q 176.07 393.10 175.74 393.78
  Q 174.93 392.98 174.72 391.46
  L 174.94 388.70
  Q 174.99 388.17 175.50 388.04
  L 177.42 387.57
  Z"
/>
<path fill="#385d75" d="
  M 177.54 388.82
  Q 177.76 389.06 177.72 389.83
  Q 176.74 389.75 176.10 390.05
  Q 175.64 390.27 175.65 390.78
  Q 175.67 391.47 175.43 392.07
  Q 175.12 391.10 175.30 390.18
  Q 175.45 389.38 176.06 389.06
  Q 176.67 388.75 177.54 388.82
  Z"
/>
<path fill="#183244" d="
  M 177.72 389.83
  Q 178.69 392.90 180.80 394.82
  A 1.68 1.66 -34.0 0 0 182.51 395.14
  Q 187.62 393.22 192.62 393.07
  Q 189.81 396.39 188.80 401.07
  C 188.53 402.33 188.90 403.46 189.03 404.78
  Q 189.08 405.31 189.46 405.69
  C 190.57 406.82 190.86 408.28 191.84 409.54
  Q 197.11 416.32 199.01 418.17
  Q 202.47 421.55 208.97 423.25
  L 207.81 431.37
  Q 204.36 430.36 201.06 429.05
  Q 197.44 427.62 195.24 425.55
  Q 193.57 423.98 191.88 422.57
  Q 190.24 421.22 188.72 419.19
  Q 185.75 415.21 184.14 411.82
  Q 183.34 410.13 182.36 408.77
  Q 182.10 408.41 182.15 407.98
  C 182.32 406.20 181.46 404.84 181.12 403.19
  Q 180.78 401.50 180.56 399.75
  Q 180.48 399.12 179.90 398.89
  Q 179.75 398.83 179.59 398.86
  Q 179.07 398.98 178.71 398.60
  Q 176.77 396.57 175.74 393.78
  Q 176.07 393.10 175.43 392.07
  Q 175.67 391.47 175.65 390.78
  Q 175.64 390.27 176.10 390.05
  Q 176.74 389.75 177.72 389.83
  Z"
/>
<path fill="#214157" d="
  M 192.62 393.07
  L 197.58 393.63
  L 195.87 394.16
  A 1.18 1.15 2.8 0 0 195.18 394.77
  Q 194.69 395.83 193.83 396.59
  Q 192.73 397.57 192.41 398.16
  Q 190.60 401.63 191.78 405.35
  Q 192.35 407.13 193.42 408.45
  Q 194.65 409.96 195.75 411.70
  Q 196.15 412.35 197.23 413.06
  Q 199.46 416.94 205.03 419.30
  Q 207.02 420.15 208.19 419.60
  Q 208.90 419.27 208.12 419.28
  Q 206.74 419.31 205.56 418.87
  Q 204.17 418.34 202.86 417.67
  Q 201.56 417.00 200.29 415.80
  Q 198.79 414.38 197.23 413.06
  Q 196.44 411.37 194.12 408.26
  Q 190.62 403.58 193.77 398.20
  Q 195.87 394.62 202.09 395.06
  L 203.80 395.63
  C 201.99 395.83 200.43 395.21 198.72 395.74
  Q 195.09 396.85 193.90 399.38
  Q 191.55 404.40 195.65 408.97
  Q 195.99 409.36 196.12 409.86
  Q 196.60 411.70 198.06 412.74
  Q 198.41 412.99 198.42 413.43
  Q 198.42 413.70 198.61 413.86
  Q 201.67 416.53 204.12 417.86
  Q 206.72 419.27 209.44 418.55
  L 208.97 423.25
  Q 202.47 421.55 199.01 418.17
  Q 197.11 416.32 191.84 409.54
  C 190.86 408.28 190.57 406.82 189.46 405.69
  Q 189.08 405.31 189.03 404.78
  C 188.90 403.46 188.53 402.33 188.80 401.07
  Q 189.81 396.39 192.62 393.07
  Z"
/>
<path fill="#2b4d65" d="
  M 197.58 393.63
  L 202.09 395.06
  Q 195.87 394.62 193.77 398.20
  Q 190.62 403.58 194.12 408.26
  Q 196.44 411.37 197.23 413.06
  Q 196.15 412.35 195.75 411.70
  Q 194.65 409.96 193.42 408.45
  Q 192.35 407.13 191.78 405.35
  Q 190.60 401.63 192.41 398.16
  Q 192.73 397.57 193.83 396.59
  Q 194.69 395.83 195.18 394.77
  A 1.18 1.15 2.8 0 1 195.87 394.16
  L 197.58 393.63
  Z"
/>
<path fill="#385d75" d="
  M 204.84 395.39
  Q 206.89 396.51 205.39 395.98
  Q 207.00 397.89 208.75 398.75
  L 211.54 402.52
  L 211.03 405.75
  Q 210.92 402.50 208.99 399.81
  Q 208.74 399.46 208.31 399.40
  Q 206.96 399.23 205.55 398.99
  Q 202.46 398.47 199.90 399.91
  Q 197.87 401.05 197.79 403.47
  Q 197.68 406.50 199.89 409.25
  Q 204.60 415.12 209.85 413.86
  L 209.44 418.55
  Q 206.72 419.27 204.12 417.86
  Q 201.67 416.53 198.61 413.86
  Q 198.42 413.70 198.42 413.43
  Q 198.41 412.99 198.06 412.74
  Q 196.60 411.70 196.12 409.86
  Q 195.99 409.36 195.65 408.97
  Q 191.55 404.40 193.90 399.38
  Q 195.09 396.85 198.72 395.74
  C 200.43 395.21 201.99 395.83 203.80 395.63
  Q 204.58 395.56 204.84 395.39
  Z"
/>
<path fill="#183244" d="
  M 205.39 395.98
  Q 207.95 397.27 208.75 398.75
  Q 207.00 397.89 205.39 395.98
  Z"
/>
<path fill="#62879a" d="
  M 211.03 405.75
  L 209.85 413.86
  Q 204.60 415.12 199.89 409.25
  Q 197.68 406.50 197.79 403.47
  Q 197.87 401.05 199.90 399.91
  Q 202.46 398.47 205.55 398.99
  Q 206.96 399.23 208.31 399.40
  Q 208.74 399.46 208.99 399.81
  Q 210.92 402.50 211.03 405.75
  Z"
/>
<path fill="#183244" d="
  M 166.49 410.93
  L 167.48 411.63
  A 0.95 0.94 -73.0 0 1 167.89 412.41
  Q 167.90 416.94 168.96 421.04
  Q 169.38 422.72 169.47 424.38
  Q 169.53 425.49 169.97 426.55
  Q 170.37 427.51 170.43 428.60
  Q 170.64 431.96 170.81 435.49
  Q 170.84 435.99 171.12 436.41
  Q 172.43 438.33 170.90 438.88
  Q 161.13 426.53 166.49 410.93
  Z"
/>
<path fill="#2b4d65" d="
  M 197.23 413.06
  Q 198.79 414.38 200.29 415.80
  Q 201.56 417.00 202.86 417.67
  Q 204.17 418.34 205.56 418.87
  Q 206.74 419.31 208.12 419.28
  Q 208.90 419.27 208.19 419.60
  Q 207.02 420.15 205.03 419.30
  Q 199.46 416.94 197.23 413.06
  Z"
/>
</g>
<path fill="#183244" d="
  M 308.17 272.26
  Q 308.01 271.55 308.13 270.81
  Q 308.23 270.21 308.65 270.66
  Q 308.90 270.93 308.90 271.29
  Q 308.86 275.32 308.86 278.96
  Q 308.86 279.19 308.63 279.19
  L 308.62 279.19
  Q 308.43 279.19 308.42 279.00
  C 308.36 276.86 308.63 274.33 308.17 272.26
  Z"
/>
</svg>
