<?xml version="1.0" encoding="UTF-8" standalone="no"?>
<!DOCTYPE svg PUBLIC "-//W3C//DTD SVG 1.0//EN" "http://www.w3.org/TR/2001/REC-SVG-20010904/DTD/svg10.dtd">
<svg xmlns="http://www.w3.org/2000/svg" version="1.0" viewBox="0.00 0.00 500.00 500.00">
<clipPath id="clipping-path-1">
<path d="
  M 241.18 34.17
  L 233.86 42.63
  Q 230.07 48.72 229.82 55.76
  Q 229.54 63.83 229.65 72.03
  A 0.63 0.63 0.0 0 0 230.68 72.51
  Q 235.84 68.33 241.07 64.33
  Q 242.59 63.16 247.91 60.77
  Q 261.23 55.29 274.56 60.72
  C 280.88 63.24 286.35 67.87 291.34 72.29
  A 0.56 0.56 0.0 0 0 292.27 71.87
  Q 292.28 62.17 291.67 52.37
  Q 291.60 51.11 290.29 47.10
  Q 287.02 39.36 280.53 34.43
  Q 278.17 32.41 275.99 31.81
  Q 257.33 26.66 241.18 34.17
  Z
  M 225.74 87.44
  Q 226.83 93.48 230.79 96.19
  Q 232.24 97.18 234.68 96.80
  Q 235.17 96.73 235.30 97.20
  L 238.99 110.30
  L 238.75 131.46
  Q 238.74 132.03 238.24 132.30
  L 231.83 135.70
  Q 231.62 135.82 231.74 136.02
  Q 235.30 141.96 239.75 146.59
  Q 250.49 155.69 264.24 154.32
  C 271.05 153.64 277.43 151.10 282.34 146.29
  C 285.52 143.18 288.10 140.27 289.99 136.35
  Q 290.21 135.90 289.76 135.68
  L 282.92 132.15
  A 0.76 0.73 -77.5 0 1 282.52 131.50
  L 282.35 120.07
  L 282.38 109.74
  L 283.32 106.72
  L 285.95 97.00
  Q 286.11 96.42 286.68 96.61
  C 295.14 99.34 297.10 82.91 297.01 78.30
  C 296.95 75.48 294.66 72.58 291.75 74.78
  A 1.50 1.47 -12.5 0 0 291.19 75.64
  C 290.17 80.01 285.78 77.24 283.67 75.24
  Q 277.73 69.85 271.77 67.64
  C 261.28 63.74 251.58 66.49 242.09 72.56
  C 238.83 74.64 236.50 79.12 231.93 78.10
  A 0.89 0.89 0.0 0 1 231.32 77.60
  Q 231.05 76.99 230.90 76.32
  C 230.46 74.25 227.11 73.41 225.73 74.96
  C 223.24 77.79 224.68 83.96 225.74 87.44
  Z
  M 392.51 130.12
  L 388.68 133.34
  L 377.69 142.42
  A 0.70 0.69 -34.7 0 0 377.53 143.29
  Q 383.41 154.14 385.17 164.85
  Q 389.21 189.51 384.93 212.60
  Q 382.82 223.94 376.68 235.33
  C 374.86 238.70 372.39 241.50 369.94 244.43
  Q 367.63 246.79 365.33 249.19
  C 360.53 254.17 354.67 257.97 348.41 260.94
  C 344.64 262.73 341.27 265.31 337.60 267.37
  Q 329.21 272.07 320.92 276.96
  Q 320.81 277.03 309.58 283.47
  Q 299.64 289.17 289.13 296.87
  Q 279.73 303.76 275.18 309.97
  Q 266.90 321.29 266.31 336.76
  Q 265.84 349.34 266.13 362.33
  A 0.47 0.46 89.4 0 0 266.59 362.79
  L 281.05 362.77
  Q 281.63 362.77 281.62 362.19
  Q 281.56 353.94 281.73 344.47
  C 281.90 335.14 284.73 326.30 290.32 318.60
  Q 297.25 309.06 305.81 303.39
  C 315.56 296.93 330.50 287.96 344.57 279.91
  Q 349.87 276.87 354.85 273.70
  Q 366.44 266.97 376.51 258.74
  Q 381.22 254.89 383.74 251.36
  C 387.95 245.46 391.94 238.60 394.63 231.57
  Q 398.98 220.23 401.05 209.51
  Q 402.60 201.48 403.87 190.84
  Q 405.04 191.66 405.03 193.00
  Q 405.02 195.54 406.12 197.40
  Q 406.02 200.28 405.94 203.39
  Q 405.86 206.44 405.39 209.36
  C 402.63 226.59 396.31 242.48 385.73 256.14
  Q 383.60 258.89 380.78 261.31
  C 373.65 267.41 366.06 272.45 356.22 278.61
  Q 353.53 280.30 350.70 281.63
  C 346.82 283.45 343.37 285.95 339.71 288.12
  Q 331.59 292.94 323.50 297.81
  Q 308.96 306.57 307.43 307.69
  Q 301.22 312.26 295.57 319.23
  C 285.27 331.94 285.60 346.39 286.01 362.26
  Q 286.02 362.75 286.52 362.75
  L 302.51 362.77
  Q 303.12 362.77 303.12 362.16
  Q 303.16 356.24 303.24 350.34
  Q 303.36 339.74 307.18 329.98
  C 310.57 321.33 317.23 313.47 324.14 307.12
  Q 326.48 304.97 329.34 303.50
  Q 335.81 300.17 341.98 296.97
  C 347.39 294.16 353.13 292.00 358.71 289.62
  C 363.92 287.39 369.02 284.45 374.16 281.79
  C 377.62 280.00 381.45 277.48 383.85 275.28
  Q 393.99 265.98 400.03 258.28
  Q 404.08 253.11 406.05 249.02
  C 408.57 243.78 411.29 238.62 413.33 233.01
  Q 423.14 206.11 420.03 176.33
  C 418.63 162.95 414.72 150.15 408.99 137.98
  Q 407.87 135.60 406.71 133.10
  C 405.19 129.81 403.29 126.75 401.33 123.68
  A 0.47 0.46 54.1 0 0 400.65 123.57
  L 392.51 130.12
  Z
  M 161.19 199.42
  L 162.85 210.05
  Q 162.93 210.54 162.63 210.93
  Q 158.76 216.00 157.39 219.09
  Q 154.14 226.36 153.13 236.50
  Q 152.28 249.42 154.86 262.00
  Q 154.92 262.29 155.25 262.54
  Q 155.37 262.68 155.37 262.85
  Q 155.37 262.97 155.25 263.12
  Q 141.42 280.44 140.13 303.48
  L 138.66 334.37
  L 137.03 362.96
  L 134.48 384.71
  L 129.68 402.20
  Q 129.06 402.86 130.03 403.73
  Q 135.95 409.08 141.59 414.56
  Q 142.08 415.05 142.77 415.08
  L 151.78 415.47
  Q 152.42 415.50 152.33 414.87
  L 150.85 403.94
  L 151.46 396.06
  Q 152.58 388.55 154.04 385.26
  Q 155.64 381.63 157.40 377.87
  Q 157.62 377.39 157.43 376.90
  L 155.92 373.08
  Q 155.72 372.59 155.82 372.06
  Q 156.60 367.70 157.03 366.46
  Q 161.66 353.16 165.78 345.15
  Q 170.42 336.12 175.27 326.61
  C 177.63 322.00 179.47 316.91 181.20 312.00
  C 185.93 298.56 185.58 284.63 183.14 270.36
  A 2.44 2.41 -31.1 0 1 183.63 268.43
  Q 190.70 259.45 193.53 248.51
  Q 195.18 242.15 196.76 236.42
  Q 196.95 235.75 197.17 236.41
  L 199.72 244.02
  L 207.74 267.25
  Q 208.02 269.91 208.40 272.93
  Q 208.79 276.01 208.97 279.10
  Q 210.17 300.60 209.63 321.68
  Q 209.48 327.79 209.54 333.88
  Q 209.54 334.06 209.72 334.07
  L 209.72 334.07
  Q 209.87 334.08 209.89 333.93
  Q 210.50 328.27 212.00 323.09
  Q 214.86 313.26 218.42 304.18
  Q 222.45 293.88 230.58 283.82
  C 232.74 281.14 235.48 278.80 237.80 276.23
  Q 240.54 273.20 243.70 270.74
  Q 252.36 264.00 257.50 261.49
  Q 272.56 254.15 287.99 246.20
  L 298.86 241.06
  Q 308.66 237.11 318.15 232.17
  C 319.13 231.66 320.68 231.23 321.11 229.90
  Q 322.66 225.04 323.82 219.81
  Q 324.00 218.97 324.24 219.79
  L 326.31 226.86
  Q 326.49 227.48 327.02 227.11
  L 335.40 221.17
  Q 341.24 216.81 342.92 213.69
  C 344.85 210.10 347.29 206.31 348.66 202.87
  Q 352.71 192.72 351.65 181.34
  Q 350.95 174.28 347.82 168.22
  Q 346.21 165.10 343.42 160.78
  C 341.63 157.45 337.75 155.43 334.70 153.38
  Q 327.12 148.99 318.92 146.46
  L 310.95 143.23
  L 296.46 138.18
  Q 295.84 137.97 295.55 138.56
  C 292.68 144.38 289.05 148.99 283.79 153.18
  Q 280.61 155.71 276.39 157.30
  C 269.12 160.05 262.85 161.08 254.94 160.20
  Q 245.54 158.47 240.56 155.42
  Q 236.71 153.06 230.50 145.78
  L 225.98 138.38
  A 0.88 0.87 63.2 0 0 224.91 138.02
  C 211.14 143.52 197.31 148.52 183.97 154.86
  Q 178.17 157.61 174.64 161.15
  Q 169.17 166.63 165.78 173.00
  C 161.42 181.20 160.55 190.32 161.19 199.42
  Z
  M 345.19 233.23
  Q 342.08 236.57 338.41 238.64
  Q 331.89 242.31 324.33 246.23
  C 316.91 250.08 307.42 254.23 299.52 258.42
  C 295.88 260.35 290.69 262.02 286.41 264.18
  Q 278.24 268.28 269.56 272.67
  Q 264.39 275.28 257.36 280.04
  Q 247.89 286.46 241.90 293.88
  C 239.77 296.52 238.36 299.55 236.36 302.35
  C 231.38 309.35 228.31 318.92 226.38 327.49
  Q 224.33 335.62 224.07 345.26
  Q 223.83 353.84 223.83 362.37
  A 0.32 0.32 0.0 0 0 224.15 362.69
  L 235.14 362.67
  L 261.02 362.76
  Q 261.60 362.77 261.60 362.19
  L 261.66 345.86
  C 261.55 336.42 261.83 330.64 264.16 322.50
  Q 267.57 310.53 275.32 302.97
  Q 278.05 300.30 280.68 297.67
  C 285.31 293.05 291.35 289.49 296.81 285.71
  Q 312.65 276.52 328.47 266.99
  Q 333.30 264.07 343.21 258.95
  Q 350.08 255.39 358.78 248.74
  Q 363.82 244.88 368.65 238.79
  Q 372.82 233.53 375.60 226.97
  C 382.37 211.04 384.15 193.43 382.55 176.50
  Q 381.10 161.10 374.06 146.50
  A 0.53 0.53 0.0 0 0 373.26 146.31
  Q 368.36 150.00 363.80 154.54
  C 362.66 155.67 361.29 156.38 360.09 157.41
  Q 359.68 157.77 359.98 158.22
  Q 362.46 161.88 363.58 165.44
  Q 367.24 177.03 366.43 190.74
  C 366.20 194.58 365.26 198.11 364.71 201.84
  C 362.96 213.74 354.25 225.56 345.19 233.23
  Z
  M 97.20 394.97
  Q 95.71 406.71 99.51 418.01
  C 103.36 429.45 113.15 436.58 125.46 435.10
  Q 130.40 434.51 135.22 430.40
  Q 135.32 430.31 135.25 430.20
  L 135.11 429.98
  Q 135.08 429.93 135.03 429.96
  C 129.21 433.32 123.01 432.13 117.58 428.43
  Q 114.89 426.59 112.86 423.23
  Q 105.66 411.23 106.51 396.28
  Q 107.69 382.94 115.37 372.58
  Q 120.69 365.40 130.66 366.18
  Q 131.15 366.21 131.67 366.08
  Q 132.22 365.95 132.46 365.50
  A 0.89 0.89 0.0 0 0 132.02 364.25
  C 122.00 360.08 110.79 361.74 104.64 371.40
  Q 97.96 381.89 97.20 394.97
  Z
  M 156.44 390.45
  Q 153.62 404.70 156.16 418.19
  Q 157.02 422.75 158.59 425.69
  C 160.96 430.12 164.98 435.12 169.73 436.80
  C 178.32 439.85 186.89 439.18 193.35 432.30
  A 0.07 0.07 0.0 0 0 193.26 432.19
  Q 183.28 438.51 174.57 431.23
  Q 168.51 426.16 166.13 417.93
  Q 162.46 405.18 165.17 393.24
  Q 167.07 382.46 174.06 375.06
  Q 178.12 370.77 182.03 370.19
  Q 187.18 369.42 192.69 372.02
  Q 193.55 372.43 192.93 371.71
  C 188.39 366.51 180.37 364.79 174.04 365.90
  Q 168.50 366.88 164.65 371.66
  Q 157.79 380.20 156.44 390.45
  Z
  M 109.96 399.17
  Q 109.69 408.55 113.18 416.91
  Q 115.94 423.55 119.71 426.07
  C 124.71 429.42 132.82 429.93 137.37 425.10
  Q 139.76 422.56 141.20 419.91
  A 0.66 0.66 0.0 0 0 140.60 418.94
  Q 138.30 419.00 136.88 417.33
  Q 131.61 411.12 123.87 405.04
  Q 123.68 404.89 123.73 404.65
  L 127.55 388.60
  Q 130.08 379.91 131.36 370.03
  Q 131.41 369.61 131.00 369.56
  Q 124.09 368.80 118.26 374.92
  C 114.93 378.42 113.64 382.89 111.93 387.24
  Q 110.31 391.34 109.96 399.17
  Z
  M 167.82 401.95
  Q 166.48 415.03 173.58 425.74
  Q 174.23 426.73 175.30 427.40
  C 176.90 428.41 177.83 429.72 179.58 430.57
  Q 184.47 432.93 189.44 430.55
  Q 194.84 427.98 196.79 424.39
  Q 199.70 419.02 201.25 411.74
  Q 201.36 411.22 201.89 411.22
  L 203.86 411.21
  Q 206.07 412.02 207.40 410.68
  C 210.41 407.62 211.99 401.47 208.22 398.30
  A 2.05 2.05 0.0 0 0 205.39 398.50
  Q 202.84 401.35 202.74 405.31
  L 186.17 403.77
  Q 184.35 403.60 184.73 401.82
  Q 185.29 399.18 186.47 396.81
  A 3.01 3.00 -74.6 0 1 189.38 395.15
  L 193.61 395.48
  Q 194.49 395.55 194.10 394.75
  C 191.81 390.14 187.62 391.89 185.70 395.54
  Q 181.55 403.41 185.31 410.59
  C 187.89 415.49 192.23 415.25 195.21 410.69
  A 1.02 1.01 24.0 0 1 196.32 410.27
  L 196.68 410.36
  Q 197.56 410.60 197.29 411.48
  Q 195.30 417.96 188.73 417.20
  C 182.70 416.50 179.72 408.53 179.69 403.27
  Q 180.03 395.68 184.06 391.32
  C 188.93 386.06 195.78 389.00 197.28 395.54
  Q 197.40 396.08 197.95 396.10
  L 200.25 396.21
  Q 200.79 396.24 200.80 395.69
  C 200.82 386.21 195.26 371.59 182.90 373.84
  C 175.85 375.12 170.73 385.51 169.25 391.74
  Q 168.10 396.57 167.82 401.95
  Z
  M 87.16 399.36
  Q 86.98 403.03 88.99 405.50
  Q 89.34 405.93 89.89 405.98
  L 93.27 406.30
  Q 93.88 406.36 93.85 405.74
  L 93.45 398.94
  L 93.43 393.07
  Q 93.43 392.56 92.93 392.44
  Q 89.03 391.43 87.80 395.51
  Q 87.03 398.08 87.16 399.36
  Z
  M 250.16 458.29
  C 263.99 463.22 278.49 460.51 289.83 451.32
  Q 293.67 448.21 295.79 446.06
  Q 300.52 441.25 302.53 434.51
  Q 305.42 424.85 304.68 415.93
  Q 304.21 404.83 296.32 395.11
  Q 295.99 394.70 295.59 395.05
  Q 280.21 408.28 263.58 421.58
  Q 261.93 422.90 260.40 424.55
  C 258.50 426.60 256.06 428.04 253.88 429.80
  Q 248.43 434.20 243.09 438.55
  C 239.84 441.19 237.06 444.35 233.67 446.89
  Q 233.09 447.32 233.64 447.79
  Q 236.61 450.34 239.77 452.98
  Q 243.42 456.02 250.16 458.29
  Z"/>
</clipPath>
<g stroke-width="5.00" fill="none" stroke-linecap="butt" clip-path="url(#clipping-path-1)">
<path stroke="#0abac8" vector-effect="non-scaling-stroke" d="
  M 280.53 34.43
  L 247.57 52.57
  A 1.05 1.05 0.0 0 1 246.01 51.69
  Q 245.75 45.12 242.35 39.13
  Q 241.11 36.93 241.18 34.17"
/>
<path stroke="#0567aa" vector-effect="non-scaling-stroke" d="
  M 290.29 47.10
  Q 287.96 50.44 284.84 52.61
  Q 281.06 55.24 279.94 56.24
  Q 277.39 58.51 274.56 60.72"
/>
<path stroke="#057db2" vector-effect="non-scaling-stroke" d="
  M 247.91 60.77
  Q 245.43 58.69 245.87 56.24
  A 0.87 0.87 0.0 0 0 244.83 55.24
  Q 241.97 55.85 239.78 54.61
  Q 239.34 54.36 239.17 53.88
  L 238.72 52.58
  Q 238.54 52.06 238.14 51.68
  Q 236.30 49.89 235.68 47.29
  Q 235.63 47.09 235.43 47.04
  Q 235.28 47.00 235.14 46.94
  Q 234.69 46.74 234.59 46.26
  L 233.86 42.63"
/>
<path stroke="#19346f" vector-effect="non-scaling-stroke" d="
  M 283.67 75.24
  Q 282.71 76.40 281.23 76.66
  A 0.04 0.04 0.0 0 0 281.21 76.73
  Q 281.47 76.88 281.29 77.11
  Q 281.20 77.23 281.04 77.28
  C 279.04 77.94 278.24 79.01 275.68 78.49"
/>
<path stroke="#164b7e" vector-effect="non-scaling-stroke" d="
  M 275.68 78.49
  C 263.18 72.53 252.60 75.52 240.69 81.62
  C 236.35 83.84 233.64 82.91 229.16 82.16
  A 1.74 1.73 -56.1 0 0 227.95 82.40
  Q 226.63 83.20 226.49 84.81
  A 2.10 2.06 65.8 0 1 226.11 85.84
  Q 225.64 86.48 225.74 87.44"
/>
<path stroke="#164b7e" vector-effect="non-scaling-stroke" d="
  M 282.38 109.74
  Q 280.28 114.41 276.28 118.06"
/>
<path stroke="#08a3c4" vector-effect="non-scaling-stroke" d="
  M 276.28 118.06
  C 276.88 115.59 275.49 115.10 274.47 113.31
  Q 274.02 112.53 273.76 111.70
  Q 273.39 110.49 272.48 109.44
  Q 271.27 108.03 270.18 106.56
  Q 269.53 105.70 268.63 104.93
  Q 267.79 104.22 267.25 103.18
  A 1.76 1.75 1.4 0 0 266.60 102.50
  Q 263.57 100.69 260.82 98.63
  Q 259.50 97.63 258.00 98.07
  Q 256.10 98.61 254.58 100.12
  A 1.17 1.16 21.7 0 1 253.78 100.46
  Q 253.33 100.47 252.96 100.69
  Q 248.63 103.32 243.32 107.35
  Q 241.31 108.89 239.43 110.67"
/>
<path stroke="#164b7e" vector-effect="non-scaling-stroke" d="
  M 239.43 110.67
  Q 239.06 110.62 238.99 110.30"
/>
<path stroke="#0865a5" vector-effect="non-scaling-stroke" d="
  M 283.32 106.72
  Q 283.45 103.99 281.61 101.99
  Q 281.37 101.74 281.39 101.38
  Q 281.42 100.87 281.13 100.44
  Q 278.70 96.87 275.44 93.94
  Q 274.32 92.94 273.49 91.68
  Q 273.19 91.23 272.76 90.92
  Q 272.27 90.57 272.13 90.00
  Q 272.00 89.48 272.45 89.18
  L 281.28 83.47
  A 1.03 1.03 0.0 0 0 281.24 81.72
  L 275.68 78.49"
/>
<path stroke="#16407b" vector-effect="non-scaling-stroke" d="
  M 282.35 120.07
  Q 279.91 121.88 278.11 124.27
  Q 275.51 127.71 274.32 128.75
  Q 270.02 132.51 266.26 134.03
  Q 251.42 140.04 246.97 142.10
  Q 244.51 143.23 239.75 146.59"
/>
<path stroke="#19738e" vector-effect="non-scaling-stroke" d="
  M 276.28 118.06
  C 268.27 126.70 255.42 126.84 246.46 119.53
  Q 242.86 116.60 239.43 110.67"
/>
<path stroke="#0ca5bd" vector-effect="non-scaling-stroke" d="
  M 406.12 197.40
  Q 409.46 169.53 399.08 143.91
  Q 396.23 136.87 392.51 130.12"
/>
<path stroke="#0cafc0" vector-effect="non-scaling-stroke" d="
  M 403.87 190.84
  Q 403.21 187.44 403.22 183.95
  Q 403.25 179.44 402.92 177.07
  C 402.25 172.17 401.88 166.68 400.65 162.04
  Q 397.80 151.23 392.38 139.52
  Q 390.67 135.81 388.68 133.34"
/>
<path stroke="#0587bb" vector-effect="non-scaling-stroke" d="
  M 354.85 273.70
  Q 356.51 269.61 358.16 266.00
  Q 361.58 258.55 366.33 251.78
  Q 366.63 251.35 366.67 250.84
  Q 366.72 250.26 367.23 250.02
  Q 367.63 249.82 367.87 249.45
  Q 369.06 247.58 370.49 245.89
  Q 371.37 244.85 369.94 244.43"
/>
<path stroke="#0678b2" vector-effect="non-scaling-stroke" d="
  M 230.50 145.78
  Q 229.27 148.23 227.63 149.38
  Q 222.24 153.18 217.07 157.20
  Q 217.04 157.23 208.81 163.48
  Q 201.92 168.71 196.53 173.10
  Q 192.93 176.05 184.14 181.81
  Q 181.70 183.41 179.64 185.12
  Q 177.47 186.93 175.27 188.84
  Q 172.26 191.48 168.45 194.15
  Q 164.78 196.73 161.19 199.42"
/>
<path stroke="#165785" vector-effect="non-scaling-stroke" d="
  M 202.66 199.88
  Q 198.89 195.03 197.53 187.72
  Q 197.07 185.24 196.41 182.59
  Q 196.24 181.94 195.99 182.56
  Q 194.41 186.49 193.90 189.49
  Q 193.02 194.66 192.63 202.29"
/>
<path stroke="#057db7" vector-effect="non-scaling-stroke" d="
  M 192.63 202.29
  L 172.23 219.98"
/>
<path stroke="#08afcb" vector-effect="non-scaling-stroke" d="
  M 172.23 219.98
  Q 169.30 222.46 166.54 225.11
  Q 163.76 227.79 160.91 230.31
  Q 157.23 233.57 153.84 237.23
  Q 153.21 237.90 153.38 237.00
  Q 153.42 236.79 153.13 236.50"
/>
<path stroke="#0fd7d0" vector-effect="non-scaling-stroke" d="
  M 310.95 143.23
  Q 310.16 145.33 307.67 146.31
  Q 307.16 146.51 306.87 146.97
  Q 306.16 148.09 304.81 148.35
  Q 304.32 148.45 303.95 148.76
  Q 302.74 149.78 301.72 150.95
  Q 301.24 151.51 300.58 151.82
  Q 299.98 152.11 299.70 152.75
  Q 299.44 153.33 298.88 153.61
  L 295.90 155.08
  Q 295.36 155.34 295.00 155.82
  Q 294.18 156.91 292.87 157.15
  Q 292.47 157.22 292.13 157.45
  L 284.48 162.72
  Q 284.22 162.89 284.07 163.17
  Q 283.84 163.56 283.34 163.59
  A 0.78 0.74 23.4 0 0 282.90 163.75
  Q 279.41 166.41 277.00 169.79
  A 0.91 0.90 -75.7 0 1 276.38 170.16
  Q 275.81 170.23 275.63 170.75
  Q 275.45 171.27 275.01 171.59
  Q 274.13 172.25 273.13 172.39
  A 1.13 1.11 -77.0 0 0 272.35 172.89
  L 271.95 173.51
  A 1.65 1.61 2.5 0 1 271.31 174.08
  Q 267.28 176.15 263.25 178.74
  Q 261.19 180.07 259.52 181.49
  Q 257.70 183.04 255.77 184.45
  A 0.11 0.09 84.3 0 0 255.73 184.51
  L 255.61 184.96
  Q 255.54 185.25 255.31 185.43
  Q 252.68 187.48 249.79 189.44
  Q 248.94 190.02 248.19 190.75
  Q 247.41 191.50 246.49 191.95
  Q 245.12 192.63 243.95 193.51
  Q 242.34 194.73 240.71 196.09
  A 2.67 2.15 -27.1 0 0 239.74 198.26
  Q 239.80 198.72 241.37 199.12"
/>
<path stroke="#08b5ca" vector-effect="non-scaling-stroke" d="
  M 241.37 199.12
  Q 232.61 205.24 223.85 211.09
  Q 223.17 211.54 222.72 212.46"
/>
<path stroke="#19738e" vector-effect="non-scaling-stroke" d="
  M 222.72 212.46
  Q 221.05 212.40 219.36 211.92
  Q 209.31 209.03 202.66 199.88"
/>
<path stroke="#08afcb" vector-effect="non-scaling-stroke" d="
  M 202.66 199.88
  Q 207.73 192.49 216.51 187.48
  C 217.55 186.89 218.86 185.27 220.07 184.42
  Q 227.20 179.39 234.35 174.41
  Q 234.40 174.38 244.16 167.02
  Q 249.28 163.16 254.94 160.20"
/>
<path stroke="#0571b1" vector-effect="non-scaling-stroke" d="
  M 185.92 234.53
  Q 185.17 235.29 184.94 235.30"
/>
<path stroke="#0899c1" vector-effect="non-scaling-stroke" d="
  M 184.94 235.30
  Q 182.77 230.38 177.82 227.19
  Q 177.47 226.97 177.41 226.55
  Q 177.38 226.40 177.31 226.27
  Q 177.12 225.94 176.78 225.68
  Q 175.05 224.37 173.85 222.62
  Q 173.34 221.87 172.51 221.52
  Q 172.01 221.30 172.10 220.76
  L 172.23 219.98"
/>
<path stroke="#19346f" vector-effect="non-scaling-stroke" d="
  M 298.86 241.06
  L 298.88 238.53
  Q 298.88 238.04 299.04 237.57
  Q 299.51 236.18 299.59 234.76
  Q 299.74 232.02 300.05 229.18
  A 1.14 1.13 2.7 0 0 298.91 227.93
  L 283.15 228.09"
/>
<path stroke="#165c84" vector-effect="non-scaling-stroke" d="
  M 283.15 228.09
  Q 270.31 227.11 260.87 220.28
  Q 260.46 219.98 260.07 220.29
  C 253.74 225.20 246.30 227.03 238.48 228.16"
/>
<path stroke="#19346f" vector-effect="non-scaling-stroke" d="
  M 238.48 228.16
  Q 230.50 228.59 222.56 227.99
  C 219.60 227.76 217.81 228.16 215.72 230.01
  Q 209.53 235.51 202.95 240.52
  Q 202.12 241.15 201.31 242.22
  Q 200.58 243.18 199.72 244.02"
/>
<path stroke="#164b7e" vector-effect="non-scaling-stroke" d="
  M 151.46 396.06
  Q 146.05 398.67 141.16 401.66
  Q 140.66 401.98 138.58 402.26"
/>
<path stroke="#165c84" vector-effect="non-scaling-stroke" d="
  M 138.58 402.26
  C 137.67 399.28 140.40 393.52 141.37 390.50
  C 142.49 387.01 142.82 383.44 143.29 379.83"
/>
<path stroke="#19346f" vector-effect="non-scaling-stroke" d="
  M 143.29 379.83
  C 144.89 378.84 145.22 376.83 146.05 375.56
  C 147.30 373.67 148.59 371.89 149.39 369.73
  Q 150.66 366.28 151.88 362.73
  Q 153.78 357.22 153.25 351.28
  Q 153.22 350.90 152.84 350.93
  Q 152.56 350.96 152.41 350.86
  Q 152.00 350.57 152.19 349.94"
/>
<path stroke="#173b76" vector-effect="non-scaling-stroke" d="
  M 152.19 349.94
  Q 166.59 335.04 171.13 315.25
  C 171.42 313.99 172.07 312.91 172.18 311.88
  Q 172.53 308.60 171.73 305.79"
/>
<path stroke="#16407b" vector-effect="non-scaling-stroke" d="
  M 171.73 305.79
  C 176.10 300.31 176.91 292.92 176.90 286.00
  Q 176.90 284.63 176.44 283.06
  Q 176.01 281.59 175.68 280.13
  Q 175.58 279.66 175.23 279.32
  Q 174.78 278.89 174.81 278.24
  Q 174.90 276.26 175.20 274.27
  Q 175.27 273.81 174.87 274.06
  Q 174.67 274.19 174.48 274.04
  Q 174.04 273.69 174.17 273.16"
/>
<path stroke="#164b7e" vector-effect="non-scaling-stroke" d="
  M 174.17 273.16
  Q 175.63 271.69 176.66 269.74
  Q 180.08 263.28 182.89 256.75
  C 183.51 255.30 183.73 253.70 184.30 252.23
  Q 184.97 250.49 184.90 248.55
  Q 184.67 242.42 185.42 240.01
  Q 186.55 236.34 185.92 234.53"
/>
<path stroke="#16407b" vector-effect="non-scaling-stroke" d="
  M 185.92 234.53
  C 188.61 231.60 189.24 227.71 190.11 224.00
  Q 190.72 221.40 191.05 218.44
  Q 191.97 210.42 192.63 202.29"
/>
<path stroke="#1c788c" vector-effect="non-scaling-stroke" d="
  M 267.82 209.49
  L 270.49 210.67"
/>
<path stroke="#08a3c4" vector-effect="non-scaling-stroke" d="
  M 184.94 235.30
  L 156.04 262.40
  A 0.70 0.68 -63.5 0 1 155.53 262.58
  Q 155.35 262.57 155.25 262.54"
/>
<path stroke="#0fd7d0" vector-effect="non-scaling-stroke" d="
  M 318.92 146.46
  L 279.24 174.01"
/>
<path stroke="#0bc1c6" vector-effect="non-scaling-stroke" d="
  M 279.24 174.01
  L 241.37 199.12"
/>
<path stroke="#165c84" vector-effect="non-scaling-stroke" d="
  M 260.41 205.49
  Q 257.68 207.95 252.98 209.96
  Q 248.49 211.87 244.24 212.45
  Q 233.55 213.89 222.72 212.46"
/>
<path stroke="#0571b1" vector-effect="non-scaling-stroke" d="
  M 174.17 273.16
  L 152.48 293.44"
/>
<path stroke="#08a3c4" vector-effect="non-scaling-stroke" d="
  M 152.48 293.44
  Q 148.52 296.79 144.98 300.48
  Q 142.80 302.75 140.13 303.48"
/>
<path stroke="#19346f" vector-effect="non-scaling-stroke" d="
  M 287.99 246.20
  L 279.82 240.65"
/>
<path stroke="#164b7e" vector-effect="non-scaling-stroke" d="
  M 150.85 403.94
  L 137.21 403.05"
/>
<path stroke="#0fd7d0" vector-effect="non-scaling-stroke" d="
  M 334.70 153.38
  Q 333.39 154.46 332.49 155.87
  Q 332.40 156.02 332.44 156.19
  Q 332.46 156.26 332.54 156.26
  Q 332.97 156.25 332.68 156.57
  Q 331.06 158.33 329.17 159.74
  Q 327.38 161.09 325.53 162.76
  Q 323.92 164.21 322.16 165.47
  Q 320.79 166.46 319.75 167.47
  Q 318.62 168.57 317.54 169.72
  Q 316.18 171.16 313.86 172.60
  Q 310.41 174.74 307.12 177.11
  Q 306.22 177.76 305.64 178.58
  Q 304.99 179.51 303.77 179.70
  A 1.30 1.27 -73.8 0 0 302.96 180.16
  L 300.93 182.67
  Q 300.82 182.81 300.86 182.60
  Q 300.89 182.44 300.80 182.32
  Q 300.63 182.10 300.39 182.22
  Q 298.90 182.96 298.18 184.35
  A 0.92 0.92 0.0 0 1 297.55 184.83
  Q 296.85 184.98 296.60 185.68
  Q 296.43 186.15 295.96 186.31
  Q 294.71 186.73 294.07 187.70
  Q 291.66 191.33 288.89 192.55"
/>
<path stroke="#0ed1d2" vector-effect="non-scaling-stroke" d="
  M 288.89 192.55
  Q 286.41 193.97 284.60 194.61
  Q 284.18 194.75 284.54 194.50
  Q 284.64 194.43 284.69 194.24
  Q 284.79 193.86 284.45 194.06
  Q 282.56 195.14 281.09 196.71
  Q 279.47 198.45 278.08 199.42
  Q 275.87 200.96 273.98 202.89
  Q 272.76 204.14 270.56 205.58
  Q 267.92 207.31 267.82 209.49"
/>
<path stroke="#19738e" vector-effect="non-scaling-stroke" d="
  M 267.82 209.49
  L 260.41 205.49"
/>
<path stroke="#08b5ca" vector-effect="non-scaling-stroke" d="
  M 260.41 205.49
  Q 266.93 195.10 269.98 192.48
  Q 272.00 190.75 272.18 189.22
  Q 272.24 188.71 272.63 188.37
  C 273.55 187.54 274.14 187.12 274.85 186.03
  Q 278.42 180.52 280.83 174.80
  Q 281.36 173.55 280.12 174.11
  Q 279.82 174.25 279.24 174.01"
/>
<path stroke="#0661a8" vector-effect="non-scaling-stroke" d="
  M 171.73 305.79
  L 166.64 310.34"
/>
<path stroke="#0899c1" vector-effect="non-scaling-stroke" d="
  M 166.64 310.34
  L 160.40 302.90
  Q 159.21 301.47 157.80 300.24
  Q 156.23 298.86 154.75 297.28
  Q 154.39 296.90 154.20 296.42
  Q 153.89 295.62 153.15 295.20
  Q 152.74 294.97 152.66 294.51
  L 152.48 293.44"
/>
<path stroke="#058dba" vector-effect="non-scaling-stroke" d="
  M 138.58 402.26
  Q 138.58 403.39 137.21 403.05"
/>
<path stroke="#165c84" vector-effect="non-scaling-stroke" d="
  M 137.21 403.05
  L 129.68 402.20"
/>
<path stroke="#09559c" vector-effect="non-scaling-stroke" d="
  M 152.19 349.94
  L 143.86 358.03"
/>
<path stroke="#0ca0b8" vector-effect="non-scaling-stroke" d="
  M 143.86 358.03
  Q 143.58 356.33 143.29 354.67
  Q 143.00 352.96 142.96 351.31
  Q 142.73 341.83 142.75 332.16"
/>
<path stroke="#0876ab" vector-effect="non-scaling-stroke" d="
  M 283.15 228.09
  L 279.82 240.65"
/>
<path stroke="#165c84" vector-effect="non-scaling-stroke" d="
  M 279.82 240.65
  C 271.44 235.99 263.53 232.70 253.80 235.56
  Q 251.02 236.37 243.91 240.33"
/>
<path stroke="#0876ab" vector-effect="non-scaling-stroke" d="
  M 243.91 240.33
  Q 242.07 238.69 241.21 236.31
  Q 241.12 236.06 240.97 236.27
  Q 240.86 236.43 240.55 236.18
  Q 240.34 236.02 240.25 235.78
  Q 239.57 233.97 239.10 232.10
  C 238.76 230.74 237.75 229.99 238.48 228.16"
/>
<path stroke="#0876ab" vector-effect="non-scaling-stroke" d="
  M 143.29 379.83
  Q 142.58 378.57 143.00 376.86"
/>
<path stroke="#0b8db5" vector-effect="non-scaling-stroke" d="
  M 143.00 376.86
  Q 142.92 368.28 143.13 360.05
  C 143.14 359.28 143.54 358.71 143.86 358.03"
/>
<path stroke="#19346f" vector-effect="non-scaling-stroke" d="
  M 243.91 240.33
  L 207.74 267.25"
/>
<path stroke="#19346f" vector-effect="non-scaling-stroke" d="
  M 335.40 221.17
  Q 333.70 218.10 332.62 214.73
  Q 329.96 206.40 328.60 197.76"
/>
<path stroke="#0865a5" vector-effect="non-scaling-stroke" d="
  M 351.65 181.34
  L 328.60 197.76"
/>
<path stroke="#164b7e" vector-effect="non-scaling-stroke" d="
  M 328.60 197.76
  Q 327.31 189.73 325.02 182.75
  Q 324.42 180.95 323.98 182.80
  Q 322.85 187.52 321.96 191.97
  Q 321.52 194.11 320.44 196.04
  C 313.81 207.85 303.45 213.23 289.83 213.15
  Q 280.90 213.09 272.05 211.17
  Q 271.19 210.98 270.49 210.67"
/>
<path stroke="#0ba9c2" vector-effect="non-scaling-stroke" d="
  M 270.49 210.67
  Q 277.34 205.67 284.06 200.56
  Q 285.96 199.12 289.41 197.31"
/>
<path stroke="#0994bc" vector-effect="non-scaling-stroke" d="
  M 166.64 310.34
  Q 162.78 313.82 159.06 317.28
  Q 157.00 319.21 151.26 323.99
  Q 146.69 327.81 142.75 332.16"
/>
<path stroke="#0fd7d0" vector-effect="non-scaling-stroke" d="
  M 142.75 332.16
  Q 140.41 334.38 138.66 334.37"
/>
<path stroke="#0cafc0" vector-effect="non-scaling-stroke" d="
  M 343.42 160.78
  L 289.41 197.31"
/>
<path stroke="#11ddce" vector-effect="non-scaling-stroke" d="
  M 289.41 197.31
  Q 288.48 196.67 288.66 196.02
  C 288.96 194.91 289.30 193.89 290.28 193.18
  Q 291.67 192.15 292.77 190.99
  A 0.76 0.74 20.3 0 1 293.29 190.76
  Q 293.60 190.76 293.83 190.55
  Q 294.62 189.83 293.67 190.33
  Q 291.48 191.47 289.52 193.28
  A 1.06 0.95 -52.7 0 1 288.42 193.49
  Q 288.40 193.48 288.89 192.55"
/>
<path stroke="#08b5ca" vector-effect="non-scaling-stroke" d="
  M 143.00 376.86
  Q 140.12 381.84 134.48 384.71"
/>
<path stroke="#0fd7d0" vector-effect="non-scaling-stroke" d="
  M 143.86 358.03
  Q 140.81 361.11 137.03 362.96"
/>
<path stroke="#05a1c6" vector-effect="non-scaling-stroke" d="
  M 296.81 285.71
  Q 293.86 286.90 291.05 288.14
  Q 290.94 288.19 290.89 288.09
  Q 290.84 288.00 290.94 287.97
  Q 291.50 287.80 290.92 287.88
  Q 290.44 287.95 290.03 288.19"
/>
<path stroke="#08bdd0" vector-effect="non-scaling-stroke" d="
  M 290.03 288.19
  Q 289.75 287.36 292.53 286.31
  A 0.55 0.54 -17.1 0 0 292.87 285.68
  Q 292.84 285.57 292.77 285.44
  Q 292.66 285.24 292.84 285.11
  Q 294.75 283.68 296.05 281.70
  Q 296.30 281.33 296.70 281.11
  Q 298.73 279.97 300.34 278.21
  Q 300.65 277.87 301.09 277.75
  Q 301.42 277.66 301.72 277.46
  Q 306.70 274.08 312.17 270.11
  Q 312.53 269.85 312.55 269.41
  L 312.62 268.44
  A 1.25 1.24 -16.7 0 1 313.13 267.50
  Q 319.45 262.98 324.08 257.33
  Q 324.21 257.17 324.42 257.16
  Q 324.86 257.12 325.12 256.77
  Q 327.40 253.71 330.91 251.59
  Q 331.70 251.11 332.12 250.28
  Q 332.35 249.82 332.08 249.92
  Q 331.47 250.13 331.91 249.66
  Q 333.03 248.46 334.38 247.53
  Q 334.43 247.50 334.40 247.45
  Q 334.32 247.33 334.21 247.24
  Q 334.06 247.11 334.17 246.94
  Q 335.20 245.29 336.76 244.99
  Q 337.28 244.90 337.66 244.54
  Q 340.21 242.18 342.70 239.96
  Q 343.31 239.42 343.98 238.94
  Q 346.19 237.31 346.82 234.29
  A 0.39 0.39 0.0 0 0 346.50 233.83
  Q 346.28 233.79 346.11 233.86
  Q 345.77 233.99 345.86 233.64
  Q 345.90 233.50 345.83 233.37
  Q 345.76 233.24 345.60 233.22
  Q 345.45 233.20 345.19 233.23"
/>
<path stroke="#08afcb" vector-effect="non-scaling-stroke" d="
  M 290.03 288.19
  Q 288.15 289.58 287.60 289.87
  Q 278.92 294.38 272.55 298.58
  C 267.99 301.60 262.98 303.78 258.53 307.18
  Q 254.18 310.49 248.98 313.46
  Q 246.43 314.92 238.39 320.90
  Q 234.99 323.43 226.38 327.49"
/>
<path stroke="#057db7" vector-effect="non-scaling-stroke" d="
  M 261.66 345.86
  L 235.14 362.67"
/>
<path stroke="#16658a" vector-effect="non-scaling-stroke" d="
  M 106.51 396.28
  L 97.20 394.97"
/>
<path stroke="#19738e" vector-effect="non-scaling-stroke" d="
  M 165.17 393.24
  L 156.44 390.45"
/>
<path stroke="#16407b" vector-effect="non-scaling-stroke" d="
  M 127.55 388.60
  Q 121.99 392.18 121.74 399.07
  Q 121.69 400.33 120.44 400.21
  L 109.96 399.17"
/>
<path stroke="#164b7e" vector-effect="non-scaling-stroke" d="
  M 179.69 403.27
  Q 173.40 403.29 167.82 401.95"
/>
<path stroke="#16256e" vector-effect="non-scaling-stroke" d="
  M 202.74 405.31
  Q 202.37 406.53 203.00 407.74
  Q 203.57 408.82 203.66 409.39
  Q 203.80 410.31 203.86 411.21"
/>
<path stroke="#16658a" vector-effect="non-scaling-stroke" d="
  M 93.45 398.94
  Q 90.75 399.73 87.16 399.36"
/>
<path stroke="#06469c" vector-effect="non-scaling-stroke" d="
  M 304.68 415.93
  Q 296.27 422.57 288.35 428.12
  Q 285.48 430.14 280.16 434.91
  Q 274.61 439.88 264.55 447.22
  Q 262.20 448.93 257.46 452.85
  Q 254.03 455.69 250.16 458.29"
/>
</g>
<g>
<path fill="#10d6cf" d="
  M 280.53 34.43
  L 247.57 52.57
  A 1.05 1.05 0.0 0 1 246.01 51.69
  Q 245.75 45.12 242.35 39.13
  Q 241.11 36.93 241.18 34.17
  Q 257.33 26.66 275.99 31.81
  Q 278.17 32.41 280.53 34.43
  Z"
/>
<path fill="#049ec0" d="
  M 280.53 34.43
  Q 287.02 39.36 290.29 47.10
  Q 287.96 50.44 284.84 52.61
  Q 281.06 55.24 279.94 56.24
  Q 277.39 58.51 274.56 60.72
  Q 261.23 55.29 247.91 60.77
  Q 245.43 58.69 245.87 56.24
  A 0.87 0.87 0.0 0 0 244.83 55.24
  Q 241.97 55.85 239.78 54.61
  Q 239.34 54.36 239.17 53.88
  L 238.72 52.58
  Q 238.54 52.06 238.14 51.68
  Q 236.30 49.89 235.68 47.29
  Q 235.63 47.09 235.43 47.04
  Q 235.28 47.00 235.14 46.94
  Q 234.69 46.74 234.59 46.26
  L 233.86 42.63
  L 241.18 34.17
  Q 241.11 36.93 242.35 39.13
  Q 245.75 45.12 246.01 51.69
  A 1.05 1.05 0.0 0 0 247.57 52.57
  L 280.53 34.43
  Z"
/>
<path fill="#065ca3" d="
  M 233.86 42.63
  L 234.59 46.26
  Q 234.69 46.74 235.14 46.94
  Q 235.28 47.00 235.43 47.04
  Q 235.63 47.09 235.68 47.29
  Q 236.30 49.89 238.14 51.68
  Q 238.54 52.06 238.72 52.58
  L 239.17 53.88
  Q 239.34 54.36 239.78 54.61
  Q 241.97 55.85 244.83 55.24
  A 0.87 0.87 0.0 0 1 245.87 56.24
  Q 245.43 58.69 247.91 60.77
  Q 242.59 63.16 241.07 64.33
  Q 235.84 68.33 230.68 72.51
  A 0.63 0.63 0.0 0 1 229.65 72.03
  Q 229.54 63.83 229.82 55.76
  Q 230.07 48.72 233.86 42.63
  Z"
/>
<path fill="#052f94" d="
  M 290.29 47.10
  Q 291.60 51.11 291.67 52.37
  Q 292.28 62.17 292.27 71.87
  A 0.56 0.56 0.0 0 1 291.34 72.29
  C 286.35 67.87 280.88 63.24 274.56 60.72
  Q 277.39 58.51 279.94 56.24
  Q 281.06 55.24 284.84 52.61
  Q 287.96 50.44 290.29 47.10
  Z"
/>
<path fill="#12e3cc" d="
  M 341.17 73.14
  Q 349.72 76.63 357.74 81.97
  A 0.45 0.44 -47.7 0 1 357.77 82.68
  Q 341.02 96.10 324.40 110.36
  C 318.78 115.18 312.65 119.95 306.94 125.01
  A 1.93 1.92 30.5 0 1 305.23 125.45
  Q 299.01 124.06 292.45 123.93
  A 0.74 0.74 0.0 0 1 291.72 123.19
  L 291.70 107.47
  A 1.93 1.91 74.4 0 1 292.61 105.83
  C 296.98 103.12 300.77 99.71 303.14 94.92
  Q 308.74 83.59 304.49 70.01
  Q 303.59 67.12 302.18 64.04
  A 0.55 0.54 80.3 0 1 302.72 63.27
  Q 312.99 64.14 322.81 66.91
  Q 332.90 69.77 341.17 73.14
  Z"
/>
<path fill="#271a48" d="
  M 283.67 75.24
  Q 282.71 76.40 281.23 76.66
  A 0.04 0.04 0.0 0 0 281.21 76.73
  Q 281.47 76.88 281.29 77.11
  Q 281.20 77.23 281.04 77.28
  C 279.04 77.94 278.24 79.01 275.68 78.49
  C 263.18 72.53 252.60 75.52 240.69 81.62
  C 236.35 83.84 233.64 82.91 229.16 82.16
  A 1.74 1.73 -56.1 0 0 227.95 82.40
  Q 226.63 83.20 226.49 84.81
  A 2.10 2.06 65.8 0 1 226.11 85.84
  Q 225.64 86.48 225.74 87.44
  C 224.68 83.96 223.24 77.79 225.73 74.96
  C 227.11 73.41 230.46 74.25 230.90 76.32
  Q 231.05 76.99 231.32 77.60
  A 0.89 0.89 0.0 0 0 231.93 78.10
  C 236.50 79.12 238.83 74.64 242.09 72.56
  C 251.58 66.49 261.28 63.74 271.77 67.64
  Q 277.73 69.85 283.67 75.24
  Z"
/>
<path fill="#0b4e95" d="
  M 283.32 106.72
  Q 283.45 103.99 281.61 101.99
  Q 281.37 101.74 281.39 101.38
  Q 281.42 100.87 281.13 100.44
  Q 278.70 96.87 275.44 93.94
  Q 274.32 92.94 273.49 91.68
  Q 273.19 91.23 272.76 90.92
  Q 272.27 90.57 272.13 90.00
  Q 272.00 89.48 272.45 89.18
  L 281.28 83.47
  A 1.03 1.03 0.0 0 0 281.24 81.72
  L 275.68 78.49
  C 278.24 79.01 279.04 77.94 281.04 77.28
  Q 281.20 77.23 281.29 77.11
  Q 281.47 76.88 281.21 76.73
  A 0.04 0.04 0.0 0 1 281.23 76.66
  Q 282.71 76.40 283.67 75.24
  C 285.78 77.24 290.17 80.01 291.19 75.64
  A 1.50 1.47 -12.5 0 1 291.75 74.78
  C 294.66 72.58 296.95 75.48 297.01 78.30
  C 297.10 82.91 295.14 99.34 286.68 96.61
  Q 286.11 96.42 285.95 97.00
  L 283.32 106.72
  Z"
/>
<path fill="#057bb4" d="
  M 275.68 78.49
  L 281.24 81.72
  A 1.03 1.03 0.0 0 1 281.28 83.47
  L 272.45 89.18
  Q 272.00 89.48 272.13 90.00
  Q 272.27 90.57 272.76 90.92
  Q 273.19 91.23 273.49 91.68
  Q 274.32 92.94 275.44 93.94
  Q 278.70 96.87 281.13 100.44
  Q 281.42 100.87 281.39 101.38
  Q 281.37 101.74 281.61 101.99
  Q 283.45 103.99 283.32 106.72
  L 282.38 109.74
  Q 280.28 114.41 276.28 118.06
  C 276.88 115.59 275.49 115.10 274.47 113.31
  Q 274.02 112.53 273.76 111.70
  Q 273.39 110.49 272.48 109.44
  Q 271.27 108.03 270.18 106.56
  Q 269.53 105.70 268.63 104.93
  Q 267.79 104.22 267.25 103.18
  A 1.76 1.75 1.4 0 0 266.60 102.50
  Q 263.57 100.69 260.82 98.63
  Q 259.50 97.63 258.00 98.07
  Q 256.10 98.61 254.58 100.12
  A 1.17 1.16 21.7 0 1 253.78 100.46
  Q 253.33 100.47 252.96 100.69
  Q 248.63 103.32 243.32 107.35
  Q 241.31 108.89 239.43 110.67
  Q 239.06 110.62 238.99 110.30
  L 235.30 97.20
  Q 235.17 96.73 234.68 96.80
  Q 232.24 97.18 230.79 96.19
  Q 226.83 93.48 225.74 87.44
  Q 225.64 86.48 226.11 85.84
  A 2.10 2.06 65.8 0 0 226.49 84.81
  Q 226.63 83.20 227.95 82.40
  A 1.74 1.73 -56.1 0 1 229.16 82.16
  C 233.64 82.91 236.35 83.84 240.69 81.62
  C 252.60 75.52 263.18 72.53 275.68 78.49
  Z"
/>
<path fill="#10d6cf" d="
  M 333.19 134.64
  C 326.37 131.41 319.78 128.65 312.53 127.45
  A 0.53 0.53 0.0 0 1 312.28 126.52
  L 361.82 85.45
  A 0.73 0.73 0.0 0 1 362.70 85.42
  Q 369.13 90.07 376.98 95.72
  Q 377.61 96.18 378.29 96.80
  Q 379.01 97.47 378.23 98.06
  Q 370.75 103.64 364.23 109.59
  Q 361.25 112.30 358.19 114.63
  C 353.03 118.56 348.00 122.52 343.23 126.98
  Q 339.10 130.84 334.56 134.48
  A 1.31 1.29 -51.3 0 1 333.19 134.64
  Z"
/>
<path fill="#0bcbd4" d="
  M 276.28 118.06
  C 268.27 126.70 255.42 126.84 246.46 119.53
  Q 242.86 116.60 239.43 110.67
  Q 241.31 108.89 243.32 107.35
  Q 248.63 103.32 252.96 100.69
  Q 253.33 100.47 253.78 100.46
  A 1.17 1.16 21.7 0 0 254.58 100.12
  Q 256.10 98.61 258.00 98.07
  Q 259.50 97.63 260.82 98.63
  Q 263.57 100.69 266.60 102.50
  A 1.76 1.75 1.4 0 1 267.25 103.18
  Q 267.79 104.22 268.63 104.93
  Q 269.53 105.70 270.18 106.56
  Q 271.27 108.03 272.48 109.44
  Q 273.39 110.49 273.76 111.70
  Q 274.02 112.53 274.47 113.31
  C 275.49 115.10 276.88 115.59 276.28 118.06
  Z"
/>
<path fill="#0bcbd4" d="
  M 356.55 153.45
  C 352.07 147.53 346.14 141.96 339.18 137.82
  Q 338.52 137.43 339.10 136.93
  Q 360.72 118.20 381.76 101.29
  Q 382.58 100.63 383.27 101.42
  L 398.23 118.34
  A 0.69 0.69 0.0 0 1 398.14 119.34
  C 394.42 122.29 390.53 125.24 387.15 128.46
  Q 383.60 131.83 379.76 134.62
  C 371.98 140.29 364.95 146.93 357.78 153.56
  Q 357.10 154.18 356.55 153.45
  Z"
/>
<path fill="#271a48" d="
  M 282.38 109.74
  L 282.35 120.07
  Q 279.91 121.88 278.11 124.27
  Q 275.51 127.71 274.32 128.75
  Q 270.02 132.51 266.26 134.03
  Q 251.42 140.04 246.97 142.10
  Q 244.51 143.23 239.75 146.59
  Q 235.30 141.96 231.74 136.02
  Q 231.62 135.82 231.83 135.70
  L 238.24 132.30
  Q 238.74 132.03 238.75 131.46
  L 238.99 110.30
  Q 239.06 110.62 239.43 110.67
  Q 242.86 116.60 246.46 119.53
  C 255.42 126.84 268.27 126.70 276.28 118.06
  Q 280.28 114.41 282.38 109.74
  Z"
/>
<path fill="#0566ad" d="
  M 282.35 120.07
  L 282.52 131.50
  A 0.76 0.73 -77.5 0 0 282.92 132.15
  L 289.76 135.68
  Q 290.21 135.90 289.99 136.35
  C 288.10 140.27 285.52 143.18 282.34 146.29
  C 277.43 151.10 271.05 153.64 264.24 154.32
  Q 250.49 155.69 239.75 146.59
  Q 244.51 143.23 246.97 142.10
  Q 251.42 140.04 266.26 134.03
  Q 270.02 132.51 274.32 128.75
  Q 275.51 127.71 278.11 124.27
  Q 279.91 121.88 282.35 120.07
  Z"
/>
<path fill="#0566ad" d="
  M 406.12 197.40
  Q 409.46 169.53 399.08 143.91
  Q 396.23 136.87 392.51 130.12
  L 400.65 123.57
  A 0.47 0.46 54.1 0 1 401.33 123.68
  C 403.29 126.75 405.19 129.81 406.71 133.10
  Q 407.87 135.60 408.99 137.98
  C 414.72 150.15 418.63 162.95 420.03 176.33
  Q 423.14 206.11 413.33 233.01
  C 411.29 238.62 408.57 243.78 406.05 249.02
  Q 404.08 253.11 400.03 258.28
  Q 393.99 265.98 383.85 275.28
  C 381.45 277.48 377.62 280.00 374.16 281.79
  C 369.02 284.45 363.92 287.39 358.71 289.62
  C 353.13 292.00 347.39 294.16 341.98 296.97
  Q 335.81 300.17 329.34 303.50
  Q 326.48 304.97 324.14 307.12
  C 317.23 313.47 310.57 321.33 307.18 329.98
  Q 303.36 339.74 303.24 350.34
  Q 303.16 356.24 303.12 362.16
  Q 303.12 362.77 302.51 362.77
  L 286.52 362.75
  Q 286.02 362.75 286.01 362.26
  C 285.60 346.39 285.27 331.94 295.57 319.23
  Q 301.22 312.26 307.43 307.69
  Q 308.96 306.57 323.50 297.81
  Q 331.59 292.94 339.71 288.12
  C 343.37 285.95 346.82 283.45 350.70 281.63
  Q 353.53 280.30 356.22 278.61
  C 366.06 272.45 373.65 267.41 380.78 261.31
  Q 383.60 258.89 385.73 256.14
  C 396.31 242.48 402.63 226.59 405.39 209.36
  Q 405.86 206.44 405.94 203.39
  Q 406.02 200.28 406.12 197.40
  Z"
/>
<path fill="#12e3cc" d="
  M 392.51 130.12
  Q 396.23 136.87 399.08 143.91
  Q 409.46 169.53 406.12 197.40
  Q 405.02 195.54 405.03 193.00
  Q 405.04 191.66 403.87 190.84
  Q 403.21 187.44 403.22 183.95
  Q 403.25 179.44 402.92 177.07
  C 402.25 172.17 401.88 166.68 400.65 162.04
  Q 397.80 151.23 392.38 139.52
  Q 390.67 135.81 388.68 133.34
  L 392.51 130.12
  Z"
/>
<path fill="#057bb4" d="
  M 388.68 133.34
  Q 390.67 135.81 392.38 139.52
  Q 397.80 151.23 400.65 162.04
  C 401.88 166.68 402.25 172.17 402.92 177.07
  Q 403.25 179.44 403.22 183.95
  Q 403.21 187.44 403.87 190.84
  Q 402.60 201.48 401.05 209.51
  Q 398.98 220.23 394.63 231.57
  C 391.94 238.60 387.95 245.46 383.74 251.36
  Q 381.22 254.89 376.51 258.74
  Q 366.44 266.97 354.85 273.70
  Q 356.51 269.61 358.16 266.00
  Q 361.58 258.55 366.33 251.78
  Q 366.63 251.35 366.67 250.84
  Q 366.72 250.26 367.23 250.02
  Q 367.63 249.82 367.87 249.45
  Q 369.06 247.58 370.49 245.89
  Q 371.37 244.85 369.94 244.43
  C 372.39 241.50 374.86 238.70 376.68 235.33
  Q 382.82 223.94 384.93 212.60
  Q 389.21 189.51 385.17 164.85
  Q 383.41 154.14 377.53 143.29
  A 0.70 0.69 -34.7 0 1 377.69 142.42
  L 388.68 133.34
  Z"
/>
<path fill="#065ca3" d="
  M 230.50 145.78
  Q 229.27 148.23 227.63 149.38
  Q 222.24 153.18 217.07 157.20
  Q 217.04 157.23 208.81 163.48
  Q 201.92 168.71 196.53 173.10
  Q 192.93 176.05 184.14 181.81
  Q 181.70 183.41 179.64 185.12
  Q 177.47 186.93 175.27 188.84
  Q 172.26 191.48 168.45 194.15
  Q 164.78 196.73 161.19 199.42
  C 160.55 190.32 161.42 181.20 165.78 173.00
  Q 169.17 166.63 174.64 161.15
  Q 178.17 157.61 183.97 154.86
  C 197.31 148.52 211.14 143.52 224.91 138.02
  A 0.88 0.87 63.2 0 1 225.98 138.38
  L 230.50 145.78
  Z"
/>
<path fill="#0bcbd4" d="
  M 310.95 143.23
  Q 310.16 145.33 307.67 146.31
  Q 307.16 146.51 306.87 146.97
  Q 306.16 148.09 304.81 148.35
  Q 304.32 148.45 303.95 148.76
  Q 302.74 149.78 301.72 150.95
  Q 301.24 151.51 300.58 151.82
  Q 299.98 152.11 299.70 152.75
  Q 299.44 153.33 298.88 153.61
  L 295.90 155.08
  Q 295.36 155.34 295.00 155.82
  Q 294.18 156.91 292.87 157.15
  Q 292.47 157.22 292.13 157.45
  L 284.48 162.72
  Q 284.22 162.89 284.07 163.17
  Q 283.84 163.56 283.34 163.59
  A 0.78 0.74 23.4 0 0 282.90 163.75
  Q 279.41 166.41 277.00 169.79
  A 0.91 0.90 -75.7 0 1 276.38 170.16
  Q 275.81 170.23 275.63 170.75
  Q 275.45 171.27 275.01 171.59
  Q 274.13 172.25 273.13 172.39
  A 1.13 1.11 -77.0 0 0 272.35 172.89
  L 271.95 173.51
  A 1.65 1.61 2.5 0 1 271.31 174.08
  Q 267.28 176.15 263.25 178.74
  Q 261.19 180.07 259.52 181.49
  Q 257.70 183.04 255.77 184.45
  A 0.11 0.09 84.3 0 0 255.73 184.51
  L 255.61 184.96
  Q 255.54 185.25 255.31 185.43
  Q 252.68 187.48 249.79 189.44
  Q 248.94 190.02 248.19 190.75
  Q 247.41 191.50 246.49 191.95
  Q 245.12 192.63 243.95 193.51
  Q 242.34 194.73 240.71 196.09
  A 2.67 2.15 -27.1 0 0 239.74 198.26
  Q 239.80 198.72 241.37 199.12
  Q 232.61 205.24 223.85 211.09
  Q 223.17 211.54 222.72 212.46
  Q 221.05 212.40 219.36 211.92
  Q 209.31 209.03 202.66 199.88
  Q 207.73 192.49 216.51 187.48
  C 217.55 186.89 218.86 185.27 220.07 184.42
  Q 227.20 179.39 234.35 174.41
  Q 234.40 174.38 244.16 167.02
  Q 249.28 163.16 254.94 160.20
  C 262.85 161.08 269.12 160.05 276.39 157.30
  Q 280.61 155.71 283.79 153.18
  C 289.05 148.99 292.68 144.38 295.55 138.56
  Q 295.84 137.97 296.46 138.18
  L 310.95 143.23
  Z"
/>
<path fill="#12e3cc" d="
  M 310.95 143.23
  L 318.92 146.46
  L 279.24 174.01
  L 241.37 199.12
  Q 239.80 198.72 239.74 198.26
  A 2.67 2.15 -27.1 0 1 240.71 196.09
  Q 242.34 194.73 243.95 193.51
  Q 245.12 192.63 246.49 191.95
  Q 247.41 191.50 248.19 190.75
  Q 248.94 190.02 249.79 189.44
  Q 252.68 187.48 255.31 185.43
  Q 255.54 185.25 255.61 184.96
  L 255.73 184.51
  A 0.11 0.09 84.3 0 1 255.77 184.45
  Q 257.70 183.04 259.52 181.49
  Q 261.19 180.07 263.25 178.74
  Q 267.28 176.15 271.31 174.08
  A 1.65 1.61 2.5 0 0 271.95 173.51
  L 272.35 172.89
  A 1.13 1.11 -77.0 0 1 273.13 172.39
  Q 274.13 172.25 275.01 171.59
  Q 275.45 171.27 275.63 170.75
  Q 275.81 170.23 276.38 170.16
  A 0.91 0.90 -75.7 0 0 277.00 169.79
  Q 279.41 166.41 282.90 163.75
  A 0.78 0.74 23.4 0 1 283.34 163.59
  Q 283.84 163.56 284.07 163.17
  Q 284.22 162.89 284.48 162.72
  L 292.13 157.45
  Q 292.47 157.22 292.87 157.15
  Q 294.18 156.91 295.00 155.82
  Q 295.36 155.34 295.90 155.08
  L 298.88 153.61
  Q 299.44 153.33 299.70 152.75
  Q 299.98 152.11 300.58 151.82
  Q 301.24 151.51 301.72 150.95
  Q 302.74 149.78 303.95 148.76
  Q 304.32 148.45 304.81 148.35
  Q 306.16 148.09 306.87 146.97
  Q 307.16 146.51 307.67 146.31
  Q 310.16 145.33 310.95 143.23
  Z"
/>
<path fill="#0593c1" d="
  M 230.50 145.78
  Q 236.71 153.06 240.56 155.42
  Q 245.54 158.47 254.94 160.20
  Q 249.28 163.16 244.16 167.02
  Q 234.40 174.38 234.35 174.41
  Q 227.20 179.39 220.07 184.42
  C 218.86 185.27 217.55 186.89 216.51 187.48
  Q 207.73 192.49 202.66 199.88
  Q 198.89 195.03 197.53 187.72
  Q 197.07 185.24 196.41 182.59
  Q 196.24 181.94 195.99 182.56
  Q 194.41 186.49 193.90 189.49
  Q 193.02 194.66 192.63 202.29
  L 172.23 219.98
  Q 169.30 222.46 166.54 225.11
  Q 163.76 227.79 160.91 230.31
  Q 157.23 233.57 153.84 237.23
  Q 153.21 237.90 153.38 237.00
  Q 153.42 236.79 153.13 236.50
  Q 154.14 226.36 157.39 219.09
  Q 158.76 216.00 162.63 210.93
  Q 162.93 210.54 162.85 210.05
  L 161.19 199.42
  Q 164.78 196.73 168.45 194.15
  Q 172.26 191.48 175.27 188.84
  Q 177.47 186.93 179.64 185.12
  Q 181.70 183.41 184.14 181.81
  Q 192.93 176.05 196.53 173.10
  Q 201.92 168.71 208.81 163.48
  Q 217.04 157.23 217.07 157.20
  Q 222.24 153.18 227.63 149.38
  Q 229.27 148.23 230.50 145.78
  Z"
/>
<path fill="#0bcbd4" d="
  M 318.92 146.46
  Q 327.12 148.99 334.70 153.38
  Q 333.39 154.46 332.49 155.87
  Q 332.40 156.02 332.44 156.19
  Q 332.46 156.26 332.54 156.26
  Q 332.97 156.25 332.68 156.57
  Q 331.06 158.33 329.17 159.74
  Q 327.38 161.09 325.53 162.76
  Q 323.92 164.21 322.16 165.47
  Q 320.79 166.46 319.75 167.47
  Q 318.62 168.57 317.54 169.72
  Q 316.18 171.16 313.86 172.60
  Q 310.41 174.74 307.12 177.11
  Q 306.22 177.76 305.64 178.58
  Q 304.99 179.51 303.77 179.70
  A 1.30 1.27 -73.8 0 0 302.96 180.16
  L 300.93 182.67
  Q 300.82 182.81 300.86 182.60
  Q 300.89 182.44 300.80 182.32
  Q 300.63 182.10 300.39 182.22
  Q 298.90 182.96 298.18 184.35
  A 0.92 0.92 0.0 0 1 297.55 184.83
  Q 296.85 184.98 296.60 185.68
  Q 296.43 186.15 295.96 186.31
  Q 294.71 186.73 294.07 187.70
  Q 291.66 191.33 288.89 192.55
  Q 286.41 193.97 284.60 194.61
  Q 284.18 194.75 284.54 194.50
  Q 284.64 194.43 284.69 194.24
  Q 284.79 193.86 284.45 194.06
  Q 282.56 195.14 281.09 196.71
  Q 279.47 198.45 278.08 199.42
  Q 275.87 200.96 273.98 202.89
  Q 272.76 204.14 270.56 205.58
  Q 267.92 207.31 267.82 209.49
  L 260.41 205.49
  Q 266.93 195.10 269.98 192.48
  Q 272.00 190.75 272.18 189.22
  Q 272.24 188.71 272.63 188.37
  C 273.55 187.54 274.14 187.12 274.85 186.03
  Q 278.42 180.52 280.83 174.80
  Q 281.36 173.55 280.12 174.11
  Q 279.82 174.25 279.24 174.01
  L 318.92 146.46
  Z"
/>
<path fill="#05afcb" d="
  M 296.81 285.71
  Q 293.86 286.90 291.05 288.14
  Q 290.94 288.19 290.89 288.09
  Q 290.84 288.00 290.94 287.97
  Q 291.50 287.80 290.92 287.88
  Q 290.44 287.95 290.03 288.19
  Q 289.75 287.36 292.53 286.31
  A 0.55 0.54 -17.1 0 0 292.87 285.68
  Q 292.84 285.57 292.77 285.44
  Q 292.66 285.24 292.84 285.11
  Q 294.75 283.68 296.05 281.70
  Q 296.30 281.33 296.70 281.11
  Q 298.73 279.97 300.34 278.21
  Q 300.65 277.87 301.09 277.75
  Q 301.42 277.66 301.72 277.46
  Q 306.70 274.08 312.17 270.11
  Q 312.53 269.85 312.55 269.41
  L 312.62 268.44
  A 1.25 1.24 -16.7 0 1 313.13 267.50
  Q 319.45 262.98 324.08 257.33
  Q 324.21 257.17 324.42 257.16
  Q 324.86 257.12 325.12 256.77
  Q 327.40 253.71 330.91 251.59
  Q 331.70 251.11 332.12 250.28
  Q 332.35 249.82 332.08 249.92
  Q 331.47 250.13 331.91 249.66
  Q 333.03 248.46 334.38 247.53
  Q 334.43 247.50 334.40 247.45
  Q 334.32 247.33 334.21 247.24
  Q 334.06 247.11 334.17 246.94
  Q 335.20 245.29 336.76 244.99
  Q 337.28 244.90 337.66 244.54
  Q 340.21 242.18 342.70 239.96
  Q 343.31 239.42 343.98 238.94
  Q 346.19 237.31 346.82 234.29
  A 0.39 0.39 0.0 0 0 346.50 233.83
  Q 346.28 233.79 346.11 233.86
  Q 345.77 233.99 345.86 233.64
  Q 345.90 233.50 345.83 233.37
  Q 345.76 233.24 345.60 233.22
  Q 345.45 233.20 345.19 233.23
  C 354.25 225.56 362.96 213.74 364.71 201.84
  C 365.26 198.11 366.20 194.58 366.43 190.74
  Q 367.24 177.03 363.58 165.44
  Q 362.46 161.88 359.98 158.22
  Q 359.68 157.77 360.09 157.41
  C 361.29 156.38 362.66 155.67 363.80 154.54
  Q 368.36 150.00 373.26 146.31
  A 0.53 0.53 0.0 0 1 374.06 146.50
  Q 381.10 161.10 382.55 176.50
  C 384.15 193.43 382.37 211.04 375.60 226.97
  Q 372.82 233.53 368.65 238.79
  Q 363.82 244.88 358.78 248.74
  Q 350.08 255.39 343.21 258.95
  Q 333.30 264.07 328.47 266.99
  Q 312.65 276.52 296.81 285.71
  Z"
/>
<path fill="#12e3cc" d="
  M 334.70 153.38
  C 337.75 155.43 341.63 157.45 343.42 160.78
  L 289.41 197.31
  Q 288.48 196.67 288.66 196.02
  C 288.96 194.91 289.30 193.89 290.28 193.18
  Q 291.67 192.15 292.77 190.99
  A 0.76 0.74 20.3 0 1 293.29 190.76
  Q 293.60 190.76 293.83 190.55
  Q 294.62 189.83 293.67 190.33
  Q 291.48 191.47 289.52 193.28
  A 1.06 0.95 -52.7 0 1 288.42 193.49
  Q 288.40 193.48 288.89 192.55
  Q 291.66 191.33 294.07 187.70
  Q 294.71 186.73 295.96 186.31
  Q 296.43 186.15 296.60 185.68
  Q 296.85 184.98 297.55 184.83
  A 0.92 0.92 0.0 0 0 298.18 184.35
  Q 298.90 182.96 300.39 182.22
  Q 300.63 182.10 300.80 182.32
  Q 300.89 182.44 300.86 182.60
  Q 300.82 182.81 300.93 182.67
  L 302.96 180.16
  A 1.30 1.27 -73.8 0 1 303.77 179.70
  Q 304.99 179.51 305.64 178.58
  Q 306.22 177.76 307.12 177.11
  Q 310.41 174.74 313.86 172.60
  Q 316.18 171.16 317.54 169.72
  Q 318.62 168.57 319.75 167.47
  Q 320.79 166.46 322.16 165.47
  Q 323.92 164.21 325.53 162.76
  Q 327.38 161.09 329.17 159.74
  Q 331.06 158.33 332.68 156.57
  Q 332.97 156.25 332.54 156.26
  Q 332.46 156.26 332.44 156.19
  Q 332.40 156.02 332.49 155.87
  Q 333.39 154.46 334.70 153.38
  Z"
/>
<path fill="#057bb4" d="
  M 343.42 160.78
  Q 346.21 165.10 347.82 168.22
  Q 350.95 174.28 351.65 181.34
  L 328.60 197.76
  Q 327.31 189.73 325.02 182.75
  Q 324.42 180.95 323.98 182.80
  Q 322.85 187.52 321.96 191.97
  Q 321.52 194.11 320.44 196.04
  C 313.81 207.85 303.45 213.23 289.83 213.15
  Q 280.90 213.09 272.05 211.17
  Q 271.19 210.98 270.49 210.67
  Q 277.34 205.67 284.06 200.56
  Q 285.96 199.12 289.41 197.31
  L 343.42 160.78
  Z"
/>
<path fill="#049ec0" d="
  M 260.41 205.49
  Q 257.68 207.95 252.98 209.96
  Q 248.49 211.87 244.24 212.45
  Q 233.55 213.89 222.72 212.46
  Q 223.17 211.54 223.85 211.09
  Q 232.61 205.24 241.37 199.12
  L 279.24 174.01
  Q 279.82 174.25 280.12 174.11
  Q 281.36 173.55 280.83 174.80
  Q 278.42 180.52 274.85 186.03
  C 274.14 187.12 273.55 187.54 272.63 188.37
  Q 272.24 188.71 272.18 189.22
  Q 272.00 190.75 269.98 192.48
  Q 266.93 195.10 260.41 205.49
  Z"
/>
<path fill="#0b4e95" d="
  M 351.65 181.34
  Q 352.71 192.72 348.66 202.87
  C 347.29 206.31 344.85 210.10 342.92 213.69
  Q 341.24 216.81 335.40 221.17
  Q 333.70 218.10 332.62 214.73
  Q 329.96 206.40 328.60 197.76
  L 351.65 181.34
  Z"
/>
<path fill="#271a48" d="
  M 328.60 197.76
  Q 329.96 206.40 332.62 214.73
  Q 333.70 218.10 335.40 221.17
  L 327.02 227.11
  Q 326.49 227.48 326.31 226.86
  L 324.24 219.79
  Q 324.00 218.97 323.82 219.81
  Q 322.66 225.04 321.11 229.90
  C 320.68 231.23 319.13 231.66 318.15 232.17
  Q 308.66 237.11 298.86 241.06
  L 298.88 238.53
  Q 298.88 238.04 299.04 237.57
  Q 299.51 236.18 299.59 234.76
  Q 299.74 232.02 300.05 229.18
  A 1.14 1.13 2.7 0 0 298.91 227.93
  L 283.15 228.09
  Q 270.31 227.11 260.87 220.28
  Q 260.46 219.98 260.07 220.29
  C 253.74 225.20 246.30 227.03 238.48 228.16
  Q 230.50 228.59 222.56 227.99
  C 219.60 227.76 217.81 228.16 215.72 230.01
  Q 209.53 235.51 202.95 240.52
  Q 202.12 241.15 201.31 242.22
  Q 200.58 243.18 199.72 244.02
  L 197.17 236.41
  Q 196.95 235.75 196.76 236.42
  Q 195.18 242.15 193.53 248.51
  Q 190.70 259.45 183.63 268.43
  A 2.44 2.41 -31.1 0 0 183.14 270.36
  C 185.58 284.63 185.93 298.56 181.20 312.00
  C 179.47 316.91 177.63 322.00 175.27 326.61
  Q 170.42 336.12 165.78 345.15
  Q 161.66 353.16 157.03 366.46
  Q 156.60 367.70 155.82 372.06
  Q 155.72 372.59 155.92 373.08
  L 157.43 376.90
  Q 157.62 377.39 157.40 377.87
  Q 155.64 381.63 154.04 385.26
  Q 152.58 388.55 151.46 396.06
  Q 146.05 398.67 141.16 401.66
  Q 140.66 401.98 138.58 402.26
  C 137.67 399.28 140.40 393.52 141.37 390.50
  C 142.49 387.01 142.82 383.44 143.29 379.83
  C 144.89 378.84 145.22 376.83 146.05 375.56
  C 147.30 373.67 148.59 371.89 149.39 369.73
  Q 150.66 366.28 151.88 362.73
  Q 153.78 357.22 153.25 351.28
  Q 153.22 350.90 152.84 350.93
  Q 152.56 350.96 152.41 350.86
  Q 152.00 350.57 152.19 349.94
  Q 166.59 335.04 171.13 315.25
  C 171.42 313.99 172.07 312.91 172.18 311.88
  Q 172.53 308.60 171.73 305.79
  C 176.10 300.31 176.91 292.92 176.90 286.00
  Q 176.90 284.63 176.44 283.06
  Q 176.01 281.59 175.68 280.13
  Q 175.58 279.66 175.23 279.32
  Q 174.78 278.89 174.81 278.24
  Q 174.90 276.26 175.20 274.27
  Q 175.27 273.81 174.87 274.06
  Q 174.67 274.19 174.48 274.04
  Q 174.04 273.69 174.17 273.16
  Q 175.63 271.69 176.66 269.74
  Q 180.08 263.28 182.89 256.75
  C 183.51 255.30 183.73 253.70 184.30 252.23
  Q 184.97 250.49 184.90 248.55
  Q 184.67 242.42 185.42 240.01
  Q 186.55 236.34 185.92 234.53
  C 188.61 231.60 189.24 227.71 190.11 224.00
  Q 190.72 221.40 191.05 218.44
  Q 191.97 210.42 192.63 202.29
  Q 193.02 194.66 193.90 189.49
  Q 194.41 186.49 195.99 182.56
  Q 196.24 181.94 196.41 182.59
  Q 197.07 185.24 197.53 187.72
  Q 198.89 195.03 202.66 199.88
  Q 209.31 209.03 219.36 211.92
  Q 221.05 212.40 222.72 212.46
  Q 233.55 213.89 244.24 212.45
  Q 248.49 211.87 252.98 209.96
  Q 257.68 207.95 260.41 205.49
  L 267.82 209.49
  L 270.49 210.67
  Q 271.19 210.98 272.05 211.17
  Q 280.90 213.09 289.83 213.15
  C 303.45 213.23 313.81 207.85 320.44 196.04
  Q 321.52 194.11 321.96 191.97
  Q 322.85 187.52 323.98 182.80
  Q 324.42 180.95 325.02 182.75
  Q 327.31 189.73 328.60 197.76
  Z"
/>
<path fill="#10d6cf" d="
  M 289.41 197.31
  Q 285.96 199.12 284.06 200.56
  Q 277.34 205.67 270.49 210.67
  L 267.82 209.49
  Q 267.92 207.31 270.56 205.58
  Q 272.76 204.14 273.98 202.89
  Q 275.87 200.96 278.08 199.42
  Q 279.47 198.45 281.09 196.71
  Q 282.56 195.14 284.45 194.06
  Q 284.79 193.86 284.69 194.24
  Q 284.64 194.43 284.54 194.50
  Q 284.18 194.75 284.60 194.61
  Q 286.41 193.97 288.89 192.55
  Q 288.40 193.48 288.42 193.49
  A 1.06 0.95 -52.7 0 0 289.52 193.28
  Q 291.48 191.47 293.67 190.33
  Q 294.62 189.83 293.83 190.55
  Q 293.60 190.76 293.29 190.76
  A 0.76 0.74 20.3 0 0 292.77 190.99
  Q 291.67 192.15 290.28 193.18
  C 289.30 193.89 288.96 194.91 288.66 196.02
  Q 288.48 196.67 289.41 197.31
  Z"
/>
<path fill="#0566ad" d="
  M 192.63 202.29
  Q 191.97 210.42 191.05 218.44
  Q 190.72 221.40 190.11 224.00
  C 189.24 227.71 188.61 231.60 185.92 234.53
  Q 185.17 235.29 184.94 235.30
  Q 182.77 230.38 177.82 227.19
  Q 177.47 226.97 177.41 226.55
  Q 177.38 226.40 177.31 226.27
  Q 177.12 225.94 176.78 225.68
  Q 175.05 224.37 173.85 222.62
  Q 173.34 221.87 172.51 221.52
  Q 172.01 221.30 172.10 220.76
  L 172.23 219.98
  L 192.63 202.29
  Z"
/>
<path fill="#0bcbd4" d="
  M 172.23 219.98
  L 172.10 220.76
  Q 172.01 221.30 172.51 221.52
  Q 173.34 221.87 173.85 222.62
  Q 175.05 224.37 176.78 225.68
  Q 177.12 225.94 177.31 226.27
  Q 177.38 226.40 177.41 226.55
  Q 177.47 226.97 177.82 227.19
  Q 182.77 230.38 184.94 235.30
  L 156.04 262.40
  A 0.70 0.68 -63.5 0 1 155.53 262.58
  Q 155.35 262.57 155.25 262.54
  Q 154.92 262.29 154.86 262.00
  Q 152.28 249.42 153.13 236.50
  Q 153.42 236.79 153.38 237.00
  Q 153.21 237.90 153.84 237.23
  Q 157.23 233.57 160.91 230.31
  Q 163.76 227.79 166.54 225.11
  Q 169.30 222.46 172.23 219.98
  Z"
/>
<path fill="#049ec0" d="
  M 283.15 228.09
  L 279.82 240.65
  C 271.44 235.99 263.53 232.70 253.80 235.56
  Q 251.02 236.37 243.91 240.33
  Q 242.07 238.69 241.21 236.31
  Q 241.12 236.06 240.97 236.27
  Q 240.86 236.43 240.55 236.18
  Q 240.34 236.02 240.25 235.78
  Q 239.57 233.97 239.10 232.10
  C 238.76 230.74 237.75 229.99 238.48 228.16
  C 246.30 227.03 253.74 225.20 260.07 220.29
  Q 260.46 219.98 260.87 220.28
  Q 270.31 227.11 283.15 228.09
  Z"
/>
<path fill="#0b4e95" d="
  M 298.86 241.06
  L 287.99 246.20
  L 279.82 240.65
  L 283.15 228.09
  L 298.91 227.93
  A 1.14 1.13 2.7 0 1 300.05 229.18
  Q 299.74 232.02 299.59 234.76
  Q 299.51 236.18 299.04 237.57
  Q 298.88 238.04 298.88 238.53
  L 298.86 241.06
  Z"
/>
<path fill="#0b4e95" d="
  M 238.48 228.16
  C 237.75 229.99 238.76 230.74 239.10 232.10
  Q 239.57 233.97 240.25 235.78
  Q 240.34 236.02 240.55 236.18
  Q 240.86 236.43 240.97 236.27
  Q 241.12 236.06 241.21 236.31
  Q 242.07 238.69 243.91 240.33
  L 207.74 267.25
  L 199.72 244.02
  Q 200.58 243.18 201.31 242.22
  Q 202.12 241.15 202.95 240.52
  Q 209.53 235.51 215.72 230.01
  C 217.81 228.16 219.60 227.76 222.56 227.99
  Q 230.50 228.59 238.48 228.16
  Z"
/>
<path fill="#0bcbd4" d="
  M 345.19 233.23
  Q 345.45 233.20 345.60 233.22
  Q 345.76 233.24 345.83 233.37
  Q 345.90 233.50 345.86 233.64
  Q 345.77 233.99 346.11 233.86
  Q 346.28 233.79 346.50 233.83
  A 0.39 0.39 0.0 0 1 346.82 234.29
  Q 346.19 237.31 343.98 238.94
  Q 343.31 239.42 342.70 239.96
  Q 340.21 242.18 337.66 244.54
  Q 337.28 244.90 336.76 244.99
  Q 335.20 245.29 334.17 246.94
  Q 334.06 247.11 334.21 247.24
  Q 334.32 247.33 334.40 247.45
  Q 334.43 247.50 334.38 247.53
  Q 333.03 248.46 331.91 249.66
  Q 331.47 250.13 332.08 249.92
  Q 332.35 249.82 332.12 250.28
  Q 331.70 251.11 330.91 251.59
  Q 327.40 253.71 325.12 256.77
  Q 324.86 257.12 324.42 257.16
  Q 324.21 257.17 324.08 257.33
  Q 319.45 262.98 313.13 267.50
  A 1.25 1.24 -16.7 0 0 312.62 268.44
  L 312.55 269.41
  Q 312.53 269.85 312.17 270.11
  Q 306.70 274.08 301.72 277.46
  Q 301.42 277.66 301.09 277.75
  Q 300.65 277.87 300.34 278.21
  Q 298.73 279.97 296.70 281.11
  Q 296.30 281.33 296.05 281.70
  Q 294.75 283.68 292.84 285.11
  Q 292.66 285.24 292.77 285.44
  Q 292.84 285.57 292.87 285.68
  A 0.55 0.54 -17.1 0 1 292.53 286.31
  Q 289.75 287.36 290.03 288.19
  Q 288.15 289.58 287.60 289.87
  Q 278.92 294.38 272.55 298.58
  C 267.99 301.60 262.98 303.78 258.53 307.18
  Q 254.18 310.49 248.98 313.46
  Q 246.43 314.92 238.39 320.90
  Q 234.99 323.43 226.38 327.49
  C 228.31 318.92 231.38 309.35 236.36 302.35
  C 238.36 299.55 239.77 296.52 241.90 293.88
  Q 247.89 286.46 257.36 280.04
  Q 264.39 275.28 269.56 272.67
  Q 278.24 268.28 286.41 264.18
  C 290.69 262.02 295.88 260.35 299.52 258.42
  C 307.42 254.23 316.91 250.08 324.33 246.23
  Q 331.89 242.31 338.41 238.64
  Q 342.08 236.57 345.19 233.23
  Z"
/>
<path fill="#057bb4" d="
  M 185.92 234.53
  Q 186.55 236.34 185.42 240.01
  Q 184.67 242.42 184.90 248.55
  Q 184.97 250.49 184.30 252.23
  C 183.73 253.70 183.51 255.30 182.89 256.75
  Q 180.08 263.28 176.66 269.74
  Q 175.63 271.69 174.17 273.16
  L 152.48 293.44
  Q 148.52 296.79 144.98 300.48
  Q 142.80 302.75 140.13 303.48
  Q 141.42 280.44 155.25 263.12
  Q 155.37 262.97 155.37 262.85
  Q 155.37 262.68 155.25 262.54
  Q 155.35 262.57 155.53 262.58
  A 0.70 0.68 -63.5 0 0 156.04 262.40
  L 184.94 235.30
  Q 185.17 235.29 185.92 234.53
  Z"
/>
<path fill="#271a48" d="
  M 279.82 240.65
  L 287.99 246.20
  Q 272.56 254.15 257.50 261.49
  Q 252.36 264.00 243.70 270.74
  Q 240.54 273.20 237.80 276.23
  C 235.48 278.80 232.74 281.14 230.58 283.82
  Q 222.45 293.88 218.42 304.18
  Q 214.86 313.26 212.00 323.09
  Q 210.50 328.27 209.89 333.93
  Q 209.87 334.08 209.72 334.07
  L 209.72 334.07
  Q 209.54 334.06 209.54 333.88
  Q 209.48 327.79 209.63 321.68
  Q 210.17 300.60 208.97 279.10
  Q 208.79 276.01 208.40 272.93
  Q 208.02 269.91 207.74 267.25
  L 243.91 240.33
  Q 251.02 236.37 253.80 235.56
  C 263.53 232.70 271.44 235.99 279.82 240.65
  Z"
/>
<path fill="#0593c1" d="
  M 369.94 244.43
  Q 371.37 244.85 370.49 245.89
  Q 369.06 247.58 367.87 249.45
  Q 367.63 249.82 367.23 250.02
  Q 366.72 250.26 366.67 250.84
  Q 366.63 251.35 366.33 251.78
  Q 361.58 258.55 358.16 266.00
  Q 356.51 269.61 354.85 273.70
  Q 349.87 276.87 344.57 279.91
  C 330.50 287.96 315.56 296.93 305.81 303.39
  Q 297.25 309.06 290.32 318.60
  C 284.73 326.30 281.90 335.14 281.73 344.47
  Q 281.56 353.94 281.62 362.19
  Q 281.63 362.77 281.05 362.77
  L 266.59 362.79
  A 0.47 0.46 89.4 0 1 266.13 362.33
  Q 265.84 349.34 266.31 336.76
  Q 266.90 321.29 275.18 309.97
  Q 279.73 303.76 289.13 296.87
  Q 299.64 289.17 309.58 283.47
  Q 320.81 277.03 320.92 276.96
  Q 329.21 272.07 337.60 267.37
  C 341.27 265.31 344.64 262.73 348.41 260.94
  C 354.67 257.97 360.53 254.17 365.33 249.19
  Q 367.63 246.79 369.94 244.43
  Z"
/>
<path fill="#0566ad" d="
  M 174.17 273.16
  Q 174.04 273.69 174.48 274.04
  Q 174.67 274.19 174.87 274.06
  Q 175.27 273.81 175.20 274.27
  Q 174.90 276.26 174.81 278.24
  Q 174.78 278.89 175.23 279.32
  Q 175.58 279.66 175.68 280.13
  Q 176.01 281.59 176.44 283.06
  Q 176.90 284.63 176.90 286.00
  C 176.91 292.92 176.10 300.31 171.73 305.79
  L 166.64 310.34
  L 160.40 302.90
  Q 159.21 301.47 157.80 300.24
  Q 156.23 298.86 154.75 297.28
  Q 154.39 296.90 154.20 296.42
  Q 153.89 295.62 153.15 295.20
  Q 152.74 294.97 152.66 294.51
  L 152.48 293.44
  L 174.17 273.16
  Z"
/>
<path fill="#0593c1" d="
  M 296.81 285.71
  C 291.35 289.49 285.31 293.05 280.68 297.67
  Q 278.05 300.30 275.32 302.97
  Q 267.57 310.53 264.16 322.50
  C 261.83 330.64 261.55 336.42 261.66 345.86
  L 235.14 362.67
  L 224.15 362.69
  A 0.32 0.32 0.0 0 1 223.83 362.37
  Q 223.83 353.84 224.07 345.26
  Q 224.33 335.62 226.38 327.49
  Q 234.99 323.43 238.39 320.90
  Q 246.43 314.92 248.98 313.46
  Q 254.18 310.49 258.53 307.18
  C 262.98 303.78 267.99 301.60 272.55 298.58
  Q 278.92 294.38 287.60 289.87
  Q 288.15 289.58 290.03 288.19
  Q 290.44 287.95 290.92 287.88
  Q 291.50 287.80 290.94 287.97
  Q 290.84 288.00 290.89 288.09
  Q 290.94 288.19 291.05 288.14
  Q 293.86 286.90 296.81 285.71
  Z"
/>
<path fill="#0bcbd4" d="
  M 152.48 293.44
  L 152.66 294.51
  Q 152.74 294.97 153.15 295.20
  Q 153.89 295.62 154.20 296.42
  Q 154.39 296.90 154.75 297.28
  Q 156.23 298.86 157.80 300.24
  Q 159.21 301.47 160.40 302.90
  L 166.64 310.34
  Q 162.78 313.82 159.06 317.28
  Q 157.00 319.21 151.26 323.99
  Q 146.69 327.81 142.75 332.16
  Q 140.41 334.38 138.66 334.37
  L 140.13 303.48
  Q 142.80 302.75 144.98 300.48
  Q 148.52 296.79 152.48 293.44
  Z"
/>
<path fill="#065ca3" d="
  M 171.73 305.79
  Q 172.53 308.60 172.18 311.88
  C 172.07 312.91 171.42 313.99 171.13 315.25
  Q 166.59 335.04 152.19 349.94
  L 143.86 358.03
  Q 143.58 356.33 143.29 354.67
  Q 143.00 352.96 142.96 351.31
  Q 142.73 341.83 142.75 332.16
  Q 146.69 327.81 151.26 323.99
  Q 157.00 319.21 159.06 317.28
  Q 162.78 313.82 166.64 310.34
  L 171.73 305.79
  Z"
/>
<path fill="#12e3cc" d="
  M 142.75 332.16
  Q 142.73 341.83 142.96 351.31
  Q 143.00 352.96 143.29 354.67
  Q 143.58 356.33 143.86 358.03
  Q 140.81 361.11 137.03 362.96
  L 138.66 334.37
  Q 140.41 334.38 142.75 332.16
  Z"
/>
<path fill="#0566ad" d="
  M 261.66 345.86
  L 261.60 362.19
  Q 261.60 362.77 261.02 362.76
  L 235.14 362.67
  L 261.66 345.86
  Z"
/>
<path fill="#0b4e95" d="
  M 152.19 349.94
  Q 152.00 350.57 152.41 350.86
  Q 152.56 350.96 152.84 350.93
  Q 153.22 350.90 153.25 351.28
  Q 153.78 357.22 151.88 362.73
  Q 150.66 366.28 149.39 369.73
  C 148.59 371.89 147.30 373.67 146.05 375.56
  C 145.22 376.83 144.89 378.84 143.29 379.83
  Q 142.58 378.57 143.00 376.86
  Q 142.92 368.28 143.13 360.05
  C 143.14 359.28 143.54 358.71 143.86 358.03
  L 152.19 349.94
  Z"
/>
<path fill="#0bcbd4" d="
  M 143.86 358.03
  C 143.54 358.71 143.14 359.28 143.13 360.05
  Q 142.92 368.28 143.00 376.86
  Q 140.12 381.84 134.48 384.71
  L 137.03 362.96
  Q 140.81 361.11 143.86 358.03
  Z"
/>
<path fill="#05afcb" d="
  M 106.51 396.28
  L 97.20 394.97
  Q 97.96 381.89 104.64 371.40
  C 110.79 361.74 122.00 360.08 132.02 364.25
  A 0.89 0.89 0.0 0 1 132.46 365.50
  Q 132.22 365.95 131.67 366.08
  Q 131.15 366.21 130.66 366.18
  Q 120.69 365.40 115.37 372.58
  Q 107.69 382.94 106.51 396.28
  Z"
/>
<path fill="#0bcbd4" d="
  M 165.17 393.24
  L 156.44 390.45
  Q 157.79 380.20 164.65 371.66
  Q 168.50 366.88 174.04 365.90
  C 180.37 364.79 188.39 366.51 192.93 371.71
  Q 193.55 372.43 192.69 372.02
  Q 187.18 369.42 182.03 370.19
  Q 178.12 370.77 174.06 375.06
  Q 167.07 382.46 165.17 393.24
  Z"
/>
<path fill="#0566ad" d="
  M 127.55 388.60
  Q 121.99 392.18 121.74 399.07
  Q 121.69 400.33 120.44 400.21
  L 109.96 399.17
  Q 110.31 391.34 111.93 387.24
  C 113.64 382.89 114.93 378.42 118.26 374.92
  Q 124.09 368.80 131.00 369.56
  Q 131.41 369.61 131.36 370.03
  Q 130.08 379.91 127.55 388.60
  Z"
/>
<path fill="#057bb4" d="
  M 179.69 403.27
  Q 173.40 403.29 167.82 401.95
  Q 168.10 396.57 169.25 391.74
  C 170.73 385.51 175.85 375.12 182.90 373.84
  C 195.26 371.59 200.82 386.21 200.80 395.69
  Q 200.79 396.24 200.25 396.21
  L 197.95 396.10
  Q 197.40 396.08 197.28 395.54
  C 195.78 389.00 188.93 386.06 184.06 391.32
  Q 180.03 395.68 179.69 403.27
  Z"
/>
<path fill="#049ec0" d="
  M 143.00 376.86
  Q 142.58 378.57 143.29 379.83
  C 142.82 383.44 142.49 387.01 141.37 390.50
  C 140.40 393.52 137.67 399.28 138.58 402.26
  Q 138.58 403.39 137.21 403.05
  L 129.68 402.20
  L 134.48 384.71
  Q 140.12 381.84 143.00 376.86
  Z"
/>
<path fill="#05afcb" d="
  M 224.54 406.56
  Q 229.38 394.75 239.47 387.30
  Q 243.79 384.11 252.94 381.61
  Q 264.60 378.43 277.14 382.65
  A 0.43 0.42 -52.8 0 1 277.24 383.41
  Q 268.94 389.07 262.51 394.98
  C 257.56 399.52 252.43 404.05 246.90 408.01
  C 242.52 411.15 238.66 415.05 234.56 418.54
  Q 229.19 423.13 224.16 427.40
  Q 222.85 428.52 222.60 426.81
  Q 220.91 415.41 224.54 406.56
  Z"
/>
<path fill="#057bb4" d="
  M 229.24 442.75
  Q 226.39 438.21 224.60 433.35
  Q 224.41 432.81 224.85 432.45
  C 230.40 427.96 235.98 424.16 241.25 419.13
  Q 245.41 415.17 251.96 410.01
  C 261.98 402.14 271.88 393.63 281.37 385.55
  Q 282.61 384.50 284.03 385.28
  Q 288.67 387.81 292.32 391.01
  A 0.52 0.52 0.0 0 1 292.31 391.80
  L 230.46 442.95
  Q 229.74 443.54 229.24 442.75
  Z"
/>
<path fill="#271a48" d="
  M 127.55 388.60
  L 123.73 404.65
  Q 123.68 404.89 123.87 405.04
  Q 131.61 411.12 136.88 417.33
  Q 138.30 419.00 140.60 418.94
  A 0.66 0.66 0.0 0 1 141.20 419.91
  Q 139.76 422.56 137.37 425.10
  C 132.82 429.93 124.71 429.42 119.71 426.07
  Q 115.94 423.55 113.18 416.91
  Q 109.69 408.55 109.96 399.17
  L 120.44 400.21
  Q 121.69 400.33 121.74 399.07
  Q 121.99 392.18 127.55 388.60
  Z"
/>
<path fill="#271a48" d="
  M 165.17 393.24
  Q 162.46 405.18 166.13 417.93
  Q 168.51 426.16 174.57 431.23
  Q 183.28 438.51 193.26 432.19
  A 0.07 0.07 0.0 0 1 193.35 432.30
  C 186.89 439.18 178.32 439.85 169.73 436.80
  C 164.98 435.12 160.96 430.12 158.59 425.69
  Q 157.02 422.75 156.16 418.19
  Q 153.62 404.70 156.44 390.45
  L 165.17 393.24
  Z"
/>
<path fill="#271a48" d="
  M 202.74 405.31
  Q 202.37 406.53 203.00 407.74
  Q 203.57 408.82 203.66 409.39
  Q 203.80 410.31 203.86 411.21
  L 201.89 411.22
  Q 201.36 411.22 201.25 411.74
  Q 199.70 419.02 196.79 424.39
  Q 194.84 427.98 189.44 430.55
  Q 184.47 432.93 179.58 430.57
  C 177.83 429.72 176.90 428.41 175.30 427.40
  Q 174.23 426.73 173.58 425.74
  Q 166.48 415.03 167.82 401.95
  Q 173.40 403.29 179.69 403.27
  C 179.72 408.53 182.70 416.50 188.73 417.20
  Q 195.30 417.96 197.29 411.48
  Q 197.56 410.60 196.68 410.36
  L 196.32 410.27
  A 1.02 1.01 24.0 0 0 195.21 410.69
  C 192.23 415.25 187.89 415.49 185.31 410.59
  Q 181.55 403.41 185.70 395.54
  C 187.62 391.89 191.81 390.14 194.10 394.75
  Q 194.49 395.55 193.61 395.48
  L 189.38 395.15
  A 3.01 3.00 -74.6 0 0 186.47 396.81
  Q 185.29 399.18 184.73 401.82
  Q 184.35 403.60 186.17 403.77
  L 202.74 405.31
  Z"
/>
<path fill="#05afcb" d="
  M 93.45 398.94
  Q 90.75 399.73 87.16 399.36
  Q 87.03 398.08 87.80 395.51
  Q 89.03 391.43 92.93 392.44
  Q 93.43 392.56 93.43 393.07
  L 93.45 398.94
  Z"
/>
<path fill="#065ca3" d="
  M 304.68 415.93
  Q 296.27 422.57 288.35 428.12
  Q 285.48 430.14 280.16 434.91
  Q 274.61 439.88 264.55 447.22
  Q 262.20 448.93 257.46 452.85
  Q 254.03 455.69 250.16 458.29
  Q 243.42 456.02 239.77 452.98
  Q 236.61 450.34 233.64 447.79
  Q 233.09 447.32 233.67 446.89
  C 237.06 444.35 239.84 441.19 243.09 438.55
  Q 248.43 434.20 253.88 429.80
  C 256.06 428.04 258.50 426.60 260.40 424.55
  Q 261.93 422.90 263.58 421.58
  Q 280.21 408.28 295.59 395.05
  Q 295.99 394.70 296.32 395.11
  Q 304.21 404.83 304.68 415.93
  Z"
/>
<path fill="#271a48" d="
  M 97.20 394.97
  L 106.51 396.28
  Q 105.66 411.23 112.86 423.23
  Q 114.89 426.59 117.58 428.43
  C 123.01 432.13 129.21 433.32 135.03 429.96
  Q 135.08 429.93 135.11 429.98
  L 135.25 430.20
  Q 135.32 430.31 135.22 430.40
  Q 130.40 434.51 125.46 435.10
  C 113.15 436.58 103.36 429.45 99.51 418.01
  Q 95.71 406.71 97.20 394.97
  Z"
/>
<path fill="#057bb4" d="
  M 151.46 396.06
  L 150.85 403.94
  L 137.21 403.05
  Q 138.58 403.39 138.58 402.26
  Q 140.66 401.98 141.16 401.66
  Q 146.05 398.67 151.46 396.06
  Z"
/>
<path fill="#052f94" d="
  M 203.86 411.21
  Q 203.80 410.31 203.66 409.39
  Q 203.57 408.82 203.00 407.74
  Q 202.37 406.53 202.74 405.31
  Q 202.84 401.35 205.39 398.50
  A 2.05 2.05 0.0 0 1 208.22 398.30
  C 211.99 401.47 210.41 407.62 207.40 410.68
  Q 206.07 412.02 203.86 411.21
  Z"
/>
<path fill="#271a48" d="
  M 93.45 398.94
  L 93.85 405.74
  Q 93.88 406.36 93.27 406.30
  L 89.89 405.98
  Q 89.34 405.93 88.99 405.50
  Q 86.98 403.03 87.16 399.36
  Q 90.75 399.73 93.45 398.94
  Z"
/>
<path fill="#271a48" d="
  M 129.68 402.20
  L 137.21 403.05
  L 150.85 403.94
  L 152.33 414.87
  Q 152.42 415.50 151.78 415.47
  L 142.77 415.08
  Q 142.08 415.05 141.59 414.56
  Q 135.95 409.08 130.03 403.73
  Q 129.06 402.86 129.68 402.20
  Z"
/>
<path fill="#052f94" d="
  M 304.68 415.93
  Q 305.42 424.85 302.53 434.51
  Q 300.52 441.25 295.79 446.06
  Q 293.67 448.21 289.83 451.32
  C 278.49 460.51 263.99 463.22 250.16 458.29
  Q 254.03 455.69 257.46 452.85
  Q 262.20 448.93 264.55 447.22
  Q 274.61 439.88 280.16 434.91
  Q 285.48 430.14 288.35 428.12
  Q 296.27 422.57 304.68 415.93
  Z"
/>
</g>
</svg>
