<?xml version="1.0" encoding="UTF-8" standalone="no"?>
<svg xmlns="http://www.w3.org/2000/svg" version="1.2" baseProfile="tiny" viewBox="0.00 0.00 500.00 500.00">
<g stroke-width="2.00" fill="none" stroke-linecap="butt">
<path stroke="#999d9f" vector-effect="non-scaling-stroke" d="
  M 409.03 241.99
  Q 382.16 241.94 355.42 241.98
  Q 348.55 241.99 345.93 243.26
  Q 339.00 246.62 336.57 253.53
  Q 333.70 261.69 331.03 273.20
  Q 330.98 273.42 330.78 273.52
  A 0.31 0.31 0.0 0 1 330.33 273.30
  Q 326.91 254.40 323.38 236.03
  C 322.53 231.61 322.29 227.08 321.33 222.69
  Q 319.55 214.59 317.97 206.23
  C 315.97 195.62 302.32 193.57 296.48 201.89
  Q 294.77 204.34 293.64 210.94
  Q 288.85 238.91 284.22 267.09
  A 0.21 0.21 0.0 0 1 283.91 267.23
  Q 283.56 267.02 283.45 266.62
  Q 281.99 261.30 280.84 255.67
  C 279.44 248.80 276.63 243.35 269.33 242.34
  C 265.35 241.79 262.08 241.76 261.16 236.95
  Q 257.87 219.66 253.96 201.92
  C 252.28 194.31 243.75 190.04 236.93 194.04
  Q 231.18 197.42 230.43 202.82
  Q 226.38 231.79 222.18 262.82
  Q 222.06 263.67 221.52 263.00
  Q 221.38 262.82 221.35 262.60
  C 219.45 250.48 218.27 238.39 216.46 226.22
  Q 213.61 207.15 210.42 187.52
  C 209.81 183.78 209.48 179.31 206.25 176.61
  Q 198.47 170.08 190.33 176.33
  Q 187.53 178.49 186.91 181.92
  Q 181.97 209.20 177.30 235.47
  C 176.44 240.35 170.66 242.00 166.41 241.99
  Q 131.36 241.91 96.41 242.02
  Q 96.20 242.03 96.14 242.22
  Q 96.08 242.38 96.22 242.47"
/>
<path stroke="#95999c" vector-effect="non-scaling-stroke" d="
  M 404.94 258.36
  Q 382.45 258.60 360.01 258.49
  Q 351.84 258.45 349.55 265.47
  Q 346.38 275.16 342.63 293.46
  C 341.57 298.64 340.09 302.42 334.88 304.40
  C 328.56 306.81 321.07 303.72 319.72 296.66
  Q 313.43 263.96 306.71 229.33
  Q 306.25 226.93 305.81 229.33
  Q 304.04 238.93 302.76 249.43
  Q 301.67 258.38 300.54 265.31
  Q 299.17 273.63 297.90 281.32
  C 297.31 284.90 297.24 288.60 295.89 291.91
  Q 293.05 298.87 285.88 299.71
  C 280.29 300.36 275.33 295.66 274.02 290.62
  Q 270.68 277.77 267.14 263.46
  C 266.24 259.81 261.45 258.70 258.33 258.28
  C 253.39 257.63 249.62 254.49 248.38 249.62
  Q 246.23 241.24 243.30 224.90
  Q 243.23 224.49 242.86 224.27
  A 0.22 0.22 0.0 0 0 242.53 224.43
  Q 240.74 235.71 239.66 248.10
  C 238.36 262.95 235.93 277.45 234.18 292.15
  C 233.53 297.65 232.29 301.74 226.84 303.89
  Q 220.05 306.57 214.97 301.82
  Q 212.16 299.20 211.60 295.36
  Q 206.13 258.13 200.35 222.45
  Q 199.21 215.36 197.83 208.75
  Q 197.72 208.20 197.66 208.76
  Q 195.78 225.34 192.61 241.95
  C 191.21 249.25 189.11 254.43 182.19 257.27
  Q 179.18 258.50 172.09 258.51
  Q 136.82 258.52 100.92 258.50"
/>
</g>
<g>
<path fill="#333b3f" d="
  M 409.03 241.99
  Q 382.16 241.94 355.42 241.98
  Q 348.55 241.99 345.93 243.26
  Q 339.00 246.62 336.57 253.53
  Q 333.70 261.69 331.03 273.20
  Q 330.98 273.42 330.78 273.52
  A 0.31 0.31 0.0 0 1 330.33 273.30
  Q 326.91 254.40 323.38 236.03
  C 322.53 231.61 322.29 227.08 321.33 222.69
  Q 319.55 214.59 317.97 206.23
  C 315.97 195.62 302.32 193.57 296.48 201.89
  Q 294.77 204.34 293.64 210.94
  Q 288.85 238.91 284.22 267.09
  A 0.21 0.21 0.0 0 1 283.91 267.23
  Q 283.56 267.02 283.45 266.62
  Q 281.99 261.30 280.84 255.67
  C 279.44 248.80 276.63 243.35 269.33 242.34
  C 265.35 241.79 262.08 241.76 261.16 236.95
  Q 257.87 219.66 253.96 201.92
  C 252.28 194.31 243.75 190.04 236.93 194.04
  Q 231.18 197.42 230.43 202.82
  Q 226.38 231.79 222.18 262.82
  Q 222.06 263.67 221.52 263.00
  Q 221.38 262.82 221.35 262.60
  C 219.45 250.48 218.27 238.39 216.46 226.22
  Q 213.61 207.15 210.42 187.52
  C 209.81 183.78 209.48 179.31 206.25 176.61
  Q 198.47 170.08 190.33 176.33
  Q 187.53 178.49 186.91 181.92
  Q 181.97 209.20 177.30 235.47
  C 176.44 240.35 170.66 242.00 166.41 241.99
  Q 131.36 241.91 96.41 242.02
  Q 96.20 242.03 96.14 242.22
  Q 96.08 242.38 96.22 242.47
  Q 95.59 241.99 95.47 241.25
  C 92.68 223.64 92.42 202.57 98.86 185.88
  Q 110.57 155.50 136.26 137.81
  Q 140.52 134.87 148.28 131.24
  Q 168.18 121.93 191.52 123.46
  Q 205.44 124.37 217.21 129.96
  Q 221.76 132.12 226.59 134.49
  C 236.04 139.13 244.25 146.22 251.13 154.07
  A 1.55 1.55 0.0 0 0 253.50 154.01
  Q 261.55 143.92 272.56 137.08
  Q 276.98 134.34 287.21 129.67
  Q 292.38 127.31 299.89 125.50
  C 319.18 120.87 338.79 123.39 357.30 131.89
  C 368.62 137.09 379.08 144.31 386.72 153.61
  C 389.17 156.60 391.74 159.27 393.96 162.50
  C 399.30 170.27 404.50 179.04 406.80 188.24
  C 407.90 192.65 409.42 197.11 410.15 201.58
  Q 413.46 221.93 409.03 241.99
  Z"
/>
<path fill="#ffffff" d="
  M 409.03 241.99
  L 404.94 258.36
  Q 382.45 258.60 360.01 258.49
  Q 351.84 258.45 349.55 265.47
  Q 346.38 275.16 342.63 293.46
  C 341.57 298.64 340.09 302.42 334.88 304.40
  C 328.56 306.81 321.07 303.72 319.72 296.66
  Q 313.43 263.96 306.71 229.33
  Q 306.25 226.93 305.81 229.33
  Q 304.04 238.93 302.76 249.43
  Q 301.67 258.38 300.54 265.31
  Q 299.17 273.63 297.90 281.32
  C 297.31 284.90 297.24 288.60 295.89 291.91
  Q 293.05 298.87 285.88 299.71
  C 280.29 300.36 275.33 295.66 274.02 290.62
  Q 270.68 277.77 267.14 263.46
  C 266.24 259.81 261.45 258.70 258.33 258.28
  C 253.39 257.63 249.62 254.49 248.38 249.62
  Q 246.23 241.24 243.30 224.90
  Q 243.23 224.49 242.86 224.27
  A 0.22 0.22 0.0 0 0 242.53 224.43
  Q 240.74 235.71 239.66 248.10
  C 238.36 262.95 235.93 277.45 234.18 292.15
  C 233.53 297.65 232.29 301.74 226.84 303.89
  Q 220.05 306.57 214.97 301.82
  Q 212.16 299.20 211.60 295.36
  Q 206.13 258.13 200.35 222.45
  Q 199.21 215.36 197.83 208.75
  Q 197.72 208.20 197.66 208.76
  Q 195.78 225.34 192.61 241.95
  C 191.21 249.25 189.11 254.43 182.19 257.27
  Q 179.18 258.50 172.09 258.51
  Q 136.82 258.52 100.92 258.50
  Q 101.04 254.24 100.41 252.77
  Q 98.22 247.63 96.22 242.47
  Q 96.08 242.38 96.14 242.22
  Q 96.20 242.03 96.41 242.02
  Q 131.36 241.91 166.41 241.99
  C 170.66 242.00 176.44 240.35 177.30 235.47
  Q 181.97 209.20 186.91 181.92
  Q 187.53 178.49 190.33 176.33
  Q 198.47 170.08 206.25 176.61
  C 209.48 179.31 209.81 183.78 210.42 187.52
  Q 213.61 207.15 216.46 226.22
  C 218.27 238.39 219.45 250.48 221.35 262.60
  Q 221.38 262.82 221.52 263.00
  Q 222.06 263.67 222.18 262.82
  Q 226.38 231.79 230.43 202.82
  Q 231.18 197.42 236.93 194.04
  C 243.75 190.04 252.28 194.31 253.96 201.92
  Q 257.87 219.66 261.16 236.95
  C 262.08 241.76 265.35 241.79 269.33 242.34
  C 276.63 243.35 279.44 248.80 280.84 255.67
  Q 281.99 261.30 283.45 266.62
  Q 283.56 267.02 283.91 267.23
  A 0.21 0.21 0.0 0 0 284.22 267.09
  Q 288.85 238.91 293.64 210.94
  Q 294.77 204.34 296.48 201.89
  C 302.32 193.57 315.97 195.62 317.97 206.23
  Q 319.55 214.59 321.33 222.69
  C 322.29 227.08 322.53 231.61 323.38 236.03
  Q 326.91 254.40 330.33 273.30
  A 0.31 0.31 0.0 0 0 330.78 273.52
  Q 330.98 273.42 331.03 273.20
  Q 333.70 261.69 336.57 253.53
  Q 339.00 246.62 345.93 243.26
  Q 348.55 241.99 355.42 241.98
  Q 382.16 241.94 409.03 241.99
  Z"
/>
<path fill="#2a3338" d="
  M 404.94 258.36
  Q 397.37 274.96 394.37 278.88
  Q 390.80 283.53 387.47 288.77
  Q 383.82 294.50 380.49 298.49
  Q 365.53 316.41 361.94 319.95
  Q 354.65 327.14 347.26 334.40
  Q 340.87 340.68 335.03 345.40
  Q 327.16 351.74 322.34 356.11
  Q 318.16 359.90 313.17 363.42
  Q 310.80 365.10 308.49 366.79
  Q 297.27 375.02 289.96 379.63
  Q 275.24 388.90 257.88 397.87
  C 255.39 399.16 252.59 399.72 249.83 398.71
  Q 245.28 397.04 241.28 394.74
  Q 234.61 390.89 227.79 386.96
  C 225.70 385.75 223.46 384.83 221.46 383.56
  C 213.38 378.38 205.38 373.35 197.89 367.69
  Q 194.94 365.45 191.61 363.10
  Q 182.60 356.74 171.88 347.13
  C 167.82 343.48 162.80 339.89 159.52 336.41
  Q 153.03 329.52 144.45 321.55
  C 138.99 316.47 133.77 309.35 129.54 304.50
  Q 122.37 296.28 117.10 288.55
  C 115.66 286.43 114.48 284.06 112.99 281.80
  Q 105.79 270.87 100.92 258.50
  Q 136.82 258.52 172.09 258.51
  Q 179.18 258.50 182.19 257.27
  C 189.11 254.43 191.21 249.25 192.61 241.95
  Q 195.78 225.34 197.66 208.76
  Q 197.72 208.20 197.83 208.75
  Q 199.21 215.36 200.35 222.45
  Q 206.13 258.13 211.60 295.36
  Q 212.16 299.20 214.97 301.82
  Q 220.05 306.57 226.84 303.89
  C 232.29 301.74 233.53 297.65 234.18 292.15
  C 235.93 277.45 238.36 262.95 239.66 248.10
  Q 240.74 235.71 242.53 224.43
  A 0.22 0.22 0.0 0 1 242.86 224.27
  Q 243.23 224.49 243.30 224.90
  Q 246.23 241.24 248.38 249.62
  C 249.62 254.49 253.39 257.63 258.33 258.28
  C 261.45 258.70 266.24 259.81 267.14 263.46
  Q 270.68 277.77 274.02 290.62
  C 275.33 295.66 280.29 300.36 285.88 299.71
  Q 293.05 298.87 295.89 291.91
  C 297.24 288.60 297.31 284.90 297.90 281.32
  Q 299.17 273.63 300.54 265.31
  Q 301.67 258.38 302.76 249.43
  Q 304.04 238.93 305.81 229.33
  Q 306.25 226.93 306.71 229.33
  Q 313.43 263.96 319.72 296.66
  C 321.07 303.72 328.56 306.81 334.88 304.40
  C 340.09 302.42 341.57 298.64 342.63 293.46
  Q 346.38 275.16 349.55 265.47
  Q 351.84 258.45 360.01 258.49
  Q 382.45 258.60 404.94 258.36
  Z"
/>
</g>
</svg>
