<?xml version="1.0" encoding="UTF-8" standalone="no"?>
<svg xmlns="http://www.w3.org/2000/svg" version="1.2" baseProfile="tiny" viewBox="0.00 0.00 500.00 500.00">
<g>
<path fill="#2a3a42" d="
  M 208.21 101.23
  Q 201.85 99.47 200.51 92.73
  Q 198.26 81.39 196.27 69.48
  C 194.40 58.33 208.85 54.92 212.78 65.01
  Q 212.79 65.04 213.68 71.50
  Q 214.60 78.18 215.22 85.26
  Q 215.27 85.80 215.69 86.14
  Q 220.43 89.95 223.07 93.98
  C 224.96 96.86 224.80 100.16 224.79 103.78
  Q 224.76 111.57 224.84 120.25
  Q 224.91 128.06 223.44 132.44
  Q 220.63 140.81 214.45 146.62
  Q 207.76 152.91 202.91 155.50
  Q 199.26 157.46 195.44 159.74
  C 188.30 163.99 180.76 167.42 173.18 171.11
  C 164.99 175.09 156.98 176.33 148.40 178.00
  C 137.29 180.16 126.76 189.76 120.74 198.66
  Q 115.98 205.70 114.73 214.40
  C 113.45 223.34 113.87 233.93 117.42 242.61
  Q 119.44 247.56 120.51 252.03
  Q 121.23 255.07 120.00 259.32
  C 114.30 278.98 115.88 299.44 117.64 319.29
  C 117.83 321.41 116.20 323.37 115.34 325.26
  Q 113.51 329.27 111.74 333.25
  C 107.84 342.05 106.28 351.36 107.26 361.10
  C 108.57 374.27 110.71 387.59 112.28 400.34
  Q 112.98 406.03 108.49 408.31
  Q 102.32 411.44 97.61 407.02
  Q 95.92 405.45 95.58 403.14
  Q 94.30 394.55 93.42 385.46
  C 92.06 371.40 89.05 357.23 91.54 343.25
  Q 92.36 338.61 93.54 333.12
  C 94.21 330.03 95.46 326.27 97.02 323.53
  Q 99.01 320.04 100.79 316.34
  Q 101.03 315.82 100.96 315.26
  C 99.67 304.81 99.45 293.36 99.80 282.93
  Q 100.25 269.30 104.24 255.43
  A 2.43 2.43 0.0 0 0 104.13 253.79
  C 97.00 237.30 94.70 215.55 102.13 198.99
  Q 107.95 186.03 116.08 178.27
  Q 125.64 169.14 137.24 164.71
  C 144.12 162.08 151.90 161.02 159.02 158.49
  C 162.93 157.10 167.16 156.25 170.82 154.33
  Q 182.74 148.05 193.44 141.39
  C 196.31 139.60 198.59 137.35 201.37 135.59
  C 206.60 132.28 209.03 126.63 208.91 120.57
  Q 208.71 111.20 208.85 102.08
  Q 208.86 101.41 208.21 101.23
  Z"
/>
<path fill="#2a3a42" d="
  M 290.65 102.08
  Q 290.77 111.36 290.65 121.74
  C 290.59 127.30 292.86 131.99 297.25 134.96
  Q 299.25 136.31 301.21 137.91
  C 308.59 143.92 317.97 148.57 326.22 153.19
  Q 330.49 155.58 336.76 157.35
  Q 344.46 159.53 351.03 161.24
  Q 360.50 163.70 364.73 165.61
  C 371.01 168.43 376.18 172.49 381.73 176.78
  Q 384.02 178.55 385.98 180.94
  Q 388.53 184.03 390.71 187.21
  Q 406.34 209.94 400.58 236.96
  Q 398.88 244.94 395.27 254.32
  Q 394.95 255.15 395.22 256.05
  C 400.82 274.35 400.45 294.12 398.59 313.32
  C 398.34 315.87 399.59 318.20 400.83 320.32
  C 405.05 327.57 406.51 334.77 407.91 342.81
  C 410.26 356.33 407.65 369.44 406.31 382.97
  Q 405.51 391.16 404.18 400.68
  Q 403.59 404.87 402.21 406.48
  C 398.42 410.91 391.95 410.61 388.38 406.05
  Q 386.85 404.09 387.18 401.30
  Q 389.27 383.72 391.71 365.78
  C 393.08 355.72 392.98 346.87 389.60 337.60
  Q 386.57 329.30 382.26 321.00
  Q 381.86 320.24 381.99 318.50
  Q 382.87 306.34 383.38 294.75
  Q 384.21 276.13 379.11 257.22
  Q 378.10 253.47 379.75 248.88
  Q 381.78 243.25 383.51 238.03
  C 385.94 230.70 386.15 221.76 384.97 214.03
  C 383.02 201.24 374.30 191.02 364.07 183.72
  C 358.99 180.10 352.66 177.83 346.33 177.03
  C 331.56 175.16 319.30 168.44 306.01 161.18
  C 302.95 159.51 300.28 157.58 297.15 155.95
  Q 290.89 152.68 283.66 145.36
  C 281.88 143.55 280.84 141.35 279.41 139.27
  Q 274.88 132.74 274.79 125.45
  Q 274.62 111.86 274.80 98.83
  C 274.87 93.83 279.83 88.77 283.80 86.10
  Q 284.24 85.80 284.29 85.28
  Q 285.35 75.78 286.50 66.70
  C 287.94 55.28 305.40 56.95 303.24 69.69
  Q 301.09 82.37 298.73 93.49
  Q 297.37 99.90 291.29 101.27
  Q 290.64 101.42 290.65 102.08
  Z"
/>
<path fill="#2a3a42" d="
  M 241.77 368.54
  Q 235.92 369.52 230.23 371.54
  C 227.89 372.38 225.31 372.01 223.65 370.12
  Q 219.14 364.96 223.49 359.97
  C 226.55 356.46 237.21 354.51 241.75 353.66
  Q 242.32 353.55 242.33 352.97
  L 242.48 337.04
  Q 242.48 336.46 241.91 336.55
  Q 236.36 337.42 230.10 339.65
  C 226.36 340.98 222.63 339.97 221.01 336.16
  C 218.95 331.32 221.69 327.29 226.36 325.47
  Q 234.28 322.40 241.68 321.59
  Q 242.26 321.53 242.27 320.95
  L 242.47 303.77
  A 0.55 0.55 0.0 0 0 241.81 303.22
  Q 232.08 305.14 222.92 308.42
  Q 220.44 309.31 218.38 308.05
  Q 212.79 304.62 215.20 299.10
  Q 216.47 296.18 220.79 294.36
  Q 231.01 290.03 241.69 288.25
  Q 242.33 288.14 242.33 287.49
  L 242.31 262.30
  A 0.40 0.39 -3.9 0 0 241.86 261.92
  Q 235.03 262.95 228.81 264.63
  C 224.14 265.89 220.61 261.21 221.30 256.97
  C 222.13 251.76 226.29 250.70 230.67 249.70
  Q 236.55 248.34 241.92 247.33
  A 0.51 0.49 85.3 0 0 242.33 246.83
  L 242.28 221.24
  A 0.57 0.56 -3.6 0 0 241.64 220.68
  Q 236.26 221.42 230.34 223.02
  C 226.89 223.95 223.93 222.82 222.20 219.60
  C 219.90 215.32 223.36 210.56 227.70 209.32
  Q 234.75 207.31 241.73 205.95
  Q 242.35 205.83 242.34 205.20
  Q 242.26 185.33 242.32 159.93
  Q 242.32 156.72 243.29 155.11
  C 246.13 150.38 252.57 150.17 255.91 154.64
  Q 257.13 156.27 257.12 158.15
  Q 257.11 183.26 257.15 205.48
  Q 257.15 205.78 257.45 205.85
  Q 262.75 207.10 268.45 208.47
  Q 272.15 209.35 274.28 210.95
  C 277.39 213.29 278.38 217.42 275.94 220.71
  C 273.88 223.48 270.82 223.80 267.74 222.89
  Q 262.89 221.47 257.74 220.69
  A 0.53 0.52 -85.8 0 0 257.14 221.21
  L 257.11 246.70
  A 0.50 0.50 0.0 0 0 257.53 247.19
  Q 264.00 248.25 271.42 250.44
  C 275.05 251.51 277.56 253.38 278.16 257.16
  Q 278.51 259.39 277.16 261.33
  C 275.14 264.25 272.05 265.30 268.68 264.29
  Q 263.34 262.69 257.59 261.97
  A 0.46 0.46 0.0 0 0 257.07 262.43
  L 257.18 287.44
  Q 257.18 287.97 257.70 288.06
  Q 269.54 290.08 279.89 294.85
  Q 281.89 295.77 283.32 297.94
  C 286.99 303.51 282.06 310.82 275.41 308.19
  Q 267.38 305.02 258.13 303.12
  Q 257.09 302.91 257.09 303.97
  L 257.09 320.69
  Q 257.09 321.07 257.46 321.15
  C 263.32 322.50 274.43 323.81 278.16 329.11
  Q 281.13 333.33 278.04 337.55
  C 275.93 340.44 272.78 340.93 269.57 339.67
  Q 263.83 337.41 257.82 336.48
  Q 257.16 336.38 257.16 337.05
  L 257.14 352.78
  Q 257.14 353.33 257.67 353.46
  Q 262.91 354.69 268.75 356.29
  Q 273.14 357.49 275.33 359.62
  C 280.90 365.04 276.06 373.86 268.51 371.33
  Q 262.67 369.36 257.61 368.52
  A 0.35 0.34 5.7 0 0 257.20 368.85
  Q 257.05 386.34 257.07 403.44
  Q 257.07 406.24 254.30 408.10
  Q 249.19 411.54 244.60 407.83
  Q 242.37 406.02 242.34 403.36
  Q 242.16 386.21 242.48 369.15
  Q 242.50 368.42 241.77 368.54
  Z"
/>
<path fill="#2a3a42" d="
  M 162.06 294.80
  C 160.37 306.95 157.66 319.04 155.10 331.10
  Q 154.51 333.89 154.99 336.45
  C 156.88 346.66 158.09 356.79 157.47 366.76
  C 157.03 373.91 156.37 381.97 154.83 389.24
  Q 153.52 395.40 152.30 402.38
  C 150.51 412.63 134.62 411.39 136.03 400.76
  C 136.62 396.24 137.10 391.89 137.91 387.38
  C 140.25 374.43 142.93 360.82 139.72 348.32
  A 0.50 0.50 0.0 0 0 138.96 348.03
  Q 137.47 349.04 135.99 350.19
  C 131.89 353.36 127.08 352.92 124.41 348.20
  C 122.04 344.03 123.94 340.01 127.99 337.62
  C 130.66 336.04 136.29 332.84 137.30 329.78
  Q 148.63 295.71 146.85 260.95
  Q 146.48 253.68 144.85 247.78
  C 143.55 243.09 143.92 238.76 149.07 236.97
  C 152.94 235.62 156.29 237.98 157.95 241.44
  Q 162.47 250.87 173.84 256.21
  C 176.43 257.43 179.92 260.25 179.16 263.48
  C 178.19 267.65 175.34 269.74 170.97 268.27
  Q 170.24 268.03 170.51 268.75
  L 173.34 276.25
  A 0.50 0.50 0.0 0 0 174.02 276.52
  Q 184.78 271.50 192.08 263.02
  Q 196.00 258.47 197.73 253.71
  C 202.68 240.13 202.55 226.91 195.31 214.14
  C 193.76 211.42 191.45 208.92 189.81 206.19
  C 188.16 203.43 188.38 199.08 191.44 197.22
  C 196.75 193.99 200.81 196.35 204.11 200.58
  Q 214.45 213.84 216.56 229.20
  C 218.86 246.01 213.04 262.99 201.79 275.71
  Q 197.35 280.73 191.75 284.13
  Q 185.30 288.05 179.30 290.58
  A 0.60 0.59 66.8 0 0 178.99 291.37
  Q 188.34 312.42 192.28 332.25
  Q 195.42 348.04 192.71 361.73
  C 191.41 368.32 190.22 374.85 188.56 381.12
  Q 181.66 407.15 180.72 435.50
  C 180.44 444.23 170.03 447.71 165.35 440.07
  Q 163.95 437.79 164.13 433.45
  Q 164.75 418.60 166.36 408.03
  Q 169.48 387.54 175.45 364.88
  C 178.99 351.43 177.84 336.78 173.61 323.55
  Q 168.89 308.75 162.42 294.74
  A 0.19 0.19 0.0 0 0 162.06 294.80
  Z"
/>
<path fill="#2a3a42" d="
  M 336.87 295.47
  Q 330.39 308.84 325.66 324.15
  Q 321.41 337.90 322.28 352.59
  Q 322.69 359.51 324.94 369.25
  Q 326.91 377.80 328.81 385.98
  Q 334.94 412.41 334.92 437.18
  C 334.91 442.99 325.82 446.67 321.65 442.28
  Q 318.67 439.13 318.67 435.74
  Q 318.66 414.49 311.99 386.72
  Q 308.31 371.35 306.21 359.50
  Q 305.38 354.83 305.41 349.26
  C 305.49 329.43 312.14 309.97 320.47 291.56
  Q 320.75 290.93 320.11 290.67
  C 312.55 287.56 304.30 283.24 298.84 277.25
  C 284.31 261.28 277.85 239.14 285.24 218.72
  Q 288.86 208.74 296.51 199.23
  Q 300.77 193.92 306.68 196.71
  C 310.57 198.54 311.63 203.22 309.25 206.74
  C 307.26 209.67 304.96 212.45 303.42 215.63
  Q 294.28 234.41 301.47 253.60
  Q 303.66 259.43 308.37 264.47
  Q 315.45 272.03 325.77 276.69
  A 0.37 0.37 0.0 0 0 326.27 276.47
  L 328.90 268.93
  Q 329.23 267.97 328.30 268.38
  Q 325.07 269.79 322.46 267.75
  C 320.12 265.91 318.49 262.36 320.77 259.84
  Q 322.62 257.80 324.81 256.66
  Q 336.04 250.84 341.57 241.18
  Q 345.34 234.58 350.94 237.30
  Q 356.63 240.06 354.94 246.20
  Q 353.62 250.96 353.20 255.25
  Q 349.56 291.90 362.21 330.28
  Q 362.72 331.81 364.07 332.92
  Q 367.59 335.81 371.35 337.79
  C 381.05 342.89 372.57 356.15 365.12 351.36
  Q 362.83 349.89 360.25 348.21
  Q 359.71 347.86 359.58 348.49
  Q 357.05 360.18 359.09 372.97
  Q 361.87 390.28 363.42 401.90
  C 363.68 403.89 362.67 405.95 361.12 407.16
  Q 354.66 412.19 348.79 406.60
  Q 347.35 405.22 346.95 403.26
  Q 342.84 383.32 342.03 366.59
  Q 341.43 354.16 344.22 338.28
  C 344.60 336.12 345.10 334.09 344.60 331.91
  C 343.79 328.41 343.32 324.97 342.53 321.50
  Q 339.56 308.51 337.38 295.54
  A 0.27 0.27 0.0 0 0 336.87 295.47
  Z"
/>
</g>
</svg>
