<?xml version="1.0" encoding="UTF-8" standalone="no"?>
<svg xmlns="http://www.w3.org/2000/svg" version="1.2" baseProfile="tiny" viewBox="0.00 0.00 500.00 500.00">
<g stroke-width="2.00" fill="none" stroke-linecap="butt">
<path stroke="#737f81" vector-effect="non-scaling-stroke" d="
  M 324.58 414.23
  Q 324.99 408.89 325.23 403.50
  Q 325.43 398.85 328.27 386.06
  Q 330.79 374.71 332.59 363.23
  Q 334.25 352.65 333.74 342.76
  Q 333.14 331.27 330.22 322.71
  Q 327.75 315.46 325.56 308.31
  A 0.46 0.46 0.0 0 0 324.80 308.11
  Q 320.20 312.53 312.98 313.20
  Q 298.97 314.48 289.39 303.77
  Q 288.93 303.25 288.66 303.89
  Q 281.64 320.24 278.22 334.66
  C 275.90 344.48 276.19 355.52 279.87 365.03
  C 281.91 370.31 283.50 374.76 287.92 378.71
  Q 288.43 379.17 288.41 378.48
  L 288.09 367.54"
/>
<path stroke="#737f81" vector-effect="non-scaling-stroke" d="
  M 292.72 325.55
  Q 292.89 325.50 293.02 325.43
  Q 293.34 325.28 293.44 324.94
  Q 294.46 321.70 295.72 318.74
  C 297.59 314.34 303.70 316.55 302.50 321.75
  Q 301.89 324.36 301.13 329.41"
/>
<path stroke="#737f81" vector-effect="non-scaling-stroke" d="
  M 197.72 332.39
  Q 197.63 327.00 196.41 319.52
  Q 196.13 317.78 198.45 316.39
  Q 199.01 316.06 199.64 316.08
  Q 202.80 316.16 203.78 319.16
  Q 204.76 322.12 205.55 322.73"
/>
<path stroke="#737f81" vector-effect="non-scaling-stroke" d="
  M 210.25 368.93
  L 210.08 379.28
  A 0.21 0.21 0.0 0 0 210.43 379.43
  C 214.36 375.64 216.78 372.00 218.57 366.51
  Q 223.71 350.79 220.26 334.51
  C 219.21 329.53 218.23 324.60 216.31 319.84
  Q 213.00 311.67 210.07 303.98
  Q 209.70 303.02 209.01 303.79
  Q 204.08 309.27 196.89 312.15
  Q 194.88 312.96 190.60 313.27
  Q 181.00 313.96 174.16 308.09
  A 0.69 0.68 29.0 0 0 173.06 308.40
  C 170.57 316.27 167.63 324.35 166.32 332.37
  Q 163.52 349.41 166.64 366.60
  Q 167.75 372.72 172.00 391.24
  Q 173.12 396.11 174.21 413.49"
/>
<path stroke="#737f81" vector-effect="non-scaling-stroke" d="
  M 211.18 95.20
  Q 211.84 95.67 211.61 94.89
  Q 209.64 88.04 208.55 80.20
  A 0.57 0.56 85.9 0 0 207.99 79.71
  L 196.51 79.62
  Q 195.64 79.62 196.15 80.33
  Q 202.24 88.79 211.18 95.20"
/>
<path stroke="#737f81" vector-effect="non-scaling-stroke" d="
  M 274.93 89.41
  L 276.62 80.09
  Q 276.70 79.66 276.26 79.66
  L 222.45 79.67
  A 0.46 0.46 0.0 0 0 222.00 80.20
  Q 222.60 84.24 223.46 88.47
  Q 223.51 88.74 223.71 88.93
  Q 223.96 89.16 224.23 89.13"
/>
<path stroke="#737f81" vector-effect="non-scaling-stroke" d="
  M 321.19 87.44
  Q 322.19 84.44 321.74 80.00
  Q 321.68 79.44 321.30 79.86
  Q 315.75 86.14 309.68 92.35
  Q 303.65 98.51 297.65 104.44
  Q 290.88 111.14 282.43 116.37
  Q 280.06 117.84 279.49 119.88
  Q 277.40 127.45 279.48 135.49
  C 280.49 139.42 281.32 143.76 282.95 147.41
  Q 286.91 156.24 293.47 163.39"
/>
<path stroke="#737f81" vector-effect="non-scaling-stroke" d="
  M 290.15 80.49
  C 289.32 85.07 288.50 89.81 287.10 94.10
  Q 286.39 96.27 288.18 94.85
  Q 296.68 88.12 302.49 80.40
  A 0.40 0.40 0.0 0 0 302.17 79.76
  L 291.03 79.75
  A 0.89 0.89 0.0 0 0 290.15 80.49"
/>
<path stroke="#737f81" vector-effect="non-scaling-stroke" d="
  M 206.96 161.28
  Q 213.87 153.20 217.29 143.12
  C 218.79 138.72 219.23 134.06 219.69 129.57
  C 220.00 126.52 220.05 118.60 216.78 116.58
  Q 207.29 110.74 198.79 102.17
  Q 194.82 98.16 190.72 94.18
  C 186.10 89.70 182.00 84.92 177.64 80.33
  Q 177.20 79.86 177.16 80.50
  Q 176.85 85.48 177.87 88.97"
/>
<path stroke="#737f81" vector-effect="non-scaling-stroke" d="
  M 174.84 123.37
  L 171.51 112.98
  Q 171.30 112.33 171.14 112.99
  Q 168.08 125.90 164.97 138.29
  C 158.95 162.24 156.54 185.60 158.61 209.99
  C 159.37 218.94 161.37 227.81 163.65 236.54
  A 0.58 0.58 0.0 0 0 164.56 236.86
  Q 169.37 233.22 174.00 228.87
  C 176.72 226.32 178.55 223.29 180.81 220.46
  C 186.84 212.89 190.19 203.75 192.29 193.49
  Q 196.61 172.30 187.88 153.87"
/>
<path stroke="#737f81" vector-effect="non-scaling-stroke" d="
  M 309.10 157.67
  Q 300.43 183.71 310.95 208.58
  Q 313.37 214.30 316.38 218.51
  C 321.60 225.83 326.72 231.74 334.14 236.93
  A 0.37 0.37 0.0 0 0 334.71 236.73
  Q 338.40 223.96 340.09 211.43
  Q 341.22 202.97 341.04 190.98
  Q 340.84 178.12 339.81 170.97
  Q 336.99 151.43 334.75 143.24
  Q 330.77 128.73 327.43 113.98
  Q 326.81 111.22 326.06 113.95
  L 323.29 124.08"
/>
<path stroke="#737f81" vector-effect="non-scaling-stroke" d="
  M 224.99 193.40
  C 236.23 179.72 239.57 162.99 239.87 145.47
  A 1.03 1.03 0.0 0 0 239.27 144.52
  Q 234.70 142.47 230.69 139.17
  Q 230.28 138.83 230.18 139.36
  C 228.19 150.50 223.98 159.15 217.74 169.31
  C 214.62 174.40 210.69 178.41 206.26 182.33
  Q 205.77 182.76 205.72 183.41
  Q 204.44 199.81 198.39 215.74
  Q 198.03 216.69 198.93 216.21
  Q 207.24 211.77 213.84 205.43
  Q 219.83 199.68 224.99 193.40"
/>
<path stroke="#737f81" vector-effect="non-scaling-stroke" d="
  M 295.67 202.59
  Q 293.59 192.92 292.98 182.80
  Q 292.95 182.25 292.52 181.92
  Q 286.49 177.13 283.28 172.39
  Q 279.79 167.24 275.44 159.58
  C 271.87 153.27 269.91 147.33 268.40 140.48
  A 0.69 0.69 0.0 0 0 267.31 140.08
  Q 263.41 143.10 259.45 144.98
  Q 258.72 145.33 258.79 146.14
  Q 259.39 152.41 260.01 159.18
  Q 260.68 166.39 262.28 171.82
  C 264.83 180.46 270.03 190.45 276.77 197.42
  C 280.02 200.78 282.84 204.27 286.48 207.31
  Q 292.58 212.39 299.25 215.86
  Q 300.54 216.53 300.04 215.16
  L 296.06 204.11"
/>
<path stroke="#737f81" vector-effect="non-scaling-stroke" d="
  M 207.87 263.46
  L 211.63 268.60
  A 0.28 0.28 0.0 0 0 212.11 268.54
  Q 215.71 260.01 218.13 251.46
  Q 219.55 246.45 220.89 242.02
  Q 225.92 225.38 229.77 207.73
  Q 229.98 206.80 229.37 207.54
  Q 217.84 221.84 201.35 230.28
  Q 200.88 230.51 200.89 231.04
  L 201.04 238.95"
/>
<path stroke="#737f81" vector-effect="non-scaling-stroke" d="
  M 297.93 238.34
  L 298.00 230.64
  Q 298.01 230.12 297.52 229.91
  C 290.34 226.92 285.21 222.50 279.16 217.85
  C 275.77 215.23 272.88 212.02 269.82 209.04
  Q 269.01 208.25 269.28 209.35
  Q 271.49 218.31 273.61 227.12
  C 275.92 236.70 279.42 245.74 281.88 255.33
  C 283.05 259.86 285.00 264.03 286.25 268.52
  A 0.27 0.27 0.0 0 0 286.73 268.61
  L 291.40 262.63"
/>
<path stroke="#737f81" vector-effect="non-scaling-stroke" d="
  M 188.56 251.32
  L 188.65 233.29
  Q 188.66 232.65 188.22 233.12
  Q 182.42 239.42 176.14 244.87
  Q 172.91 247.68 169.77 249.55
  Q 168.99 250.02 169.17 250.92
  Q 170.01 255.09 172.44 258.22"
/>
<path stroke="#737f81" vector-effect="non-scaling-stroke" d="
  M 326.15 258.78
  L 329.85 250.96
  A 0.95 0.95 0.0 0 0 329.48 249.74
  Q 326.85 248.17 324.54 246.34
  Q 317.15 240.51 310.39 233.35
  Q 309.95 232.88 309.96 233.52
  L 310.16 246.18"
/>
<path stroke="#737f81" vector-effect="non-scaling-stroke" d="
  M 296.93 281.11
  Q 296.40 281.41 296.22 282.76
  Q 295.07 291.39 301.58 296.86
  C 305.16 299.88 309.62 300.52 313.99 298.67
  Q 324.69 294.13 322.24 280.54"
/>
<path stroke="#737f81" vector-effect="non-scaling-stroke" d="
  M 176.21 282.56
  Q 175.21 285.35 175.95 288.43
  C 176.62 291.19 177.61 294.30 179.85 296.13
  C 184.88 300.24 192.96 301.13 197.77 296.00
  Q 203.41 289.99 201.94 282.12"
/>
</g>
<g>
<path fill="#1b2b30" d="
  M 324.58 414.23
  Q 324.99 408.89 325.23 403.50
  Q 325.43 398.85 328.27 386.06
  Q 330.79 374.71 332.59 363.23
  Q 334.25 352.65 333.74 342.76
  Q 333.14 331.27 330.22 322.71
  Q 327.75 315.46 325.56 308.31
  A 0.46 0.46 0.0 0 0 324.80 308.11
  Q 320.20 312.53 312.98 313.20
  Q 298.97 314.48 289.39 303.77
  Q 288.93 303.25 288.66 303.89
  Q 281.64 320.24 278.22 334.66
  C 275.90 344.48 276.19 355.52 279.87 365.03
  C 281.91 370.31 283.50 374.76 287.92 378.71
  Q 288.43 379.17 288.41 378.48
  L 288.09 367.54
  Q 288.13 354.41 288.31 350.75
  Q 288.83 339.75 292.81 327.01
  Q 292.99 326.43 292.72 325.55
  Q 292.89 325.50 293.02 325.43
  Q 293.34 325.28 293.44 324.94
  Q 294.46 321.70 295.72 318.74
  C 297.59 314.34 303.70 316.55 302.50 321.75
  Q 301.89 324.36 301.13 329.41
  C 300.37 338.80 299.34 348.16 299.34 357.47
  Q 299.36 385.96 299.23 413.60
  C 299.22 416.27 297.12 418.30 294.46 418.03
  C 291.14 417.68 284.96 419.17 284.96 413.63
  Q 284.94 403.75 284.97 395.06
  Q 284.97 394.44 284.49 394.05
  Q 276.99 388.02 273.32 383.00
  C 261.07 366.25 260.11 344.52 266.12 324.91
  Q 267.83 319.33 272.63 306.70
  C 278.51 291.27 274.82 276.99 269.53 261.79
  C 267.17 255.03 265.12 248.13 263.01 241.25
  Q 261.19 235.33 259.86 229.13
  Q 258.76 224.05 256.99 216.91
  Q 252.37 198.39 249.42 175.78
  Q 249.38 175.47 249.10 175.36
  Q 249.03 175.33 248.97 175.34
  Q 248.82 175.36 248.81 175.50
  Q 245.86 199.76 241.60 217.75
  C 240.35 223.01 239.45 228.45 238.05 233.55
  Q 233.73 249.36 229.01 262.34
  C 223.60 277.22 220.41 291.85 226.07 307.03
  Q 229.05 315.01 231.89 323.04
  Q 235.38 332.91 235.96 344.24
  Q 237.07 366.08 225.68 382.83
  Q 222.73 387.17 214.31 394.29
  Q 213.91 394.63 213.91 395.15
  Q 213.93 403.43 213.87 413.13
  C 213.85 415.88 212.11 418.10 209.23 418.03
  C 204.44 417.92 199.17 419.51 199.19 412.42
  Q 199.28 386.17 199.09 359.22
  C 199.02 350.34 198.27 341.37 197.72 332.39
  Q 197.63 327.00 196.41 319.52
  Q 196.13 317.78 198.45 316.39
  Q 199.01 316.06 199.64 316.08
  Q 202.80 316.16 203.78 319.16
  Q 204.76 322.12 205.55 322.73
  Q 205.07 322.67 205.36 323.72
  Q 207.74 332.17 209.16 340.83
  Q 210.05 346.25 210.02 354.21
  Q 209.99 361.41 210.25 368.93
  L 210.08 379.28
  A 0.21 0.21 0.0 0 0 210.43 379.43
  C 214.36 375.64 216.78 372.00 218.57 366.51
  Q 223.71 350.79 220.26 334.51
  C 219.21 329.53 218.23 324.60 216.31 319.84
  Q 213.00 311.67 210.07 303.98
  Q 209.70 303.02 209.01 303.79
  Q 204.08 309.27 196.89 312.15
  Q 194.88 312.96 190.60 313.27
  Q 181.00 313.96 174.16 308.09
  A 0.69 0.68 29.0 0 0 173.06 308.40
  C 170.57 316.27 167.63 324.35 166.32 332.37
  Q 163.52 349.41 166.64 366.60
  Q 167.75 372.72 172.00 391.24
  Q 173.12 396.11 174.21 413.49
  Q 173.85 417.56 169.95 417.90
  Q 167.58 418.10 163.91 417.89
  C 161.20 417.73 159.41 416.38 159.27 413.55
  Q 158.41 396.80 155.82 384.84
  Q 153.48 373.99 152.10 365.21
  Q 148.38 341.61 155.59 316.29
  C 156.41 313.40 156.83 310.42 157.83 307.54
  Q 160.24 300.64 162.97 294.14
  Q 163.21 293.56 163.03 292.96
  Q 160.54 284.62 163.51 275.93
  Q 163.75 275.22 163.86 274.47
  Q 163.94 273.98 163.70 273.54
  Q 158.50 264.04 157.32 260.93
  Q 153.96 252.05 150.07 238.89
  Q 148.19 232.54 146.50 222.49
  C 143.60 205.33 143.97 187.45 145.55 169.88
  C 146.16 163.06 147.33 156.50 148.44 149.79
  Q 149.11 145.79 149.99 142.14
  C 152.36 132.37 155.03 122.62 157.03 112.77
  Q 158.21 107.01 159.41 100.80
  Q 160.73 94.00 163.45 70.84
  Q 164.02 66.00 169.16 66.00
  Q 249.41 66.00 329.52 66.00
  C 332.47 66.00 334.92 67.91 335.19 70.99
  Q 336.61 87.19 339.64 103.71
  Q 340.56 108.71 341.74 113.30
  Q 342.53 116.41 343.12 119.50
  C 344.99 129.31 348.02 139.05 349.93 148.18
  C 354.88 171.75 356.38 196.07 352.72 219.57
  Q 350.89 231.31 348.95 238.50
  Q 346.71 246.80 342.34 259.15
  Q 341.18 262.46 334.65 273.59
  Q 334.40 274.01 334.57 274.47
  Q 337.79 283.55 335.55 292.76
  Q 335.43 293.27 335.59 293.76
  Q 336.68 297.04 338.06 300.15
  C 339.68 303.81 340.89 307.51 342.12 311.28
  C 343.33 315.02 343.78 318.90 344.86 322.63
  Q 345.75 325.71 346.31 328.98
  Q 349.75 349.26 345.79 370.34
  Q 343.47 382.73 341.16 395.17
  C 339.95 401.71 339.62 408.00 339.03 414.33
  C 338.59 419.15 332.55 417.93 329.39 418.02
  Q 325.50 418.14 324.58 414.23
  Z
  M 211.18 95.20
  Q 211.84 95.67 211.61 94.89
  Q 209.64 88.04 208.55 80.20
  A 0.57 0.56 85.9 0 0 207.99 79.71
  L 196.51 79.62
  Q 195.64 79.62 196.15 80.33
  Q 202.24 88.79 211.18 95.20
  Z
  M 224.23 89.13
  Q 223.79 90.19 224.20 91.79
  Q 228.03 106.81 233.30 119.76
  C 235.39 124.89 238.94 130.94 244.40 132.45
  C 251.14 134.32 257.70 132.49 261.51 126.63
  Q 263.23 123.99 264.25 121.75
  Q 271.39 106.17 274.93 89.41
  L 276.62 80.09
  Q 276.70 79.66 276.26 79.66
  L 222.45 79.67
  A 0.46 0.46 0.0 0 0 222.00 80.20
  Q 222.60 84.24 223.46 88.47
  Q 223.51 88.74 223.71 88.93
  Q 223.96 89.16 224.23 89.13
  Z
  M 293.47 163.39
  Q 293.87 164.32 294.39 164.76
  Q 295.18 165.44 294.99 164.42
  L 294.76 163.13
  Q 294.68 162.63 294.81 162.15
  Q 296.47 156.19 298.09 151.28
  Q 299.82 146.05 301.58 141.35
  Q 303.38 136.56 305.71 131.68
  Q 309.88 122.94 314.49 111.74
  Q 319.20 100.27 321.19 87.44
  Q 322.19 84.44 321.74 80.00
  Q 321.68 79.44 321.30 79.86
  Q 315.75 86.14 309.68 92.35
  Q 303.65 98.51 297.65 104.44
  Q 290.88 111.14 282.43 116.37
  Q 280.06 117.84 279.49 119.88
  Q 277.40 127.45 279.48 135.49
  C 280.49 139.42 281.32 143.76 282.95 147.41
  Q 286.91 156.24 293.47 163.39
  Z
  M 290.15 80.49
  C 289.32 85.07 288.50 89.81 287.10 94.10
  Q 286.39 96.27 288.18 94.85
  Q 296.68 88.12 302.49 80.40
  A 0.40 0.40 0.0 0 0 302.17 79.76
  L 291.03 79.75
  A 0.89 0.89 0.0 0 0 290.15 80.49
  Z
  M 177.87 88.97
  Q 177.94 91.47 178.19 92.55
  C 181.51 107.00 186.95 119.05 194.00 133.86
  Q 196.96 140.07 199.04 146.22
  Q 201.10 152.34 203.04 158.82
  Q 203.83 161.45 203.94 164.23
  Q 203.97 164.98 204.44 164.39
  L 206.96 161.28
  Q 213.87 153.20 217.29 143.12
  C 218.79 138.72 219.23 134.06 219.69 129.57
  C 220.00 126.52 220.05 118.60 216.78 116.58
  Q 207.29 110.74 198.79 102.17
  Q 194.82 98.16 190.72 94.18
  C 186.10 89.70 182.00 84.92 177.64 80.33
  Q 177.20 79.86 177.16 80.50
  Q 176.85 85.48 177.87 88.97
  Z
  M 187.88 153.87
  L 174.84 123.37
  L 171.51 112.98
  Q 171.30 112.33 171.14 112.99
  Q 168.08 125.90 164.97 138.29
  C 158.95 162.24 156.54 185.60 158.61 209.99
  C 159.37 218.94 161.37 227.81 163.65 236.54
  A 0.58 0.58 0.0 0 0 164.56 236.86
  Q 169.37 233.22 174.00 228.87
  C 176.72 226.32 178.55 223.29 180.81 220.46
  C 186.84 212.89 190.19 203.75 192.29 193.49
  Q 196.61 172.30 187.88 153.87
  Z
  M 323.29 124.08
  Q 320.93 131.18 319.40 134.16
  Q 313.56 145.59 309.10 157.67
  Q 300.43 183.71 310.95 208.58
  Q 313.37 214.30 316.38 218.51
  C 321.60 225.83 326.72 231.74 334.14 236.93
  A 0.37 0.37 0.0 0 0 334.71 236.73
  Q 338.40 223.96 340.09 211.43
  Q 341.22 202.97 341.04 190.98
  Q 340.84 178.12 339.81 170.97
  Q 336.99 151.43 334.75 143.24
  Q 330.77 128.73 327.43 113.98
  Q 326.81 111.22 326.06 113.95
  L 323.29 124.08
  Z
  M 224.99 193.40
  C 236.23 179.72 239.57 162.99 239.87 145.47
  A 1.03 1.03 0.0 0 0 239.27 144.52
  Q 234.70 142.47 230.69 139.17
  Q 230.28 138.83 230.18 139.36
  C 228.19 150.50 223.98 159.15 217.74 169.31
  C 214.62 174.40 210.69 178.41 206.26 182.33
  Q 205.77 182.76 205.72 183.41
  Q 204.44 199.81 198.39 215.74
  Q 198.03 216.69 198.93 216.21
  Q 207.24 211.77 213.84 205.43
  Q 219.83 199.68 224.99 193.40
  Z
  M 296.06 204.11
  Q 295.79 204.57 295.67 202.59
  Q 293.59 192.92 292.98 182.80
  Q 292.95 182.25 292.52 181.92
  Q 286.49 177.13 283.28 172.39
  Q 279.79 167.24 275.44 159.58
  C 271.87 153.27 269.91 147.33 268.40 140.48
  A 0.69 0.69 0.0 0 0 267.31 140.08
  Q 263.41 143.10 259.45 144.98
  Q 258.72 145.33 258.79 146.14
  Q 259.39 152.41 260.01 159.18
  Q 260.68 166.39 262.28 171.82
  C 264.83 180.46 270.03 190.45 276.77 197.42
  C 280.02 200.78 282.84 204.27 286.48 207.31
  Q 292.58 212.39 299.25 215.86
  Q 300.54 216.53 300.04 215.16
  L 296.06 204.11
  Z
  M 201.04 238.95
  L 200.83 257.95
  Q 200.83 258.45 201.20 258.78
  Q 202.22 259.68 204.48 260.78
  Q 206.26 261.63 207.87 263.46
  L 211.63 268.60
  A 0.28 0.28 0.0 0 0 212.11 268.54
  Q 215.71 260.01 218.13 251.46
  Q 219.55 246.45 220.89 242.02
  Q 225.92 225.38 229.77 207.73
  Q 229.98 206.80 229.37 207.54
  Q 217.84 221.84 201.35 230.28
  Q 200.88 230.51 200.89 231.04
  L 201.04 238.95
  Z
  M 291.40 262.63
  L 297.67 258.68
  Q 298.09 258.42 298.08 257.92
  L 297.93 238.34
  L 298.00 230.64
  Q 298.01 230.12 297.52 229.91
  C 290.34 226.92 285.21 222.50 279.16 217.85
  C 275.77 215.23 272.88 212.02 269.82 209.04
  Q 269.01 208.25 269.28 209.35
  Q 271.49 218.31 273.61 227.12
  C 275.92 236.70 279.42 245.74 281.88 255.33
  C 283.05 259.86 285.00 264.03 286.25 268.52
  A 0.27 0.27 0.0 0 0 286.73 268.61
  L 291.40 262.63
  Z
  M 172.44 258.22
  L 173.15 260.21
  A 1.00 0.99 -28.7 0 0 174.70 260.66
  Q 180.50 256.11 187.84 255.46
  Q 188.35 255.41 188.38 254.90
  L 188.56 251.32
  L 188.65 233.29
  Q 188.66 232.65 188.22 233.12
  Q 182.42 239.42 176.14 244.87
  Q 172.91 247.68 169.77 249.55
  Q 168.99 250.02 169.17 250.92
  Q 170.01 255.09 172.44 258.22
  Z
  M 310.16 246.18
  L 310.11 255.19
  A 0.49 0.48 1.2 0 0 310.59 255.68
  Q 317.94 255.87 323.87 260.52
  Q 324.25 260.82 324.67 260.57
  Q 325.54 260.03 326.15 258.78
  L 329.85 250.96
  A 0.95 0.95 0.0 0 0 329.48 249.74
  Q 326.85 248.17 324.54 246.34
  Q 317.15 240.51 310.39 233.35
  Q 309.95 232.88 309.96 233.52
  L 310.16 246.18
  Z
  M 296.93 281.11
  Q 296.40 281.41 296.22 282.76
  Q 295.07 291.39 301.58 296.86
  C 305.16 299.88 309.62 300.52 313.99 298.67
  Q 324.69 294.13 322.24 280.54
  Q 322.04 279.86 321.95 278.91
  Q 321.87 278.08 321.55 277.35
  C 318.59 270.61 310.49 266.83 303.99 270.42
  Q 298.12 273.66 296.93 281.11
  Z
  M 176.21 282.56
  Q 175.21 285.35 175.95 288.43
  C 176.62 291.19 177.61 294.30 179.85 296.13
  C 184.88 300.24 192.96 301.13 197.77 296.00
  Q 203.41 289.99 201.94 282.12
  Q 201.36 277.54 198.38 273.83
  Q 195.83 270.64 192.41 269.67
  Q 188.64 268.59 184.70 270.00
  Q 176.68 272.86 176.21 282.56
  Z"
/>
<path fill="#cad3d2" d="
  M 210.25 368.93
  Q 219.37 356.89 216.99 341.22
  Q 215.61 332.13 212.05 323.33
  A 1.92 1.91 -30.4 0 0 209.08 322.56
  Q 206.69 324.50 205.55 322.73
  Q 204.76 322.12 203.78 319.16
  Q 202.80 316.16 199.64 316.08
  Q 199.01 316.06 198.45 316.39
  Q 196.13 317.78 196.41 319.52
  Q 197.63 327.00 197.72 332.39
  Q 195.54 332.68 192.53 335.74
  Q 191.95 336.33 191.36 335.75
  L 184.40 328.84
  Q 184.03 328.48 184.19 327.98
  L 185.16 324.98
  A 1.34 1.34 0.0 0 0 184.48 323.37
  Q 180.30 321.28 176.91 318.32
  A 0.66 0.65 32.6 0 0 175.88 318.54
  C 174.79 320.92 173.64 323.41 173.11 326.00
  Q 172.00 331.51 171.15 336.88
  Q 168.95 350.78 172.20 367.62
  Q 173.73 375.55 175.49 382.91
  C 177.67 392.00 177.91 401.35 178.42 410.61
  C 178.58 413.37 176.96 414.39 174.21 413.49
  Q 173.12 396.11 172.00 391.24
  Q 167.75 372.72 166.64 366.60
  Q 163.52 349.41 166.32 332.37
  C 167.63 324.35 170.57 316.27 173.06 308.40
  A 0.69 0.68 29.0 0 1 174.16 308.09
  Q 181.00 313.96 190.60 313.27
  Q 194.88 312.96 196.89 312.15
  Q 204.08 309.27 209.01 303.79
  Q 209.70 303.02 210.07 303.98
  Q 213.00 311.67 216.31 319.84
  C 218.23 324.60 219.21 329.53 220.26 334.51
  Q 223.71 350.79 218.57 366.51
  C 216.78 372.00 214.36 375.64 210.43 379.43
  A 0.21 0.21 0.0 0 1 210.08 379.28
  L 210.25 368.93
  Z"
/>
<path fill="#cad3d2" d="
  M 324.58 414.23
  L 321.68 413.75
  A 1.81 1.81 0.0 0 1 320.17 411.93
  Q 320.32 403.63 321.80 395.61
  C 322.50 391.77 322.30 388.01 323.12 384.33
  C 326.17 370.62 328.75 357.24 328.33 343.40
  Q 327.94 330.28 322.97 317.89
  A 0.27 0.27 0.0 0 0 322.54 317.78
  Q 318.82 320.82 314.27 323.28
  A 1.42 1.41 -25.5 0 0 313.63 325.07
  L 314.74 327.71
  Q 315.01 328.34 314.52 328.82
  L 307.79 335.46
  A 1.18 1.17 53.2 0 1 305.94 335.19
  Q 304.13 331.92 301.13 329.41
  Q 301.89 324.36 302.50 321.75
  C 303.70 316.55 297.59 314.34 295.72 318.74
  Q 294.46 321.70 293.44 324.94
  Q 293.34 325.28 293.02 325.43
  Q 292.89 325.50 292.72 325.55
  Q 291.08 324.95 289.53 323.91
  C 287.70 322.66 286.43 324.06 285.85 325.66
  Q 280.79 339.46 282.24 353.66
  Q 283.00 361.10 286.86 367.16
  Q 287.68 368.45 288.09 367.54
  L 288.41 378.48
  Q 288.43 379.17 287.92 378.71
  C 283.50 374.76 281.91 370.31 279.87 365.03
  C 276.19 355.52 275.90 344.48 278.22 334.66
  Q 281.64 320.24 288.66 303.89
  Q 288.93 303.25 289.39 303.77
  Q 298.97 314.48 312.98 313.20
  Q 320.20 312.53 324.80 308.11
  A 0.46 0.46 0.0 0 1 325.56 308.31
  Q 327.75 315.46 330.22 322.71
  Q 333.14 331.27 333.74 342.76
  Q 334.25 352.65 332.59 363.23
  Q 330.79 374.71 328.27 386.06
  Q 325.43 398.85 325.23 403.50
  Q 324.99 408.89 324.58 414.23
  Z"
/>
<path fill="#eaf1f1" d="
  M 210.25 443.07
  C 202.68 443.00 195.12 443.15 187.75 442.69
  Q 176.08 441.96 164.41 441.52
  Q 145.26 440.81 126.17 438.35
  Q 124.53 438.14 122.96 437.37
  A 0.92 0.92 0.0 0 1 122.78 435.83
  Q 124.18 434.69 125.76 434.50
  Q 134.42 433.47 144.49 432.92
  Q 157.47 432.20 204.00 431.34
  Q 213.81 431.16 223.99 430.82
  Q 245.92 430.07 268.27 430.84
  Q 280.26 431.25 288.25 431.33
  Q 329.76 431.72 365.12 433.67
  C 368.44 433.86 373.16 434.05 376.03 435.78
  A 0.82 0.82 0.0 0 1 376.08 437.15
  C 374.79 438.06 373.29 438.56 371.73 438.69
  C 357.51 439.88 343.59 441.19 329.02 441.74
  C 297.79 442.93 266.48 443.78 242.00 443.43
  Q 226.39 443.21 210.25 443.07
  Z"
/>
</g>
<g>
<path fill="#cad3d2" d="
  M 211.18 95.20
  Q 202.24 88.79 196.15 80.33
  Q 195.64 79.62 196.51 79.62
  L 207.99 79.71
  A 0.57 0.56 85.9 0 1 208.55 80.20
  Q 209.64 88.04 211.61 94.89
  Q 211.84 95.67 211.18 95.20
  Z"
/>
<path fill="#cad3d2" d="
  M 274.93 89.41
  Q 257.43 89.83 240.25 89.49
  Q 236.74 89.42 227.62 89.92
  Q 226.81 89.96 224.23 89.13
  Q 223.96 89.16 223.71 88.93
  Q 223.51 88.74 223.46 88.47
  Q 222.60 84.24 222.00 80.20
  A 0.46 0.46 0.0 0 1 222.45 79.67
  L 276.26 79.66
  Q 276.70 79.66 276.62 80.09
  L 274.93 89.41
  Z"
/>
<path fill="#cad3d2" d="
  M 321.19 87.44
  Q 313.84 94.90 307.13 101.70
  C 303.04 105.84 299.19 110.28 294.67 113.67
  Q 289.13 117.83 283.50 122.60
  Q 283.03 122.99 282.98 123.59
  Q 282.50 129.72 283.52 133.58
  C 285.62 141.46 288.19 146.32 292.73 155.00
  Q 294.74 158.85 293.47 163.39
  Q 286.91 156.24 282.95 147.41
  C 281.32 143.76 280.49 139.42 279.48 135.49
  Q 277.40 127.45 279.49 119.88
  Q 280.06 117.84 282.43 116.37
  Q 290.88 111.14 297.65 104.44
  Q 303.65 98.51 309.68 92.35
  Q 315.75 86.14 321.30 79.86
  Q 321.68 79.44 321.74 80.00
  Q 322.19 84.44 321.19 87.44
  Z"
/>
<path fill="#cad3d2" d="
  M 287.10 94.10
  C 288.50 89.81 289.32 85.07 290.15 80.49
  A 0.89 0.89 0.0 0 1 291.03 79.75
  L 302.17 79.76
  A 0.40 0.40 0.0 0 1 302.49 80.40
  Q 296.68 88.12 288.18 94.85
  Q 286.39 96.27 287.10 94.10
  Z"
/>
<path fill="#cad3d2" d="
  M 206.96 161.28
  C 205.58 159.05 204.97 156.57 206.30 154.19
  C 210.34 146.98 213.48 139.45 214.93 131.36
  Q 215.64 127.43 214.99 123.62
  A 2.81 2.81 0.0 0 0 214.05 121.96
  Q 209.06 117.65 203.69 113.62
  Q 200.84 111.48 197.97 108.44
  C 193.81 104.03 189.30 100.07 185.33 95.49
  Q 182.10 91.77 177.87 88.97
  Q 176.85 85.48 177.16 80.50
  Q 177.20 79.86 177.64 80.33
  C 182.00 84.92 186.10 89.70 190.72 94.18
  Q 194.82 98.16 198.79 102.17
  Q 207.29 110.74 216.78 116.58
  C 220.05 118.60 220.00 126.52 219.69 129.57
  C 219.23 134.06 218.79 138.72 217.29 143.12
  Q 213.87 153.20 206.96 161.28
  Z"
/>
<path fill="#cad3d2" d="
  M 174.84 123.37
  Q 169.21 140.62 166.09 158.27
  Q 161.14 186.32 164.15 213.61
  Q 164.84 219.86 166.49 225.22
  A 1.31 1.31 0.0 0 0 168.47 225.92
  C 171.11 224.16 172.99 221.63 175.06 219.26
  Q 176.99 217.06 178.53 214.44
  Q 184.89 203.58 186.63 195.05
  Q 189.47 181.07 188.97 164.73
  Q 188.92 163.05 188.18 159.35
  Q 187.59 156.46 187.88 153.87
  Q 196.61 172.30 192.29 193.49
  C 190.19 203.75 186.84 212.89 180.81 220.46
  C 178.55 223.29 176.72 226.32 174.00 228.87
  Q 169.37 233.22 164.56 236.86
  A 0.58 0.58 0.0 0 1 163.65 236.54
  C 161.37 227.81 159.37 218.94 158.61 209.99
  C 156.54 185.60 158.95 162.24 164.97 138.29
  Q 168.08 125.90 171.14 112.99
  Q 171.30 112.33 171.51 112.98
  L 174.84 123.37
  Z"
/>
<path fill="#cad3d2" d="
  M 309.10 157.67
  Q 309.96 164.24 309.91 170.91
  C 309.85 178.78 309.96 184.02 310.99 190.23
  Q 314.65 212.19 330.35 226.59
  Q 331.49 227.63 331.87 226.13
  Q 336.54 207.48 335.67 187.28
  Q 335.11 174.28 333.71 165.10
  Q 332.42 156.64 329.81 145.64
  Q 328.45 139.94 326.78 134.67
  Q 325.14 129.51 323.29 124.08
  L 326.06 113.95
  Q 326.81 111.22 327.43 113.98
  Q 330.77 128.73 334.75 143.24
  Q 336.99 151.43 339.81 170.97
  Q 340.84 178.12 341.04 190.98
  Q 341.22 202.97 340.09 211.43
  Q 338.40 223.96 334.71 236.73
  A 0.37 0.37 0.0 0 1 334.14 236.93
  C 326.72 231.74 321.60 225.83 316.38 218.51
  Q 313.37 214.30 310.95 208.58
  Q 300.43 183.71 309.10 157.67
  Z"
/>
<path fill="#cad3d2" d="
  M 239.87 145.47
  C 239.57 162.99 236.23 179.72 224.99 193.40
  Q 219.83 199.68 213.84 205.43
  Q 207.24 211.77 198.93 216.21
  Q 198.03 216.69 198.39 215.74
  Q 204.44 199.81 205.72 183.41
  Q 205.77 182.76 206.26 182.33
  C 210.69 178.41 214.62 174.40 217.74 169.31
  C 223.98 159.15 228.19 150.50 230.18 139.36
  Q 230.28 138.83 230.69 139.17
  Q 234.70 142.47 239.27 144.52
  A 1.03 1.03 0.0 0 1 239.87 145.47
  Z
  M 210.05 185.67
  C 209.23 191.13 209.10 196.54 207.00 201.82
  A 1.10 1.08 43.0 0 0 207.04 202.71
  Q 207.39 203.39 208.16 203.68
  Q 208.70 203.88 209.08 203.45
  Q 211.58 200.61 214.35 198.09
  Q 216.66 195.99 219.04 192.73
  Q 222.35 188.19 225.35 183.50
  Q 233.55 170.63 233.11 156.19
  A 0.64 0.64 0.0 0 0 232.63 155.60
  Q 231.51 155.32 231.00 156.46
  Q 223.66 172.86 210.68 184.51
  A 1.99 1.98 -16.6 0 0 210.05 185.67
  Z"
/>
<path fill="#cad3d2" d="
  M 295.67 202.59
  Q 294.51 201.68 294.57 205.50
  Q 294.57 205.82 294.76 205.93
  Q 295.20 206.20 295.40 205.72
  L 296.06 204.11
  L 300.04 215.16
  Q 300.54 216.53 299.25 215.86
  Q 292.58 212.39 286.48 207.31
  C 282.84 204.27 280.02 200.78 276.77 197.42
  C 270.03 190.45 264.83 180.46 262.28 171.82
  Q 260.68 166.39 260.01 159.18
  Q 259.39 152.41 258.79 146.14
  Q 258.72 145.33 259.45 144.98
  Q 263.41 143.10 267.31 140.08
  A 0.69 0.69 0.0 0 1 268.40 140.48
  C 269.91 147.33 271.87 153.27 275.44 159.58
  Q 279.79 167.24 283.28 172.39
  Q 286.49 177.13 292.52 181.92
  Q 292.95 182.25 292.98 182.80
  Q 293.59 192.92 295.67 202.59
  Z
  M 288.86 191.22
  Q 288.63 188.81 288.00 186.33
  Q 287.46 184.19 285.60 182.25
  Q 277.57 173.84 275.05 169.70
  Q 271.41 163.72 267.76 156.99
  Q 267.14 155.85 266.00 155.22
  Q 265.49 154.93 265.48 155.52
  Q 265.38 165.95 268.94 175.25
  Q 269.82 177.55 273.78 184.62
  C 275.85 188.32 278.51 191.09 280.88 194.33
  C 283.32 197.66 286.71 199.97 289.58 202.90
  Q 290.18 203.51 290.96 203.23
  A 0.46 0.46 0.0 0 0 291.24 202.65
  Q 289.42 197.11 288.86 191.22
  Z"
/>
<path fill="#cad3d2" d="
  M 207.87 263.46
  Q 213.44 250.42 217.74 236.47
  Q 219.01 232.35 219.34 229.04
  Q 219.55 226.97 218.01 228.37
  Q 210.40 235.36 201.04 238.95
  L 200.89 231.04
  Q 200.88 230.51 201.35 230.28
  Q 217.84 221.84 229.37 207.54
  Q 229.98 206.80 229.77 207.73
  Q 225.92 225.38 220.89 242.02
  Q 219.55 246.45 218.13 251.46
  Q 215.71 260.01 212.11 268.54
  A 0.28 0.28 0.0 0 1 211.63 268.60
  L 207.87 263.46
  Z"
/>
<path fill="#cad3d2" d="
  M 297.93 238.34
  Q 296.30 238.96 295.23 238.34
  Q 288.23 234.29 280.11 227.68
  Q 279.47 227.16 279.08 227.95
  A 1.20 1.18 50.2 0 0 279.01 228.78
  Q 280.74 235.03 282.64 241.22
  Q 286.03 252.29 291.40 262.63
  L 286.73 268.61
  A 0.27 0.27 0.0 0 1 286.25 268.52
  C 285.00 264.03 283.05 259.86 281.88 255.33
  C 279.42 245.74 275.92 236.70 273.61 227.12
  Q 271.49 218.31 269.28 209.35
  Q 269.01 208.25 269.82 209.04
  C 272.88 212.02 275.77 215.23 279.16 217.85
  C 285.21 222.50 290.34 226.92 297.52 229.91
  Q 298.01 230.12 298.00 230.64
  L 297.93 238.34
  Z"
/>
<path fill="#cad3d2" d="
  M 188.56 251.32
  Q 188.19 249.21 187.13 248.37
  Q 186.19 247.62 184.41 248.48
  Q 180.59 250.32 178.34 252.10
  Q 176.20 253.81 172.44 258.22
  Q 170.01 255.09 169.17 250.92
  Q 168.99 250.02 169.77 249.55
  Q 172.91 247.68 176.14 244.87
  Q 182.42 239.42 188.22 233.12
  Q 188.66 232.65 188.65 233.29
  L 188.56 251.32
  Z"
/>
<path fill="#cad3d2" d="
  M 326.15 258.78
  Q 325.28 258.13 324.39 258.12
  Q 323.80 258.11 323.68 257.53
  L 322.93 253.93
  Q 322.82 253.39 322.34 253.11
  L 310.16 246.18
  L 309.96 233.52
  Q 309.95 232.88 310.39 233.35
  Q 317.15 240.51 324.54 246.34
  Q 326.85 248.17 329.48 249.74
  A 0.95 0.95 0.0 0 1 329.85 250.96
  L 326.15 258.78
  Z"
/>
<path fill="#cad3d2" d="
  M 322.24 280.54
  Q 324.69 294.13 313.99 298.67
  C 309.62 300.52 305.16 299.88 301.58 296.86
  Q 295.07 291.39 296.22 282.76
  Q 296.40 281.41 296.93 281.11
  Q 298.48 283.35 300.43 285.56
  C 302.21 287.57 304.33 289.21 307.14 289.53
  Q 315.45 290.49 320.78 284.19
  C 321.76 283.02 321.83 282.01 322.24 280.54
  Z"
/>
<path fill="#cad3d2" d="
  M 201.94 282.12
  Q 203.41 289.99 197.77 296.00
  C 192.96 301.13 184.88 300.24 179.85 296.13
  C 177.61 294.30 176.62 291.19 175.95 288.43
  Q 175.21 285.35 176.21 282.56
  Q 176.65 282.44 176.88 282.27
  Q 177.25 282.00 177.12 282.44
  Q 177.07 282.60 177.17 282.76
  Q 183.24 291.82 194.04 288.90
  C 196.01 288.37 196.96 287.69 198.12 285.82
  Q 199.74 283.24 201.94 282.12
  Z"
/>
</g>
</svg>
