<?xml version="1.0" encoding="UTF-8" standalone="no"?>
<svg xmlns="http://www.w3.org/2000/svg" version="1.2" baseProfile="tiny" viewBox="0.00 0.00 500.00 500.00">
<path fill="#22333d" d="
  M 182.20 268.78
  Q 182.38 270.24 182.88 268.86
  Q 192.92 241.27 182.24 214.68
  Q 180.82 211.14 178.35 206.29
  Q 176.27 202.19 174.10 199.73
  Q 164.89 189.28 154.73 183.58
  Q 145.22 178.24 131.72 177.30
  C 125.55 176.86 125.53 165.88 133.38 166.03
  Q 148.88 166.32 161.79 173.77
  Q 165.88 176.13 169.91 178.62
  C 172.81 180.42 175.47 182.90 177.71 185.48
  Q 181.87 190.28 183.58 192.47
  Q 193.51 205.22 196.79 218.97
  Q 199.42 230.00 198.99 244.48
  Q 198.97 245.05 199.54 245.14
  Q 214.51 247.39 227.76 256.22
  Q 231.38 258.63 235.06 261.15
  C 238.92 263.80 242.18 268.14 245.30 271.86
  Q 256.05 284.72 259.28 300.91
  Q 259.43 301.67 259.79 300.98
  Q 260.35 299.89 261.19 298.97
  Q 265.58 294.19 270.46 290.08
  Q 284.15 278.53 297.61 269.29
  Q 300.89 267.03 302.63 262.86
  C 303.33 261.18 304.62 260.16 305.55 258.69
  Q 312.33 248.02 319.01 236.66
  Q 321.39 232.62 323.50 227.15
  C 325.22 222.69 327.58 218.46 329.31 214.00
  Q 332.58 205.55 335.35 196.90
  A 0.58 0.58 0.0 0 0 334.98 196.18
  Q 325.46 193.06 318.47 186.19
  Q 309.71 177.60 303.87 168.20
  C 300.31 162.49 295.85 158.63 289.99 155.70
  C 278.06 149.72 271.65 137.11 281.34 125.14
  Q 284.66 121.04 291.37 120.10
  Q 291.95 120.01 291.97 119.43
  C 292.19 114.04 291.09 109.22 294.75 104.71
  C 298.55 100.03 303.71 98.27 309.75 98.39
  Q 324.50 98.68 337.56 98.41
  Q 343.77 98.29 347.77 99.83
  Q 357.75 103.67 361.49 112.26
  C 363.78 117.53 364.61 123.84 366.21 129.47
  Q 374.76 159.60 383.22 189.75
  C 384.56 194.52 385.09 198.52 384.21 203.47
  Q 381.40 219.28 377.72 232.87
  Q 373.05 250.12 373.03 250.21
  Q 369.53 263.98 366.11 277.77
  C 364.44 284.52 363.30 290.94 361.37 297.83
  Q 354.66 321.74 345.32 342.17
  Q 344.35 344.29 343.62 346.28
  C 341.53 351.97 338.33 357.76 335.52 362.68
  Q 326.26 378.93 316.65 396.06
  Q 313.10 402.39 310.35 405.55
  C 307.43 408.93 302.32 412.93 297.99 414.66
  Q 287.32 418.92 276.79 416.60
  Q 266.50 414.33 245.84 407.47
  C 243.93 406.84 241.82 406.70 239.87 406.11
  C 225.28 401.68 211.05 396.63 198.30 389.18
  Q 194.19 386.78 189.77 384.41
  Q 184.53 381.59 179.35 377.52
  Q 170.99 370.95 162.28 363.90
  Q 159.95 362.02 158.04 359.92
  Q 149.67 350.73 142.27 341.33
  Q 138.45 336.48 136.22 331.36
  Q 133.81 325.84 131.63 320.82
  Q 129.18 315.19 128.17 306.68
  Q 128.09 306.00 127.53 305.61
  C 124.15 303.29 120.88 301.55 117.99 298.44
  C 114.95 295.18 114.95 290.69 119.15 288.41
  C 121.03 287.38 122.94 288.11 124.49 289.38
  Q 127.48 291.83 130.66 293.89
  C 144.14 302.60 159.91 301.43 172.46 291.19
  Q 176.03 288.28 177.93 285.15
  Q 178.97 283.42 178.01 281.39
  Q 177.78 280.92 177.26 280.98
  C 169.93 281.76 161.96 280.29 155.20 276.70
  C 147.82 272.79 141.16 268.50 135.71 262.47
  C 133.66 260.20 131.22 258.82 129.67 256.09
  Q 128.27 253.62 129.82 251.23
  C 131.46 248.69 134.44 248.47 136.40 250.52
  Q 140.91 255.24 145.63 259.28
  Q 148.66 261.88 156.73 266.69
  Q 163.30 270.62 172.48 271.49
  Q 173.04 271.55 173.06 270.99
  Q 173.16 267.64 172.54 264.41
  Q 170.70 254.76 167.52 247.12
  Q 165.56 242.42 161.68 236.37
  C 157.53 229.90 153.33 224.04 147.40 219.04
  Q 144.00 216.17 146.47 212.48
  Q 146.60 212.30 146.76 212.15
  Q 149.92 209.38 153.25 211.92
  Q 155.14 213.35 156.56 215.43
  C 157.97 217.48 159.98 218.59 161.57 220.41
  Q 168.57 228.48 174.59 240.57
  C 177.51 246.43 178.87 252.98 180.62 259.31
  C 181.47 262.40 181.81 265.61 182.20 268.78
  Z
  M 337.12 135.17
  Q 332.70 138.64 327.76 142.98
  Q 325.45 145.00 322.71 146.12
  A 2.04 2.02 -41.3 0 1 320.93 146.01
  Q 308.63 139.10 296.96 132.57
  C 294.49 131.18 291.84 132.16 289.90 134.15
  C 287.27 136.83 288.91 140.56 291.57 142.08
  Q 296.43 144.86 300.75 147.95
  Q 304.47 150.61 308.65 154.76
  Q 312.14 158.21 314.37 161.40
  Q 318.21 166.85 322.30 172.99
  Q 324.11 175.71 326.52 177.56
  Q 333.71 183.09 340.17 184.49
  C 348.67 186.33 349.26 193.67 346.76 200.75
  C 344.54 207.02 343.22 213.31 340.48 219.53
  Q 336.91 227.65 333.54 234.84
  C 331.25 239.74 328.15 244.69 325.47 249.52
  Q 324.91 250.54 325.79 249.78
  Q 332.68 243.89 339.97 236.44
  C 344.97 231.33 347.15 224.07 350.12 217.87
  C 351.41 215.17 353.67 213.99 356.42 215.40
  Q 360.25 217.37 358.48 221.09
  Q 353.86 230.82 350.54 240.44
  Q 346.43 252.38 342.39 263.87
  Q 337.43 277.99 327.29 296.37
  C 325.40 299.81 322.70 302.10 319.37 298.44
  C 316.23 295.01 321.25 290.35 322.42 287.00
  C 323.75 283.18 326.04 279.73 327.65 275.91
  Q 331.82 266.07 335.86 256.39
  Q 336.98 253.68 334.95 255.80
  C 332.30 258.57 328.12 260.96 325.65 263.01
  C 322.25 265.82 318.92 268.83 315.48 271.35
  Q 303.03 280.46 290.55 289.53
  Q 285.32 293.33 282.28 296.13
  C 278.04 300.04 273.41 303.32 269.58 307.32
  Q 264.07 313.09 259.27 322.03
  Q 254.90 330.19 253.65 337.17
  C 252.92 341.29 253.09 345.57 253.23 349.79
  C 253.35 353.58 249.50 356.56 246.00 354.58
  Q 243.15 352.97 242.57 349.49
  Q 241.01 340.21 238.73 331.10
  A 1.50 1.49 -8.8 0 0 237.18 329.97
  Q 224.62 330.77 213.37 325.72
  C 209.36 323.92 204.78 322.08 201.28 319.46
  C 193.44 313.58 186.24 305.92 180.57 297.79
  Q 180.19 297.24 179.83 297.80
  Q 176.71 302.53 171.68 304.88
  Q 170.51 305.42 171.04 306.59
  Q 173.27 311.49 176.15 316.77
  Q 178.43 320.94 182.01 324.86
  Q 189.83 333.46 199.49 339.76
  Q 202.26 341.57 205.10 342.66
  Q 213.26 345.81 222.76 347.60
  C 229.60 348.88 227.43 357.69 220.95 356.83
  Q 210.32 355.40 201.34 351.08
  C 197.39 349.18 193.71 346.52 190.02 344.28
  C 186.41 342.08 181.57 338.42 179.33 335.65
  Q 173.56 328.48 168.26 321.69
  Q 164.94 317.44 162.20 309.84
  Q 162.02 309.33 161.52 309.54
  Q 153.67 312.83 142.24 310.90
  A 0.56 0.55 87.9 0 0 141.61 311.58
  Q 144.39 322.94 151.73 333.39
  Q 153.65 336.13 155.65 339.01
  Q 157.42 341.55 159.72 343.92
  Q 166.24 350.64 172.94 356.78
  Q 178.83 362.17 185.54 366.63
  Q 192.47 371.23 200.04 376.13
  Q 212.04 383.91 227.96 388.98
  Q 253.05 396.96 277.83 404.33
  Q 290.30 408.04 299.58 399.41
  Q 301.90 397.26 303.35 394.13
  C 305.80 388.85 309.44 384.08 312.40 379.01
  Q 317.25 370.66 321.90 362.18
  Q 322.60 360.90 323.43 359.35
  Q 334.17 339.39 341.33 321.27
  C 343.00 317.06 343.72 312.61 345.13 308.41
  Q 347.86 300.31 350.36 291.88
  Q 350.43 291.64 350.20 291.56
  L 349.95 291.48
  Q 349.89 291.46 349.87 291.52
  Q 347.54 297.82 344.69 303.16
  C 343.70 305.02 343.50 307.11 342.62 308.97
  Q 336.57 321.81 327.81 337.41
  Q 325.91 340.80 323.93 343.60
  C 322.85 345.13 322.33 346.70 321.33 348.26
  C 317.34 354.48 313.11 360.48 308.07 365.25
  Q 305.97 367.23 303.96 369.48
  C 296.76 377.53 287.57 383.90 277.70 387.89
  Q 267.63 391.96 258.09 392.25
  Q 255.11 392.34 253.74 389.70
  C 252.33 386.98 253.50 384.68 256.46 383.92
  C 259.53 383.13 262.77 382.83 266.01 382.15
  Q 276.53 379.94 288.16 371.14
  Q 295.70 365.42 299.66 361.19
  Q 303.23 357.36 311.04 347.06
  C 315.22 341.55 319.55 335.24 322.17 329.04
  C 323.79 325.23 326.04 322.11 327.90 318.44
  Q 336.08 302.28 342.62 286.16
  Q 343.29 284.52 344.01 282.84
  Q 347.12 275.58 350.17 268.43
  Q 353.29 261.13 356.63 254.15
  Q 361.88 243.21 363.41 237.91
  Q 367.21 224.73 371.48 203.82
  C 372.05 201.00 372.33 197.90 371.59 195.11
  Q 369.02 185.43 365.83 174.73
  Q 365.18 172.56 364.72 170.26
  Q 364.19 167.60 363.60 165.46
  Q 357.14 142.20 350.37 119.06
  Q 349.51 116.14 347.72 114.41
  Q 344.14 110.97 338.88 111.00
  Q 323.07 111.08 307.83 111.04
  A 3.80 3.80 0.0 0 0 304.01 114.84
  L 304.02 122.13
  Q 304.02 122.78 304.60 123.10
  L 310.42 126.24
  Q 311.14 126.63 311.01 125.82
  C 310.53 122.84 310.23 118.21 314.33 118.22
  Q 321.38 118.23 330.23 118.20
  C 332.81 118.20 334.27 120.24 334.82 122.54
  Q 336.25 128.50 337.40 134.40
  A 0.78 0.77 -25.3 0 1 337.12 135.17
  Z
  M 322.30 133.27
  A 0.31 0.31 0.0 0 0 322.78 133.00
  L 322.66 130.28
  A 0.31 0.31 0.0 0 0 322.36 129.98
  L 318.19 129.85
  A 0.31 0.31 0.0 0 0 318.01 130.41
  L 322.30 133.27
  Z
  M 234.44 320.26
  Q 231.17 311.87 225.83 305.27
  C 223.95 302.96 221.53 301.32 219.50 299.14
  C 214.78 294.08 207.31 290.16 201.06 287.68
  C 198.58 286.70 196.80 284.81 197.43 281.93
  C 198.04 279.07 200.77 277.98 203.40 278.88
  C 209.61 281.00 214.74 282.99 219.86 287.08
  C 225.59 291.67 230.82 296.44 235.21 302.08
  Q 238.19 305.90 240.71 312.21
  Q 242.89 317.64 244.74 323.17
  A 0.10 0.10 0.0 0 0 244.93 323.18
  L 249.80 313.54
  Q 249.90 313.33 249.84 313.11
  Q 248.12 307.09 246.65 301.02
  C 245.24 295.20 242.74 290.56 240.19 285.32
  Q 238.95 282.76 237.12 280.56
  Q 228.52 270.21 216.95 263.63
  C 211.15 260.33 204.20 258.85 197.57 257.43
  A 0.88 0.88 0.0 0 0 196.53 258.10
  Q 193.35 272.07 186.11 282.48
  Q 185.76 282.98 185.78 283.58
  C 185.88 288.72 190.94 296.40 194.51 300.49
  C 196.82 303.13 199.22 305.75 201.94 308.03
  C 210.82 315.45 222.28 320.78 234.09 320.77
  A 0.38 0.37 -10.7 0 0 234.44 320.26
  Z"
/>
<g>
<path fill="#22333d" d="
  M 350.21 142.22
  A 3.75 3.75 0.0 0 1 351.73 143.52
  C 353.14 145.63 353.75 148.00 354.61 150.41
  Q 359.30 163.58 362.68 179.79
  Q 363.50 183.70 359.24 185.29
  Q 359.13 185.33 359.02 185.33
  Q 354.44 185.51 353.59 181.47
  Q 349.81 163.47 344.21 148.25
  C 342.67 144.06 345.90 140.19 350.21 142.22
  Z"
/>
<circle fill="#22333d" cx="325.01" cy="153.73" r="4.43"/>
<circle fill="#22333d" cx="360.07" cy="198.15" r="4.76"/>
<path fill="#22333d" d="
  M 238.41 357.92
  Q 248.65 362.86 259.16 361.56
  Q 271.36 360.06 279.91 354.01
  Q 284.24 350.95 291.52 343.81
  Q 299.48 335.99 302.53 325.54
  Q 303.79 321.24 308.26 321.60
  Q 308.79 321.64 309.26 321.85
  Q 313.66 323.77 311.66 328.14
  Q 308.76 334.46 305.99 339.24
  Q 296.70 355.26 281.97 363.66
  Q 272.72 368.93 260.56 370.47
  Q 248.30 372.03 234.55 366.33
  A 4.38 4.38 0.0 0 1 232.13 360.72
  L 232.26 360.37
  Q 234.01 355.80 238.41 357.92
  Z"
/>
<path fill="#22333d" d="
  M 225.91 383.98
  Q 223.34 383.05 220.54 381.36
  Q 208.56 374.14 197.95 364.23
  Q 194.76 361.26 197.04 357.51
  Q 197.09 357.43 197.15 357.36
  Q 199.78 353.88 202.97 356.55
  Q 205.62 358.75 208.29 361.20
  Q 211.05 363.73 213.56 365.32
  Q 215.58 366.59 217.40 368.07
  Q 219.16 369.49 221.11 370.65
  Q 229.27 375.52 239.39 378.62
  Q 243.55 379.90 243.09 383.80
  Q 243.07 383.95 243.03 384.09
  Q 241.82 388.17 237.84 387.32
  Q 231.22 385.91 225.91 383.98
  Z"
/>
<ellipse fill="#22333d" cx="0.00" cy="0.00" transform="translate(285.23,396.52) rotate(91.0)" rx="4.84" ry="4.47"/>
</g>
</svg>
