<?xml version="1.0" encoding="UTF-8" standalone="no"?>
<svg xmlns="http://www.w3.org/2000/svg" version="1.2" baseProfile="tiny" viewBox="0.00 0.00 500.00 500.00">
<g stroke-width="2.00" fill="none" stroke-linecap="butt">
<path stroke="#23343a" stroke-opacity="0.588" vector-effect="non-scaling-stroke" d="
  M 211.44 267.67
  L 195.59 267.22
  Q 193.94 267.18 195.38 267.98
  Q 198.92 269.94 200.87 273.38"
/>
<path stroke="#23343a" stroke-opacity="0.588" vector-effect="non-scaling-stroke" d="
  M 189.24 281.14
  L 174.58 271.87"
/>
<path stroke="#808d8e" vector-effect="non-scaling-stroke" d="
  M 174.58 271.87
  Q 162.78 261.16 155.21 247.54
  Q 154.95 247.08 153.88 246.21"
/>
<path stroke="#23343a" stroke-opacity="0.588" vector-effect="non-scaling-stroke" d="
  M 153.88 246.21
  Q 153.63 245.02 153.04 245.21"
/>
<path stroke="#808d8e" vector-effect="non-scaling-stroke" d="
  M 153.04 245.21
  Q 152.89 244.86 152.71 244.72
  Q 152.39 244.45 152.41 244.87
  Q 153.02 261.24 162.80 272.48"
/>
<path stroke="#23343a" stroke-opacity="0.588" vector-effect="non-scaling-stroke" d="
  M 335.78 274.74
  L 336.99 273.31"
/>
<path stroke="#808d8e" vector-effect="non-scaling-stroke" d="
  M 336.99 273.31
  Q 340.80 269.73 342.85 265.57
  C 345.34 260.52 347.83 253.87 348.22 246.96
  Q 348.26 246.27 347.64 246.57
  Q 347.34 246.71 347.28 246.34
  Q 347.14 245.51 346.64 246.18
  Q 344.93 248.47 341.08 254.51
  Q 335.20 263.73 325.70 271.71
  Q 325.07 272.23 324.72 272.91"
/>
<path stroke="#23343a" stroke-opacity="0.588" vector-effect="non-scaling-stroke" d="
  M 324.72 272.91
  L 324.20 273.09
  Q 323.79 273.22 323.43 273.43
  L 309.48 281.58"
/>
<path stroke="#23343a" stroke-opacity="0.588" vector-effect="non-scaling-stroke" d="
  M 299.53 273.73
  Q 301.57 269.71 305.33 268.03
  Q 306.96 267.30 305.18 267.34
  L 289.10 267.68"
/>
<path stroke="#bac0bc" stroke-opacity="0.588" vector-effect="non-scaling-stroke" d="
  M 153.04 245.21
  Q 152.71 245.86 152.98 246.45
  Q 153.17 246.87 153.57 246.64
  Q 153.77 246.53 153.88 246.21"
/>
<path stroke="#bac0bc" stroke-opacity="0.588" vector-effect="non-scaling-stroke" d="
  M 174.58 271.87
  Q 170.57 273.61 166.11 273.01"
/>
<path stroke="#bac0bc" stroke-opacity="0.588" vector-effect="non-scaling-stroke" d="
  M 336.99 273.31
  Q 333.45 272.56 329.26 273.57
  Q 327.30 274.04 325.85 272.76
  Q 325.50 272.46 325.11 272.69
  L 324.72 272.91"
/>
<path stroke="#808d8e" vector-effect="non-scaling-stroke" d="
  M 347.61 245.25
  Q 347.92 245.32 348.03 245.65
  Q 348.33 246.60 348.38 245.61
  Q 348.43 244.77 348.42 243.98
  Q 348.41 243.31 348.09 243.90
  Q 347.86 244.35 347.47 244.68
  A 0.33 0.33 0.0 0 0 347.61 245.25"
/>
</g>
<g>
<path fill="#273b41" d="
  M 394.46 241.87
  A 0.26 0.26 0.0 0 0 393.98 241.82
  C 392.11 245.22 387.75 248.87 383.89 246.11
  C 379.27 242.81 380.02 238.64 382.91 234.54
  C 393.54 219.40 394.19 203.41 384.95 187.23
  C 380.87 180.10 374.31 175.26 367.32 170.81
  C 353.79 162.20 337.31 160.33 321.99 164.46
  Q 320.53 164.86 319.05 164.55
  C 317.28 164.19 315.35 163.96 313.54 163.97
  Q 300.04 164.05 286.86 163.94
  Q 278.67 163.86 274.56 165.49
  Q 267.66 168.23 264.00 173.46
  Q 260.97 177.79 259.33 184.95
  Q 257.75 191.83 257.65 197.24
  C 257.52 204.84 257.07 212.87 258.27 220.09
  Q 259.28 226.22 261.24 231.83
  Q 263.17 237.36 269.10 242.84
  Q 277.35 250.48 287.41 252.60
  C 299.99 255.26 315.06 253.87 325.77 245.93
  Q 331.21 241.90 334.62 237.51
  C 343.61 225.93 344.89 209.91 337.23 197.48
  C 335.71 195.01 335.95 191.72 338.39 190.00
  C 344.15 185.94 348.28 191.68 350.97 196.15
  Q 352.39 198.50 353.45 200.93
  C 356.31 207.46 359.06 213.42 364.69 218.09
  C 367.76 220.64 373.47 223.33 372.76 228.30
  Q 371.88 234.40 364.80 234.01
  A 0.39 0.39 0.0 0 0 364.39 234.40
  Q 364.22 244.40 364.53 253.70
  C 364.77 261.06 368.47 267.79 371.53 274.34
  C 373.00 277.49 372.22 280.65 369.01 282.32
  C 362.75 285.57 359.79 279.57 357.67 275.11
  A 0.22 0.22 0.0 0 0 357.28 275.09
  Q 354.54 279.60 352.16 284.32
  Q 344.97 298.57 337.73 314.92
  Q 332.90 325.83 331.13 333.42
  Q 328.48 344.80 328.38 353.18
  Q 328.22 366.54 328.29 379.66
  C 328.31 381.51 327.06 382.99 325.33 383.49
  C 323.44 384.04 321.66 384.82 319.71 385.19
  Q 314.60 386.15 309.18 387.98
  Q 282.34 397.01 254.95 406.21
  Q 249.51 408.04 243.54 405.88
  Q 216.29 395.99 187.94 386.83
  C 183.55 385.41 179.02 384.86 174.72 383.04
  C 172.93 382.28 172.29 380.30 172.32 378.49
  Q 172.57 366.45 172.38 354.31
  Q 172.12 337.99 166.28 323.23
  Q 163.37 315.88 160.03 308.99
  Q 159.82 308.55 153.56 294.93
  Q 148.96 284.91 143.58 275.22
  Q 143.27 274.65 142.98 275.23
  C 140.77 279.72 137.08 285.65 131.00 282.23
  C 127.93 280.51 127.75 276.99 129.05 274.09
  C 132.06 267.37 135.59 261.01 135.98 253.58
  Q 136.39 245.78 136.16 234.54
  Q 136.15 233.96 135.57 233.99
  Q 129.96 234.34 128.38 229.54
  C 126.52 223.88 131.37 221.25 135.16 218.51
  C 141.30 214.06 144.41 206.90 147.38 199.97
  Q 148.14 198.19 149.30 196.41
  C 151.25 193.43 153.53 188.86 157.69 188.68
  C 161.72 188.51 165.51 192.67 163.34 196.69
  Q 152.62 216.54 164.60 235.42
  C 168.79 242.01 177.06 248.31 184.66 250.90
  C 200.69 256.37 219.12 254.60 231.88 242.63
  Q 236.36 238.42 238.34 234.03
  C 241.58 226.82 243.03 219.12 243.05 210.89
  Q 243.07 203.41 242.83 196.12
  Q 242.65 190.78 240.73 183.25
  Q 238.95 176.31 235.30 171.89
  Q 229.13 164.43 218.62 164.11
  Q 209.66 163.85 186.98 163.98
  Q 184.78 163.99 182.84 164.37
  Q 180.14 164.90 178.95 164.58
  C 160.42 159.66 142.47 162.96 127.78 174.63
  Q 125.40 176.52 123.13 178.49
  Q 120.35 180.89 117.72 184.42
  Q 115.42 187.51 113.92 190.91
  Q 112.11 195.02 110.89 198.94
  C 106.89 211.76 110.83 225.28 118.31 236.04
  C 124.08 244.36 111.54 252.44 107.13 241.84
  Q 106.50 240.33 106.07 241.91
  C 103.73 250.56 102.94 259.28 103.31 268.21
  C 103.74 278.55 90.17 278.78 90.04 269.28
  Q 89.90 259.12 90.33 250.76
  Q 90.63 244.95 94.21 230.53
  Q 94.65 228.78 96.26 224.74
  Q 96.53 224.08 96.34 223.39
  C 91.78 206.15 96.16 188.48 107.67 174.38
  C 113.35 167.42 120.06 160.60 127.81 157.27
  Q 130.70 156.03 133.58 154.62
  C 141.59 150.71 150.66 148.77 159.56 148.57
  Q 160.16 148.56 160.67 148.22
  Q 167.96 143.40 177.57 138.08
  Q 180.85 136.26 183.14 135.44
  Q 184.78 134.85 186.39 134.12
  Q 195.42 130.03 204.14 125.95
  C 212.54 122.03 215.52 114.42 216.27 105.62
  Q 216.85 98.82 223.86 98.82
  Q 251.29 98.85 277.03 98.78
  C 285.00 98.76 284.02 107.06 285.35 112.19
  Q 287.81 121.69 295.24 125.32
  Q 306.67 130.89 319.99 136.47
  Q 323.83 138.08 340.06 148.23
  A 2.06 1.98 62.1 0 0 340.94 148.52
  Q 354.54 149.39 361.75 152.39
  Q 367.66 154.84 373.50 157.49
  Q 378.04 159.54 383.93 164.89
  Q 388.74 169.25 393.48 175.03
  C 404.61 188.59 408.81 206.61 404.36 223.70
  Q 404.20 224.31 404.38 224.92
  Q 407.99 237.18 409.13 242.67
  Q 411.08 251.99 410.63 265.21
  C 410.51 268.69 411.23 271.62 408.37 274.34
  Q 405.05 277.49 400.64 275.07
  C 397.23 273.20 397.06 269.54 397.26 266.02
  Q 397.97 253.49 394.46 241.87
  Z
  M 313.56 149.66
  Q 304.24 145.18 292.46 139.99
  Q 284.56 136.51 282.69 134.97
  Q 273.53 127.41 271.78 114.11
  Q 271.71 113.56 271.16 113.56
  L 229.53 113.57
  A 0.93 0.93 0.0 0 0 228.61 114.36
  C 227.64 120.90 225.80 126.36 221.38 131.56
  Q 218.21 135.28 212.84 137.81
  C 207.09 140.52 201.17 142.99 195.40 145.77
  Q 191.30 147.75 186.42 149.64
  Q 185.63 149.94 186.47 149.92
  Q 202.07 149.47 218.45 149.89
  C 229.17 150.17 241.45 155.31 248.02 164.50
  Q 249.05 165.94 250.02 167.38
  Q 250.44 167.99 250.82 167.35
  Q 256.51 157.60 266.76 153.45
  Q 275.06 150.09 281.54 149.91
  Q 295.49 149.50 313.77 149.86
  A 0.05 0.04 -26.3 0 0 313.80 149.78
  Q 313.70 149.72 313.56 149.66
  Z
  M 211.44 267.67
  L 195.59 267.22
  Q 193.94 267.18 195.38 267.98
  Q 198.92 269.94 200.87 273.38
  Q 202.45 281.35 195.32 282.34
  Q 193.92 282.53 192.23 282.06
  Q 190.57 281.60 189.24 281.14
  L 174.58 271.87
  Q 162.78 261.16 155.21 247.54
  Q 154.95 247.08 153.88 246.21
  Q 153.63 245.02 153.04 245.21
  Q 152.89 244.86 152.71 244.72
  Q 152.39 244.45 152.41 244.87
  Q 153.02 261.24 162.80 272.48
  Q 167.30 277.63 172.24 280.48
  Q 179.80 284.84 185.90 287.12
  Q 188.58 288.12 190.00 289.87
  C 192.50 292.96 191.72 297.35 188.36 299.50
  Q 187.42 300.10 188.30 300.79
  Q 194.91 305.98 200.83 312.79
  Q 201.86 313.98 202.34 315.39
  C 203.25 318.05 201.74 321.54 199.19 322.64
  C 195.11 324.38 192.18 322.97 188.99 320.15
  Q 182.50 314.42 176.46 309.15
  Q 176.00 308.75 176.19 309.33
  Q 178.59 316.78 180.77 322.62
  Q 181.23 323.84 182.29 324.78
  Q 188.79 330.54 194.37 335.51
  C 196.84 337.71 198.30 340.57 200.43 343.08
  C 206.29 350.03 208.55 361.23 207.93 369.88
  Q 207.63 373.99 207.49 378.01
  Q 207.47 378.55 207.99 378.70
  C 212.04 379.85 216.06 381.01 220.01 382.51
  Q 223.64 383.88 227.36 384.83
  C 234.75 386.72 241.79 389.44 248.96 392.35
  A 2.53 2.51 47.1 0 0 250.66 392.42
  Q 256.51 390.56 262.40 388.20
  C 267.75 386.05 273.36 385.19 278.79 383.28
  Q 286.00 380.76 292.79 378.78
  A 0.69 0.68 -12.6 0 0 293.28 378.02
  C 291.56 367.05 292.12 356.55 297.32 346.72
  C 298.61 344.29 300.56 342.57 302.04 340.32
  Q 303.66 337.85 305.84 335.90
  Q 311.52 330.87 318.21 324.92
  Q 319.58 323.71 320.16 322.06
  C 321.68 317.71 322.60 313.54 324.45 309.56
  Q 324.89 308.61 324.12 309.33
  Q 316.37 316.62 308.94 321.97
  C 305.85 324.20 300.17 323.91 298.53 319.88
  Q 297.01 316.19 299.22 313.44
  Q 303.07 308.63 309.06 303.50
  C 310.26 302.47 311.65 301.79 312.75 300.63
  Q 313.12 300.24 312.64 300.00
  C 309.41 298.34 307.83 294.24 309.79 290.98
  C 311.71 287.80 315.07 286.98 318.25 285.62
  C 321.51 284.23 324.57 282.28 327.94 280.92
  Q 331.15 279.63 335.78 274.74
  L 336.99 273.31
  Q 340.80 269.73 342.85 265.57
  C 345.34 260.52 347.83 253.87 348.22 246.96
  Q 348.26 246.27 347.64 246.57
  Q 347.34 246.71 347.28 246.34
  Q 347.14 245.51 346.64 246.18
  Q 344.93 248.47 341.08 254.51
  Q 335.20 263.73 325.70 271.71
  Q 325.07 272.23 324.72 272.91
  L 324.20 273.09
  Q 323.79 273.22 323.43 273.43
  L 309.48 281.58
  Q 306.04 282.74 304.75 282.45
  Q 297.82 280.93 299.53 273.73
  Q 301.57 269.71 305.33 268.03
  Q 306.96 267.30 305.18 267.34
  L 289.10 267.68
  Q 273.15 265.47 262.28 257.70
  Q 257.04 253.94 250.64 243.90
  Q 250.32 243.39 250.01 243.91
  Q 245.85 250.99 238.76 257.50
  C 235.89 260.13 231.81 261.28 228.21 262.86
  Q 219.89 266.52 211.44 267.67
  Z
  M 347.61 245.25
  Q 347.92 245.32 348.03 245.65
  Q 348.33 246.60 348.38 245.61
  Q 348.43 244.77 348.42 243.98
  Q 348.41 243.31 348.09 243.90
  Q 347.86 244.35 347.47 244.68
  A 0.33 0.33 0.0 0 0 347.61 245.25
  Z
  M 186.57 370.94
  L 195.49 374.02
  A 0.39 0.39 0.0 0 0 196.00 373.68
  C 196.79 362.99 192.74 354.36 186.30 346.10
  Q 185.87 345.55 185.88 346.24
  L 186.10 370.30
  Q 186.10 370.79 186.57 370.94
  Z
  M 314.52 347.04
  A 0.31 0.31 0.0 0 0 313.95 346.87
  L 306.10 359.18
  A 0.31 0.31 0.0 0 0 306.05 359.31
  L 303.91 373.74
  A 0.31 0.31 0.0 0 0 304.30 374.09
  L 314.02 371.29
  A 0.31 0.31 0.0 0 0 314.24 371.00
  L 314.52 347.04
  Z"
/>
<circle fill="#273b41" cx="187.70" cy="239.02" r="7.11"/>
<ellipse fill="#273b41" cx="0.00" cy="0.00" transform="translate(312.74,239.02) rotate(3.8)" rx="7.18" ry="7.00"/>
</g>
<g>
<path fill="#d9dfda" d="
  M 347.47 244.68
  Q 347.86 244.35 348.09 243.90
  Q 348.41 243.31 348.42 243.98
  Q 348.43 244.77 348.38 245.61
  Q 348.33 246.60 348.03 245.65
  Q 347.92 245.32 347.61 245.25
  A 0.33 0.33 0.0 0 1 347.47 244.68
  Z"
/>
<path fill="#d9dfda" d="
  M 153.04 245.21
  Q 152.71 245.86 152.98 246.45
  Q 153.17 246.87 153.57 246.64
  Q 153.77 246.53 153.88 246.21
  Q 154.95 247.08 155.21 247.54
  Q 162.78 261.16 174.58 271.87
  Q 170.57 273.61 166.11 273.01
  L 162.80 272.48
  Q 153.02 261.24 152.41 244.87
  Q 152.39 244.45 152.71 244.72
  Q 152.89 244.86 153.04 245.21
  Z"
/>
<path fill="#0b0e0f" fill-opacity="0.176" d="
  M 153.04 245.21
  Q 153.63 245.02 153.88 246.21
  Q 153.77 246.53 153.57 246.64
  Q 153.17 246.87 152.98 246.45
  Q 152.71 245.86 153.04 245.21
  Z"
/>
<path fill="#d9dfda" d="
  M 336.99 273.31
  Q 333.45 272.56 329.26 273.57
  Q 327.30 274.04 325.85 272.76
  Q 325.50 272.46 325.11 272.69
  L 324.72 272.91
  Q 325.07 272.23 325.70 271.71
  Q 335.20 263.73 341.08 254.51
  Q 344.93 248.47 346.64 246.18
  Q 347.14 245.51 347.28 246.34
  Q 347.34 246.71 347.64 246.57
  Q 348.26 246.27 348.22 246.96
  C 347.83 253.87 345.34 260.52 342.85 265.57
  Q 340.80 269.73 336.99 273.31
  Z"
/>
<path fill="#0b0e0f" fill-opacity="0.176" d="
  M 211.44 267.67
  Q 206.74 271.46 200.87 273.38
  Q 198.92 269.94 195.38 267.98
  Q 193.94 267.18 195.59 267.22
  L 211.44 267.67
  Z"
/>
<path fill="#0b0e0f" fill-opacity="0.176" d="
  M 299.53 273.73
  Q 293.71 271.65 289.10 267.68
  L 305.18 267.34
  Q 306.96 267.30 305.33 268.03
  Q 301.57 269.71 299.53 273.73
  Z"
/>
<path fill="#0b0e0f" fill-opacity="0.176" d="
  M 174.58 271.87
  L 189.24 281.14
  Q 187.11 281.05 185.23 280.94
  Q 183.23 280.82 181.37 280.03
  Q 175.63 277.59 171.51 275.50
  Q 168.25 273.84 166.11 273.01
  Q 170.57 273.61 174.58 271.87
  Z"
/>
<path fill="#0b0e0f" fill-opacity="0.176" d="
  M 336.99 273.31
  L 335.78 274.74
  Q 335.37 273.80 334.13 274.40
  Q 325.65 278.47 316.62 281.13
  Q 313.05 282.18 309.48 281.58
  L 323.43 273.43
  Q 323.79 273.22 324.20 273.09
  L 324.72 272.91
  L 325.11 272.69
  Q 325.50 272.46 325.85 272.76
  Q 327.30 274.04 329.26 273.57
  Q 333.45 272.56 336.99 273.31
  Z"
/>
</g>
<path fill="#273b41" d="
  M 257.07 295.30
  L 257.06 320.76
  A 0.70 0.70 0.0 0 0 257.72 321.46
  Q 273.93 322.51 286.53 332.71
  Q 290.62 336.03 289.38 340.34
  C 287.99 345.18 282.22 345.27 278.45 343.07
  Q 268.43 337.23 257.44 335.72
  A 0.31 0.30 4.1 0 0 257.09 336.02
  Q 256.99 351.73 257.11 366.79
  C 257.19 377.43 243.48 377.59 243.34 367.50
  Q 243.13 352.45 243.47 336.49
  Q 243.48 335.95 242.94 336.00
  Q 232.82 337.05 223.88 342.13
  C 222.25 343.06 220.72 343.59 219.03 344.24
  C 216.56 345.19 212.54 343.96 211.57 341.28
  Q 209.76 336.25 213.66 333.02
  Q 220.69 327.19 228.90 324.25
  C 233.42 322.63 238.16 322.10 242.78 321.34
  A 0.60 0.60 0.0 0 0 243.29 320.75
  L 243.35 295.26
  Q 243.35 294.79 242.88 294.83
  Q 227.65 296.00 214.22 305.18
  C 212.03 306.67 209.27 306.54 207.16 304.95
  C 202.15 301.15 203.96 296.31 208.08 293.13
  C 215.84 287.14 225.18 282.38 234.78 281.40
  Q 238.76 280.99 242.74 280.41
  Q 243.29 280.33 243.31 279.79
  C 243.54 274.41 242.34 269.30 249.15 268.06
  Q 251.28 267.67 253.20 268.54
  C 258.19 270.82 257.00 275.37 257.22 279.73
  Q 257.24 280.18 257.69 280.26
  C 262.81 281.17 268.41 281.24 273.17 282.87
  Q 283.46 286.40 292.13 292.86
  C 295.74 295.55 298.72 300.58 294.34 304.23
  Q 289.88 307.94 284.96 304.46
  Q 273.02 296.05 257.65 294.77
  Q 257.07 294.72 257.07 295.30
  Z"
/>
</svg>
