<?xml version="1.0" encoding="UTF-8" standalone="no"?>
<!DOCTYPE svg PUBLIC "-//W3C//DTD SVG 1.0//EN" "http://www.w3.org/TR/2001/REC-SVG-20010904/DTD/svg10.dtd">
<svg xmlns="http://www.w3.org/2000/svg" version="1.0" viewBox="0.00 0.00 500.00 500.00">
<path fill="#13013e" d="
  M 360.76 74.87
  L 352.52 75.65
  L 346.86 77.10
  L 339.58 81.43
  L 331.55 88.77
  L 325.20 95.66
  L 323.41 98.26
  L 321.90 101.69
  L 321.13 102.02
  L 321.08 101.99
  L 320.79 101.81
  L 320.79 101.81
  L 320.48 100.55
  L 323.56 93.29
  L 323.91 92.29
  L 324.52 91.22
  L 325.96 88.25
  L 325.96 88.08
  L 325.82 87.98
  L 325.69 87.92
  L 325.58 87.82
  L 325.44 87.52
  L 325.59 87.20
  L 328.47 84.21
  L 328.83 83.93
  L 329.23 83.75
  L 330.98 83.04
  L 332.40 82.15
  L 333.57 80.60
  L 333.66 79.82
  L 339.60 75.67
  L 344.15 73.41
  L 349.00 72.22
  L 353.56 72.05
  L 357.66 72.97
  L 360.72 74.83
  L 360.76 74.87
  Z"
/>
<path fill="#180024" d="
  M 333.66 79.82
  L 333.57 80.60
  L 332.40 82.15
  L 330.98 83.04
  L 329.23 83.75
  L 328.83 83.93
  L 328.47 84.21
  L 325.59 87.20
  L 325.44 87.52
  L 325.58 87.82
  L 325.69 87.92
  L 325.82 87.98
  L 325.96 88.08
  L 325.96 88.25
  L 324.52 91.22
  L 323.91 92.29
  L 323.56 93.29
  L 320.48 100.55
  L 320.79 101.81
  L 320.79 101.81
  L 321.08 101.99
  L 321.13 102.02
  L 321.90 101.69
  L 323.41 98.26
  L 325.20 95.66
  L 331.55 88.77
  L 339.58 81.43
  L 346.86 77.10
  L 352.52 75.65
  L 360.76 74.87
  L 366.92 80.58
  L 368.01 81.85
  L 369.84 86.15
  L 369.95 91.67
  L 368.18 98.38
  L 364.84 105.11
  L 364.60 106.32
  L 365.21 107.38
  L 401.98 137.53
  L 402.00 137.88
  L 402.00 137.88
  L 401.56 139.53
  L 400.20 141.19
  L 397.56 144.03
  L 396.47 145.55
  L 394.33 148.78
  L 390.22 156.07
  L 390.10 156.59
  L 390.64 156.69
  L 392.26 156.13
  L 393.56 154.88
  L 400.01 146.70
  L 407.85 138.58
  L 413.08 134.78
  L 414.77 133.89
  L 419.35 132.00
  L 425.31 130.29
  L 427.76 129.64
  L 428.26 129.40
  L 429.00 127.55
  L 435.53 132.44
  L 439.47 136.27
  L 440.43 138.66
  L 440.41 142.23
  L 438.92 149.17
  L 436.23 155.46
  L 432.41 161.02
  L 432.40 161.04
  L 432.53 162.06
  L 436.23 164.99
  L 437.49 166.63
  L 437.75 169.64
  L 436.19 173.11
  L 433.30 176.24
  L 429.46 178.47
  L 427.84 178.80
  L 425.97 178.37
  L 423.77 176.93
  L 422.22 176.96
  L 417.34 181.14
  L 412.55 184.09
  L 406.50 186.70
  L 402.07 187.77
  L 398.02 187.51
  L 394.96 186.26
  L 392.03 184.02
  L 390.50 182.62
  L 386.92 179.08
  L 385.06 176.10
  L 384.19 172.26
  L 384.28 168.40
  L 386.23 158.56
  L 389.93 152.23
  L 391.74 149.13
  L 391.84 148.65
  L 391.59 148.28
  L 385.75 143.19
  L 377.71 136.45
  L 370.05 130.63
  L 366.99 128.24
  L 361.50 123.56
  L 355.95 118.82
  L 355.52 118.65
  L 355.12 118.75
  L 353.56 120.28
  L 348.87 125.13
  L 344.89 127.63
  L 339.87 130.60
  L 334.83 132.27
  L 329.50 133.13
  L 329.47 133.12
  L 324.99 130.54
  L 320.08 126.10
  L 317.31 123.43
  L 314.80 119.93
  L 314.10 116.44
  L 314.10 113.03
  L 314.27 111.88
  L 317.34 101.76
  L 322.11 92.91
  L 321.90 91.83
  L 321.90 91.83
  L 321.76 91.74
  L 317.98 88.79
  L 316.57 86.08
  L 316.78 84.19
  L 317.98 81.99
  L 323.31 76.16
  L 326.04 74.88
  L 328.61 75.58
  L 331.78 78.15
  L 333.66 79.82
  Z"
/>
<clipPath id="clipping-path-1">
<path d="
  M 343.59 103.95
  L 342.47 108.87
  L 342.69 110.90
  L 343.50 112.76
  L 344.02 113.43
  L 344.14 113.52
  L 344.69 113.19
  L 345.91 107.61
  L 346.12 107.12
  L 348.23 103.86
  L 350.96 101.20
  L 353.82 99.70
  L 356.18 99.63
  L 357.36 100.12
  L 358.19 100.42
  L 357.82 99.62
  L 356.15 97.88
  L 354.32 96.98
  L 351.33 96.95
  L 348.42 98.26
  L 345.55 100.84
  L 343.59 103.95
  Z"/>
</clipPath>
<g stroke-width="5.00" fill="none" stroke-linecap="butt" clip-path="url(#clipping-path-1)">
<path stroke="#afbdd8" vector-effect="non-scaling-stroke" d="
  M 346.12 107.12
  L 345.22 106.64
  L 343.59 103.95"
/>
</g>
<path fill="#13013e" d="
  M 444.68 316.02
  L 435.34 321.08
  L 425.86 325.91
  L 419.43 329.47
  L 407.47 336.19
  L 404.29 338.07
  L 392.15 344.39
  L 380.76 351.36
  L 372.00 356.33
  L 370.45 357.34
  L 369.64 358.59
  L 369.55 358.96
  L 368.12 357.51
  L 366.22 357.80
  L 363.97 359.49
  L 363.76 359.87
  L 363.93 360.27
  L 365.51 362.05
  L 365.90 365.63
  L 365.23 366.25
  L 364.84 362.58
  L 363.00 360.61
  L 362.60 360.38
  L 362.13 360.49
  L 355.54 364.02
  L 344.14 370.43
  L 334.22 376.11
  L 323.56 382.15
  L 318.13 385.00
  L 312.44 387.65
  L 284.98 402.40
  L 282.16 403.45
  L 279.50 403.53
  L 279.50 403.53
  L 279.47 403.53
  L 274.57 402.17
  L 270.50 399.78
  L 270.50 399.78
  L 268.15 397.50
  L 266.20 394.73
  L 263.50 387.68
  L 264.21 386.36
  L 264.45 386.02
  L 264.84 385.92
  L 265.74 385.65
  L 266.05 384.99
  L 268.79 388.06
  L 271.99 390.19
  L 271.99 390.19
  L 275.75 391.41
  L 279.98 391.64
  L 282.12 391.09
  L 282.26 391.02
  L 292.52 385.90
  L 302.52 380.58
  L 309.05 376.97
  L 326.74 367.35
  L 333.23 364.12
  L 341.01 360.15
  L 354.01 352.96
  L 363.66 347.73
  L 373.47 342.61
  L 383.25 337.50
  L 403.24 326.70
  L 416.37 320.00
  L 430.39 312.13
  L 430.83 311.67
  L 430.98 311.05
  L 430.98 305.80
  L 430.81 305.32
  L 430.32 305.39
  L 427.12 307.26
  L 423.80 309.18
  L 405.52 318.90
  L 397.67 322.77
  L 388.74 327.25
  L 376.20 334.05
  L 364.05 340.62
  L 356.45 344.50
  L 343.01 351.45
  L 342.07 351.74
  L 341.12 351.56
  L 340.56 351.13
  L 340.45 350.96
  L 340.26 349.83
  L 340.91 348.91
  L 345.20 346.13
  L 351.31 343.15
  L 357.33 340.23
  L 388.89 323.31
  L 391.86 321.95
  L 395.08 320.46
  L 427.73 302.92
  L 429.47 302.19
  L 429.87 302.08
  L 430.61 301.64
  L 430.87 300.80
  L 430.93 296.05
  L 430.77 295.57
  L 430.27 295.64
  L 273.09 376.83
  L 271.90 376.96
  L 270.21 375.79
  L 270.17 375.61
  L 270.37 374.26
  L 271.40 373.36
  L 280.05 368.99
  L 290.62 363.75
  L 300.21 358.96
  L 317.96 349.66
  L 322.23 347.30
  L 327.85 344.34
  L 335.78 340.63
  L 362.68 326.41
  L 372.46 321.63
  L 386.03 314.58
  L 392.32 311.15
  L 407.54 303.31
  L 412.22 300.94
  L 430.74 291.13
  L 430.93 290.81
  L 430.97 284.14
  L 430.97 284.11
  L 430.80 284.04
  L 401.27 299.75
  L 395.54 302.49
  L 388.58 305.92
  L 373.43 314.15
  L 363.64 319.36
  L 356.21 322.89
  L 348.15 326.76
  L 334.06 334.16
  L 322.20 340.33
  L 313.31 344.62
  L 303.56 349.62
  L 289.83 357.00
  L 278.97 362.76
  L 271.86 365.68
  L 270.92 365.64
  L 270.26 364.97
  L 270.15 363.67
  L 271.02 362.77
  L 297.95 348.60
  L 301.10 346.90
  L 307.55 343.66
  L 314.85 340.22
  L 342.13 325.82
  L 351.36 321.34
  L 365.17 314.25
  L 373.43 309.83
  L 386.57 303.09
  L 390.63 300.99
  L 430.33 280.36
  L 430.79 279.94
  L 430.94 279.37
  L 430.99 274.66
  L 430.37 274.17
  L 430.25 274.21
  L 352.43 314.90
  L 352.29 314.84
  L 352.96 313.13
  L 355.03 309.45
  L 355.32 309.08
  L 355.76 308.80
  L 363.91 304.76
  L 370.52 301.37
  L 381.45 295.77
  L 396.03 287.93
  L 402.70 284.44
  L 412.35 279.46
  L 430.22 269.85
  L 430.57 269.54
  L 430.79 269.12
  L 430.89 266.12
  L 430.92 259.26
  L 430.80 258.91
  L 430.42 258.94
  L 406.59 271.25
  L 394.52 277.77
  L 349.97 301.00
  L 345.96 303.04
  L 313.24 320.46
  L 309.06 322.40
  L 303.99 324.87
  L 289.92 332.71
  L 283.22 336.23
  L 278.20 340.15
  L 275.99 342.14
  L 276.09 340.94
  L 276.00 340.56
  L 275.69 340.39
  L 275.01 340.24
  L 277.39 338.19
  L 277.43 338.15
  L 277.39 336.88
  L 221.83 288.47
  L 218.21 285.12
  L 212.81 280.28
  L 199.33 268.39
  L 188.82 259.05
  L 180.67 251.94
  L 178.28 249.64
  L 167.45 240.14
  L 157.05 231.00
  L 149.60 224.08
  L 140.86 216.88
  L 135.17 211.73
  L 131.67 208.42
  L 123.35 200.99
  L 119.72 198.06
  L 114.91 194.02
  L 101.49 181.90
  L 98.74 179.54
  L 96.84 178.07
  L 94.37 176.08
  L 80.46 163.78
  L 76.69 160.59
  L 76.31 160.42
  L 75.90 160.53
  L 72.11 162.91
  L 72.11 162.89
  L 71.28 161.06
  L 69.04 159.32
  L 73.42 156.70
  L 77.55 154.66
  L 110.91 136.91
  L 133.82 125.01
  L 151.86 115.43
  L 154.41 114.41
  L 154.55 114.37
  L 156.32 113.40
  L 157.44 112.71
  L 185.47 97.68
  L 185.87 97.46
  L 194.47 93.34
  L 197.40 91.81
  L 199.12 90.80
  L 214.37 82.77
  L 218.38 80.50
  L 226.75 76.22
  L 227.24 76.15
  L 227.69 76.36
  L 238.84 85.76
  L 248.25 93.51
  L 252.35 96.76
  L 267.08 109.32
  L 274.93 115.57
  L 280.13 119.93
  L 289.94 128.39
  L 294.15 131.85
  L 299.49 135.96
  L 303.48 139.37
  L 306.29 141.88
  L 319.48 152.70
  L 321.55 154.58
  L 324.97 157.49
  L 327.30 159.27
  L 331.99 163.10
  L 344.67 174.08
  L 348.74 177.33
  L 351.39 179.30
  L 355.35 182.48
  L 365.89 191.56
  L 373.08 197.62
  L 377.58 201.18
  L 380.25 203.41
  L 385.85 208.23
  L 396.44 217.18
  L 405.45 224.55
  L 410.69 229.26
  L 413.77 231.93
  L 424.17 240.40
  L 427.59 243.43
  L 430.39 246.00
  L 439.29 253.46
  L 439.39 253.57
  L 439.12 254.60
  L 436.17 255.92
  L 435.77 256.25
  L 435.64 256.75
  L 435.55 306.90
  L 436.13 308.22
  L 444.68 316.02
  Z"
/>
<path fill="#ffffff" d="
  M 327.57 80.57
  L 324.30 83.43
  L 322.52 86.34
  L 322.25 86.71
  L 321.78 86.73
  L 321.61 86.66
  L 321.45 86.54
  L 321.26 86.21
  L 321.27 85.84
  L 322.25 83.39
  L 323.71 81.38
  L 326.39 79.42
  L 326.61 79.34
  L 327.78 79.49
  L 327.82 80.21
  L 327.57 80.57
  Z"
/>
<path fill="#ffffff" d="
  M 332.80 98.90
  L 327.46 107.77
  L 325.89 111.02
  L 325.83 111.09
  L 325.71 111.09
  L 325.71 111.09
  L 325.62 111.02
  L 325.63 110.92
  L 328.39 104.29
  L 332.37 97.50
  L 340.73 87.97
  L 343.69 85.45
  L 346.94 83.52
  L 346.94 83.52
  L 350.53 82.17
  L 354.42 81.44
  L 355.01 81.45
  L 354.48 81.71
  L 353.20 82.20
  L 346.99 85.61
  L 339.85 91.39
  L 338.39 92.66
  L 338.06 92.95
  L 332.80 98.90
  Z"
/>
<path fill="#ffffff" d="
  M 346.12 107.12
  L 345.22 106.64
  L 343.59 103.95
  L 345.55 100.84
  L 348.42 98.26
  L 351.33 96.95
  L 354.32 96.98
  L 356.15 97.88
  L 357.82 99.62
  L 358.19 100.42
  L 357.36 100.12
  L 356.18 99.63
  L 353.82 99.70
  L 350.96 101.20
  L 348.23 103.86
  L 346.12 107.12
  Z"
/>
<path fill="#5f7ab0" d="
  M 343.59 103.95
  L 345.22 106.64
  L 346.12 107.12
  L 345.91 107.61
  L 344.69 113.19
  L 344.14 113.52
  L 344.02 113.43
  L 343.50 112.76
  L 342.69 110.90
  L 342.47 108.87
  L 343.59 103.95
  Z"
/>
<path fill="#ffffff" d="
  M 395.7471 143.8797
  L 394.4107 144.0178
  L 351.4953 109.1415
  L 351.3572 107.8051
  L 353.6529 104.9803
  L 354.9893 104.8422
  L 397.9047 139.7185
  L 398.0428 141.0549
  L 395.7471 143.8797
  Z"
/>
<path fill="#ffffff" d="
  M 219.3516 110.9493
  L 218.2209 113.7201
  L 215.4621 114.8797
  L 211.5622 114.9002
  L 208.7914 113.7694
  L 207.6318 111.0107
  L 207.6284 110.3707
  L 208.7591 107.5999
  L 211.5179 106.4403
  L 215.4178 106.4198
  L 218.1886 107.5506
  L 219.3482 110.3093
  L 219.3516 110.9493
  Z"
/>
<path fill="#ffffff" d="
  M 237.9503 114.5808
  L 237.3466 116.2752
  L 235.9061 117.6370
  L 233.8481 118.4587
  L 231.4859 118.6154
  L 229.1791 118.0831
  L 227.2790 116.9429
  L 226.0747 115.3683
  L 225.7497 113.5992
  L 226.3534 111.9048
  L 227.7939 110.5430
  L 229.8519 109.7213
  L 232.2141 109.5646
  L 234.5209 110.0969
  L 236.4210 111.2371
  L 237.6253 112.8117
  L 237.9503 114.5808
  Z"
/>
<path fill="#5f7ab0" d="
  M 314.27 111.88
  L 314.10 113.03
  L 314.10 116.44
  L 314.80 119.93
  L 317.31 123.43
  L 320.08 126.10
  L 324.99 130.54
  L 329.47 133.12
  L 329.50 133.13
  L 321.85 134.39
  L 318.50 134.45
  L 307.77 133.34
  L 303.46 132.14
  L 299.32 130.33
  L 297.00 128.96
  L 293.88 125.97
  L 292.78 122.72
  L 293.39 119.78
  L 294.24 118.32
  L 297.77 115.35
  L 304.00 112.93
  L 311.50 111.46
  L 314.27 111.88
  Z"
/>
<path fill="#ffffff" d="
  M 389.93 152.23
  L 379.73 142.73
  L 371.71 136.54
  L 364.90 131.36
  L 364.49 130.65
  L 364.06 128.98
  L 363.06 127.54
  L 362.89 127.13
  L 362.53 126.74
  L 360.88 125.46
  L 360.41 125.19
  L 360.09 125.09
  L 359.61 124.92
  L 359.21 124.64
  L 356.66 123.29
  L 356.23 123.12
  L 356.12 123.02
  L 356.13 122.88
  L 356.23 122.63
  L 356.50 122.32
  L 356.90 122.26
  L 356.96 122.26
  L 357.17 122.16
  L 357.24 122.04
  L 357.11 121.97
  L 353.69 120.39
  L 353.56 120.28
  L 355.12 118.75
  L 355.52 118.65
  L 355.95 118.82
  L 361.50 123.56
  L 366.99 128.24
  L 370.05 130.63
  L 377.71 136.45
  L 385.75 143.19
  L 391.59 148.28
  L 391.84 148.65
  L 391.74 149.13
  L 389.93 152.23
  Z"
/>
<path fill="#5f7ab0" d="
  M 364.06 128.98
  L 364.49 130.65
  L 364.90 131.36
  L 371.71 136.54
  L 379.73 142.73
  L 389.93 152.23
  L 386.23 158.56
  L 350.38 128.37
  L 349.46 126.83
  L 350.89 125.76
  L 353.83 124.81
  L 356.20 124.60
  L 358.34 125.55
  L 362.98 128.97
  L 364.02 129.42
  L 364.06 128.98
  Z"
/>
<path fill="#13013e" d="
  M 429.00 127.55
  L 428.26 129.40
  L 427.76 129.64
  L 425.31 130.29
  L 419.35 132.00
  L 414.77 133.89
  L 413.08 134.78
  L 407.85 138.58
  L 400.01 146.70
  L 393.56 154.88
  L 392.26 156.13
  L 390.64 156.69
  L 390.10 156.59
  L 390.22 156.07
  L 394.33 148.78
  L 396.47 145.55
  L 397.56 144.03
  L 400.20 141.19
  L 401.56 139.53
  L 402.00 137.88
  L 402.00 137.88
  L 401.98 137.53
  L 404.12 135.91
  L 406.27 134.32
  L 409.53 131.86
  L 415.22 128.68
  L 419.69 127.18
  L 424.13 126.76
  L 429.00 127.55
  Z"
/>
<path fill="#ffffff" d="
  M 396.30 166.12
  L 396.20 166.44
  L 395.91 166.83
  L 395.87 166.85
  L 395.78 166.74
  L 396.27 165.45
  L 400.77 156.16
  L 406.81 147.46
  L 411.41 142.64
  L 416.27 139.05
  L 421.50 136.53
  L 427.23 135.14
  L 429.61 134.95
  L 430.58 135.05
  L 429.70 135.48
  L 423.07 138.24
  L 416.64 142.01
  L 411.05 146.41
  L 406.27 151.48
  L 403.66 154.51
  L 398.97 160.64
  L 396.54 165.39
  L 396.37 165.82
  L 396.30 166.12
  Z"
/>
<path fill="#13013e" d="
  M 351.38 157.53
  L 348.60 155.82
  L 344.43 154.14
  L 349.37 151.69
  L 354.31 149.93
  L 356.73 149.56
  L 358.73 149.95
  L 362.76 151.91
  L 363.60 153.17
  L 363.05 154.58
  L 362.58 154.87
  L 356.83 156.73
  L 351.38 157.53
  Z"
/>
<path fill="#ffffff" d="
  M 419.60 157.11
  L 416.37 160.32
  L 413.50 164.75
  L 413.37 164.87
  L 413.18 164.84
  L 413.18 164.83
  L 413.08 164.73
  L 413.10 164.59
  L 416.39 159.41
  L 420.49 155.21
  L 420.49 155.21
  L 420.49 155.21
  L 423.82 152.88
  L 427.55 151.02
  L 428.91 150.81
  L 429.86 151.15
  L 430.21 151.51
  L 429.75 151.70
  L 428.58 151.85
  L 428.22 151.92
  L 427.74 152.10
  L 422.79 154.90
  L 419.60 157.11
  Z"
/>
<path fill="#ffffff" d="
  M 282.52 165.93
  L 284.13 171.16
  L 284.13 176.12
  L 282.78 180.31
  L 280.16 184.28
  L 275.34 188.07
  L 268.60 190.38
  L 260.20 191.03
  L 251.82 189.82
  L 246.21 187.67
  L 241.50 184.47
  L 241.50 184.47
  L 237.51 179.94
  L 235.21 175.37
  L 234.45 170.83
  L 234.76 167.79
  L 235.70 164.82
  L 239.38 159.14
  L 241.74 157.19
  L 245.09 155.60
  L 251.68 153.81
  L 258.26 153.28
  L 266.15 154.32
  L 274.02 157.19
  L 279.05 160.77
  L 282.52 165.93
  Z"
/>
<path fill="#5f7ab0" d="
  M 344.43 154.14
  L 348.60 155.82
  L 351.38 157.53
  L 344.63 155.75
  L 343.92 155.21
  L 343.91 155.17
  L 343.91 155.15
  L 344.43 154.14
  Z"
/>
<path fill="#ffffff" d="
  M 418.12 166.97
  L 418.10 166.97
  L 418.06 166.94
  L 418.06 166.94
  L 418.22 164.83
  L 420.54 161.71
  L 420.77 161.48
  L 423.90 159.17
  L 426.01 159.02
  L 426.01 159.02
  L 426.04 159.05
  L 426.05 159.06
  L 426.04 159.08
  L 418.12 166.97
  Z"
/>
<path fill="#180024" d="
  M 69.04 159.32
  L 71.28 161.06
  L 72.11 162.89
  L 72.11 162.91
  L 77.71 168.37
  L 88.12 177.29
  L 95.04 183.35
  L 99.50 187.37
  L 99.56 187.42
  L 99.47 188.56
  L 96.79 191.01
  L 94.47 193.95
  L 90.42 201.16
  L 87.71 208.73
  L 87.71 208.73
  L 86.48 215.21
  L 86.16 221.93
  L 86.56 231.64
  L 87.76 234.85
  L 87.80 234.90
  L 90.46 237.04
  L 91.76 237.25
  L 92.09 235.98
  L 91.42 226.81
  L 92.15 217.54
  L 93.72 209.77
  L 96.22 203.19
  L 99.62 197.67
  L 104.43 192.59
  L 105.61 192.60
  L 156.58 237.64
  L 157.10 238.56
  L 156.60 239.51
  L 150.76 246.44
  L 146.26 255.12
  L 143.46 264.87
  L 142.56 274.73
  L 142.45 279.43
  L 143.13 283.81
  L 144.55 286.92
  L 146.42 288.38
  L 147.40 288.58
  L 147.96 288.43
  L 148.11 287.87
  L 147.32 277.42
  L 148.37 268.19
  L 150.90 259.54
  L 150.90 259.54
  L 150.90 259.54
  L 154.25 252.62
  L 158.68 246.12
  L 161.94 242.88
  L 162.60 242.89
  L 180.79 259.38
  L 181.00 259.81
  L 180.70 260.20
  L 178.14 262.31
  L 173.40 269.48
  L 169.99 277.12
  L 169.99 277.12
  L 167.61 287.21
  L 167.28 298.02
  L 167.81 305.66
  L 168.49 307.87
  L 170.08 309.55
  L 171.73 310.64
  L 173.03 310.99
  L 173.33 309.69
  L 172.52 300.29
  L 172.67 292.53
  L 173.86 285.00
  L 173.86 285.00
  L 177.44 274.45
  L 180.76 268.94
  L 185.50 263.88
  L 186.23 263.87
  L 236.67 308.40
  L 236.91 308.82
  L 236.70 309.24
  L 230.94 315.89
  L 226.48 323.19
  L 222.73 333.24
  L 221.00 344.31
  L 220.40 348.63
  L 220.61 353.27
  L 222.25 357.09
  L 222.61 357.50
  L 223.89 358.56
  L 225.01 358.85
  L 225.39 357.75
  L 225.46 348.90
  L 227.16 338.68
  L 230.35 329.09
  L 230.72 328.23
  L 234.61 321.36
  L 240.69 313.57
  L 241.69 312.97
  L 242.74 313.46
  L 257.34 326.04
  L 257.59 326.43
  L 257.37 326.83
  L 252.47 332.08
  L 246.72 341.07
  L 242.77 351.51
  L 241.25 358.52
  L 240.68 364.92
  L 240.39 369.49
  L 240.78 373.38
  L 241.90 376.27
  L 243.52 377.82
  L 244.49 378.19
  L 244.98 378.14
  L 245.14 377.67
  L 245.07 369.42
  L 246.23 360.87
  L 248.37 352.64
  L 248.37 352.64
  L 249.16 350.35
  L 251.37 345.28
  L 254.12 340.50
  L 261.72 330.80
  L 262.58 330.76
  L 273.59 340.57
  L 273.93 340.75
  L 274.32 340.72
  L 275.01 340.24
  L 275.69 340.39
  L 276.00 340.56
  L 276.09 340.94
  L 275.99 342.14
  L 272.51 345.55
  L 269.59 349.33
  L 269.59 349.33
  L 269.59 349.33
  L 266.56 354.93
  L 264.50 361.18
  L 263.08 368.89
  L 263.25 378.25
  L 263.46 379.46
  L 264.43 382.30
  L 266.05 384.99
  L 265.74 385.65
  L 264.84 385.92
  L 264.45 386.02
  L 264.21 386.36
  L 263.50 387.68
  L 263.33 390.63
  L 263.77 393.41
  L 263.77 393.41
  L 265.04 396.38
  L 267.10 399.13
  L 271.57 402.79
  L 276.36 404.59
  L 276.36 404.59
  L 281.77 404.46
  L 287.55 402.25
  L 314.35 387.31
  L 317.47 385.82
  L 321.34 383.87
  L 326.30 380.91
  L 346.33 369.84
  L 355.56 364.81
  L 357.06 364.58
  L 358.11 366.11
  L 358.31 370.13
  L 349.54 375.19
  L 340.76 380.23
  L 337.22 382.22
  L 333.64 384.03
  L 325.96 387.99
  L 297.28 403.86
  L 291.43 406.66
  L 289.16 407.64
  L 282.26 410.05
  L 278.64 410.40
  L 274.27 409.59
  L 270.09 407.89
  L 265.81 405.21
  L 262.06 401.96
  L 256.54 396.42
  L 246.38 387.41
  L 243.97 385.41
  L 239.85 381.72
  L 234.03 375.84
  L 225.73 368.49
  L 217.64 361.33
  L 181.05 327.46
  L 171.77 319.23
  L 159.64 308.33
  L 148.39 298.26
  L 137.19 287.94
  L 129.72 281.13
  L 121.33 273.96
  L 113.78 266.71
  L 105.48 259.23
  L 94.42 249.27
  L 82.00 238.12
  L 73.39 230.59
  L 66.04 223.54
  L 63.44 220.70
  L 61.53 218.79
  L 59.10 216.27
  L 55.11 210.12
  L 52.69 203.08
  L 51.91 195.23
  L 52.39 185.83
  L 53.23 181.41
  L 54.88 176.78
  L 57.66 171.41
  L 61.11 166.60
  L 61.11 166.60
  L 61.11 166.60
  L 64.80 162.73
  L 69.04 159.32
  Z"
/>
<path fill="#180024" d="
  M 341.57 161.32
  L 344.47 159.90
  L 344.90 159.82
  L 345.34 160.01
  L 348.65 162.78
  L 348.88 163.69
  L 347.96 164.19
  L 341.75 162.84
  L 341.12 162.14
  L 341.57 161.32
  Z"
/>
<path fill="#ffffff" d="
  M 275.01 340.24
  L 274.32 340.72
  L 273.93 340.75
  L 273.59 340.57
  L 262.58 330.76
  L 261.72 330.80
  L 254.12 340.50
  L 251.37 345.28
  L 249.16 350.35
  L 248.37 352.64
  L 248.37 352.64
  L 246.23 360.87
  L 245.07 369.42
  L 244.43 369.10
  L 241.95 366.54
  L 240.68 364.92
  L 241.25 358.52
  L 242.77 351.51
  L 246.72 341.07
  L 252.47 332.08
  L 257.37 326.83
  L 257.59 326.43
  L 257.34 326.04
  L 242.74 313.46
  L 241.69 312.97
  L 240.69 313.57
  L 234.61 321.36
  L 230.72 328.23
  L 230.35 329.09
  L 227.16 338.68
  L 225.46 348.90
  L 223.94 347.76
  L 221.00 344.31
  L 222.73 333.24
  L 226.48 323.19
  L 226.48 323.19
  L 230.94 315.89
  L 236.70 309.24
  L 236.91 308.82
  L 236.67 308.40
  L 186.23 263.87
  L 185.50 263.88
  L 180.76 268.94
  L 177.44 274.45
  L 173.86 285.00
  L 173.86 285.00
  L 172.67 292.53
  L 172.52 300.29
  L 169.89 299.54
  L 167.28 298.02
  L 167.61 287.21
  L 169.99 277.12
  L 169.99 277.12
  L 173.40 269.48
  L 178.14 262.31
  L 180.70 260.20
  L 181.00 259.81
  L 180.79 259.38
  L 162.60 242.89
  L 161.94 242.88
  L 158.68 246.12
  L 154.25 252.62
  L 150.90 259.54
  L 150.90 259.54
  L 148.37 268.19
  L 147.32 277.42
  L 147.24 277.43
  L 145.00 276.88
  L 142.56 274.73
  L 143.46 264.87
  L 146.26 255.12
  L 150.76 246.44
  L 156.60 239.51
  L 157.10 238.56
  L 156.58 237.64
  L 105.61 192.60
  L 104.43 192.59
  L 99.62 197.67
  L 96.22 203.19
  L 93.72 209.77
  L 92.15 217.54
  L 91.42 226.81
  L 86.16 221.93
  L 86.48 215.21
  L 87.71 208.73
  L 87.71 208.73
  L 90.42 201.16
  L 94.47 193.95
  L 96.79 191.01
  L 99.47 188.56
  L 99.56 187.42
  L 99.50 187.37
  L 95.04 183.35
  L 88.12 177.29
  L 77.71 168.37
  L 72.11 162.91
  L 75.90 160.53
  L 76.31 160.42
  L 76.69 160.59
  L 80.46 163.78
  L 94.37 176.08
  L 96.84 178.07
  L 98.74 179.54
  L 101.49 181.90
  L 114.91 194.02
  L 119.72 198.06
  L 123.35 200.99
  L 131.67 208.42
  L 135.17 211.73
  L 140.86 216.88
  L 149.60 224.08
  L 157.05 231.00
  L 167.45 240.14
  L 178.28 249.64
  L 180.67 251.94
  L 188.82 259.05
  L 199.33 268.39
  L 212.81 280.28
  L 218.21 285.12
  L 221.83 288.47
  L 277.39 336.88
  L 277.43 338.15
  L 277.39 338.19
  L 275.01 340.24
  Z"
/>
<path fill="#ffffff" d="
  M 422.6829 169.9986
  L 421.5517 170.0183
  L 421.4510 169.9211
  L 421.4313 168.7899
  L 427.6971 162.3014
  L 428.8283 162.2817
  L 428.9290 162.3789
  L 428.9487 163.5101
  L 422.6829 169.9986
  Z"
/>
<path fill="#ffffff" d="
  M 432.08 166.11
  L 432.53 166.06
  L 432.87 166.35
  L 433.02 166.58
  L 432.93 167.06
  L 429.39 170.28
  L 426.70 173.95
  L 426.46 174.15
  L 426.18 173.98
  L 425.63 173.30
  L 425.50 173.01
  L 425.56 172.67
  L 427.41 169.70
  L 429.78 167.43
  L 432.08 166.11
  Z"
/>
<path fill="#5f7ab0" d="
  M 384.28 168.40
  L 384.19 172.26
  L 385.06 176.10
  L 386.92 179.08
  L 390.50 182.62
  L 392.03 184.02
  L 394.96 186.26
  L 398.02 187.51
  L 402.07 187.77
  L 406.50 186.70
  L 412.55 184.09
  L 417.34 181.14
  L 421.32 183.51
  L 422.25 184.76
  L 422.03 186.30
  L 420.65 187.59
  L 418.55 188.50
  L 411.91 189.56
  L 396.60 189.86
  L 383.14 189.50
  L 376.85 188.59
  L 371.01 186.65
  L 366.57 183.92
  L 363.88 180.64
  L 363.62 180.05
  L 363.36 177.86
  L 363.94 175.71
  L 365.40 173.58
  L 367.40 172.08
  L 375.36 169.30
  L 384.28 168.40
  Z"
/>
<path fill="#180024" d="
  M 374.09 193.32
  L 374.41 193.14
  L 375.19 192.45
  L 375.77 192.10
  L 376.39 192.34
  L 377.54 193.27
  L 377.87 193.72
  L 377.85 194.28
  L 377.75 194.52
  L 377.31 195.07
  L 376.66 195.25
  L 374.02 194.22
  L 373.67 193.74
  L 374.09 193.32
  Z"
/>
<path fill="#ffffff" d="
  M 212.6280 216.8343
  L 211.5892 220.4486
  L 209.6145 223.7782
  L 206.7801 226.6951
  L 203.1947 229.0873
  L 198.9962 230.8628
  L 194.3460 231.9534
  L 189.4226 232.3172
  L 184.4154 231.9401
  L 179.5167 230.8367
  L 174.9148 229.0494
  L 170.7866 226.6469
  L 167.2906 223.7214
  L 164.5613 220.3855
  L 162.7036 216.7673
  L 161.7887 213.0059
  L 161.8520 209.2457
  L 162.8908 205.6314
  L 164.8655 202.3018
  L 167.6999 199.3849
  L 171.2853 196.9927
  L 175.4838 195.2172
  L 180.1340 194.1266
  L 185.0574 193.7628
  L 190.0646 194.1399
  L 194.9633 195.2433
  L 199.5652 197.0306
  L 203.6934 199.4331
  L 207.1894 202.3586
  L 209.9187 205.6945
  L 211.7764 209.3127
  L 212.6913 213.0741
  L 212.6280 216.8343
  Z"
/>
<path fill="#180024" d="
  M 433.69 194.10
  L 434.83 194.52
  L 434.84 194.55
  L 434.91 194.79
  L 434.93 195.03
  L 434.64 196.26
  L 433.73 197.31
  L 431.00 198.87
  L 431.00 198.87
  L 428.04 199.73
  L 424.80 199.92
  L 424.31 199.74
  L 424.16 199.22
  L 424.20 197.95
  L 424.37 197.45
  L 424.84 197.22
  L 428.93 196.14
  L 433.69 194.10
  Z"
/>
<path fill="#13013e" d="
  M 415.99 208.24
  L 419.14 209.29
  L 420.68 210.85
  L 420.87 212.15
  L 420.70 212.74
  L 420.29 213.21
  L 413.13 218.58
  L 411.77 218.63
  L 406.54 215.26
  L 406.00 214.56
  L 406.45 213.80
  L 414.23 208.48
  L 414.92 208.22
  L 415.99 208.24
  Z"
/>
<path fill="#ffffff" d="
  M 281.21 222.29
  L 276.21 222.79
  L 271.26 223.90
  L 266.49 225.62
  L 262.04 227.94
  L 258.27 230.65
  L 255.01 233.87
  L 252.54 237.33
  L 250.70 241.23
  L 249.65 245.23
  L 249.31 249.60
  L 248.32 252.79
  L 245.67 254.77
  L 245.22 254.88
  L 241.97 254.60
  L 240.38 253.43
  L 239.28 251.70
  L 238.28 246.68
  L 239.05 239.25
  L 241.42 232.64
  L 241.42 232.64
  L 243.69 228.93
  L 246.59 225.53
  L 250.01 222.56
  L 254.04 219.94
  L 263.94 215.76
  L 271.75 213.83
  L 279.87 212.82
  L 288.27 212.72
  L 296.98 213.55
  L 299.73 214.64
  L 301.31 216.59
  L 301.72 219.16
  L 300.67 221.45
  L 299.01 222.51
  L 296.59 222.76
  L 281.21 222.29
  Z"
/>
<path fill="#13013e" d="
  M 63.44 220.70
  L 66.04 223.54
  L 65.10 228.62
  L 64.79 229.86
  L 64.38 230.72
  L 63.78 233.28
  L 63.33 234.03
  L 62.68 234.66
  L 62.37 235.73
  L 62.29 236.29
  L 62.16 236.66
  L 61.34 239.02
  L 60.91 243.73
  L 60.88 243.90
  L 60.74 244.03
  L 60.52 244.14
  L 60.23 244.40
  L 60.10 244.74
  L 59.81 248.52
  L 60.14 251.25
  L 62.02 257.79
  L 62.23 258.18
  L 62.58 258.42
  L 63.53 259.16
  L 63.89 260.35
  L 64.11 261.07
  L 66.70 266.18
  L 67.02 266.97
  L 67.73 268.22
  L 69.26 269.52
  L 71.52 271.33
  L 77.15 277.00
  L 84.85 283.64
  L 89.12 287.56
  L 92.56 291.86
  L 63.05 301.83
  L 59.51 297.38
  L 56.92 294.69
  L 50.22 288.16
  L 41.70 280.32
  L 42.39 278.26
  L 42.61 277.89
  L 43.01 277.66
  L 66.01 269.81
  L 66.60 269.32
  L 66.19 268.68
  L 61.15 264.26
  L 55.74 260.05
  L 55.18 259.66
  L 52.29 256.87
  L 49.95 254.48
  L 49.84 252.02
  L 49.84 251.91
  L 49.57 249.93
  L 48.62 247.93
  L 48.42 247.49
  L 48.35 247.01
  L 47.97 242.90
  L 47.84 238.73
  L 48.82 234.27
  L 49.73 232.59
  L 50.25 231.86
  L 50.83 230.55
  L 51.04 230.21
  L 51.37 230.05
  L 52.79 229.48
  L 53.96 228.43
  L 54.26 228.13
  L 54.73 227.83
  L 55.77 227.13
  L 56.21 226.63
  L 56.81 226.04
  L 56.90 225.97
  L 57.86 224.98
  L 58.46 223.05
  L 63.44 220.70
  Z"
/>
<path fill="#5f7ab0" d="
  M 86.16 221.93
  L 91.42 226.81
  L 92.09 235.98
  L 91.76 237.25
  L 90.46 237.04
  L 87.80 234.90
  L 87.76 234.85
  L 86.56 231.64
  L 86.16 221.93
  Z"
/>
<path fill="#180024" d="
  M 58.46 223.05
  L 57.86 224.98
  L 56.90 225.97
  L 56.81 226.04
  L 56.21 226.63
  L 55.77 227.13
  L 54.73 227.83
  L 54.26 228.13
  L 53.96 228.43
  L 52.79 229.48
  L 51.37 230.05
  L 51.04 230.21
  L 50.83 230.55
  L 50.25 231.86
  L 49.73 232.59
  L 48.82 234.27
  L 47.84 238.73
  L 47.97 242.90
  L 48.35 247.01
  L 48.42 247.49
  L 48.62 247.93
  L 49.57 249.93
  L 49.84 251.91
  L 49.84 251.91
  L 49.84 252.02
  L 49.95 254.48
  L 30.64 237.81
  L 30.26 236.95
  L 30.69 236.12
  L 30.69 236.12
  L 30.89 236.00
  L 58.46 223.05
  Z"
/>
<path fill="#5068a4" d="
  M 66.04 223.54
  L 73.39 230.59
  L 72.82 235.64
  L 73.32 238.52
  L 73.37 239.06
  L 73.24 239.52
  L 73.07 239.97
  L 73.01 241.64
  L 72.98 243.28
  L 72.31 248.40
  L 72.67 249.72
  L 73.75 250.16
  L 74.17 250.31
  L 74.42 250.67
  L 76.27 254.61
  L 78.64 258.14
  L 82.04 261.71
  L 82.98 262.97
  L 83.74 264.07
  L 93.03 273.71
  L 102.78 282.91
  L 104.11 284.41
  L 104.28 284.67
  L 104.30 284.70
  L 105.75 286.30
  L 108.06 288.67
  L 117.49 300.14
  L 124.05 308.00
  L 129.60 316.44
  L 133.61 325.77
  L 135.21 328.88
  L 135.80 329.60
  L 136.36 330.04
  L 136.89 330.16
  L 137.15 330.25
  L 137.07 330.50
  L 137.02 330.67
  L 137.09 330.81
  L 138.43 331.61
  L 139.36 331.71
  L 140.10 331.87
  L 140.45 332.21
  L 140.68 332.40
  L 140.95 332.42
  L 143.24 332.02
  L 143.27 332.01
  L 143.28 331.98
  L 143.34 331.64
  L 143.46 331.42
  L 143.70 331.41
  L 144.44 331.47
  L 143.71 332.85
  L 143.72 333.93
  L 143.72 333.93
  L 143.73 333.96
  L 144.05 334.42
  L 144.75 334.77
  L 149.91 336.43
  L 152.96 338.98
  L 153.32 339.25
  L 153.71 339.06
  L 159.37 333.48
  L 159.46 332.58
  L 157.68 331.15
  L 162.53 332.76
  L 165.87 334.66
  L 168.01 338.63
  L 168.06 339.06
  L 167.91 339.46
  L 167.58 339.77
  L 167.06 339.88
  L 166.57 340.01
  L 166.32 340.46
  L 165.35 347.68
  L 165.44 355.50
  L 92.56 291.86
  L 89.12 287.56
  L 84.85 283.64
  L 77.15 277.00
  L 71.52 271.33
  L 69.26 269.52
  L 67.73 268.22
  L 67.02 266.97
  L 66.70 266.18
  L 64.11 261.07
  L 63.89 260.35
  L 63.53 259.16
  L 62.58 258.42
  L 62.23 258.18
  L 62.02 257.79
  L 60.14 251.25
  L 59.81 248.52
  L 60.10 244.74
  L 60.23 244.40
  L 60.52 244.14
  L 60.74 244.03
  L 60.88 243.90
  L 60.91 243.73
  L 61.34 239.02
  L 62.16 236.66
  L 62.29 236.29
  L 62.37 235.73
  L 62.68 234.66
  L 63.33 234.03
  L 63.78 233.28
  L 64.38 230.72
  L 64.79 229.86
  L 65.10 228.62
  L 66.04 223.54
  Z"
/>
<path fill="#13013e" d="
  M 438.15 237.31
  L 436.70 233.93
  L 434.69 230.91
  L 433.76 230.24
  L 433.76 230.24
  L 431.54 229.35
  L 428.93 229.11
  L 427.05 227.94
  L 427.74 226.98
  L 429.97 225.87
  L 433.97 225.17
  L 440.07 225.50
  L 441.54 225.64
  L 442.36 226.40
  L 442.40 232.14
  L 441.71 234.26
  L 440.52 235.89
  L 438.15 237.31
  Z"
/>
<path fill="#ffffff" d="
  M 396.2330 232.9263
  L 395.6990 234.7124
  L 394.3553 236.1830
  L 392.4064 237.1143
  L 390.1489 237.3644
  L 387.9267 236.8952
  L 386.0779 235.7782
  L 384.8841 234.1835
  L 384.5270 232.3537
  L 385.0610 230.5676
  L 386.4047 229.0970
  L 388.3536 228.1657
  L 390.6111 227.9156
  L 392.8333 228.3848
  L 394.6821 229.5018
  L 395.8759 231.0965
  L 396.2330 232.9263
  Z"
/>
<path fill="#5f7ab0" d="
  M 438.15 237.31
  L 435.91 237.23
  L 435.83 237.09
  L 432.71 232.01
  L 428.93 229.11
  L 431.54 229.35
  L 433.76 230.24
  L 434.69 230.91
  L 436.70 233.93
  L 438.15 237.31
  Z"
/>
<path fill="#5f7ab0" d="
  M 73.39 230.59
  L 82.00 238.12
  L 94.42 249.27
  L 105.48 259.23
  L 113.78 266.71
  L 121.33 273.96
  L 129.72 281.13
  L 137.19 287.94
  L 148.39 298.26
  L 159.64 308.33
  L 171.77 319.23
  L 181.05 327.46
  L 217.64 361.33
  L 225.73 368.49
  L 234.03 375.84
  L 239.85 381.72
  L 243.97 385.41
  L 246.38 387.41
  L 256.54 396.42
  L 262.06 401.96
  L 265.81 405.21
  L 270.09 407.89
  L 274.27 409.59
  L 278.64 410.40
  L 276.94 411.28
  L 269.41 415.01
  L 263.34 417.40
  L 256.02 419.01
  L 248.69 419.07
  L 243.55 418.18
  L 238.57 416.54
  L 233.84 414.16
  L 229.43 411.06
  L 226.66 408.86
  L 221.27 404.38
  L 205.63 390.53
  L 193.05 379.63
  L 180.52 368.65
  L 179.07 367.36
  L 175.46 364.31
  L 165.44 355.50
  L 165.35 347.68
  L 166.32 340.46
  L 166.57 340.01
  L 167.06 339.88
  L 167.58 339.77
  L 167.91 339.46
  L 168.06 339.06
  L 168.01 338.63
  L 165.87 334.66
  L 162.53 332.76
  L 157.68 331.15
  L 152.88 329.60
  L 148.73 329.85
  L 144.44 331.47
  L 143.70 331.41
  L 143.46 331.42
  L 143.34 331.64
  L 143.28 331.98
  L 143.27 332.01
  L 143.24 332.02
  L 140.95 332.42
  L 140.68 332.40
  L 140.45 332.21
  L 140.10 331.87
  L 139.36 331.71
  L 138.43 331.61
  L 137.09 330.81
  L 137.02 330.67
  L 137.07 330.50
  L 137.15 330.25
  L 136.89 330.16
  L 136.36 330.04
  L 135.80 329.60
  L 135.21 328.88
  L 133.61 325.77
  L 129.60 316.44
  L 124.05 308.00
  L 117.49 300.14
  L 108.06 288.67
  L 105.75 286.30
  L 104.30 284.70
  L 104.28 284.67
  L 104.11 284.41
  L 102.78 282.91
  L 93.03 273.71
  L 83.74 264.07
  L 82.98 262.97
  L 82.04 261.71
  L 78.64 258.14
  L 76.27 254.61
  L 74.42 250.67
  L 74.17 250.31
  L 73.75 250.16
  L 72.67 249.72
  L 72.31 248.40
  L 72.98 243.28
  L 73.01 241.64
  L 73.07 239.97
  L 73.24 239.52
  L 73.37 239.06
  L 73.32 238.52
  L 72.82 235.64
  L 73.39 230.59
  Z"
/>
<path fill="#ffffff" d="
  M 390.5693 246.9586
  L 390.0227 248.7770
  L 388.6915 250.2654
  L 386.7786 251.1974
  L 384.5751 251.4310
  L 382.4165 250.9306
  L 380.6315 249.7725
  L 379.4916 248.1329
  L 379.1707 246.2614
  L 379.7173 244.4430
  L 381.0485 242.9546
  L 382.9614 242.0226
  L 385.1649 241.7890
  L 387.3235 242.2894
  L 389.1085 243.4475
  L 390.2484 245.0871
  L 390.5693 246.9586
  Z"
/>
<path fill="#5f7ab0" d="
  M 430.89 266.12
  L 411.43 276.83
  L 407.40 279.04
  L 400.80 282.50
  L 383.25 291.80
  L 364.67 301.36
  L 357.05 305.44
  L 356.88 304.18
  L 356.50 303.57
  L 355.79 303.48
  L 355.79 303.48
  L 355.65 303.54
  L 328.20 318.31
  L 314.61 325.30
  L 301.25 332.46
  L 275.96 345.87
  L 275.01 346.57
  L 274.54 347.28
  L 274.40 348.21
  L 275.33 348.11
  L 280.40 345.56
  L 285.22 343.12
  L 297.00 337.20
  L 321.41 324.14
  L 346.73 310.89
  L 351.31 308.44
  L 353.69 308.14
  L 354.08 308.16
  L 353.16 310.71
  L 352.96 313.13
  L 352.29 314.84
  L 352.43 314.90
  L 341.60 321.38
  L 337.97 322.98
  L 334.75 324.36
  L 306.91 338.99
  L 303.30 340.94
  L 297.20 344.00
  L 279.70 352.87
  L 264.50 361.18
  L 266.56 354.93
  L 269.59 349.33
  L 269.59 349.33
  L 269.59 349.33
  L 272.51 345.55
  L 275.99 342.14
  L 278.20 340.15
  L 283.22 336.23
  L 289.92 332.71
  L 303.99 324.87
  L 309.06 322.40
  L 313.24 320.46
  L 345.96 303.04
  L 349.97 301.00
  L 394.52 277.77
  L 406.59 271.25
  L 430.42 258.94
  L 430.80 258.91
  L 430.92 259.26
  L 430.89 266.12
  Z"
/>
<path fill="#ffffff" d="
  M 430.89 266.12
  L 430.79 269.12
  L 430.57 269.54
  L 430.22 269.85
  L 412.35 279.46
  L 402.70 284.44
  L 396.03 287.93
  L 381.45 295.77
  L 370.52 301.37
  L 363.91 304.76
  L 355.76 308.80
  L 355.32 309.08
  L 355.03 309.45
  L 352.96 313.13
  L 353.16 310.71
  L 354.08 308.16
  L 357.05 305.44
  L 364.67 301.36
  L 383.25 291.80
  L 400.80 282.50
  L 407.40 279.04
  L 411.43 276.83
  L 430.89 266.12
  Z"
/>
<path fill="#13013e" d="
  M 446.09 273.02
  L 459.00 273.12
  L 459.79 273.45
  L 460.12 274.25
  L 460.14 278.97
  L 459.90 279.66
  L 459.03 280.10
  L 445.33 280.38
  L 444.46 280.00
  L 444.19 279.08
  L 444.96 273.98
  L 445.24 273.40
  L 446.09 273.02
  Z"
/>
<path fill="#ffffff" d="
  M 266.05 384.99
  L 264.43 382.30
  L 263.46 379.46
  L 263.25 378.25
  L 263.08 368.89
  L 264.50 361.18
  L 279.70 352.87
  L 297.20 344.00
  L 303.30 340.94
  L 306.91 338.99
  L 334.75 324.36
  L 337.97 322.98
  L 341.60 321.38
  L 352.43 314.90
  L 430.25 274.21
  L 430.37 274.17
  L 430.99 274.66
  L 430.94 279.37
  L 430.79 279.94
  L 430.33 280.36
  L 390.63 300.99
  L 386.57 303.09
  L 373.43 309.83
  L 365.17 314.25
  L 351.36 321.34
  L 342.13 325.82
  L 314.85 340.22
  L 307.55 343.66
  L 301.10 346.90
  L 297.95 348.60
  L 271.02 362.77
  L 270.15 363.67
  L 270.26 364.97
  L 270.92 365.64
  L 271.86 365.68
  L 278.97 362.76
  L 289.83 357.00
  L 303.56 349.62
  L 313.31 344.62
  L 322.20 340.33
  L 334.06 334.16
  L 348.15 326.76
  L 356.21 322.89
  L 363.64 319.36
  L 373.43 314.15
  L 388.58 305.92
  L 395.54 302.49
  L 401.27 299.75
  L 430.80 284.04
  L 430.97 284.11
  L 430.97 284.14
  L 430.93 290.81
  L 430.74 291.13
  L 412.22 300.94
  L 407.54 303.31
  L 392.32 311.15
  L 386.03 314.58
  L 372.46 321.63
  L 362.68 326.41
  L 335.78 340.63
  L 327.85 344.34
  L 322.23 347.30
  L 317.96 349.66
  L 300.21 358.96
  L 290.62 363.75
  L 280.05 368.99
  L 271.40 373.36
  L 270.37 374.26
  L 270.17 375.61
  L 270.21 375.79
  L 271.90 376.96
  L 273.09 376.83
  L 430.27 295.64
  L 430.77 295.57
  L 430.93 296.05
  L 430.87 300.80
  L 430.61 301.64
  L 429.87 302.08
  L 429.47 302.19
  L 427.73 302.92
  L 395.08 320.46
  L 391.86 321.95
  L 388.89 323.31
  L 357.33 340.23
  L 351.31 343.15
  L 345.20 346.13
  L 340.91 348.91
  L 340.26 349.83
  L 340.45 350.96
  L 340.56 351.13
  L 341.12 351.56
  L 342.07 351.74
  L 343.01 351.45
  L 356.45 344.50
  L 364.05 340.62
  L 376.20 334.05
  L 388.74 327.25
  L 397.67 322.77
  L 405.52 318.90
  L 423.80 309.18
  L 427.12 307.26
  L 430.32 305.39
  L 430.81 305.32
  L 430.98 305.80
  L 430.98 311.05
  L 430.83 311.67
  L 430.39 312.13
  L 416.37 320.00
  L 403.24 326.70
  L 383.25 337.50
  L 373.47 342.61
  L 363.66 347.73
  L 354.01 352.96
  L 341.01 360.15
  L 333.23 364.12
  L 326.74 367.35
  L 309.05 376.97
  L 302.52 380.58
  L 292.52 385.90
  L 282.26 391.02
  L 282.12 391.09
  L 279.98 391.64
  L 275.75 391.41
  L 271.99 390.19
  L 271.99 390.19
  L 268.79 388.06
  L 266.05 384.99
  Z"
/>
<path fill="#5f7ab0" d="
  M 142.56 274.73
  L 145.00 276.88
  L 147.24 277.43
  L 147.24 277.43
  L 147.32 277.42
  L 148.11 287.87
  L 147.96 288.43
  L 147.40 288.58
  L 146.42 288.38
  L 144.55 286.92
  L 143.13 283.81
  L 142.45 279.43
  L 142.56 274.73
  Z"
/>
<path fill="#5f7ab0" d="
  M 41.70 280.32
  L 50.22 288.16
  L 56.92 294.69
  L 59.51 297.38
  L 63.05 301.83
  L 51.67 291.97
  L 40.76 281.41
  L 40.57 281.03
  L 40.79 280.65
  L 41.70 280.32
  Z"
/>
<path fill="#5f7ab0" d="
  M 167.28 298.02
  L 169.89 299.54
  L 172.52 300.29
  L 173.33 309.69
  L 173.03 310.99
  L 171.73 310.64
  L 170.08 309.55
  L 168.49 307.87
  L 167.81 305.66
  L 167.28 298.02
  Z"
/>
<path fill="#13013e" d="
  M 357.05 305.44
  L 354.08 308.16
  L 353.69 308.14
  L 351.31 308.44
  L 346.73 310.89
  L 321.41 324.14
  L 297.00 337.20
  L 285.22 343.12
  L 280.40 345.56
  L 275.33 348.11
  L 274.40 348.21
  L 274.54 347.28
  L 275.01 346.57
  L 275.96 345.87
  L 301.25 332.46
  L 314.61 325.30
  L 328.20 318.31
  L 355.65 303.54
  L 355.79 303.48
  L 356.50 303.57
  L 356.88 304.18
  L 357.05 305.44
  Z"
/>
<path fill="#13013e" d="
  M 51.45 324.96
  L 38.92 315.10
  L 38.71 313.84
  L 38.67 313.38
  L 39.00 313.10
  L 48.39 309.23
  L 49.30 309.25
  L 66.15 317.14
  L 66.78 318.11
  L 66.46 319.54
  L 63.93 321.39
  L 53.49 325.40
  L 52.03 325.48
  L 51.45 324.96
  Z"
/>
<path fill="#5f7ab0" d="
  M 38.92 315.10
  L 51.45 324.96
  L 39.16 316.09
  L 38.83 315.62
  L 38.92 315.10
  Z"
/>
<path fill="#ffffff" d="
  M 444.68 316.02
  L 445.01 316.83
  L 444.99 316.87
  L 444.31 317.60
  L 435.17 322.38
  L 418.62 331.05
  L 410.58 335.47
  L 405.83 338.21
  L 397.28 342.76
  L 390.08 346.12
  L 381.09 351.17
  L 380.76 351.36
  L 392.15 344.39
  L 404.29 338.07
  L 407.47 336.19
  L 419.43 329.47
  L 425.86 325.91
  L 435.34 321.08
  L 444.68 316.02
  Z"
/>
<path fill="#180024" d="
  M 370.06 364.01
  L 369.89 359.66
  L 369.58 358.95
  L 369.55 358.96
  L 369.64 358.59
  L 369.64 358.59
  L 370.45 357.34
  L 372.00 356.33
  L 380.76 351.36
  L 381.09 351.17
  L 390.08 346.12
  L 397.28 342.76
  L 405.83 338.21
  L 410.58 335.47
  L 418.62 331.05
  L 435.17 322.38
  L 444.31 317.60
  L 444.99 316.87
  L 445.01 316.83
  L 446.79 316.60
  L 447.18 316.90
  L 447.30 317.37
  L 447.24 321.37
  L 446.21 323.06
  L 370.06 364.01
  Z"
/>
<path fill="#13013e" d="
  M 157.68 331.15
  L 159.46 332.58
  L 159.37 333.48
  L 153.71 339.06
  L 153.32 339.25
  L 152.96 338.98
  L 149.91 336.43
  L 144.75 334.77
  L 144.05 334.42
  L 143.73 333.96
  L 143.72 333.93
  L 143.72 333.93
  L 143.71 332.85
  L 144.44 331.47
  L 148.73 329.85
  L 152.88 329.60
  L 157.68 331.15
  Z"
/>
<path fill="#13013e" d="
  M 84.13 336.85
  L 81.02 340.29
  L 78.00 342.33
  L 73.02 346.32
  L 66.64 355.65
  L 61.15 366.11
  L 60.26 367.18
  L 59.99 365.82
  L 60.33 362.31
  L 61.21 359.52
  L 61.35 359.23
  L 63.61 353.93
  L 65.12 351.24
  L 65.92 349.65
  L 65.93 348.32
  L 65.84 348.09
  L 67.21 345.56
  L 68.11 344.61
  L 72.01 341.08
  L 74.98 338.74
  L 77.84 337.25
  L 80.61 336.54
  L 83.46 336.67
  L 84.13 336.85
  Z"
/>
<path fill="#180024" d="
  M 84.13 336.85
  L 88.59 338.56
  L 89.48 338.55
  L 95.15 337.41
  L 86.14 342.34
  L 79.35 347.35
  L 78.27 350.00
  L 73.31 357.04
  L 71.89 360.42
  L 68.38 370.17
  L 67.19 377.53
  L 66.85 384.68
  L 66.88 384.78
  L 66.99 384.82
  L 66.99 384.82
  L 67.12 384.77
  L 67.15 384.64
  L 67.40 380.04
  L 67.41 380.00
  L 69.35 372.22
  L 72.29 364.93
  L 76.25 358.09
  L 81.21 351.74
  L 81.34 351.45
  L 80.97 351.02
  L 82.78 350.15
  L 86.98 346.36
  L 91.87 343.41
  L 96.77 341.71
  L 101.94 341.21
  L 105.36 339.57
  L 108.52 341.63
  L 110.88 344.11
  L 113.07 348.56
  L 113.98 354.07
  L 113.97 359.64
  L 113.28 365.08
  L 113.28 365.08
  L 111.96 370.22
  L 110.01 375.24
  L 110.32 376.33
  L 119.37 382.01
  L 127.36 386.26
  L 136.87 392.27
  L 139.37 394.06
  L 140.21 394.23
  L 140.90 393.73
  L 140.90 393.73
  L 140.94 393.65
  L 142.17 392.17
  L 141.74 394.17
  L 140.17 397.69
  L 137.60 402.35
  L 135.54 407.25
  L 135.40 407.72
  L 135.38 408.21
  L 135.37 409.59
  L 134.24 412.98
  L 132.80 417.63
  L 132.83 419.07
  L 132.77 421.07
  L 132.94 423.74
  L 133.95 425.06
  L 134.43 424.96
  L 134.45 424.88
  L 137.08 413.05
  L 137.45 411.83
  L 139.96 406.01
  L 141.52 402.73
  L 145.16 396.42
  L 147.01 393.86
  L 151.80 387.77
  L 152.75 386.82
  L 152.75 386.82
  L 152.75 386.82
  L 156.70 383.40
  L 161.07 380.41
  L 171.09 375.74
  L 174.77 377.18
  L 177.44 378.91
  L 181.68 381.43
  L 184.52 383.17
  L 187.38 386.57
  L 189.10 391.60
  L 189.53 397.98
  L 188.18 407.53
  L 185.01 417.38
  L 185.01 418.35
  L 185.67 419.05
  L 188.36 421.34
  L 189.18 424.11
  L 188.59 427.78
  L 186.58 431.71
  L 183.95 434.57
  L 180.72 435.93
  L 180.72 435.93
  L 178.81 435.76
  L 176.84 434.90
  L 175.40 435.16
  L 168.46 443.92
  L 162.23 448.62
  L 156.38 451.15
  L 154.19 451.66
  L 148.90 451.48
  L 143.93 449.42
  L 140.75 447.68
  L 137.36 445.80
  L 135.11 443.92
  L 134.03 442.65
  L 131.70 438.64
  L 130.33 433.91
  L 130.15 423.90
  L 131.32 415.84
  L 133.67 407.87
  L 133.69 407.30
  L 133.20 406.96
  L 129.08 405.10
  L 120.90 400.15
  L 112.90 395.16
  L 101.41 388.12
  L 100.20 388.39
  L 92.41 397.91
  L 86.18 402.43
  L 85.65 402.65
  L 78.97 404.90
  L 73.99 404.92
  L 70.23 403.25
  L 67.01 401.22
  L 62.11 397.94
  L 58.89 394.70
  L 57.87 393.22
  L 55.81 386.99
  L 55.81 386.99
  L 55.04 381.58
  L 55.13 375.98
  L 56.96 364.40
  L 56.83 364.13
  L 56.19 363.84
  L 53.15 362.11
  L 52.10 360.43
  L 52.09 360.34
  L 52.23 355.47
  L 53.68 351.33
  L 53.68 351.33
  L 53.68 351.33
  L 55.53 348.83
  L 58.06 346.71
  L 59.77 346.05
  L 62.98 347.04
  L 65.84 348.09
  L 65.93 348.32
  L 65.92 349.65
  L 65.12 351.24
  L 63.61 353.93
  L 61.35 359.23
  L 61.21 359.52
  L 60.33 362.31
  L 59.99 365.82
  L 60.26 367.18
  L 61.15 366.11
  L 66.64 355.65
  L 73.02 346.32
  L 78.00 342.33
  L 81.02 340.29
  L 84.13 336.85
  Z"
/>
<clipPath id="clipping-path-2">
<path d="
  M 85.91 374.09
  L 85.26 377.51
  L 85.71 380.55
  L 88.06 384.08
  L 88.90 384.55
  L 88.95 383.58
  L 88.80 380.83
  L 89.43 377.74
  L 90.80 374.29
  L 92.50 371.63
  L 94.41 369.83
  L 96.73 368.89
  L 98.66 368.91
  L 100.80 369.64
  L 101.28 369.71
  L 101.47 369.26
  L 101.32 367.13
  L 100.53 365.49
  L 100.20 365.12
  L 98.48 363.93
  L 96.11 363.41
  L 93.67 363.80
  L 91.14 365.10
  L 89.10 367.10
  L 87.26 370.15
  L 85.91 374.09
  Z
  M 163.15 416.96
  L 161.57 422.76
  L 161.54 423.09
  L 161.56 423.15
  L 161.62 423.14
  L 161.63 423.14
  L 161.55 423.11
  L 161.51 423.09
  L 161.50 423.04
  L 163.94 416.49
  L 167.51 410.83
  L 167.51 410.83
  L 172.83 405.53
  L 179.56 401.34
  L 180.78 401.47
  L 181.13 401.33
  L 180.91 401.01
  L 180.01 400.63
  L 178.24 399.00
  L 176.47 398.27
  L 174.38 398.28
  L 169.49 400.18
  L 164.33 404.56
  L 164.33 404.56
  L 160.40 409.59
  L 157.37 415.47
  L 156.82 417.64
  L 157.09 419.47
  L 157.60 420.34
  L 159.26 421.54
  L 159.98 419.55
  L 160.24 418.59
  L 160.24 418.59
  L 161.29 417.57
  L 163.15 416.96
  Z"/>
</clipPath>
<g stroke-width="5.00" fill="none" stroke-linecap="butt" clip-path="url(#clipping-path-2)">
<path stroke="#afbdd8" vector-effect="non-scaling-stroke" d="
  M 89.43 377.74
  L 86.45 375.20
  L 85.91 374.09"
/>
<path stroke="#393e77" vector-effect="non-scaling-stroke" d="
  M 180.01 400.63
  L 179.53 400.76"
/>
<path stroke="#89809f" vector-effect="non-scaling-stroke" d="
  M 179.53 400.76
  L 175.82 401.30
  L 175.29 401.56
  L 171.95 403.77
  L 169.07 406.40
  L 169.07 406.40
  L 169.07 406.40
  L 165.59 411.20
  L 163.15 416.96"
/>
<path stroke="#afbdd8" vector-effect="non-scaling-stroke" d="
  M 179.53 400.76
  L 179.56 401.34"
/>
</g>
<path fill="#13013e" d="
  M 95.15 337.41
  L 95.69 337.31
  L 100.38 337.53
  L 105.36 339.57
  L 101.94 341.21
  L 96.77 341.71
  L 91.87 343.41
  L 86.98 346.36
  L 82.78 350.15
  L 80.97 351.02
  L 78.59 349.93
  L 78.27 350.00
  L 79.35 347.35
  L 86.14 342.34
  L 95.15 337.41
  Z"
/>
<path fill="#5f7ab0" d="
  M 221.00 344.31
  L 223.94 347.76
  L 225.46 348.90
  L 225.39 357.75
  L 225.01 358.85
  L 223.89 358.56
  L 222.61 357.50
  L 222.25 357.09
  L 220.61 353.27
  L 220.40 348.63
  L 221.00 344.31
  Z"
/>
<path fill="#180024" d="
  M 454.0952 347.7618
  L 453.4497 348.3962
  L 447.4299 348.3437
  L 446.7955 347.6981
  L 446.8048 346.6382
  L 447.4503 346.0038
  L 453.4701 346.0563
  L 454.1045 346.7019
  L 454.0952 347.7618
  Z"
/>
<path fill="#13013e" d="
  M 172.69 354.14
  L 171.45 352.79
  L 172.79 351.55
  L 175.86 350.17
  L 178.19 349.68
  L 180.40 350.30
  L 185.34 353.22
  L 188.17 355.79
  L 188.73 357.45
  L 188.73 360.77
  L 188.67 361.78
  L 188.64 361.93
  L 187.86 362.19
  L 184.06 360.35
  L 181.81 359.90
  L 181.24 359.74
  L 180.84 359.47
  L 172.69 354.14
  Z"
/>
<path fill="#ffffff" d="
  M 78.27 350.00
  L 78.59 349.93
  L 80.97 351.02
  L 81.34 351.45
  L 81.21 351.74
  L 76.25 358.09
  L 72.29 364.93
  L 69.35 372.22
  L 67.41 380.00
  L 67.40 380.04
  L 67.15 384.64
  L 67.12 384.77
  L 66.99 384.82
  L 66.99 384.82
  L 66.88 384.78
  L 66.85 384.68
  L 67.19 377.53
  L 68.38 370.17
  L 71.89 360.42
  L 73.31 357.04
  L 78.27 350.00
  Z"
/>
<path fill="#ffffff" d="
  M 61.58 351.55
  L 61.02 352.24
  L 57.39 358.66
  L 57.29 358.82
  L 56.17 358.77
  L 55.93 357.34
  L 56.54 355.54
  L 59.90 351.07
  L 60.46 350.78
  L 61.15 350.83
  L 61.40 350.92
  L 61.47 350.95
  L 61.58 351.55
  Z"
/>
<path fill="#180024" d="
  M 416.76 368.23
  L 416.40 366.69
  L 415.93 358.48
  L 418.01 354.86
  L 421.55 352.61
  L 426.99 351.28
  L 432.74 351.18
  L 437.95 352.43
  L 441.98 354.81
  L 443.55 356.92
  L 443.84 358.13
  L 444.01 363.46
  L 442.89 366.86
  L 440.63 368.94
  L 436.82 370.49
  L 431.51 371.48
  L 426.33 371.40
  L 426.33 371.40
  L 421.49 370.31
  L 416.76 368.23
  Z"
/>
<path fill="#5f7ab0" d="
  M 326.02 356.96
  L 334.89 352.20
  L 335.91 352.16
  L 336.57 352.95
  L 336.80 353.96
  L 336.20 355.25
  L 326.51 360.25
  L 325.17 360.05
  L 324.93 358.72
  L 325.53 357.48
  L 325.68 357.24
  L 326.02 356.96
  Z"
/>
<path fill="#5f7ab0" d="
  M 440.3900 360.1719
  L 439.6037 361.9298
  L 437.3584 363.4228
  L 433.9958 364.4237
  L 430.0280 364.7800
  L 426.0590 364.4375
  L 422.6930 363.4484
  L 420.4424 361.9632
  L 419.6500 360.2081
  L 420.4363 358.4502
  L 422.6816 356.9572
  L 426.0442 355.9563
  L 430.0120 355.6000
  L 433.9810 355.9425
  L 437.3470 356.9316
  L 439.5976 358.4168
  L 440.3900 360.1719
  Z"
/>
<path fill="#ffffff" d="
  M 369.55 358.96
  L 369.58 358.95
  L 369.89 359.66
  L 368.02 361.13
  L 365.51 362.05
  L 363.93 360.27
  L 363.76 359.87
  L 363.97 359.49
  L 366.22 357.80
  L 368.12 357.51
  L 369.55 358.96
  Z"
/>
<path fill="#5f7ab0" d="
  M 415.93 358.48
  L 416.40 366.69
  L 416.76 368.23
  L 412.93 366.45
  L 412.66 366.21
  L 411.47 364.69
  L 411.10 363.21
  L 412.34 360.52
  L 415.93 358.48
  Z"
/>
<path fill="#5f7ab0" d="
  M 369.89 359.66
  L 370.06 364.01
  L 365.90 365.63
  L 365.51 362.05
  L 368.02 361.13
  L 369.89 359.66
  Z"
/>
<path fill="#ffffff" d="
  M 364.84 362.58
  L 361.35 365.05
  L 358.11 366.11
  L 357.06 364.58
  L 355.56 364.81
  L 346.33 369.84
  L 326.30 380.91
  L 321.34 383.87
  L 317.47 385.82
  L 314.35 387.31
  L 287.55 402.25
  L 281.77 404.46
  L 276.36 404.59
  L 276.36 404.59
  L 276.36 404.59
  L 271.57 402.79
  L 267.10 399.13
  L 265.04 396.38
  L 263.77 393.41
  L 263.77 393.41
  L 263.33 390.63
  L 263.50 387.68
  L 266.20 394.73
  L 268.15 397.50
  L 270.50 399.78
  L 270.50 399.78
  L 274.57 402.17
  L 279.47 403.53
  L 279.50 403.53
  L 279.50 403.53
  L 282.16 403.45
  L 284.98 402.40
  L 312.44 387.65
  L 318.13 385.00
  L 323.56 382.15
  L 334.22 376.11
  L 344.14 370.43
  L 355.54 364.02
  L 362.13 360.49
  L 362.60 360.38
  L 363.00 360.61
  L 364.84 362.58
  Z"
/>
<path fill="#5f7ab0" d="
  M 364.84 362.58
  L 365.23 366.25
  L 358.31 370.13
  L 358.11 366.11
  L 361.35 365.05
  L 364.84 362.58
  Z"
/>
<path fill="#ffffff" d="
  M 89.43 377.74
  L 86.45 375.20
  L 85.91 374.09
  L 87.26 370.15
  L 89.10 367.10
  L 91.14 365.10
  L 93.67 363.80
  L 96.11 363.41
  L 98.48 363.93
  L 100.20 365.12
  L 100.53 365.49
  L 101.32 367.13
  L 101.47 369.26
  L 101.28 369.71
  L 100.80 369.64
  L 98.66 368.91
  L 96.73 368.89
  L 94.41 369.83
  L 92.50 371.63
  L 90.80 374.29
  L 89.43 377.74
  Z"
/>
<path fill="#5f7ab0" d="
  M 240.68 364.92
  L 241.95 366.54
  L 244.43 369.10
  L 245.07 369.42
  L 245.14 377.67
  L 244.98 378.14
  L 244.49 378.19
  L 243.52 377.82
  L 241.89 376.26
  L 240.77 373.35
  L 240.39 369.47
  L 240.68 364.92
  Z"
/>
<path fill="#5f7ab0" d="
  M 85.91 374.09
  L 86.45 375.20
  L 89.43 377.74
  L 88.80 380.83
  L 88.95 383.58
  L 88.90 384.55
  L 88.06 384.08
  L 85.71 380.55
  L 85.26 377.51
  L 85.91 374.09
  Z"
/>
<path fill="#ffffff" d="
  M 135.51 402.69
  L 135.17 402.78
  L 95.62 379.58
  L 94.53 378.52
  L 94.44 377.45
  L 96.11 374.60
  L 96.11 374.60
  L 97.08 374.16
  L 98.55 374.59
  L 138.09 397.80
  L 138.18 398.14
  L 135.51 402.69
  Z"
/>
<path fill="#13013e" d="
  M 424.82 409.47
  L 422.56 407.90
  L 420.76 407.30
  L 417.71 406.60
  L 408.55 403.96
  L 399.09 401.14
  L 391.17 398.81
  L 387.96 397.27
  L 385.84 395.05
  L 384.74 391.40
  L 385.79 388.72
  L 387.15 387.02
  L 387.94 386.48
  L 397.76 380.65
  L 406.78 374.56
  L 407.24 374.36
  L 407.72 374.38
  L 422.15 378.65
  L 433.21 382.01
  L 442.14 384.53
  L 445.69 386.46
  L 446.74 388.52
  L 446.77 391.00
  L 445.86 393.73
  L 444.22 395.78
  L 443.27 396.52
  L 429.04 406.70
  L 424.82 409.47
  Z"
/>
<path fill="#13013e" d="
  M 171.09 375.74
  L 161.07 380.41
  L 156.70 383.40
  L 152.75 386.82
  L 151.80 387.77
  L 147.01 393.86
  L 145.16 396.42
  L 141.52 402.73
  L 139.96 406.01
  L 137.45 411.83
  L 137.08 413.05
  L 134.45 424.88
  L 134.43 424.96
  L 133.95 425.06
  L 132.94 423.74
  L 132.77 421.07
  L 132.83 419.07
  L 132.80 417.63
  L 134.24 412.98
  L 135.37 409.59
  L 135.38 408.21
  L 135.40 407.72
  L 135.54 407.25
  L 137.60 402.35
  L 140.17 397.69
  L 141.74 394.17
  L 142.17 392.17
  L 146.21 386.98
  L 157.12 377.90
  L 160.11 376.22
  L 160.11 376.22
  L 165.24 375.12
  L 171.09 375.74
  Z"
/>
<path fill="#ffffff" d="
  M 142.84 433.01
  L 142.62 430.26
  L 142.91 425.54
  L 145.37 413.47
  L 149.11 403.89
  L 152.74 397.93
  L 155.89 393.40
  L 158.31 390.37
  L 161.11 387.84
  L 165.13 385.38
  L 169.72 383.71
  L 170.91 383.56
  L 169.94 384.26
  L 169.62 384.44
  L 164.34 388.12
  L 159.45 392.97
  L 154.76 399.21
  L 149.79 407.48
  L 145.94 415.94
  L 145.94 415.94
  L 143.70 424.37
  L 142.77 433.26
  L 142.78 433.31
  L 142.80 433.35
  L 142.81 433.37
  L 142.83 433.38
  L 142.88 433.40
  L 142.88 433.35
  L 142.84 433.01
  Z"
/>
<path fill="#ffffff" d="
  M 390.37 390.85
  L 425.23 401.80
  L 426.35 401.61
  L 440.69 391.51
  L 441.68 391.17
  L 441.57 392.22
  L 440.16 393.66
  L 426.10 404.32
  L 425.09 404.50
  L 390.32 393.73
  L 389.52 393.20
  L 389.25 392.31
  L 389.24 391.69
  L 389.52 390.88
  L 390.37 390.85
  Z"
/>
<path fill="#5f7ab0" d="
  M 384.74 391.40
  L 385.84 395.05
  L 387.96 397.27
  L 391.17 398.81
  L 399.09 401.14
  L 408.55 403.96
  L 417.71 406.60
  L 420.76 407.30
  L 422.56 407.90
  L 424.82 409.47
  L 406.79 406.36
  L 394.36 403.40
  L 381.03 399.34
  L 378.33 398.86
  L 375.84 398.43
  L 375.31 398.08
  L 375.70 397.57
  L 384.74 391.40
  Z"
/>
<path fill="#180024" d="
  M 355.02 392.66
  L 358.99 392.60
  L 359.52 392.79
  L 359.79 393.40
  L 359.78 395.07
  L 359.68 395.44
  L 358.99 395.85
  L 354.01 395.87
  L 353.39 395.57
  L 353.34 394.66
  L 354.36 393.03
  L 354.56 392.82
  L 355.02 392.66
  Z"
/>
<path fill="#5f7ab0" d="
  M 57.87 393.22
  L 58.89 394.70
  L 62.11 397.94
  L 67.01 401.22
  L 70.23 403.25
  L 73.99 404.92
  L 78.97 404.90
  L 85.65 402.65
  L 86.18 402.43
  L 93.38 407.20
  L 99.30 411.83
  L 113.17 422.95
  L 121.12 429.14
  L 129.06 435.43
  L 129.83 435.80
  L 129.92 435.81
  L 130.30 435.70
  L 130.41 435.32
  L 130.33 433.91
  L 131.70 438.64
  L 134.03 442.65
  L 135.11 443.92
  L 137.36 445.80
  L 140.75 447.68
  L 143.93 449.42
  L 148.90 451.48
  L 154.19 451.66
  L 156.38 451.15
  L 162.23 448.62
  L 168.46 443.92
  L 167.97 445.65
  L 167.97 445.66
  L 168.34 446.21
  L 168.55 446.39
  L 168.73 446.70
  L 168.75 447.14
  L 168.43 447.46
  L 151.44 455.12
  L 133.51 461.86
  L 128.11 463.30
  L 122.68 463.94
  L 115.83 463.59
  L 111.05 462.35
  L 106.76 460.26
  L 103.91 457.69
  L 102.78 455.00
  L 102.74 454.21
  L 103.25 451.71
  L 104.35 449.90
  L 106.06 448.33
  L 113.02 444.23
  L 120.35 441.56
  L 120.35 441.56
  L 121.75 441.22
  L 122.15 440.43
  L 122.08 440.32
  L 118.47 437.24
  L 116.18 435.52
  L 104.44 426.16
  L 92.70 416.80
  L 86.08 411.06
  L 79.48 406.15
  L 79.28 406.02
  L 77.21 405.63
  L 74.54 406.39
  L 51.68 415.33
  L 51.42 415.42
  L 46.44 416.42
  L 41.12 416.36
  L 35.54 415.23
  L 31.65 412.98
  L 29.58 410.41
  L 29.14 409.31
  L 29.31 407.01
  L 30.55 404.78
  L 32.89 402.39
  L 35.84 400.41
  L 47.15 395.72
  L 57.87 393.22
  Z"
/>
<path fill="#13013e" d="
  M 180.01 400.63
  L 179.53 400.76
  L 175.82 401.30
  L 175.29 401.56
  L 171.95 403.77
  L 169.07 406.40
  L 169.07 406.40
  L 169.07 406.40
  L 165.59 411.20
  L 163.15 416.96
  L 161.29 417.57
  L 160.24 418.59
  L 160.24 418.59
  L 159.98 419.55
  L 159.26 421.54
  L 157.60 420.34
  L 157.09 419.47
  L 157.09 419.47
  L 156.82 417.64
  L 157.37 415.47
  L 160.40 409.59
  L 164.33 404.56
  L 169.49 400.18
  L 174.38 398.28
  L 176.47 398.27
  L 178.24 399.00
  L 180.01 400.63
  Z"
/>
<path fill="#ffffff" d="
  M 179.53 400.76
  L 179.56 401.34
  L 172.83 405.53
  L 167.51 410.83
  L 163.94 416.49
  L 161.50 423.04
  L 161.51 423.09
  L 161.55 423.11
  L 161.63 423.14
  L 161.62 423.14
  L 161.56 423.15
  L 161.54 423.09
  L 161.57 422.76
  L 163.15 416.96
  L 165.59 411.20
  L 169.07 406.40
  L 169.07 406.40
  L 169.07 406.40
  L 171.95 403.77
  L 175.29 401.56
  L 175.82 401.30
  L 179.53 400.76
  Z"
/>
<path fill="#5f7ab0" d="
  M 179.53 400.76
  L 180.01 400.63
  L 180.91 401.01
  L 181.13 401.33
  L 180.78 401.47
  L 179.56 401.34
  L 179.53 400.76
  Z"
/>
<path fill="#180024" d="
  M 324.91 419.47
  L 323.09 419.49
  L 317.13 416.36
  L 315.75 416.32
  L 311.32 418.31
  L 310.95 418.65
  L 311.31 419.01
  L 317.43 422.14
  L 318.61 427.15
  L 318.22 427.42
  L 316.81 427.84
  L 315.06 427.66
  L 305.56 422.67
  L 303.71 420.87
  L 303.62 420.03
  L 304.13 416.49
  L 304.32 416.00
  L 304.69 415.67
  L 318.90 407.87
  L 319.50 407.71
  L 320.10 407.87
  L 328.96 412.73
  L 329.86 414.06
  L 329.31 415.56
  L 328.83 415.87
  L 328.21 416.13
  L 326.07 417.22
  L 325.04 418.51
  L 324.91 419.47
  Z"
/>
<path fill="#13013e" d="
  M 380.73 447.60
  L 348.55 447.42
  L 346.50 446.51
  L 345.04 445.16
  L 344.45 444.13
  L 344.19 439.32
  L 345.37 418.02
  L 346.23 414.28
  L 348.18 412.25
  L 349.34 412.03
  L 394.10 412.08
  L 394.39 412.17
  L 394.48 412.46
  L 394.78 446.70
  L 394.14 447.36
  L 380.73 447.60
  Z"
/>
<path fill="#ffffff" d="
  M 168.78 424.83
  L 168.43 425.39
  L 167.90 425.02
  L 167.74 424.80
  L 167.43 423.73
  L 168.00 420.84
  L 169.16 418.32
  L 169.16 418.32
  L 172.05 415.25
  L 172.69 414.94
  L 173.46 414.93
  L 173.93 415.02
  L 174.35 415.25
  L 174.10 415.66
  L 173.28 416.41
  L 173.28 416.41
  L 170.53 420.12
  L 168.78 424.83
  Z"
/>
<path fill="#ffffff" d="
  M 323.09 419.49
  L 317.43 422.14
  L 311.31 419.01
  L 310.95 418.65
  L 311.32 418.31
  L 315.75 416.32
  L 317.13 416.36
  L 323.09 419.49
  Z"
/>
<path fill="#ffffff" d="
  M 173.26 427.87
  L 173.25 427.88
  L 173.08 427.92
  L 173.07 427.91
  L 173.07 427.91
  L 172.49 427.13
  L 172.39 425.77
  L 173.60 422.14
  L 173.72 421.93
  L 176.11 418.95
  L 177.31 418.29
  L 178.27 418.36
  L 178.29 418.37
  L 178.34 418.42
  L 178.34 418.54
  L 173.26 427.87
  Z"
/>
<path fill="#5f7ab0" d="
  M 345.37 418.02
  L 344.19 439.32
  L 344.45 444.13
  L 345.04 445.16
  L 346.50 446.51
  L 348.55 447.42
  L 349.14 447.65
  L 349.21 447.90
  L 339.31 448.09
  L 338.54 447.41
  L 338.51 444.52
  L 340.33 418.88
  L 340.49 418.48
  L 340.89 418.33
  L 345.37 418.02
  Z"
/>
<path fill="#5068a4" d="
  M 323.09 419.49
  L 324.91 419.47
  L 325.17 422.64
  L 325.11 423.13
  L 324.85 423.52
  L 324.29 424.04
  L 324.29 424.04
  L 321.70 425.87
  L 318.61 427.15
  L 317.43 422.14
  L 323.09 419.49
  Z"
/>
<path fill="#5f7ab0" d="
  M 303.62 420.03
  L 303.71 420.87
  L 305.56 422.67
  L 315.06 427.66
  L 306.34 425.15
  L 300.29 422.13
  L 300.07 421.86
  L 300.26 421.55
  L 303.62 420.03
  Z"
/>
<path fill="#ffffff" d="
  M 177.39 429.52
  L 177.51 427.33
  L 178.25 425.21
  L 181.44 421.31
  L 182.17 421.34
  L 182.43 421.57
  L 182.76 422.14
  L 182.45 422.70
  L 180.58 424.99
  L 179.54 427.37
  L 179.08 430.08
  L 178.92 430.47
  L 178.50 430.49
  L 178.11 430.38
  L 177.39 429.52
  Z"
/>
<path fill="#13013e" d="
  M 212.94 448.83
  L 208.59 443.15
  L 203.89 439.82
  L 197.35 436.53
  L 197.65 434.57
  L 197.91 434.17
  L 198.35 433.93
  L 201.33 433.33
  L 215.78 433.11
  L 215.79 433.11
  L 216.56 433.98
  L 214.75 447.25
  L 214.05 448.51
  L 212.94 448.83
  Z"
/>
<path fill="#5f7ab0" d="
  M 197.35 436.53
  L 203.89 439.82
  L 208.59 443.15
  L 212.94 448.83
  L 209.26 449.66
  L 208.82 449.63
  L 208.53 449.29
  L 206.86 446.26
  L 203.06 442.27
  L 197.85 439.25
  L 197.10 438.52
  L 197.05 437.47
  L 197.35 436.53
  Z"
/>
<path fill="#13013e" d="
  M 264.78 442.31
  L 264.61 442.24
  L 261.86 441.62
  L 261.21 441.36
  L 261.02 440.69
  L 261.05 439.24
  L 261.75 438.43
  L 272.12 436.76
  L 272.76 436.75
  L 273.39 436.93
  L 289.25 444.35
  L 289.55 444.55
  L 289.93 445.57
  L 289.33 446.47
  L 284.55 449.59
  L 280.07 453.31
  L 278.13 453.65
  L 274.85 452.41
  L 273.73 452.05
  L 259.16 447.72
  L 258.75 447.44
  L 258.70 446.94
  L 259.20 444.84
  L 259.66 444.28
  L 264.70 442.82
  L 265.23 442.63
  L 264.78 442.31
  Z
  M 273.31 444.25
  L 270.22 443.96
  L 269.65 444.07
  L 262.96 446.10
  L 261.98 446.67
  L 263.08 446.91
  L 278.18 446.80
  L 278.90 446.61
  L 278.30 446.16
  L 273.31 444.25
  Z"
/>
<path fill="#ffffff" d="
  M 390.78 442.05
  L 389.78 443.05
  L 349.30 443.05
  L 348.30 442.05
  L 348.30 441.49
  L 349.30 440.49
  L 389.78 440.49
  L 390.78 441.49
  L 390.78 442.05
  Z"
/>
<path fill="#5068a4" d="
  M 348.55 447.42
  L 380.73 447.60
  L 349.21 447.90
  L 349.14 447.65
  L 348.55 447.42
  Z"
/>
<path fill="#13013e" d="
  M 311.03 453.13
  L 301.50 450.15
  L 300.67 449.55
  L 301.29 448.74
  L 302.10 448.32
  L 302.98 448.09
  L 309.38 448.27
  L 309.38 448.27
  L 312.68 449.31
  L 315.84 451.01
  L 316.05 451.28
  L 315.80 451.51
  L 312.46 453.04
  L 311.74 453.22
  L 311.03 453.13
  Z"
/>
<path fill="#13013e" d="
  M 204.9471 455.1776
  L 204.5980 456.0684
  L 203.7213 456.4514
  L 193.4832 456.6480
  L 192.5924 456.2989
  L 192.2094 455.4222
  L 192.1929 454.5624
  L 192.5420 453.6716
  L 193.4187 453.2886
  L 203.6568 453.0920
  L 204.5476 453.4411
  L 204.9306 454.3178
  L 204.9471 455.1776
  Z"
/>
</svg>
