<?xml version="1.0" encoding="UTF-8" standalone="no"?>
<svg xmlns="http://www.w3.org/2000/svg" version="1.2" baseProfile="tiny" viewBox="0.00 0.00 500.00 500.00">
<path fill="#111210" d="
  M 282.40 121.66
  L 281.77 128.10
  L 279.89 134.28
  L 276.84 139.99
  L 272.74 144.99
  L 267.74 149.09
  L 262.03 152.14
  L 255.85 154.02
  L 249.41 154.65
  L 242.97 154.02
  L 236.79 152.14
  L 231.08 149.09
  L 226.08 144.99
  L 221.98 139.99
  L 218.93 134.28
  L 217.05 128.10
  L 216.42 121.66
  L 217.05 115.22
  L 218.93 109.04
  L 221.98 103.33
  L 226.08 98.33
  L 231.08 94.23
  L 236.79 91.18
  L 242.97 89.30
  L 249.41 88.67
  L 255.85 89.30
  L 262.03 91.18
  L 267.74 94.23
  L 272.74 98.33
  L 276.84 103.33
  L 279.89 109.04
  L 281.77 115.22
  L 282.40 121.66
  Z"
/>
<path fill="#111210" d="
  M 208.25 232.39
  L 203.48 230.28
  L 198.63 229.35
  L 198.63 229.35
  L 193.67 229.61
  L 188.64 231.07
  L 188.58 231.09
  L 188.18 230.76
  L 188.16 192.10
  L 188.66 187.92
  L 190.03 183.64
  L 191.99 179.90
  L 194.54 176.74
  L 196.37 174.74
  L 200.34 171.05
  L 206.59 168.09
  L 212.93 166.89
  L 214.01 166.86
  L 283.85 166.84
  L 286.81 167.03
  L 293.63 168.85
  L 300.21 172.61
  L 302.94 175.40
  L 304.76 177.44
  L 307.07 180.39
  L 308.83 184.10
  L 310.08 188.49
  L 310.50 192.61
  L 310.46 230.25
  L 310.45 230.33
  L 309.82 230.70
  L 304.83 229.46
  L 299.92 229.30
  L 293.45 230.77
  L 287.39 234.07
  L 286.84 234.24
  L 286.66 233.69
  L 286.75 207.91
  L 286.17 204.90
  L 284.68 202.78
  L 282.81 201.65
  L 280.68 201.25
  L 278.52 201.58
  L 276.56 202.66
  L 274.63 205.29
  L 274.03 208.53
  L 274.01 239.20
  L 273.87 239.61
  L 273.46 239.75
  L 225.48 239.74
  L 225.00 239.58
  L 224.83 239.10
  L 224.90 208.87
  L 224.19 205.05
  L 221.90 202.24
  L 220.03 201.40
  L 218.03 201.19
  L 216.07 201.61
  L 214.30 202.65
  L 212.59 204.96
  L 211.94 208.32
  L 212.00 233.71
  L 211.84 234.17
  L 211.36 234.10
  L 208.25 232.39
  Z"
/>
<path fill="#111210" d="
  M 340.76 251.74
  L 340.73 212.51
  L 341.02 209.45
  L 343.45 203.68
  L 344.05 202.77
  L 346.87 200.35
  L 351.02 199.03
  L 355.57 199.16
  L 359.57 200.62
  L 362.95 203.64
  L 364.69 207.27
  L 365.28 212.10
  L 365.27 289.66
  L 364.50 295.13
  L 362.18 299.11
  L 362.18 299.11
  L 358.83 301.37
  L 354.26 302.47
  L 349.77 302.23
  L 346.14 300.67
  L 343.84 298.59
  L 342.17 295.89
  L 341.14 292.70
  L 340.79 289.13
  L 340.82 262.49
  L 340.69 262.09
  L 340.28 261.95
  L 320.44 261.99
  L 319.75 262.20
  L 319.37 262.80
  L 317.45 267.45
  L 314.62 271.16
  L 311.40 273.64
  L 307.49 275.42
  L 305.79 275.89
  L 300.43 276.11
  L 295.36 274.60
  L 291.01 271.58
  L 287.79 267.25
  L 287.37 266.37
  L 285.76 260.39
  L 286.26 254.39
  L 287.49 251.26
  L 289.31 248.49
  L 291.60 246.14
  L 294.29 244.26
  L 297.27 242.91
  L 300.46 242.13
  L 303.76 241.98
  L 307.07 242.52
  L 310.00 243.64
  L 312.79 245.41
  L 317.31 250.43
  L 318.34 251.91
  L 318.73 252.24
  L 319.22 252.35
  L 340.06 252.43
  L 340.59 252.26
  L 340.76 251.74
  Z"
/>
<path fill="#111210" d="
  M 157.80 262.64
  L 157.87 287.95
  L 156.97 294.84
  L 155.83 297.37
  L 154.15 299.47
  L 150.95 301.50
  L 146.55 302.52
  L 142.03 302.23
  L 138.42 300.60
  L 136.31 298.59
  L 134.79 296.02
  L 133.86 292.99
  L 133.54 289.59
  L 133.48 213.35
  L 133.80 209.15
  L 134.76 205.78
  L 136.34 203.17
  L 139.70 200.38
  L 143.82 199.01
  L 148.18 199.15
  L 152.31 200.84
  L 155.74 204.18
  L 155.74 204.18
  L 157.23 207.49
  L 157.74 211.45
  L 157.88 251.81
  L 158.04 252.30
  L 158.53 252.46
  L 179.72 252.40
  L 180.23 252.26
  L 180.56 251.87
  L 184.26 246.71
  L 186.82 244.66
  L 189.64 243.17
  L 192.70 242.25
  L 195.85 241.91
  L 199.02 242.18
  L 202.11 243.05
  L 207.20 246.18
  L 210.89 250.76
  L 212.29 253.89
  L 213.09 258.26
  L 212.72 262.64
  L 211.25 266.78
  L 208.71 270.45
  L 205.97 272.87
  L 200.66 275.50
  L 195.31 276.20
  L 189.98 275.08
  L 185.28 272.28
  L 181.54 268.02
  L 179.10 262.54
  L 178.31 261.94
  L 158.50 261.94
  L 157.98 262.12
  L 157.80 262.64
  Z"
/>
<path fill="#111210" d="
  M 96.52 262.48
  L 95.32 262.55
  L 87.58 262.36
  L 85.30 261.54
  L 83.74 260.04
  L 83.23 257.97
  L 83.17 243.68
  L 84.07 240.89
  L 85.38 239.76
  L 87.14 239.19
  L 96.53 238.94
  L 96.95 238.84
  L 97.10 238.43
  L 97.17 220.15
  L 98.08 213.99
  L 99.21 211.60
  L 100.85 209.57
  L 104.84 207.12
  L 107.82 206.44
  L 110.70 206.53
  L 113.43 207.31
  L 115.85 208.71
  L 117.88 210.64
  L 119.41 213.03
  L 120.27 215.50
  L 120.57 218.22
  L 120.72 282.89
  L 120.27 287.31
  L 118.72 291.02
  L 116.88 293.21
  L 114.31 295.09
  L 113.32 295.60
  L 109.20 296.41
  L 105.08 295.60
  L 101.18 293.24
  L 98.39 289.68
  L 97.30 285.81
  L 97.08 280.17
  L 97.09 263.01
  L 96.93 262.59
  L 96.52 262.48
  Z"
/>
<path fill="#111210" d="
  M 401.96 238.88
  L 409.61 238.91
  L 412.22 239.31
  L 414.04 240.44
  L 415.02 242.19
  L 415.30 244.62
  L 415.31 257.74
  L 415.04 259.43
  L 414.17 260.90
  L 412.83 261.96
  L 411.19 262.46
  L 402.22 262.58
  L 401.63 263.11
  L 401.63 263.12
  L 401.56 283.88
  L 400.92 288.05
  L 399.07 291.54
  L 395.21 294.78
  L 390.04 296.27
  L 387.03 296.08
  L 382.99 294.13
  L 379.45 290.11
  L 378.24 286.90
  L 377.87 283.23
  L 377.92 220.74
  L 378.37 215.53
  L 379.95 211.63
  L 382.95 208.50
  L 386.39 206.80
  L 390.59 206.43
  L 394.61 207.60
  L 398.04 210.10
  L 400.46 213.71
  L 400.65 214.16
  L 401.56 220.37
  L 401.57 238.50
  L 401.96 238.88
  Z"
/>
<path fill="#111210" d="
  M 209.02 403.04
  L 209.02 286.19
  L 209.19 285.55
  L 209.70 285.11
  L 214.80 282.25
  L 217.88 279.66
  L 221.38 274.66
  L 223.74 269.34
  L 224.67 264.53
  L 224.81 257.85
  L 224.82 253.59
  L 224.94 253.25
  L 225.26 253.15
  L 273.48 253.08
  L 273.96 253.55
  L 273.92 256.99
  L 273.97 263.54
  L 274.64 268.09
  L 277.06 274.37
  L 280.71 279.50
  L 280.71 279.50
  L 282.41 281.15
  L 289.40 285.24
  L 289.79 285.57
  L 289.93 286.08
  L 289.91 403.42
  L 290.00 403.70
  L 290.30 403.80
  L 315.86 403.81
  L 319.24 404.29
  L 321.53 405.75
  L 321.53 405.75
  L 322.62 407.79
  L 322.90 410.54
  L 322.09 413.19
  L 320.04 415.00
  L 317.21 415.64
  L 270.88 415.68
  L 267.81 415.36
  L 262.85 413.22
  L 260.63 411.15
  L 258.27 407.69
  L 257.65 406.70
  L 256.40 403.54
  L 256.02 399.47
  L 256.00 291.98
  L 255.41 289.46
  L 253.95 287.72
  L 251.48 286.38
  L 248.98 286.07
  L 246.50 286.74
  L 244.45 288.29
  L 243.04 290.57
  L 242.52 293.43
  L 242.51 401.17
  L 241.47 405.84
  L 238.54 410.63
  L 236.35 412.71
  L 233.63 414.29
  L 230.62 415.27
  L 227.56 415.61
  L 181.20 415.55
  L 179.76 415.33
  L 177.42 413.74
  L 176.00 411.12
  L 175.71 409.21
  L 176.02 407.52
  L 178.29 404.83
  L 182.00 403.81
  L 208.29 403.77
  L 208.83 403.60
  L 209.02 403.04
  Z"
/>
</svg>
